M48
; DRILL file {KiCad 9.0.2} date 2025-12-26T22:53:16+0100
; FORMAT={-:-/ absolute / metric / decimal}
; #@! TF.CreationDate,2025-12-26T22:53:16+01:00
; #@! TF.GenerationSoftware,Kicad,Pcbnew,9.0.2
; #@! TF.FileFunction,Plated,1,2,PTH
FMAT,2
METRIC
; #@! TA.AperFunction,Plated,PTH,ViaDrill
T1C0.300
; #@! TA.AperFunction,Plated,PTH,ComponentDrill
T2C0.300
; #@! TA.AperFunction,Plated,PTH,ViaDrill
T3C0.400
; #@! TA.AperFunction,Plated,PTH,ComponentDrill
T4C0.600
; #@! TA.AperFunction,Plated,PTH,ComponentDrill
T5C0.750
; #@! TA.AperFunction,Plated,PTH,ComponentDrill
T6C0.800
; #@! TA.AperFunction,Plated,PTH,ComponentDrill
T7C0.950
%
G90
G05
T1
X36.936Y-20.807
X37.55Y-45.17
X39.85Y-26.22
X39.9Y-37.57
X42.05Y-29.32
X42.15Y-33.47
X43.0Y-45.27
X43.95Y-41.32
X46.05Y-38.42
X46.85Y-29.32
X47.3Y-32.67
X51.1Y-28.22
X51.25Y-35.12
X51.3Y-38.52
X51.925Y-43.17
X53.811Y-20.832
X57.35Y-31.05
X57.6Y-20.7
X58.0Y-37.2
X58.2Y-31.4
X58.25Y-45.75
X58.8Y-29.1
X60.225Y-55.7
X60.5Y-47.9
X60.9Y-29.1
X61.0Y-49.45
X61.1Y-50.65
X61.1Y-52.15
X61.1Y-53.65
X61.1Y-59.65
X61.1Y-61.15
X61.2Y-58.15
X62.4Y-41.9
X62.5Y-49.45
X62.6Y-50.65
X62.6Y-52.15
X62.6Y-58.15
X62.6Y-59.65
X62.6Y-61.15
X62.7Y-56.65
X64.1Y-56.65
X64.1Y-58.15
X64.1Y-59.65
X64.1Y-61.15
X64.2Y-55.15
X64.3Y-43.8
X64.8Y-24.05
X65.6Y-58.15
X65.6Y-59.65
X65.6Y-61.15
X65.75Y-38.5
X65.9Y-49.45
X65.9Y-50.65
X65.9Y-52.15
X65.9Y-53.65
X67.1Y-58.15
X67.1Y-59.65
X67.1Y-61.15
X67.4Y-40.7
X67.4Y-43.9
X68.375Y-50.275
X68.4Y-47.05
X68.4Y-52.25
X68.6Y-56.65
X68.6Y-58.15
X68.6Y-59.65
X68.6Y-61.15
X69.1Y-42.575
X70.0Y-34.25
X70.03Y-28.39
X70.1Y-58.15
X70.1Y-59.65
X70.1Y-61.15
X70.325Y-54.25
X70.4Y-48.9
X70.4Y-51.4
X71.1Y-44.35
X71.8Y-36.5
X72.75Y-56.675
X72.975Y-40.5
X73.1Y-30.9
X73.15Y-51.65
X73.2Y-48.9
X74.3Y-55.4
X74.5Y-58.2
X74.55Y-60.05
X75.2Y-32.85
X77.1Y-42.7
X77.225Y-45.775
X77.35Y-59.5
X77.6Y-50.6
X78.15Y-29.85
X78.2Y-34.05
X78.6Y-40.4
X78.612Y-57.683
X79.0Y-49.0
X79.5Y-59.35
X80.3Y-31.5
X80.55Y-62.875
X81.812Y-54.483
X81.9Y-68.7
X82.7Y-36.4
X82.712Y-55.683
X82.8Y-47.4
X83.193Y-30.412
X84.7Y-51.65
X85.7Y-32.4
X85.8Y-26.0
X85.95Y-62.85
X86.1Y-35.05
X86.2Y-47.25
X87.5Y-56.0
X87.75Y-60.25
X88.4Y-42.55
X88.6Y-50.3
X89.6Y-32.5
X90.2Y-46.0
X90.3Y-29.5
X91.05Y-60.35
X91.1Y-48.6
X91.5Y-43.8
X92.3Y-23.05
X94.1Y-42.9
X94.3Y-34.85
X95.3Y-60.6
X95.4Y-68.4
X95.5Y-20.7
X95.775Y-41.1
T2
X65.29Y-55.3
X65.29Y-56.4
X65.84Y-54.75
X65.84Y-55.85
X65.84Y-56.95
X66.39Y-55.3
X66.39Y-56.4
X66.94Y-54.75
X66.94Y-55.85
X66.94Y-56.95
X67.49Y-55.3
X67.49Y-56.4
X90.85Y-38.5
X90.85Y-39.7
X90.85Y-40.9
X92.25Y-38.5
X92.25Y-39.7
X92.25Y-40.9
T3
X38.0Y-43.77
X53.4Y-24.62
X59.1Y-36.5
X65.41Y-24.83
X71.5Y-50.5
X73.05Y-50.25
X74.225Y-51.875
X74.35Y-62.1
X78.9Y-41.6
X81.112Y-55.17
X83.513Y-55.1
X83.85Y-35.95
X84.45Y-32.757
X94.35Y-36.1
X95.425Y-39.975
T5
X91.7Y-46.43
X93.7Y-46.43
T6
X88.46Y-24.475
X91.0Y-24.475
X93.54Y-24.475
T7
X41.8Y-25.32
X44.3Y-25.32
X46.8Y-25.32
X49.3Y-25.32
X84.6Y-64.155
X87.1Y-64.155
X89.6Y-64.155
X92.1Y-64.155
T4
G00X71.08Y-21.525
M15
G01X71.08Y-20.725
M16
G05
G00X71.08Y-25.855
M15
G01X71.08Y-24.755
M16
G05
G00X79.72Y-21.525
M15
G01X79.72Y-20.725
M16
G05
G00X79.72Y-25.855
M15
G01X79.72Y-24.755
M16
G05
M30
