%TF.GenerationSoftware,KiCad,Pcbnew,9.0.2*%
%TF.CreationDate,2025-12-26T22:53:18+01:00*%
%TF.ProjectId,SlimeVR_board,536c696d-6556-4525-9f62-6f6172642e6b,3W*%
%TF.SameCoordinates,Original*%
%TF.FileFunction,Copper,L1,Top*%
%TF.FilePolarity,Positive*%
%FSLAX46Y46*%
G04 Gerber Fmt 4.6, Leading zero omitted, Abs format (unit mm)*
G04 Created by KiCad (PCBNEW 9.0.2) date 2025-12-26 22:53:18*
%MOMM*%
%LPD*%
G01*
G04 APERTURE LIST*
G04 Aperture macros list*
%AMRoundRect*
0 Rectangle with rounded corners*
0 $1 Rounding radius*
0 $2 $3 $4 $5 $6 $7 $8 $9 X,Y pos of 4 corners*
0 Add a 4 corners polygon primitive as box body*
4,1,4,$2,$3,$4,$5,$6,$7,$8,$9,$2,$3,0*
0 Add four circle primitives for the rounded corners*
1,1,$1+$1,$2,$3*
1,1,$1+$1,$4,$5*
1,1,$1+$1,$6,$7*
1,1,$1+$1,$8,$9*
0 Add four rect primitives between the rounded corners*
20,1,$1+$1,$2,$3,$4,$5,0*
20,1,$1+$1,$4,$5,$6,$7,0*
20,1,$1+$1,$6,$7,$8,$9,0*
20,1,$1+$1,$8,$9,$2,$3,0*%
G04 Aperture macros list end*
%TA.AperFunction,SMDPad,CuDef*%
%ADD10R,1.000000X1.000000*%
%TD*%
%TA.AperFunction,SMDPad,CuDef*%
%ADD11RoundRect,0.150000X-0.825000X-0.150000X0.825000X-0.150000X0.825000X0.150000X-0.825000X0.150000X0*%
%TD*%
%TA.AperFunction,HeatsinkPad*%
%ADD12C,0.500000*%
%TD*%
%TA.AperFunction,HeatsinkPad*%
%ADD13R,2.410000X3.300000*%
%TD*%
%TA.AperFunction,SMDPad,CuDef*%
%ADD14RoundRect,0.250000X-0.350000X-0.450000X0.350000X-0.450000X0.350000X0.450000X-0.350000X0.450000X0*%
%TD*%
%TA.AperFunction,ComponentPad*%
%ADD15RoundRect,0.250000X0.600000X0.725000X-0.600000X0.725000X-0.600000X-0.725000X0.600000X-0.725000X0*%
%TD*%
%TA.AperFunction,ComponentPad*%
%ADD16O,1.700000X1.950000*%
%TD*%
%TA.AperFunction,ComponentPad*%
%ADD17RoundRect,0.250000X-0.350000X-0.625000X0.350000X-0.625000X0.350000X0.625000X-0.350000X0.625000X0*%
%TD*%
%TA.AperFunction,ComponentPad*%
%ADD18O,1.200000X1.750000*%
%TD*%
%TA.AperFunction,SMDPad,CuDef*%
%ADD19RoundRect,0.250000X0.450000X-0.350000X0.450000X0.350000X-0.450000X0.350000X-0.450000X-0.350000X0*%
%TD*%
%TA.AperFunction,SMDPad,CuDef*%
%ADD20RoundRect,0.250001X0.624999X-0.462499X0.624999X0.462499X-0.624999X0.462499X-0.624999X-0.462499X0*%
%TD*%
%TA.AperFunction,SMDPad,CuDef*%
%ADD21RoundRect,0.250000X-0.450000X0.350000X-0.450000X-0.350000X0.450000X-0.350000X0.450000X0.350000X0*%
%TD*%
%TA.AperFunction,SMDPad,CuDef*%
%ADD22R,1.700000X1.700000*%
%TD*%
%TA.AperFunction,SMDPad,CuDef*%
%ADD23RoundRect,0.237500X0.237500X-0.300000X0.237500X0.300000X-0.237500X0.300000X-0.237500X-0.300000X0*%
%TD*%
%TA.AperFunction,SMDPad,CuDef*%
%ADD24RoundRect,0.250000X0.350000X0.450000X-0.350000X0.450000X-0.350000X-0.450000X0.350000X-0.450000X0*%
%TD*%
%TA.AperFunction,SMDPad,CuDef*%
%ADD25RoundRect,0.237500X-0.300000X-0.237500X0.300000X-0.237500X0.300000X0.237500X-0.300000X0.237500X0*%
%TD*%
%TA.AperFunction,SMDPad,CuDef*%
%ADD26R,1.000000X0.750000*%
%TD*%
%TA.AperFunction,SMDPad,CuDef*%
%ADD27RoundRect,0.112500X-0.187500X-0.112500X0.187500X-0.112500X0.187500X0.112500X-0.187500X0.112500X0*%
%TD*%
%TA.AperFunction,SMDPad,CuDef*%
%ADD28R,1.500000X0.900000*%
%TD*%
%TA.AperFunction,HeatsinkPad*%
%ADD29C,0.600000*%
%TD*%
%TA.AperFunction,HeatsinkPad*%
%ADD30R,2.900000X2.900000*%
%TD*%
%TA.AperFunction,SMDPad,CuDef*%
%ADD31R,1.500000X1.500000*%
%TD*%
%TA.AperFunction,SMDPad,CuDef*%
%ADD32RoundRect,0.150000X0.512500X0.150000X-0.512500X0.150000X-0.512500X-0.150000X0.512500X-0.150000X0*%
%TD*%
%TA.AperFunction,ComponentPad*%
%ADD33C,1.600000*%
%TD*%
%TA.AperFunction,ComponentPad*%
%ADD34R,1.500000X1.500000*%
%TD*%
%TA.AperFunction,SMDPad,CuDef*%
%ADD35RoundRect,0.237500X0.300000X0.237500X-0.300000X0.237500X-0.300000X-0.237500X0.300000X-0.237500X0*%
%TD*%
%TA.AperFunction,SMDPad,CuDef*%
%ADD36RoundRect,0.150000X0.150000X0.425000X-0.150000X0.425000X-0.150000X-0.425000X0.150000X-0.425000X0*%
%TD*%
%TA.AperFunction,SMDPad,CuDef*%
%ADD37RoundRect,0.075000X0.075000X0.500000X-0.075000X0.500000X-0.075000X-0.500000X0.075000X-0.500000X0*%
%TD*%
%TA.AperFunction,HeatsinkPad*%
%ADD38O,1.000000X2.100000*%
%TD*%
%TA.AperFunction,HeatsinkPad*%
%ADD39O,1.000000X1.800000*%
%TD*%
%TA.AperFunction,SMDPad,CuDef*%
%ADD40RoundRect,0.150000X-0.587500X-0.150000X0.587500X-0.150000X0.587500X0.150000X-0.587500X0.150000X0*%
%TD*%
%TA.AperFunction,ComponentPad*%
%ADD41RoundRect,0.250000X-0.600000X-0.725000X0.600000X-0.725000X0.600000X0.725000X-0.600000X0.725000X0*%
%TD*%
%TA.AperFunction,ViaPad*%
%ADD42C,0.850000*%
%TD*%
%TA.AperFunction,ViaPad*%
%ADD43C,0.550000*%
%TD*%
%TA.AperFunction,ViaPad*%
%ADD44C,0.600000*%
%TD*%
%TA.AperFunction,Conductor*%
%ADD45C,0.800000*%
%TD*%
%TA.AperFunction,Conductor*%
%ADD46C,0.600000*%
%TD*%
%TA.AperFunction,Conductor*%
%ADD47C,0.300000*%
%TD*%
G04 APERTURE END LIST*
D10*
%TO.P,GND,1*%
%TO.N,Earth*%
X63900000Y-33800000D03*
%TD*%
%TO.P,3V3,1*%
%TO.N,+3.3V*%
X60000000Y-33800000D03*
%TD*%
D11*
%TO.P,U1,1,TEMP*%
%TO.N,Earth*%
X89075000Y-37795000D03*
%TO.P,U1,2,PROG*%
%TO.N,Net-(U1-PROG)*%
X89075000Y-39065000D03*
%TO.P,U1,3,GND*%
%TO.N,Earth*%
X89075000Y-40335000D03*
%TO.P,U1,4,V_{CC}*%
%TO.N,+5V*%
X89075000Y-41605000D03*
%TO.P,U1,5,BAT*%
%TO.N,+BATT*%
X94025000Y-41605000D03*
%TO.P,U1,6,~{STDBY}*%
%TO.N,Net-(U1-~{STDBY})*%
X94025000Y-40335000D03*
%TO.P,U1,7,~{CHRG}*%
%TO.N,Net-(U1-~{CHRG})*%
X94025000Y-39065000D03*
%TO.P,U1,8,CE*%
%TO.N,+5V*%
X94025000Y-37795000D03*
D12*
%TO.P,U1,9,EPAD*%
%TO.N,Earth*%
X90850000Y-38500000D03*
X90850000Y-39700000D03*
X90850000Y-40900000D03*
D13*
X91550000Y-39700000D03*
D12*
X92250000Y-38500000D03*
X92250000Y-39700000D03*
X92250000Y-40900000D03*
%TD*%
D14*
%TO.P,R4,1*%
%TO.N,Earth*%
X71510000Y-28650000D03*
%TO.P,R4,2*%
%TO.N,Net-(J1-CC2)*%
X73510000Y-28650000D03*
%TD*%
D10*
%TO.P,5V,1*%
%TO.N,+5V*%
X78200000Y-31300000D03*
%TD*%
D15*
%TO.P,J8,1,Pin_1*%
%TO.N,SDA*%
X49300000Y-25320000D03*
D16*
%TO.P,J8,2,Pin_2*%
%TO.N,Earth*%
X46800000Y-25320000D03*
%TO.P,J8,3,Pin_3*%
%TO.N,SCL*%
X44300000Y-25320000D03*
%TO.P,J8,4,Pin_4*%
%TO.N,+3.3V*%
X41800000Y-25320000D03*
%TD*%
D17*
%TO.P,J2,1,Pin_1*%
%TO.N,+BATT*%
X91700000Y-46430000D03*
D18*
%TO.P,J2,2,Pin_2*%
%TO.N,Earth*%
X93700000Y-46430000D03*
%TD*%
D19*
%TO.P,R1,1*%
%TO.N,Battery_sence*%
X63050000Y-47950000D03*
%TO.P,R1,2*%
%TO.N,Earth*%
X63050000Y-45950000D03*
%TD*%
D20*
%TO.P,D2,1,K*%
%TO.N,Net-(D2-K)*%
X84450000Y-27437500D03*
%TO.P,D2,2,A*%
%TO.N,+5V*%
X84450000Y-24462500D03*
%TD*%
D21*
%TO.P,R5,1*%
%TO.N,Net-(D1-K)*%
X81950000Y-29450000D03*
%TO.P,R5,2*%
%TO.N,Net-(U1-~{CHRG})*%
X81950000Y-31450000D03*
%TD*%
D22*
%TO.P,J3,1,Pin_1*%
%TO.N,+3.3V*%
X71765000Y-47384950D03*
%TO.P,J3,2,Pin_2*%
%TO.N,Earth*%
X74305000Y-47384950D03*
%TO.P,J3,3,Pin_3*%
%TO.N,SCL*%
X76845000Y-47384950D03*
%TO.P,J3,4,Pin_4*%
%TO.N,SDA*%
X79385000Y-47384950D03*
%TD*%
D20*
%TO.P,D3,1,K*%
%TO.N,Net-(D3-K)*%
X66990000Y-27440000D03*
%TO.P,D3,2,A*%
%TO.N,Net-(D3-A)*%
X66990000Y-24465000D03*
%TD*%
D23*
%TO.P,C4,1*%
%TO.N,+3.3V*%
X78112500Y-54932602D03*
%TO.P,C4,2*%
%TO.N,Earth*%
X78112500Y-53207602D03*
%TD*%
D19*
%TO.P,R8,1*%
%TO.N,Earth*%
X67000000Y-31450000D03*
%TO.P,R8,2*%
%TO.N,Net-(D3-K)*%
X67000000Y-29450000D03*
%TD*%
D24*
%TO.P,R11,1*%
%TO.N,Earth*%
X93450000Y-30800000D03*
%TO.P,R11,2*%
%TO.N,+5V*%
X91450000Y-30800000D03*
%TD*%
D21*
%TO.P,R6,1*%
%TO.N,Net-(D2-K)*%
X84450000Y-29450000D03*
%TO.P,R6,2*%
%TO.N,Net-(U1-~{STDBY})*%
X84450000Y-31450000D03*
%TD*%
D25*
%TO.P,C8,1*%
%TO.N,+5V*%
X91350000Y-34105000D03*
%TO.P,C8,2*%
%TO.N,Earth*%
X93075000Y-34105000D03*
%TD*%
D10*
%TO.P,GND,1*%
%TO.N,Earth*%
X70500000Y-31300000D03*
%TD*%
D26*
%TO.P,SW2,1,1*%
%TO.N,Earth*%
X57900000Y-24450000D03*
X63900000Y-24450000D03*
%TO.P,SW2,2,2*%
%TO.N,Net-(U2-IO9)*%
X57900000Y-28200000D03*
X63900000Y-28200000D03*
%TD*%
D10*
%TO.P,3V3,1*%
%TO.N,+3.3V*%
X53400000Y-26320000D03*
%TD*%
D22*
%TO.P,J4,1,Pin_1*%
%TO.N,+3.3V*%
X40480000Y-43850000D03*
%TO.P,J4,2,Pin_2*%
%TO.N,Earth*%
X43020000Y-43850000D03*
%TO.P,J4,3,Pin_3*%
%TO.N,SCL*%
X45560000Y-43850000D03*
%TO.P,J4,4,Pin_4*%
%TO.N,SDA*%
X48100000Y-43850000D03*
%TD*%
D25*
%TO.P,C5,1*%
%TO.N,+3.3V*%
X78075000Y-60500000D03*
%TO.P,C5,2*%
%TO.N,Earth*%
X79800000Y-60500000D03*
%TD*%
D21*
%TO.P,R2,1*%
%TO.N,Net-(SW1-B)*%
X64950000Y-45950000D03*
%TO.P,R2,2*%
%TO.N,Battery_sence*%
X64950000Y-47950000D03*
%TD*%
D27*
%TO.P,D4,1,K*%
%TO.N,Net-(D4-K)*%
X89350000Y-28800000D03*
%TO.P,D4,2,A*%
%TO.N,+5V*%
X91450000Y-28800000D03*
%TD*%
D14*
%TO.P,R7,1*%
%TO.N,Net-(U1-PROG)*%
X88550000Y-35950000D03*
%TO.P,R7,2*%
%TO.N,Earth*%
X90550000Y-35950000D03*
%TD*%
D20*
%TO.P,D1,1,K*%
%TO.N,Net-(D1-K)*%
X81950000Y-27425000D03*
%TO.P,D1,2,A*%
%TO.N,+5V*%
X81950000Y-24450000D03*
%TD*%
D23*
%TO.P,C7,1*%
%TO.N,+3.3V*%
X79812500Y-54932602D03*
%TO.P,C7,2*%
%TO.N,Earth*%
X79812500Y-53207602D03*
%TD*%
D28*
%TO.P,U2,1,3V3*%
%TO.N,+3.3V*%
X76100000Y-62050000D03*
%TO.P,U2,2,EN*%
X76100000Y-60550000D03*
%TO.P,U2,3,IO4*%
%TO.N,SDA*%
X76100000Y-59050000D03*
%TO.P,U2,4,IO5*%
%TO.N,SCL*%
X76100000Y-57550000D03*
%TO.P,U2,5,IO6*%
%TO.N,unconnected-(U2-IO6-Pad5)*%
X76100000Y-56050000D03*
%TO.P,U2,6,IO7*%
%TO.N,Net-(D3-A)*%
X76100000Y-54550000D03*
%TO.P,U2,7,IO8*%
%TO.N,unconnected-(U2-IO8-Pad7)*%
X76100000Y-53050000D03*
%TO.P,U2,8,IO9*%
%TO.N,Net-(U2-IO9)*%
X76100000Y-51550000D03*
%TO.P,U2,9,GND*%
%TO.N,Earth*%
X76100000Y-50050000D03*
%TO.P,U2,10,IO10*%
%TO.N,unconnected-(U2-IO10-Pad10)*%
X58600000Y-50050000D03*
%TO.P,U2,11,IO20/RXD*%
%TO.N,unconnected-(U2-IO20{slash}RXD-Pad11)*%
X58600000Y-51550000D03*
%TO.P,U2,12,IO21/TXD*%
%TO.N,unconnected-(U2-IO21{slash}TXD-Pad12)*%
X58600000Y-53050000D03*
%TO.P,U2,13,IO18*%
%TO.N,D-*%
X58600000Y-54550000D03*
%TO.P,U2,14,IO19*%
%TO.N,D+*%
X58600000Y-56050000D03*
%TO.P,U2,15,IO3*%
%TO.N,Battery_sence*%
X58600000Y-57550000D03*
%TO.P,U2,16,IO2*%
%TO.N,unconnected-(U2-IO2-Pad16)*%
X58600000Y-59050000D03*
%TO.P,U2,17,IO1*%
%TO.N,unconnected-(U2-IO1-Pad17)*%
X58600000Y-60550000D03*
%TO.P,U2,18,IO0*%
%TO.N,unconnected-(U2-IO0-Pad18)*%
X58600000Y-62050000D03*
D29*
%TO.P,U2,19,GND*%
%TO.N,Earth*%
X67490000Y-56400000D03*
X67490000Y-55300000D03*
X66940000Y-56950000D03*
X66940000Y-55850000D03*
X66940000Y-54750000D03*
X66390000Y-56400000D03*
D30*
X66390000Y-55850000D03*
D29*
X66390000Y-55300000D03*
X65840000Y-56950000D03*
X65840000Y-55850000D03*
X65840000Y-54750000D03*
X65290000Y-56400000D03*
X65290000Y-55300000D03*
%TD*%
D31*
%TO.P,BMI160
#2 GND,1*%
%TO.N,Earth*%
X53250000Y-44570000D03*
%TD*%
D10*
%TO.P,BAT,1*%
%TO.N,+BATT*%
X88200000Y-46700000D03*
%TD*%
D24*
%TO.P,R10,1*%
%TO.N,+3.3V*%
X61900000Y-30150000D03*
%TO.P,R10,2*%
%TO.N,Net-(U2-IO9)*%
X59900000Y-30150000D03*
%TD*%
D32*
%TO.P,U3,1,VIN*%
%TO.N,Net-(SW1-B)*%
X80662500Y-58632602D03*
%TO.P,U3,2,GND*%
%TO.N,Earth*%
X80662500Y-57682602D03*
%TO.P,U3,3,CE*%
%TO.N,Net-(SW1-B)*%
X80662500Y-56732602D03*
%TO.P,U3,4,NC*%
%TO.N,unconnected-(U3-NC-Pad4)*%
X78387500Y-56732602D03*
%TO.P,U3,5,VOUT*%
%TO.N,+3.3V*%
X78387500Y-58632602D03*
%TD*%
D33*
%TO.P,SW1,1,A*%
%TO.N,Net-(D4-K)*%
X88460000Y-24475000D03*
D34*
%TO.P,SW1,2,B*%
%TO.N,Net-(SW1-B)*%
X91000000Y-24475000D03*
D33*
%TO.P,SW1,3,C*%
%TO.N,unconnected-(SW1-C-Pad3)*%
X93540000Y-24475000D03*
%TD*%
D35*
%TO.P,C2,1*%
%TO.N,Net-(SW1-B)*%
X84375000Y-56800000D03*
%TO.P,C2,2*%
%TO.N,Earth*%
X82650000Y-56800000D03*
%TD*%
D14*
%TO.P,R3,1*%
%TO.N,Net-(J1-CC1)*%
X76760000Y-28650000D03*
%TO.P,R3,2*%
%TO.N,Earth*%
X78760000Y-28650000D03*
%TD*%
D25*
%TO.P,C3,1*%
%TO.N,+3.3V*%
X78075000Y-62050000D03*
%TO.P,C3,2*%
%TO.N,Earth*%
X79800000Y-62050000D03*
%TD*%
D36*
%TO.P,J1,A1,GND*%
%TO.N,Earth*%
X78600000Y-25880000D03*
%TO.P,J1,A4,VBUS*%
%TO.N,+5V*%
X77800000Y-25880000D03*
D37*
%TO.P,J1,A5,CC1*%
%TO.N,Net-(J1-CC1)*%
X76650000Y-25880000D03*
%TO.P,J1,A6,D+*%
%TO.N,D+*%
X75650000Y-25880000D03*
%TO.P,J1,A7,D-*%
%TO.N,D-*%
X75150000Y-25880000D03*
%TO.P,J1,A8,SBU1*%
%TO.N,unconnected-(J1-SBU1-PadA8)*%
X74150000Y-25880000D03*
D36*
%TO.P,J1,A9,VBUS*%
%TO.N,+5V*%
X73000000Y-25880000D03*
%TO.P,J1,A12,GND*%
%TO.N,Earth*%
X72200000Y-25880000D03*
%TO.P,J1,B1,GND*%
X72200000Y-25880000D03*
%TO.P,J1,B4,VBUS*%
%TO.N,+5V*%
X73000000Y-25880000D03*
D37*
%TO.P,J1,B5,CC2*%
%TO.N,Net-(J1-CC2)*%
X73650000Y-25880000D03*
%TO.P,J1,B6,D+*%
%TO.N,D+*%
X74650000Y-25880000D03*
%TO.P,J1,B7,D-*%
%TO.N,D-*%
X76150000Y-25880000D03*
%TO.P,J1,B8,SBU2*%
%TO.N,unconnected-(J1-SBU2-PadB8)*%
X77150000Y-25880000D03*
D36*
%TO.P,J1,B9,VBUS*%
%TO.N,+5V*%
X77800000Y-25880000D03*
%TO.P,J1,B12,GND*%
%TO.N,Earth*%
X78600000Y-25880000D03*
D38*
%TO.P,J1,S1,SHIELD*%
X79720000Y-25305000D03*
D39*
X79720000Y-21125000D03*
D38*
X71080000Y-25305000D03*
D39*
X71080000Y-21125000D03*
%TD*%
D40*
%TO.P,Q1,1,G*%
%TO.N,+5V*%
X87100000Y-43000000D03*
%TO.P,Q1,2,S*%
%TO.N,Net-(D4-K)*%
X87100000Y-44900000D03*
%TO.P,Q1,3,D*%
%TO.N,+BATT*%
X88975000Y-43950000D03*
%TD*%
D10*
%TO.P,GND,1*%
%TO.N,Earth*%
X37600000Y-26320000D03*
%TD*%
D25*
%TO.P,C6,1*%
%TO.N,Net-(SW1-B)*%
X82650000Y-58550000D03*
%TO.P,C6,2*%
%TO.N,Earth*%
X84375000Y-58550000D03*
%TD*%
%TO.P,C1,1*%
%TO.N,+5V*%
X91375000Y-32605000D03*
%TO.P,C1,2*%
%TO.N,Earth*%
X93100000Y-32605000D03*
%TD*%
D41*
%TO.P,J7,1,Pin_1*%
%TO.N,+3.3V*%
X84600000Y-64155000D03*
D16*
%TO.P,J7,2,Pin_2*%
%TO.N,SCL*%
X87100000Y-64155000D03*
%TO.P,J7,3,Pin_3*%
%TO.N,Earth*%
X89600000Y-64155000D03*
%TO.P,J7,4,Pin_4*%
%TO.N,SDA*%
X92100000Y-64155000D03*
%TD*%
D31*
%TO.P,BMI160
#2 GND,1*%
%TO.N,Earth*%
X84500000Y-47950000D03*
%TD*%
D42*
%TO.N,+3.3V*%
X74350000Y-62100000D03*
D43*
%TO.N,Earth*%
X79500000Y-59350000D03*
X58800000Y-29100000D03*
X60900000Y-29100000D03*
X70100000Y-58150000D03*
X67100000Y-58150000D03*
X68400000Y-52250000D03*
X61100000Y-52150000D03*
X62700000Y-56650000D03*
X58000000Y-37200000D03*
X42050000Y-29320000D03*
X85700000Y-32400000D03*
X74300000Y-55400000D03*
X68600000Y-61150000D03*
X92300000Y-23050000D03*
X87750000Y-60250000D03*
X78200000Y-34050000D03*
X77225000Y-45775000D03*
X43950000Y-41320000D03*
X65900000Y-49450000D03*
X60500000Y-47900000D03*
X39900000Y-37570000D03*
X85800000Y-26000000D03*
X64100000Y-59650000D03*
X65900000Y-52150000D03*
X67100000Y-59650000D03*
X82700000Y-36400000D03*
X91050000Y-60350000D03*
X61100000Y-59650000D03*
X62600000Y-61150000D03*
X65600000Y-61150000D03*
X70400000Y-51400000D03*
X51250000Y-35120000D03*
X71800000Y-36500000D03*
X47300000Y-32670000D03*
X62400000Y-41900000D03*
X70100000Y-61150000D03*
X72750000Y-56675000D03*
X65600000Y-58150000D03*
X69100000Y-42575000D03*
X70400000Y-48900000D03*
X80300000Y-31500000D03*
X88400000Y-42550000D03*
X58250000Y-45750000D03*
X68600000Y-56650000D03*
X51925000Y-43170000D03*
X57350000Y-31050000D03*
X43000000Y-45270000D03*
X39850000Y-26220000D03*
X78150000Y-29850000D03*
X74550000Y-60050000D03*
X60225000Y-55700000D03*
X61200000Y-58150000D03*
X82800000Y-47400000D03*
X64100000Y-58150000D03*
X51300000Y-38520000D03*
X87500000Y-56000000D03*
X94300000Y-34850000D03*
X62600000Y-59650000D03*
X62600000Y-58150000D03*
X77350000Y-59500000D03*
X70030000Y-28390000D03*
X65900000Y-50650000D03*
X85950000Y-62850000D03*
X84700000Y-51650000D03*
X62600000Y-52150000D03*
X70100000Y-59650000D03*
X61000000Y-49450000D03*
X68600000Y-59650000D03*
X95300000Y-60600000D03*
X67400000Y-43900000D03*
X79000000Y-49000000D03*
X64100000Y-61150000D03*
X53810975Y-20831585D03*
X81812500Y-54482602D03*
X75200000Y-32850000D03*
X64800000Y-24050000D03*
X86100000Y-35050000D03*
X51100000Y-28220000D03*
X73150000Y-51650000D03*
X68375000Y-50275000D03*
X65750000Y-38500000D03*
X68600000Y-58150000D03*
X68400000Y-47050000D03*
X90200000Y-46000000D03*
X77100000Y-42700000D03*
X70325000Y-54250000D03*
X74500000Y-58200000D03*
X77600000Y-50600000D03*
X64100000Y-56650000D03*
X61100000Y-61150000D03*
X67100000Y-61150000D03*
X81900000Y-68700000D03*
X83193183Y-30411820D03*
X72975000Y-40500000D03*
X80550000Y-62875000D03*
X62500000Y-49450000D03*
X78600000Y-40400000D03*
X86200000Y-47250000D03*
X57600000Y-20700000D03*
X42150000Y-33470000D03*
X88600000Y-50300000D03*
X36935975Y-20806585D03*
X89600000Y-32500000D03*
X61100000Y-50650000D03*
X91500000Y-43800000D03*
X37550000Y-45170000D03*
X65600000Y-59650000D03*
X62600000Y-50650000D03*
X82712500Y-55682602D03*
X95400000Y-68400000D03*
X65900000Y-53650000D03*
X94100000Y-42900000D03*
X71100000Y-44350000D03*
X78612500Y-57682602D03*
X90300000Y-29500000D03*
X70000000Y-34250000D03*
X64300000Y-43800000D03*
X91100000Y-48600000D03*
X95775000Y-41100000D03*
X95500000Y-20700000D03*
X46850000Y-29320000D03*
X73200000Y-48900000D03*
X46050000Y-38420000D03*
X67400000Y-40700000D03*
X73100000Y-30900000D03*
X61100000Y-53650000D03*
X64200000Y-55150000D03*
D42*
%TO.N,Net-(U1-~{CHRG})*%
X94350000Y-36100000D03*
X83850000Y-35950000D03*
%TO.N,Net-(U1-~{STDBY})*%
X95425000Y-39975000D03*
X84450000Y-32757000D03*
%TO.N,Net-(D3-A)*%
X65410000Y-24830000D03*
X74225000Y-51875000D03*
%TO.N,+3.3V*%
X81112500Y-55170102D03*
X38000000Y-43770000D03*
X71500000Y-50500000D03*
X59100000Y-36500000D03*
X53400000Y-24620000D03*
%TO.N,Net-(SW1-B)*%
X78900000Y-41600000D03*
X83512500Y-55100000D03*
D44*
%TO.N,Net-(U2-IO9)*%
X58200000Y-31400000D03*
D42*
X73050000Y-50250000D03*
%TD*%
D45*
%TO.N,+3.3V*%
X78075000Y-62050000D02*
X76100000Y-62050000D01*
X76100000Y-62050000D02*
X74400000Y-62050000D01*
X74400000Y-62050000D02*
X74350000Y-62100000D01*
X78387500Y-60187500D02*
X78075000Y-60500000D01*
X78387500Y-58632602D02*
X78387500Y-60187500D01*
X78025000Y-60550000D02*
X78075000Y-60500000D01*
D46*
%TO.N,SDA*%
X76250000Y-43350000D02*
X69800000Y-43350000D01*
X69800000Y-43350000D02*
X67400000Y-45750000D01*
X67400000Y-45750000D02*
X67400000Y-52750000D01*
X79385000Y-46485000D02*
X76250000Y-43350000D01*
X73700000Y-59050000D02*
X76100000Y-59050000D01*
X79385000Y-47384950D02*
X79385000Y-46485000D01*
X67400000Y-52750000D02*
X73700000Y-59050000D01*
%TO.N,SCL*%
X70600000Y-45350000D02*
X75400000Y-45350000D01*
X69400000Y-46550000D02*
X70600000Y-45350000D01*
X75400000Y-45350000D02*
X76845000Y-46795000D01*
X69400000Y-51975000D02*
X69400000Y-46550000D01*
X74975000Y-57550000D02*
X69400000Y-51975000D01*
X76100000Y-57550000D02*
X74975000Y-57550000D01*
X76845000Y-46795000D02*
X76845000Y-47384950D01*
%TO.N,Net-(U2-IO9)*%
X59900000Y-30150000D02*
X59900000Y-28200000D01*
X59900000Y-28200000D02*
X63900000Y-28200000D01*
X59450000Y-30150000D02*
X59900000Y-30150000D01*
X58200000Y-31400000D02*
X59450000Y-30150000D01*
%TO.N,Net-(D3-A)*%
X75000000Y-54550000D02*
X76100000Y-54550000D01*
X74200000Y-53750000D02*
X75000000Y-54550000D01*
X74200000Y-51900000D02*
X74200000Y-53750000D01*
X74225000Y-51875000D02*
X74200000Y-51900000D01*
D45*
%TO.N,+5V*%
X86480000Y-36009576D02*
X86480000Y-39781232D01*
D46*
X73000000Y-27000000D02*
X72700000Y-27300000D01*
X70700000Y-23300000D02*
X81400000Y-23300000D01*
D45*
X91450000Y-28800000D02*
X91450000Y-30800000D01*
X91375000Y-32605000D02*
X91375000Y-34080000D01*
D46*
X80721000Y-26454000D02*
X80050000Y-27125000D01*
D45*
X92300000Y-28800000D02*
X95400000Y-25700000D01*
D46*
X80975000Y-26200000D02*
X81700000Y-26200000D01*
D45*
X91450000Y-32530000D02*
X91375000Y-32605000D01*
D46*
X88445190Y-41605000D02*
X89075000Y-41605000D01*
D45*
X88384576Y-34105000D02*
X86480000Y-36009576D01*
X91375000Y-34080000D02*
X91350000Y-34105000D01*
D46*
X81950000Y-25950000D02*
X81950000Y-24450000D01*
D45*
X91450000Y-30800000D02*
X91450000Y-32530000D01*
D46*
X79875000Y-27300000D02*
X78050000Y-27300000D01*
X73000000Y-25930000D02*
X73000000Y-27000000D01*
D45*
X94450000Y-22050000D02*
X86100000Y-22050000D01*
X86480000Y-39781232D02*
X86480000Y-42380000D01*
X86480000Y-39781232D02*
X88303768Y-41605000D01*
D46*
X80721000Y-26454000D02*
X79875000Y-27300000D01*
X77800000Y-27050000D02*
X77800000Y-25930000D01*
D45*
X84450000Y-23700000D02*
X84450000Y-24462500D01*
X95400000Y-23000000D02*
X94450000Y-22050000D01*
X84437500Y-24450000D02*
X84450000Y-24462500D01*
X81950000Y-24450000D02*
X84437500Y-24450000D01*
D46*
X81950000Y-23850000D02*
X81950000Y-24450000D01*
X70300000Y-27300000D02*
X69600000Y-26600000D01*
D45*
X95400000Y-25700000D02*
X95400000Y-23000000D01*
D46*
X72700000Y-27300000D02*
X70300000Y-27300000D01*
X81400000Y-23300000D02*
X81950000Y-23850000D01*
X78500000Y-31300000D02*
X78200000Y-31300000D01*
D45*
X91900000Y-35670000D02*
X94025000Y-37795000D01*
D46*
X69600000Y-26600000D02*
X69600000Y-24400000D01*
X91500000Y-30550000D02*
X91500000Y-30850000D01*
X80721000Y-26454000D02*
X80975000Y-26200000D01*
D45*
X91350000Y-34105000D02*
X88384576Y-34105000D01*
D46*
X69600000Y-24400000D02*
X70700000Y-23300000D01*
X81700000Y-26200000D02*
X81950000Y-25950000D01*
D45*
X89075000Y-41605000D02*
X89505000Y-41605000D01*
X91450000Y-30800000D02*
X91500000Y-30850000D01*
D46*
X80050000Y-27125000D02*
X80050000Y-29750000D01*
D45*
X86480000Y-42380000D02*
X87100000Y-43000000D01*
X91900000Y-34655000D02*
X91900000Y-35670000D01*
D46*
X78050000Y-27300000D02*
X77800000Y-27050000D01*
D45*
X91500000Y-32480000D02*
X91375000Y-32605000D01*
X88303768Y-41605000D02*
X89075000Y-41605000D01*
X86100000Y-22050000D02*
X84450000Y-23700000D01*
X91450000Y-28800000D02*
X92300000Y-28800000D01*
D46*
X80050000Y-29750000D02*
X78500000Y-31300000D01*
D45*
X91350000Y-34105000D02*
X91900000Y-34655000D01*
D47*
%TO.N,D+*%
X58200000Y-56050000D02*
X57501000Y-55351000D01*
X75400000Y-26950000D02*
X75150000Y-26950000D01*
X74650000Y-25880000D02*
X74650000Y-26800000D01*
X74870000Y-30910000D02*
X74870000Y-27230000D01*
X57290000Y-55140000D02*
X57290000Y-48490000D01*
X57290000Y-48490000D02*
X74870000Y-30910000D01*
X75150000Y-26950000D02*
X74800000Y-26950000D01*
X58600000Y-56050000D02*
X58200000Y-56050000D01*
X74650000Y-26800000D02*
X74800000Y-26950000D01*
X75650000Y-25880000D02*
X75650000Y-26700000D01*
X57501000Y-55351000D02*
X57499000Y-55351000D01*
X75650000Y-26700000D02*
X75400000Y-26950000D01*
X74870000Y-27230000D02*
X75150000Y-26950000D01*
X57499000Y-55349000D02*
X57290000Y-55140000D01*
X57499000Y-55351000D02*
X57499000Y-55349000D01*
%TO.N,D-*%
X75950000Y-24900000D02*
X75350000Y-24900000D01*
X76150000Y-25100000D02*
X75950000Y-24900000D01*
X76150000Y-25880000D02*
X76150000Y-27050000D01*
X59290000Y-54550000D02*
X58600000Y-54550000D01*
X58980000Y-47630000D02*
X58980000Y-48180000D01*
X58980000Y-48180000D02*
X60060000Y-49260000D01*
X75350000Y-24900000D02*
X75150000Y-25100000D01*
X75150000Y-25100000D02*
X75150000Y-25880000D01*
X60060000Y-49260000D02*
X60060000Y-53780000D01*
X75470000Y-27730000D02*
X75470000Y-31140000D01*
X76150000Y-27050000D02*
X75470000Y-27730000D01*
X76150000Y-25880000D02*
X76150000Y-25100000D01*
X75470000Y-31140000D02*
X58980000Y-47630000D01*
X60060000Y-53780000D02*
X59290000Y-54550000D01*
%TO.N,Net-(J1-CC1)*%
X76650000Y-28590000D02*
X76760000Y-28700000D01*
X76650000Y-25930000D02*
X76650000Y-28590000D01*
%TO.N,Net-(J1-CC2)*%
X73650000Y-25980000D02*
X73650000Y-28560000D01*
X73650000Y-28560000D02*
X73510000Y-28700000D01*
D45*
%TO.N,+BATT*%
X88975000Y-43950000D02*
X88975000Y-45925000D01*
X94705000Y-41605000D02*
X94025000Y-41605000D01*
X95400000Y-47400000D02*
X95400000Y-42300000D01*
X91700000Y-47400000D02*
X92600000Y-48300000D01*
X88975000Y-43950000D02*
X89900000Y-43950000D01*
X91700000Y-45750000D02*
X91700000Y-46430000D01*
X95400000Y-42300000D02*
X94705000Y-41605000D01*
X88975000Y-45925000D02*
X88200000Y-46700000D01*
X94500000Y-48300000D02*
X95400000Y-47400000D01*
X91700000Y-46430000D02*
X91700000Y-47400000D01*
X92600000Y-48300000D02*
X94500000Y-48300000D01*
X89900000Y-43950000D02*
X91700000Y-45750000D01*
%TO.N,Battery_sence*%
X64950000Y-47950000D02*
X63050000Y-47950000D01*
X60150000Y-57550000D02*
X58600000Y-57550000D01*
X64300000Y-48600000D02*
X64300000Y-53400000D01*
X64300000Y-53400000D02*
X60150000Y-57550000D01*
X64950000Y-47950000D02*
X64300000Y-48600000D01*
D46*
%TO.N,Net-(U1-~{CHRG})*%
X81950000Y-34050000D02*
X81950000Y-31450000D01*
X95250000Y-36100000D02*
X94350000Y-36100000D01*
X94875000Y-39065000D02*
X95700000Y-38240000D01*
X83850000Y-35950000D02*
X81950000Y-34050000D01*
X95700000Y-38240000D02*
X95700000Y-36550000D01*
X94025000Y-39065000D02*
X94875000Y-39065000D01*
X95700000Y-36550000D02*
X95250000Y-36100000D01*
D45*
%TO.N,Net-(D1-K)*%
X81950000Y-27425000D02*
X81950000Y-29450000D01*
%TO.N,Net-(D2-K)*%
X84450000Y-27437500D02*
X84450000Y-29450000D01*
D46*
%TO.N,Net-(U1-~{STDBY})*%
X95425000Y-39975000D02*
X95065000Y-40335000D01*
X84450000Y-32757000D02*
X84450000Y-31450000D01*
X95065000Y-40335000D02*
X94025000Y-40335000D01*
%TO.N,Net-(U1-PROG)*%
X87599000Y-38563999D02*
X88100001Y-39065000D01*
X87599000Y-36901000D02*
X87599000Y-38563999D01*
X88550000Y-35950000D02*
X87599000Y-36901000D01*
X88100001Y-39065000D02*
X89075000Y-39065000D01*
D45*
%TO.N,Net-(D3-K)*%
X67000000Y-28950000D02*
X67000000Y-29450000D01*
X66990000Y-28940000D02*
X67000000Y-28950000D01*
X66990000Y-27440000D02*
X66990000Y-28940000D01*
%TO.N,Net-(D3-A)*%
X65775000Y-24465000D02*
X66990000Y-24465000D01*
X65410000Y-24830000D02*
X65775000Y-24465000D01*
D46*
%TO.N,+3.3V*%
X53400000Y-26320000D02*
X53400000Y-24620000D01*
X38000000Y-43770000D02*
X38000000Y-44070000D01*
D45*
X71750000Y-47399950D02*
X71765000Y-47384950D01*
X71600000Y-47750000D02*
X71750000Y-47600000D01*
X78075000Y-62050000D02*
X78075000Y-60500000D01*
D46*
X38000000Y-44070000D02*
X38325000Y-44395000D01*
D45*
X71750000Y-47600000D02*
X71750000Y-47399950D01*
X71500000Y-50500000D02*
X71500000Y-47649950D01*
D46*
X40480000Y-43865000D02*
X40480000Y-43850000D01*
D45*
X79812500Y-54932602D02*
X78112500Y-54932602D01*
D46*
X38325000Y-44395000D02*
X39950000Y-44395000D01*
D45*
X81112500Y-55170102D02*
X80912500Y-54970102D01*
X71500000Y-47649950D02*
X71765000Y-47384950D01*
D46*
X39950000Y-44395000D02*
X40480000Y-43865000D01*
D45*
X76100000Y-62050000D02*
X76100000Y-60550000D01*
X80912500Y-54970102D02*
X79812500Y-54970102D01*
%TO.N,Net-(D4-K)*%
X89350000Y-28800000D02*
X87600000Y-30550000D01*
X89400000Y-26200000D02*
X88460000Y-25260000D01*
X89400000Y-28750000D02*
X89400000Y-26200000D01*
X85100000Y-44000000D02*
X86000000Y-44900000D01*
X88460000Y-25260000D02*
X88460000Y-24475000D01*
X86000000Y-44900000D02*
X87100000Y-44900000D01*
X89350000Y-28800000D02*
X89400000Y-28750000D01*
X87600000Y-30550000D02*
X87600000Y-32200000D01*
X85100000Y-34700000D02*
X85100000Y-44000000D01*
X87600000Y-32200000D02*
X85100000Y-34700000D01*
D46*
%TO.N,SCL*%
X86500000Y-54900000D02*
X86500000Y-61995499D01*
X45580000Y-41420000D02*
X45580000Y-43830000D01*
X45580000Y-43830000D02*
X45560000Y-43850000D01*
X87100000Y-62595499D02*
X87100000Y-64155000D01*
X76845000Y-48245000D02*
X79700000Y-51100000D01*
X44300000Y-25320000D02*
X44300000Y-40140000D01*
X82700000Y-51100000D02*
X86500000Y-54900000D01*
X86500000Y-61995499D02*
X87100000Y-62595499D01*
X79700000Y-51100000D02*
X82700000Y-51100000D01*
X44300000Y-40140000D02*
X45580000Y-41420000D01*
X76845000Y-47384950D02*
X76845000Y-48245000D01*
%TO.N,SDA*%
X48100000Y-43825000D02*
X48120000Y-43845000D01*
X92100000Y-64155000D02*
X92100000Y-62672656D01*
X48100000Y-41420000D02*
X48100000Y-43825000D01*
X49300000Y-25320000D02*
X49481000Y-25501000D01*
X92100000Y-62672656D02*
X88500000Y-59072656D01*
X49481000Y-25501000D02*
X49481000Y-40039000D01*
X79385000Y-47985000D02*
X79385000Y-47384950D01*
X88500000Y-59072656D02*
X88500000Y-53900000D01*
X83800000Y-49200000D02*
X80600000Y-49200000D01*
X49481000Y-40039000D02*
X48100000Y-41420000D01*
X88500000Y-53900000D02*
X83800000Y-49200000D01*
X80600000Y-49200000D02*
X79385000Y-47985000D01*
%TO.N,Net-(SW1-B)*%
X64950000Y-44650000D02*
X64950000Y-45950000D01*
X79486500Y-57251001D02*
X79987501Y-56750000D01*
X79987501Y-56750000D02*
X80650000Y-56750000D01*
X80650000Y-58650000D02*
X80012690Y-58650000D01*
D45*
X82650000Y-58529898D02*
X82650000Y-58550000D01*
D46*
X82550000Y-58650000D02*
X82650000Y-58550000D01*
D45*
X84375000Y-55962500D02*
X84375000Y-56800000D01*
X82650000Y-58545102D02*
X82650000Y-58550000D01*
X84375000Y-56800000D02*
X84375000Y-56820102D01*
D46*
X78900000Y-41600000D02*
X68000000Y-41600000D01*
D45*
X91020000Y-24485000D02*
X91010000Y-24475000D01*
D46*
X79486500Y-58123810D02*
X79486500Y-57251001D01*
X80650000Y-58650000D02*
X82550000Y-58650000D01*
X68000000Y-41600000D02*
X64950000Y-44650000D01*
X80012690Y-58650000D02*
X79486500Y-58123810D01*
D45*
X83512500Y-55100000D02*
X84375000Y-55962500D01*
X84375000Y-56820102D02*
X82650000Y-58545102D01*
D46*
%TO.N,Net-(U2-IO9)*%
X57900000Y-28200000D02*
X59900000Y-28200000D01*
X75398000Y-51550000D02*
X76100000Y-51550000D01*
X74098000Y-50250000D02*
X75398000Y-51550000D01*
X73050000Y-50250000D02*
X74098000Y-50250000D01*
D45*
%TO.N,+3.3V*%
X59850000Y-33800000D02*
X60000000Y-33800000D01*
X59100000Y-36500000D02*
X59100000Y-34550000D01*
X59100000Y-34550000D02*
X59850000Y-33800000D01*
%TD*%
%TA.AperFunction,Conductor*%
%TO.N,Earth*%
G36*
X76037652Y-43920185D02*
G01*
X76058294Y-43936819D01*
X78331076Y-46209601D01*
X78364561Y-46270924D01*
X78359577Y-46340616D01*
X78346499Y-46366171D01*
X78299033Y-46437211D01*
X78299032Y-46437214D01*
X78284500Y-46510271D01*
X78284500Y-48259628D01*
X78299032Y-48332685D01*
X78299033Y-48332689D01*
X78299034Y-48332690D01*
X78354399Y-48415551D01*
X78420549Y-48459750D01*
X78437260Y-48470916D01*
X78437264Y-48470917D01*
X78510321Y-48485449D01*
X78510324Y-48485450D01*
X78510326Y-48485450D01*
X79055563Y-48485450D01*
X79122602Y-48505135D01*
X79143244Y-48521769D01*
X80261985Y-49640510D01*
X80364160Y-49699500D01*
X80364161Y-49699501D01*
X80364162Y-49699501D01*
X80387515Y-49712984D01*
X80527525Y-49750500D01*
X83520613Y-49750500D01*
X83587652Y-49770185D01*
X83608294Y-49786819D01*
X87913181Y-54091706D01*
X87946666Y-54153029D01*
X87949500Y-54179387D01*
X87949500Y-59145133D01*
X87963023Y-59195598D01*
X87963023Y-59195600D01*
X87963024Y-59195600D01*
X87963024Y-59195601D01*
X87982758Y-59269251D01*
X87987016Y-59285141D01*
X88059489Y-59410669D01*
X88059491Y-59410672D01*
X91513181Y-62864362D01*
X91527884Y-62891289D01*
X91544477Y-62917108D01*
X91545368Y-62923308D01*
X91546666Y-62925685D01*
X91549500Y-62952043D01*
X91549500Y-63006488D01*
X91529815Y-63073527D01*
X91498385Y-63106806D01*
X91383075Y-63190583D01*
X91383069Y-63190588D01*
X91260588Y-63313069D01*
X91260588Y-63313070D01*
X91260586Y-63313072D01*
X91253725Y-63322516D01*
X91158768Y-63453211D01*
X91080128Y-63607552D01*
X91026597Y-63772302D01*
X90999500Y-63943389D01*
X90999500Y-64366611D01*
X91026598Y-64537701D01*
X91080127Y-64702445D01*
X91158768Y-64856788D01*
X91260586Y-64996928D01*
X91383072Y-65119414D01*
X91523212Y-65221232D01*
X91677555Y-65299873D01*
X91842299Y-65353402D01*
X92013389Y-65380500D01*
X92013390Y-65380500D01*
X92186610Y-65380500D01*
X92186611Y-65380500D01*
X92357701Y-65353402D01*
X92522445Y-65299873D01*
X92676788Y-65221232D01*
X92816928Y-65119414D01*
X92939414Y-64996928D01*
X93041232Y-64856788D01*
X93119873Y-64702445D01*
X93173402Y-64537701D01*
X93200500Y-64366611D01*
X93200500Y-63943389D01*
X93173402Y-63772299D01*
X93119873Y-63607555D01*
X93041232Y-63453212D01*
X92939414Y-63313072D01*
X92816928Y-63190586D01*
X92701614Y-63106805D01*
X92658949Y-63051476D01*
X92650500Y-63006488D01*
X92650500Y-62600183D01*
X92650500Y-62600181D01*
X92612984Y-62460171D01*
X92540510Y-62334641D01*
X90452126Y-60246257D01*
X90418641Y-60184934D01*
X90423625Y-60115242D01*
X90465497Y-60059309D01*
X90530961Y-60034892D01*
X90555985Y-60035636D01*
X90668880Y-60050500D01*
X90734108Y-60050500D01*
X94984108Y-60050500D01*
X95044587Y-60050500D01*
X95055394Y-60050972D01*
X95085721Y-60053625D01*
X95212755Y-60064739D01*
X95234035Y-60068491D01*
X95351188Y-60099882D01*
X95381369Y-60107969D01*
X95401681Y-60115362D01*
X95539915Y-60179822D01*
X95558633Y-60190629D01*
X95683582Y-60278119D01*
X95700140Y-60292013D01*
X95807986Y-60399859D01*
X95821880Y-60416417D01*
X95909370Y-60541366D01*
X95920177Y-60560084D01*
X95984637Y-60698318D01*
X95992030Y-60718630D01*
X96031507Y-60865961D01*
X96035260Y-60887246D01*
X96049028Y-61044605D01*
X96049500Y-61055413D01*
X96049500Y-68194586D01*
X96049028Y-68205394D01*
X96035260Y-68362753D01*
X96031507Y-68384038D01*
X95992030Y-68531369D01*
X95984637Y-68551681D01*
X95920177Y-68689915D01*
X95909370Y-68708633D01*
X95821880Y-68833582D01*
X95807986Y-68850140D01*
X95700140Y-68957986D01*
X95683582Y-68971880D01*
X95558633Y-69059370D01*
X95539915Y-69070177D01*
X95401681Y-69134637D01*
X95381369Y-69142030D01*
X95234038Y-69181507D01*
X95212753Y-69185260D01*
X95055395Y-69199028D01*
X95044587Y-69199500D01*
X81474000Y-69199500D01*
X81406961Y-69179815D01*
X81361206Y-69127011D01*
X81350000Y-69075500D01*
X81350000Y-63382135D01*
X83499500Y-63382135D01*
X83499500Y-64927870D01*
X83499501Y-64927876D01*
X83505908Y-64987483D01*
X83556202Y-65122328D01*
X83556206Y-65122335D01*
X83642452Y-65237544D01*
X83642455Y-65237547D01*
X83757664Y-65323793D01*
X83757671Y-65323797D01*
X83892517Y-65374091D01*
X83892516Y-65374091D01*
X83899444Y-65374835D01*
X83952127Y-65380500D01*
X85247872Y-65380499D01*
X85307483Y-65374091D01*
X85442331Y-65323796D01*
X85557546Y-65237546D01*
X85643796Y-65122331D01*
X85694091Y-64987483D01*
X85700500Y-64927873D01*
X85700499Y-63382128D01*
X85694091Y-63322517D01*
X85690568Y-63313072D01*
X85643797Y-63187671D01*
X85643793Y-63187664D01*
X85557547Y-63072455D01*
X85557544Y-63072452D01*
X85442335Y-62986206D01*
X85442328Y-62986202D01*
X85307482Y-62935908D01*
X85307483Y-62935908D01*
X85247883Y-62929501D01*
X85247881Y-62929500D01*
X85247873Y-62929500D01*
X85247864Y-62929500D01*
X83952129Y-62929500D01*
X83952123Y-62929501D01*
X83892516Y-62935908D01*
X83757671Y-62986202D01*
X83757664Y-62986206D01*
X83642455Y-63072452D01*
X83642452Y-63072455D01*
X83556206Y-63187664D01*
X83556202Y-63187671D01*
X83505908Y-63322517D01*
X83499501Y-63382116D01*
X83499501Y-63382123D01*
X83499500Y-63382135D01*
X81350000Y-63382135D01*
X81350000Y-63150000D01*
X76573433Y-63150000D01*
X76506394Y-63130315D01*
X76497946Y-63124375D01*
X76313802Y-62983075D01*
X76311746Y-62981888D01*
X76311254Y-62981372D01*
X76310426Y-62980819D01*
X76310549Y-62980633D01*
X76263530Y-62931322D01*
X76250305Y-62862716D01*
X76276272Y-62797850D01*
X76333185Y-62757321D01*
X76373744Y-62750500D01*
X76874676Y-62750500D01*
X76911207Y-62743233D01*
X76947740Y-62735966D01*
X76969545Y-62721396D01*
X77036222Y-62700520D01*
X77038434Y-62700500D01*
X77471118Y-62700500D01*
X77529943Y-62717773D01*
X77530934Y-62715960D01*
X77538716Y-62720208D01*
X77538717Y-62720208D01*
X77538722Y-62720212D01*
X77647231Y-62760683D01*
X77670200Y-62769251D01*
X77728309Y-62775499D01*
X77728326Y-62775500D01*
X78421674Y-62775500D01*
X78421690Y-62775499D01*
X78479799Y-62769251D01*
X78611278Y-62720212D01*
X78723616Y-62636116D01*
X78807712Y-62523778D01*
X78856751Y-62392299D01*
X78857749Y-62383014D01*
X78862999Y-62334190D01*
X78863000Y-62334173D01*
X78863000Y-61765826D01*
X78862999Y-61765809D01*
X78856751Y-61707700D01*
X78807712Y-61576222D01*
X78807709Y-61576218D01*
X78750233Y-61499438D01*
X78725816Y-61433974D01*
X78725500Y-61425128D01*
X78725500Y-61124870D01*
X78745185Y-61057831D01*
X78750234Y-61050558D01*
X78750652Y-61050000D01*
X78807712Y-60973778D01*
X78856751Y-60842299D01*
X78862999Y-60784190D01*
X78863000Y-60784173D01*
X78863000Y-60682820D01*
X78882685Y-60615781D01*
X78891145Y-60604158D01*
X78892772Y-60602175D01*
X78892774Y-60602171D01*
X78892777Y-60602169D01*
X78963965Y-60495627D01*
X79013001Y-60377243D01*
X79029955Y-60292013D01*
X79038000Y-60251571D01*
X79038000Y-59237766D01*
X79057685Y-59170727D01*
X79105705Y-59127282D01*
X79138338Y-59110654D01*
X79138337Y-59110654D01*
X79138342Y-59110652D01*
X79228050Y-59020944D01*
X79277841Y-58923223D01*
X79325813Y-58872430D01*
X79393634Y-58855635D01*
X79459769Y-58878172D01*
X79476005Y-58891840D01*
X79674675Y-59090510D01*
X79776850Y-59149500D01*
X79776851Y-59149501D01*
X79776852Y-59149501D01*
X79800205Y-59162984D01*
X79940215Y-59200500D01*
X79940216Y-59200500D01*
X80085164Y-59200500D01*
X80577525Y-59200500D01*
X82046118Y-59200500D01*
X82104943Y-59217773D01*
X82105934Y-59215960D01*
X82113716Y-59220208D01*
X82113717Y-59220208D01*
X82113722Y-59220212D01*
X82222231Y-59260683D01*
X82245200Y-59269251D01*
X82303309Y-59275499D01*
X82303326Y-59275500D01*
X82996674Y-59275500D01*
X82996690Y-59275499D01*
X83054799Y-59269251D01*
X83186278Y-59220212D01*
X83298616Y-59136116D01*
X83382712Y-59023778D01*
X83431751Y-58892299D01*
X83435693Y-58855635D01*
X83437999Y-58834190D01*
X83438000Y-58834173D01*
X83438000Y-58728410D01*
X83457685Y-58661371D01*
X83474319Y-58640729D01*
X84553229Y-57561819D01*
X84614552Y-57528334D01*
X84640910Y-57525500D01*
X84721674Y-57525500D01*
X84721690Y-57525499D01*
X84779799Y-57519251D01*
X84911278Y-57470212D01*
X85023616Y-57386116D01*
X85107712Y-57273778D01*
X85156751Y-57142299D01*
X85162999Y-57084190D01*
X85163000Y-57084173D01*
X85163000Y-56515826D01*
X85162999Y-56515809D01*
X85156751Y-56457700D01*
X85107712Y-56326222D01*
X85107709Y-56326218D01*
X85050233Y-56249438D01*
X85025816Y-56183974D01*
X85025500Y-56175128D01*
X85025500Y-55898428D01*
X85000502Y-55772761D01*
X85000501Y-55772760D01*
X85000501Y-55772756D01*
X84955996Y-55665311D01*
X84951466Y-55654375D01*
X84951461Y-55654366D01*
X84880277Y-55547832D01*
X84863046Y-55530601D01*
X84789669Y-55457224D01*
X84117025Y-54784580D01*
X84101604Y-54765789D01*
X84037195Y-54669394D01*
X84037190Y-54669388D01*
X83943109Y-54575307D01*
X83943101Y-54575301D01*
X83832479Y-54501386D01*
X83832472Y-54501382D01*
X83832469Y-54501380D01*
X83832465Y-54501378D01*
X83832461Y-54501376D01*
X83709540Y-54450461D01*
X83709530Y-54450458D01*
X83579033Y-54424500D01*
X83579031Y-54424500D01*
X83445969Y-54424500D01*
X83445967Y-54424500D01*
X83315469Y-54450458D01*
X83315459Y-54450461D01*
X83192538Y-54501376D01*
X83192520Y-54501386D01*
X83081898Y-54575301D01*
X83081890Y-54575307D01*
X82987807Y-54669390D01*
X82987801Y-54669398D01*
X82913886Y-54780020D01*
X82913876Y-54780038D01*
X82862961Y-54902959D01*
X82862958Y-54902969D01*
X82837000Y-55033466D01*
X82837000Y-55033469D01*
X82837000Y-55166531D01*
X82837000Y-55166533D01*
X82836999Y-55166533D01*
X82862958Y-55297030D01*
X82862961Y-55297040D01*
X82913876Y-55419961D01*
X82913886Y-55419979D01*
X82987801Y-55530601D01*
X82987807Y-55530609D01*
X83081888Y-55624690D01*
X83081895Y-55624696D01*
X83178289Y-55689104D01*
X83197080Y-55704525D01*
X83641868Y-56149313D01*
X83675353Y-56210636D01*
X83670369Y-56280328D01*
X83653456Y-56311302D01*
X83642289Y-56326219D01*
X83642287Y-56326222D01*
X83593248Y-56457700D01*
X83587000Y-56515809D01*
X83587000Y-56636794D01*
X83567315Y-56703833D01*
X83550681Y-56724475D01*
X82486975Y-57788181D01*
X82425652Y-57821666D01*
X82399294Y-57824500D01*
X82303309Y-57824500D01*
X82245200Y-57830748D01*
X82113719Y-57879789D01*
X82001383Y-57963884D01*
X81937058Y-58049812D01*
X81881124Y-58091682D01*
X81837792Y-58099500D01*
X81326126Y-58099500D01*
X81306728Y-58097973D01*
X81206524Y-58082102D01*
X81206519Y-58082102D01*
X80274679Y-58082102D01*
X80245238Y-58073457D01*
X80215252Y-58066934D01*
X80210236Y-58063179D01*
X80207640Y-58062417D01*
X80186998Y-58045783D01*
X80073319Y-57932104D01*
X80039834Y-57870781D01*
X80037000Y-57844423D01*
X80037000Y-57530388D01*
X80056685Y-57463349D01*
X80073319Y-57442707D01*
X80179207Y-57336819D01*
X80240530Y-57303334D01*
X80266888Y-57300500D01*
X80722474Y-57300500D01*
X80722475Y-57300500D01*
X80771635Y-57287326D01*
X80803730Y-57283101D01*
X81206517Y-57283101D01*
X81206518Y-57283101D01*
X81300304Y-57268248D01*
X81413342Y-57210652D01*
X81503050Y-57120944D01*
X81560646Y-57007906D01*
X81560646Y-57007904D01*
X81560647Y-57007903D01*
X81575499Y-56914126D01*
X81575500Y-56914121D01*
X81575499Y-56551084D01*
X81560646Y-56457298D01*
X81503050Y-56344260D01*
X81503046Y-56344256D01*
X81503045Y-56344254D01*
X81413347Y-56254556D01*
X81413344Y-56254554D01*
X81413342Y-56254552D01*
X81336517Y-56215407D01*
X81300301Y-56196954D01*
X81206524Y-56182102D01*
X80118482Y-56182102D01*
X80056757Y-56191878D01*
X80024696Y-56196956D01*
X80024694Y-56196956D01*
X80018272Y-56197974D01*
X79998875Y-56199500D01*
X79915026Y-56199500D01*
X79818778Y-56225290D01*
X79775015Y-56237016D01*
X79649488Y-56309488D01*
X79479247Y-56479728D01*
X79417923Y-56513212D01*
X79348232Y-56508228D01*
X79292298Y-56466356D01*
X79281087Y-56448351D01*
X79228050Y-56344260D01*
X79228048Y-56344258D01*
X79228045Y-56344254D01*
X79138347Y-56254556D01*
X79138344Y-56254554D01*
X79138342Y-56254552D01*
X79061517Y-56215407D01*
X79025301Y-56196954D01*
X78931524Y-56182102D01*
X77843482Y-56182102D01*
X77762519Y-56194925D01*
X77749696Y-56196956D01*
X77636658Y-56254552D01*
X77636657Y-56254553D01*
X77636652Y-56254556D01*
X77546954Y-56344254D01*
X77546951Y-56344259D01*
X77489352Y-56457300D01*
X77474500Y-56551077D01*
X77474500Y-56914119D01*
X77479749Y-56947259D01*
X77489354Y-57007906D01*
X77546950Y-57120944D01*
X77546952Y-57120946D01*
X77546954Y-57120949D01*
X77636652Y-57210647D01*
X77636654Y-57210648D01*
X77636658Y-57210652D01*
X77749694Y-57268247D01*
X77749698Y-57268249D01*
X77843475Y-57283101D01*
X77843481Y-57283102D01*
X78812000Y-57283101D01*
X78879039Y-57302785D01*
X78924794Y-57355589D01*
X78936000Y-57407101D01*
X78936000Y-57958102D01*
X78933449Y-57966787D01*
X78934738Y-57975749D01*
X78923759Y-57999789D01*
X78916315Y-58025141D01*
X78909474Y-58031068D01*
X78905713Y-58039305D01*
X78883478Y-58053594D01*
X78863511Y-58070896D01*
X78852996Y-58073183D01*
X78846935Y-58077079D01*
X78812000Y-58082102D01*
X78772101Y-58082102D01*
X78705062Y-58062417D01*
X78703216Y-58061208D01*
X78695627Y-58056137D01*
X78695624Y-58056135D01*
X78695623Y-58056135D01*
X78577244Y-58007101D01*
X78577238Y-58007099D01*
X78451571Y-57982102D01*
X78451569Y-57982102D01*
X78323431Y-57982102D01*
X78323429Y-57982102D01*
X78197761Y-58007099D01*
X78197755Y-58007101D01*
X78079372Y-58056137D01*
X78079368Y-58056139D01*
X78071782Y-58061208D01*
X78005104Y-58082082D01*
X78002899Y-58082102D01*
X77843482Y-58082102D01*
X77762519Y-58094925D01*
X77749696Y-58096956D01*
X77636658Y-58154552D01*
X77636657Y-58154553D01*
X77636652Y-58154556D01*
X77546954Y-58244254D01*
X77546951Y-58244259D01*
X77489352Y-58357300D01*
X77474500Y-58451077D01*
X77474500Y-58814119D01*
X77483736Y-58872430D01*
X77489354Y-58907906D01*
X77546950Y-59020944D01*
X77546952Y-59020946D01*
X77546954Y-59020949D01*
X77636652Y-59110647D01*
X77636661Y-59110654D01*
X77669295Y-59127282D01*
X77720091Y-59175256D01*
X77737000Y-59237766D01*
X77737000Y-59669739D01*
X77717315Y-59736778D01*
X77664511Y-59782533D01*
X77656334Y-59785920D01*
X77538722Y-59829787D01*
X77426384Y-59913884D01*
X77342288Y-60026221D01*
X77330832Y-60056936D01*
X77288959Y-60112869D01*
X77223495Y-60137284D01*
X77155222Y-60122431D01*
X77105818Y-60073025D01*
X77093033Y-60037790D01*
X77092605Y-60035637D01*
X77085966Y-60002260D01*
X77030601Y-59919399D01*
X77006209Y-59903101D01*
X76961405Y-59849491D01*
X76952698Y-59780166D01*
X76982852Y-59717138D01*
X77006210Y-59696898D01*
X77030601Y-59680601D01*
X77085966Y-59597740D01*
X77100500Y-59524674D01*
X77100500Y-58575326D01*
X77100500Y-58575323D01*
X77100499Y-58575321D01*
X77085967Y-58502264D01*
X77085966Y-58502260D01*
X77070969Y-58479815D01*
X77030601Y-58419399D01*
X77006209Y-58403101D01*
X76961405Y-58349491D01*
X76952698Y-58280166D01*
X76982852Y-58217138D01*
X77006210Y-58196898D01*
X77030601Y-58180601D01*
X77085966Y-58097740D01*
X77100500Y-58024674D01*
X77100500Y-57075326D01*
X77100500Y-57075323D01*
X77100499Y-57075321D01*
X77085967Y-57002264D01*
X77085966Y-57002260D01*
X77030601Y-56919399D01*
X77006209Y-56903101D01*
X76961405Y-56849491D01*
X76952698Y-56780166D01*
X76982852Y-56717138D01*
X77006210Y-56696898D01*
X77030601Y-56680601D01*
X77085966Y-56597740D01*
X77100500Y-56524674D01*
X77100500Y-55575326D01*
X77100500Y-55575323D01*
X77100499Y-55575321D01*
X77085967Y-55502264D01*
X77085966Y-55502260D01*
X77063664Y-55468882D01*
X77030601Y-55419399D01*
X77006209Y-55403101D01*
X76961405Y-55349491D01*
X76952698Y-55280166D01*
X76982852Y-55217138D01*
X77006207Y-55196899D01*
X77030601Y-55180601D01*
X77085966Y-55097740D01*
X77100500Y-55024674D01*
X77100500Y-54585911D01*
X77387000Y-54585911D01*
X77387000Y-55279292D01*
X77393248Y-55337401D01*
X77442289Y-55468882D01*
X77458159Y-55490081D01*
X77526384Y-55581218D01*
X77638722Y-55665314D01*
X77720692Y-55695887D01*
X77770200Y-55714353D01*
X77828309Y-55720601D01*
X77828326Y-55720602D01*
X78396674Y-55720602D01*
X78396690Y-55720601D01*
X78454799Y-55714353D01*
X78474111Y-55707150D01*
X78586278Y-55665314D01*
X78663060Y-55607835D01*
X78728524Y-55583418D01*
X78737371Y-55583102D01*
X79187629Y-55583102D01*
X79254668Y-55602787D01*
X79261940Y-55607835D01*
X79331644Y-55660016D01*
X79338722Y-55665314D01*
X79420692Y-55695887D01*
X79470200Y-55714353D01*
X79528309Y-55720601D01*
X79528326Y-55720602D01*
X80096674Y-55720602D01*
X80096690Y-55720601D01*
X80154799Y-55714353D01*
X80204308Y-55695887D01*
X80286278Y-55665314D01*
X80286436Y-55665195D01*
X80312968Y-55645335D01*
X80333713Y-55637597D01*
X80352343Y-55625625D01*
X80374261Y-55622473D01*
X80378432Y-55620918D01*
X80387278Y-55620602D01*
X80556337Y-55620602D01*
X80623376Y-55640287D01*
X80644019Y-55656922D01*
X80681890Y-55694794D01*
X80681898Y-55694800D01*
X80792520Y-55768715D01*
X80792523Y-55768716D01*
X80792531Y-55768722D01*
X80792537Y-55768724D01*
X80792538Y-55768725D01*
X80802270Y-55772756D01*
X80915464Y-55819642D01*
X80915468Y-55819642D01*
X80915469Y-55819643D01*
X81045966Y-55845602D01*
X81045969Y-55845602D01*
X81179033Y-55845602D01*
X81266825Y-55828137D01*
X81309536Y-55819642D01*
X81432469Y-55768722D01*
X81543106Y-55694797D01*
X81637195Y-55600708D01*
X81711120Y-55490071D01*
X81762040Y-55367138D01*
X81776016Y-55296879D01*
X81788000Y-55236635D01*
X81788000Y-55103568D01*
X81762041Y-54973071D01*
X81762040Y-54973070D01*
X81762040Y-54973066D01*
X81711120Y-54850133D01*
X81696015Y-54827527D01*
X81637198Y-54739500D01*
X81637192Y-54739492D01*
X81543109Y-54645409D01*
X81543101Y-54645403D01*
X81446712Y-54580998D01*
X81427925Y-54565581D01*
X81327169Y-54464825D01*
X81220627Y-54393637D01*
X81102244Y-54344601D01*
X81102238Y-54344599D01*
X80976571Y-54319602D01*
X80976569Y-54319602D01*
X80485594Y-54319602D01*
X80418555Y-54299917D01*
X80401012Y-54285780D01*
X80286280Y-54199891D01*
X80286278Y-54199890D01*
X80259644Y-54189956D01*
X80154799Y-54150850D01*
X80096690Y-54144602D01*
X80096674Y-54144602D01*
X79528326Y-54144602D01*
X79528309Y-54144602D01*
X79470200Y-54150850D01*
X79338719Y-54199891D01*
X79261940Y-54257369D01*
X79196476Y-54281786D01*
X79187629Y-54282102D01*
X78737371Y-54282102D01*
X78670332Y-54262417D01*
X78663060Y-54257369D01*
X78586280Y-54199891D01*
X78586278Y-54199890D01*
X78559644Y-54189956D01*
X78454799Y-54150850D01*
X78396690Y-54144602D01*
X78396674Y-54144602D01*
X77828326Y-54144602D01*
X77828309Y-54144602D01*
X77770200Y-54150850D01*
X77638719Y-54199891D01*
X77526384Y-54283986D01*
X77442289Y-54396321D01*
X77393248Y-54527802D01*
X77387000Y-54585911D01*
X77100500Y-54585911D01*
X77100500Y-54075326D01*
X77100500Y-54075323D01*
X77100499Y-54075321D01*
X77085967Y-54002264D01*
X77085966Y-54002260D01*
X77030601Y-53919399D01*
X77006209Y-53903101D01*
X76961405Y-53849491D01*
X76952698Y-53780166D01*
X76982852Y-53717138D01*
X77006207Y-53696899D01*
X77030601Y-53680601D01*
X77085966Y-53597740D01*
X77100500Y-53524674D01*
X77100500Y-52575326D01*
X77100500Y-52575323D01*
X77100499Y-52575321D01*
X77085967Y-52502264D01*
X77085966Y-52502260D01*
X77082432Y-52496971D01*
X77030601Y-52419399D01*
X77006209Y-52403101D01*
X76961405Y-52349491D01*
X76952698Y-52280166D01*
X76982852Y-52217138D01*
X77006207Y-52196899D01*
X77030601Y-52180601D01*
X77085966Y-52097740D01*
X77100500Y-52024674D01*
X77100500Y-51075326D01*
X77100500Y-51075323D01*
X77100499Y-51075321D01*
X77085967Y-51002264D01*
X77085966Y-51002260D01*
X77057729Y-50960000D01*
X77030601Y-50919399D01*
X76947740Y-50864034D01*
X76947739Y-50864033D01*
X76947735Y-50864032D01*
X76874677Y-50849500D01*
X76874674Y-50849500D01*
X75527386Y-50849500D01*
X75460347Y-50829815D01*
X75439705Y-50813181D01*
X74946293Y-50319769D01*
X74436015Y-49809490D01*
X74310485Y-49737016D01*
X74310486Y-49737016D01*
X74220797Y-49712984D01*
X74220797Y-49712983D01*
X74170475Y-49699500D01*
X73479600Y-49699500D01*
X73412561Y-49679815D01*
X73410748Y-49678628D01*
X73369969Y-49651380D01*
X73369965Y-49651378D01*
X73369961Y-49651376D01*
X73247040Y-49600461D01*
X73247030Y-49600458D01*
X73116533Y-49574500D01*
X73116531Y-49574500D01*
X72983469Y-49574500D01*
X72983467Y-49574500D01*
X72852969Y-49600458D01*
X72852959Y-49600461D01*
X72730038Y-49651376D01*
X72730020Y-49651386D01*
X72619398Y-49725301D01*
X72619390Y-49725307D01*
X72525307Y-49819390D01*
X72525301Y-49819398D01*
X72451386Y-49930020D01*
X72451376Y-49930038D01*
X72400461Y-50052959D01*
X72400458Y-50052969D01*
X72396117Y-50074795D01*
X72363732Y-50136706D01*
X72303016Y-50171280D01*
X72233246Y-50167539D01*
X72176574Y-50126673D01*
X72150993Y-50061654D01*
X72150500Y-50050603D01*
X72150500Y-48609450D01*
X72170185Y-48542411D01*
X72222989Y-48496656D01*
X72274500Y-48485450D01*
X72639676Y-48485450D01*
X72639677Y-48485449D01*
X72712740Y-48470916D01*
X72795601Y-48415551D01*
X72850966Y-48332690D01*
X72865500Y-48259624D01*
X72865500Y-46510276D01*
X72865500Y-46510273D01*
X72865499Y-46510271D01*
X72850967Y-46437214D01*
X72850966Y-46437210D01*
X72831103Y-46407483D01*
X72795601Y-46354349D01*
X72712740Y-46298984D01*
X72712739Y-46298983D01*
X72712735Y-46298982D01*
X72639677Y-46284450D01*
X72639674Y-46284450D01*
X70890326Y-46284450D01*
X70890323Y-46284450D01*
X70817264Y-46298982D01*
X70817260Y-46298983D01*
X70734399Y-46354349D01*
X70679033Y-46437210D01*
X70679032Y-46437214D01*
X70664500Y-46510271D01*
X70664500Y-48259628D01*
X70679032Y-48332685D01*
X70679033Y-48332689D01*
X70679034Y-48332690D01*
X70734399Y-48415551D01*
X70794391Y-48455636D01*
X70839195Y-48509246D01*
X70849500Y-48558737D01*
X70849500Y-50295577D01*
X70847117Y-50319769D01*
X70824500Y-50433466D01*
X70824500Y-50433469D01*
X70824500Y-50566531D01*
X70824500Y-50566533D01*
X70824499Y-50566533D01*
X70850458Y-50697030D01*
X70850461Y-50697040D01*
X70901376Y-50819961D01*
X70901386Y-50819979D01*
X70975301Y-50930601D01*
X70975307Y-50930609D01*
X71069390Y-51024692D01*
X71069398Y-51024698D01*
X71180020Y-51098613D01*
X71180023Y-51098614D01*
X71180031Y-51098620D01*
X71302964Y-51149540D01*
X71302968Y-51149540D01*
X71302969Y-51149541D01*
X71433466Y-51175500D01*
X71433469Y-51175500D01*
X71566533Y-51175500D01*
X71654325Y-51158035D01*
X71697036Y-51149540D01*
X71819969Y-51098620D01*
X71930606Y-51024695D01*
X72024695Y-50930606D01*
X72098620Y-50819969D01*
X72149540Y-50697036D01*
X72171425Y-50587016D01*
X72175500Y-50566533D01*
X72175500Y-50527324D01*
X72195185Y-50460285D01*
X72247989Y-50414530D01*
X72317147Y-50404586D01*
X72380703Y-50433611D01*
X72414061Y-50479872D01*
X72451376Y-50569961D01*
X72451386Y-50569979D01*
X72525301Y-50680601D01*
X72525307Y-50680609D01*
X72619390Y-50774692D01*
X72619398Y-50774698D01*
X72730020Y-50848613D01*
X72730023Y-50848614D01*
X72730031Y-50848620D01*
X72730037Y-50848622D01*
X72730038Y-50848623D01*
X72767244Y-50864034D01*
X72852964Y-50899540D01*
X72852968Y-50899540D01*
X72852969Y-50899541D01*
X72983466Y-50925500D01*
X72983469Y-50925500D01*
X73116533Y-50925500D01*
X73204325Y-50908035D01*
X73247036Y-50899540D01*
X73369969Y-50848620D01*
X73410710Y-50821397D01*
X73477386Y-50800520D01*
X73479600Y-50800500D01*
X73818613Y-50800500D01*
X73885652Y-50820185D01*
X73906294Y-50836819D01*
X74086601Y-51017126D01*
X74120086Y-51078449D01*
X74115102Y-51148141D01*
X74073230Y-51204074D01*
X74033257Y-51221916D01*
X74033796Y-51223691D01*
X74027959Y-51225461D01*
X73905038Y-51276376D01*
X73905020Y-51276386D01*
X73794398Y-51350301D01*
X73794390Y-51350307D01*
X73700307Y-51444390D01*
X73700301Y-51444398D01*
X73626386Y-51555020D01*
X73626376Y-51555038D01*
X73575461Y-51677959D01*
X73575458Y-51677969D01*
X73549500Y-51808466D01*
X73549500Y-51808469D01*
X73549500Y-51941531D01*
X73549500Y-51941533D01*
X73549499Y-51941533D01*
X73575458Y-52072030D01*
X73575461Y-52072040D01*
X73626376Y-52194962D01*
X73626378Y-52194966D01*
X73626380Y-52194969D01*
X73628600Y-52198291D01*
X73629228Y-52200297D01*
X73629249Y-52200336D01*
X73629241Y-52200339D01*
X73649480Y-52264964D01*
X73649500Y-52267184D01*
X73649500Y-53822475D01*
X73660636Y-53864034D01*
X73687016Y-53962485D01*
X73759490Y-54088015D01*
X74661985Y-54990510D01*
X74787515Y-55062984D01*
X74927525Y-55100500D01*
X74927526Y-55100500D01*
X75049598Y-55100500D01*
X75116637Y-55120185D01*
X75137395Y-55136935D01*
X75145962Y-55145525D01*
X75169399Y-55180601D01*
X75204010Y-55203726D01*
X75212695Y-55212435D01*
X75223756Y-55232755D01*
X75238594Y-55250511D01*
X75240145Y-55262866D01*
X75246099Y-55273803D01*
X75244417Y-55296879D01*
X75247301Y-55319836D01*
X75241926Y-55331068D01*
X75241022Y-55343488D01*
X75227131Y-55361992D01*
X75217146Y-55382863D01*
X75200892Y-55396947D01*
X75199077Y-55399366D01*
X75197369Y-55400000D01*
X75193791Y-55403100D01*
X75169399Y-55419399D01*
X75114033Y-55502260D01*
X75114032Y-55502264D01*
X75099500Y-55575321D01*
X75099500Y-56524678D01*
X75111947Y-56587253D01*
X75105720Y-56656844D01*
X75062857Y-56712022D01*
X74996967Y-56735266D01*
X74928970Y-56719198D01*
X74902649Y-56699125D01*
X72548125Y-54344601D01*
X69986819Y-51783294D01*
X69953334Y-51721971D01*
X69950500Y-51695613D01*
X69950500Y-46829387D01*
X69970185Y-46762348D01*
X69986819Y-46741706D01*
X70791706Y-45936819D01*
X70853029Y-45903334D01*
X70879387Y-45900500D01*
X75120613Y-45900500D01*
X75187652Y-45920185D01*
X75208294Y-45936819D01*
X75708181Y-46436706D01*
X75741666Y-46498029D01*
X75744500Y-46524387D01*
X75744500Y-48259628D01*
X75759032Y-48332685D01*
X75759033Y-48332689D01*
X75759034Y-48332690D01*
X75814399Y-48415551D01*
X75880549Y-48459750D01*
X75897260Y-48470916D01*
X75897264Y-48470917D01*
X75970321Y-48485449D01*
X75970324Y-48485450D01*
X75970326Y-48485450D01*
X76276569Y-48485450D01*
X76343608Y-48505135D01*
X76383956Y-48547450D01*
X76404487Y-48583011D01*
X76404489Y-48583014D01*
X76404490Y-48583015D01*
X79361985Y-51540510D01*
X79462232Y-51598387D01*
X79487515Y-51612984D01*
X79627525Y-51650500D01*
X79627526Y-51650500D01*
X79772474Y-51650500D01*
X82420613Y-51650500D01*
X82487652Y-51670185D01*
X82508294Y-51686819D01*
X85913181Y-55091705D01*
X85946666Y-55153028D01*
X85949500Y-55179386D01*
X85949500Y-62067974D01*
X85968777Y-62139915D01*
X85974071Y-62159672D01*
X85987016Y-62207984D01*
X86059489Y-62333512D01*
X86059491Y-62333515D01*
X86513181Y-62787205D01*
X86527884Y-62814132D01*
X86544477Y-62839951D01*
X86545368Y-62846151D01*
X86546666Y-62848528D01*
X86549500Y-62874886D01*
X86549500Y-63006488D01*
X86529815Y-63073527D01*
X86498385Y-63106806D01*
X86383075Y-63190583D01*
X86383069Y-63190588D01*
X86260588Y-63313069D01*
X86260588Y-63313070D01*
X86260586Y-63313072D01*
X86253725Y-63322516D01*
X86158768Y-63453211D01*
X86080128Y-63607552D01*
X86026597Y-63772302D01*
X85999500Y-63943389D01*
X85999500Y-64366611D01*
X86026598Y-64537701D01*
X86080127Y-64702445D01*
X86158768Y-64856788D01*
X86260586Y-64996928D01*
X86383072Y-65119414D01*
X86523212Y-65221232D01*
X86677555Y-65299873D01*
X86842299Y-65353402D01*
X87013389Y-65380500D01*
X87013390Y-65380500D01*
X87186610Y-65380500D01*
X87186611Y-65380500D01*
X87357701Y-65353402D01*
X87522445Y-65299873D01*
X87676788Y-65221232D01*
X87816928Y-65119414D01*
X87939414Y-64996928D01*
X88041232Y-64856788D01*
X88119873Y-64702445D01*
X88173402Y-64537701D01*
X88200500Y-64366611D01*
X88200500Y-63943389D01*
X88173402Y-63772299D01*
X88119873Y-63607555D01*
X88041232Y-63453212D01*
X87939414Y-63313072D01*
X87816928Y-63190586D01*
X87701614Y-63106805D01*
X87658949Y-63051476D01*
X87650500Y-63006488D01*
X87650500Y-62523026D01*
X87650500Y-62523024D01*
X87612984Y-62383014D01*
X87609290Y-62376617D01*
X87609289Y-62376612D01*
X87609288Y-62376613D01*
X87540510Y-62257484D01*
X87086819Y-61803793D01*
X87053334Y-61742470D01*
X87050500Y-61716112D01*
X87050500Y-54827527D01*
X87050500Y-54827525D01*
X87012984Y-54687515D01*
X87002522Y-54669394D01*
X86940510Y-54561986D01*
X83038015Y-50659490D01*
X82912485Y-50587016D01*
X82844816Y-50568884D01*
X82844815Y-50568883D01*
X82791858Y-50554693D01*
X82772475Y-50549500D01*
X82772474Y-50549500D01*
X79979387Y-50549500D01*
X79912348Y-50529815D01*
X79891706Y-50513181D01*
X77914904Y-48536379D01*
X77881419Y-48475056D01*
X77886403Y-48405364D01*
X77899479Y-48379813D01*
X77930966Y-48332690D01*
X77945500Y-48259624D01*
X77945500Y-46510276D01*
X77945500Y-46510273D01*
X77945499Y-46510271D01*
X77930967Y-46437214D01*
X77930966Y-46437210D01*
X77911103Y-46407483D01*
X77875601Y-46354349D01*
X77792740Y-46298984D01*
X77792739Y-46298983D01*
X77792735Y-46298982D01*
X77719677Y-46284450D01*
X77719674Y-46284450D01*
X77164336Y-46284450D01*
X77097297Y-46264765D01*
X77076655Y-46248131D01*
X76414973Y-45586449D01*
X75738015Y-44909490D01*
X75738014Y-44909489D01*
X75738011Y-44909487D01*
X75612488Y-44837017D01*
X75612485Y-44837016D01*
X75608436Y-44835931D01*
X75472475Y-44799500D01*
X70527525Y-44799500D01*
X70391564Y-44835931D01*
X70387908Y-44836910D01*
X70387511Y-44837017D01*
X70261988Y-44909487D01*
X70261983Y-44909491D01*
X68959491Y-46211983D01*
X68959489Y-46211986D01*
X68919042Y-46282043D01*
X68909263Y-46298983D01*
X68893398Y-46326462D01*
X68893396Y-46326464D01*
X68887017Y-46337512D01*
X68887016Y-46337514D01*
X68887016Y-46337515D01*
X68849500Y-46477525D01*
X68849500Y-51902526D01*
X68849500Y-52047474D01*
X68887016Y-52187485D01*
X68959490Y-52313015D01*
X74636986Y-57990510D01*
X74665723Y-58007101D01*
X74762515Y-58062984D01*
X74902525Y-58100500D01*
X74902526Y-58100500D01*
X75047474Y-58100500D01*
X75049598Y-58100500D01*
X75116637Y-58120185D01*
X75137395Y-58136935D01*
X75145962Y-58145525D01*
X75169399Y-58180601D01*
X75204010Y-58203726D01*
X75212695Y-58212435D01*
X75223756Y-58232755D01*
X75238594Y-58250511D01*
X75240145Y-58262866D01*
X75246099Y-58273803D01*
X75244417Y-58296879D01*
X75247301Y-58319836D01*
X75241926Y-58331068D01*
X75241022Y-58343488D01*
X75227131Y-58361992D01*
X75217146Y-58382863D01*
X75200892Y-58396947D01*
X75199077Y-58399366D01*
X75197369Y-58400000D01*
X75193791Y-58403100D01*
X75169404Y-58419396D01*
X75169398Y-58419400D01*
X75152700Y-58444391D01*
X75099088Y-58489196D01*
X75049598Y-58499500D01*
X73979387Y-58499500D01*
X73912348Y-58479815D01*
X73891706Y-58463181D01*
X67986819Y-52558294D01*
X67953334Y-52496971D01*
X67950500Y-52470613D01*
X67950500Y-46029386D01*
X67970185Y-45962347D01*
X67986819Y-45941705D01*
X69991705Y-43936819D01*
X70053028Y-43903334D01*
X70079386Y-43900500D01*
X75970613Y-43900500D01*
X76037652Y-43920185D01*
G37*
%TD.AperFunction*%
%TA.AperFunction,Conductor*%
G36*
X94196231Y-22720185D02*
G01*
X94216873Y-22736819D01*
X94713181Y-23233127D01*
X94746666Y-23294450D01*
X94749500Y-23320808D01*
X94749500Y-24026512D01*
X94729815Y-24093551D01*
X94677011Y-24139306D01*
X94607853Y-24149250D01*
X94544297Y-24120225D01*
X94510939Y-24073965D01*
X94470942Y-23977403D01*
X94355975Y-23805342D01*
X94209657Y-23659024D01*
X94055771Y-23556202D01*
X94037598Y-23544059D01*
X94036736Y-23543702D01*
X93846420Y-23464870D01*
X93846412Y-23464868D01*
X93643469Y-23424500D01*
X93643465Y-23424500D01*
X93436535Y-23424500D01*
X93436530Y-23424500D01*
X93233587Y-23464868D01*
X93233579Y-23464870D01*
X93042403Y-23544058D01*
X92870342Y-23659024D01*
X92724024Y-23805342D01*
X92609058Y-23977403D01*
X92529870Y-24168579D01*
X92529868Y-24168587D01*
X92489500Y-24371530D01*
X92489500Y-24578469D01*
X92529868Y-24781412D01*
X92529870Y-24781420D01*
X92597798Y-24945413D01*
X92609059Y-24972598D01*
X92640719Y-25019981D01*
X92724024Y-25144657D01*
X92870342Y-25290975D01*
X92870345Y-25290977D01*
X93042402Y-25405941D01*
X93233580Y-25485130D01*
X93436530Y-25525499D01*
X93436534Y-25525500D01*
X93436535Y-25525500D01*
X93643466Y-25525500D01*
X93643467Y-25525499D01*
X93846420Y-25485130D01*
X94037598Y-25405941D01*
X94209655Y-25290977D01*
X94355977Y-25144655D01*
X94470941Y-24972598D01*
X94472155Y-24969669D01*
X94510939Y-24876035D01*
X94554780Y-24821631D01*
X94621074Y-24799566D01*
X94688773Y-24816845D01*
X94736384Y-24867982D01*
X94749500Y-24923487D01*
X94749500Y-25379192D01*
X94729815Y-25446231D01*
X94713181Y-25466873D01*
X92066873Y-28113181D01*
X92005550Y-28146666D01*
X91979192Y-28149500D01*
X91385929Y-28149500D01*
X91260261Y-28174497D01*
X91260255Y-28174499D01*
X91141875Y-28223533D01*
X91141866Y-28223538D01*
X91035331Y-28294723D01*
X91035327Y-28294726D01*
X90944726Y-28385327D01*
X90944723Y-28385331D01*
X90873538Y-28491866D01*
X90873533Y-28491875D01*
X90824499Y-28610255D01*
X90824497Y-28610261D01*
X90799500Y-28735928D01*
X90799500Y-29887679D01*
X90779815Y-29954718D01*
X90749813Y-29986944D01*
X90742459Y-29992449D01*
X90742451Y-29992457D01*
X90656206Y-30107664D01*
X90656202Y-30107671D01*
X90605908Y-30242517D01*
X90600364Y-30294091D01*
X90599501Y-30302123D01*
X90599500Y-30302135D01*
X90599500Y-31297870D01*
X90599501Y-31297876D01*
X90605908Y-31357483D01*
X90656202Y-31492328D01*
X90656203Y-31492329D01*
X90656204Y-31492331D01*
X90742454Y-31607546D01*
X90749042Y-31612478D01*
X90749808Y-31613051D01*
X90752546Y-31616708D01*
X90756703Y-31618607D01*
X90773290Y-31644417D01*
X90791681Y-31668983D01*
X90792697Y-31674615D01*
X90794477Y-31677385D01*
X90799500Y-31712320D01*
X90799500Y-31902079D01*
X90779815Y-31969118D01*
X90749812Y-32001345D01*
X90726387Y-32018880D01*
X90726385Y-32018883D01*
X90642289Y-32131219D01*
X90593248Y-32262700D01*
X90587000Y-32320809D01*
X90587000Y-32889190D01*
X90593248Y-32947299D01*
X90631368Y-33049500D01*
X90641613Y-33076969D01*
X90642289Y-33078780D01*
X90699766Y-33155558D01*
X90707504Y-33176305D01*
X90719477Y-33194935D01*
X90722628Y-33216852D01*
X90724184Y-33221023D01*
X90724500Y-33229870D01*
X90724500Y-33330500D01*
X90704815Y-33397539D01*
X90652011Y-33443294D01*
X90600500Y-33454500D01*
X88320505Y-33454500D01*
X88194837Y-33479497D01*
X88194831Y-33479499D01*
X88076451Y-33528533D01*
X88076442Y-33528538D01*
X87969907Y-33599723D01*
X87969903Y-33599726D01*
X85974727Y-35594901D01*
X85970863Y-35599611D01*
X85968830Y-35597943D01*
X85923935Y-35635427D01*
X85854606Y-35644101D01*
X85791593Y-35613916D01*
X85754903Y-35554455D01*
X85750500Y-35521707D01*
X85750500Y-35020808D01*
X85770185Y-34953769D01*
X85786819Y-34933127D01*
X88105273Y-32614673D01*
X88105277Y-32614669D01*
X88176465Y-32508127D01*
X88225501Y-32389744D01*
X88235345Y-32340256D01*
X88250500Y-32264069D01*
X88250500Y-30870808D01*
X88270185Y-30803769D01*
X88286819Y-30783127D01*
X89905273Y-29164673D01*
X89905277Y-29164669D01*
X89976465Y-29058127D01*
X89992059Y-29020480D01*
X90025501Y-28939744D01*
X90041828Y-28857664D01*
X90050500Y-28814071D01*
X90050500Y-26135928D01*
X90025502Y-26010261D01*
X90025501Y-26010260D01*
X90025501Y-26010256D01*
X89976465Y-25891873D01*
X89975042Y-25889744D01*
X89956496Y-25861986D01*
X89905275Y-25785328D01*
X89905272Y-25785325D01*
X89343378Y-25223432D01*
X89309893Y-25162109D01*
X89314877Y-25092418D01*
X89327955Y-25066863D01*
X89390941Y-24972598D01*
X89470130Y-24781420D01*
X89510500Y-24578465D01*
X89510500Y-24371535D01*
X89470130Y-24168580D01*
X89390941Y-23977402D01*
X89275977Y-23805345D01*
X89275975Y-23805342D01*
X89170954Y-23700321D01*
X89999500Y-23700321D01*
X89999500Y-25249678D01*
X90014032Y-25322735D01*
X90014033Y-25322739D01*
X90031696Y-25349173D01*
X90069399Y-25405601D01*
X90135465Y-25449744D01*
X90152260Y-25460966D01*
X90152264Y-25460967D01*
X90225321Y-25475499D01*
X90225324Y-25475500D01*
X90225326Y-25475500D01*
X91774676Y-25475500D01*
X91774677Y-25475499D01*
X91847740Y-25460966D01*
X91930601Y-25405601D01*
X91985966Y-25322740D01*
X92000500Y-25249674D01*
X92000500Y-23700326D01*
X92000500Y-23700323D01*
X92000499Y-23700321D01*
X91985967Y-23627264D01*
X91985966Y-23627260D01*
X91930601Y-23544399D01*
X91854288Y-23493409D01*
X91847739Y-23489033D01*
X91847735Y-23489032D01*
X91774677Y-23474500D01*
X91774674Y-23474500D01*
X90225326Y-23474500D01*
X90225323Y-23474500D01*
X90152264Y-23489032D01*
X90152260Y-23489033D01*
X90069399Y-23544399D01*
X90014033Y-23627260D01*
X90014032Y-23627264D01*
X89999500Y-23700321D01*
X89170954Y-23700321D01*
X89129657Y-23659024D01*
X88975771Y-23556202D01*
X88957598Y-23544059D01*
X88956736Y-23543702D01*
X88766420Y-23464870D01*
X88766412Y-23464868D01*
X88563469Y-23424500D01*
X88563465Y-23424500D01*
X88356535Y-23424500D01*
X88356530Y-23424500D01*
X88153587Y-23464868D01*
X88153579Y-23464870D01*
X87962403Y-23544058D01*
X87790342Y-23659024D01*
X87644024Y-23805342D01*
X87529058Y-23977403D01*
X87449870Y-24168579D01*
X87449868Y-24168587D01*
X87409500Y-24371530D01*
X87409500Y-24578469D01*
X87449868Y-24781412D01*
X87449870Y-24781420D01*
X87517798Y-24945413D01*
X87529059Y-24972598D01*
X87560719Y-25019981D01*
X87644024Y-25144657D01*
X87779441Y-25280074D01*
X87788503Y-25296669D01*
X87801635Y-25310279D01*
X87812042Y-25339778D01*
X87812926Y-25341397D01*
X87813377Y-25343562D01*
X87830173Y-25427996D01*
X87830173Y-25427997D01*
X87830174Y-25428000D01*
X87834499Y-25449744D01*
X87883535Y-25568127D01*
X87937783Y-25649316D01*
X87954726Y-25674673D01*
X87954727Y-25674674D01*
X88713181Y-26433127D01*
X88746666Y-26494450D01*
X88749500Y-26520808D01*
X88749500Y-28429191D01*
X88729815Y-28496230D01*
X88713181Y-28516872D01*
X87094727Y-30135325D01*
X87094724Y-30135328D01*
X87057854Y-30190508D01*
X87057855Y-30190509D01*
X87023534Y-30241874D01*
X86974499Y-30360255D01*
X86974497Y-30360261D01*
X86949500Y-30485928D01*
X86949500Y-31879191D01*
X86929815Y-31946230D01*
X86913181Y-31966872D01*
X84594727Y-34285325D01*
X84594723Y-34285331D01*
X84544655Y-34360262D01*
X84544656Y-34360263D01*
X84523534Y-34391874D01*
X84474499Y-34510255D01*
X84474497Y-34510261D01*
X84449500Y-34635928D01*
X84449500Y-35306168D01*
X84429815Y-35373207D01*
X84377011Y-35418962D01*
X84307853Y-35428906D01*
X84256610Y-35409271D01*
X84169972Y-35351382D01*
X84169971Y-35351381D01*
X84169969Y-35351380D01*
X84169966Y-35351378D01*
X84169961Y-35351376D01*
X84047038Y-35300460D01*
X84047031Y-35300458D01*
X83998976Y-35290899D01*
X83937065Y-35258513D01*
X83935488Y-35256963D01*
X82536819Y-33858294D01*
X82503334Y-33796971D01*
X82500500Y-33770613D01*
X82500500Y-32382790D01*
X82520185Y-32315751D01*
X82572989Y-32269996D01*
X82581146Y-32266616D01*
X82642331Y-32243796D01*
X82757546Y-32157546D01*
X82843796Y-32042331D01*
X82894091Y-31907483D01*
X82900500Y-31847873D01*
X82900499Y-31052135D01*
X83499500Y-31052135D01*
X83499500Y-31847870D01*
X83499501Y-31847876D01*
X83505908Y-31907483D01*
X83556202Y-32042328D01*
X83556206Y-32042335D01*
X83642452Y-32157544D01*
X83642455Y-32157547D01*
X83757664Y-32243793D01*
X83757667Y-32243795D01*
X83757668Y-32243795D01*
X83757669Y-32243796D01*
X83789206Y-32255558D01*
X83845138Y-32297428D01*
X83869556Y-32362892D01*
X83854705Y-32431165D01*
X83853088Y-32433835D01*
X83851376Y-32437038D01*
X83800461Y-32559959D01*
X83800458Y-32559969D01*
X83774500Y-32690466D01*
X83774500Y-32690469D01*
X83774500Y-32823531D01*
X83774500Y-32823533D01*
X83774499Y-32823533D01*
X83800458Y-32954030D01*
X83800461Y-32954040D01*
X83851376Y-33076961D01*
X83851386Y-33076979D01*
X83925301Y-33187601D01*
X83925307Y-33187609D01*
X84019390Y-33281692D01*
X84019398Y-33281698D01*
X84130020Y-33355613D01*
X84130023Y-33355614D01*
X84130031Y-33355620D01*
X84130037Y-33355622D01*
X84130038Y-33355623D01*
X84231233Y-33397539D01*
X84252964Y-33406540D01*
X84252968Y-33406540D01*
X84252969Y-33406541D01*
X84383466Y-33432500D01*
X84383469Y-33432500D01*
X84516533Y-33432500D01*
X84604325Y-33415035D01*
X84647036Y-33406540D01*
X84769969Y-33355620D01*
X84880606Y-33281695D01*
X84974695Y-33187606D01*
X85048620Y-33076969D01*
X85099540Y-32954036D01*
X85125500Y-32823531D01*
X85125500Y-32690469D01*
X85125500Y-32690466D01*
X85099541Y-32559969D01*
X85099540Y-32559968D01*
X85099540Y-32559964D01*
X85048620Y-32437031D01*
X85048616Y-32437025D01*
X85045747Y-32431657D01*
X85047865Y-32430524D01*
X85030147Y-32373980D01*
X85048618Y-32306596D01*
X85100587Y-32259894D01*
X85110780Y-32255563D01*
X85142331Y-32243796D01*
X85257546Y-32157546D01*
X85343796Y-32042331D01*
X85394091Y-31907483D01*
X85400500Y-31847873D01*
X85400499Y-31052128D01*
X85394091Y-30992517D01*
X85363252Y-30909834D01*
X85343797Y-30857671D01*
X85343793Y-30857664D01*
X85257547Y-30742455D01*
X85257544Y-30742452D01*
X85142335Y-30656206D01*
X85142328Y-30656202D01*
X85007482Y-30605908D01*
X85007483Y-30605908D01*
X84947883Y-30599501D01*
X84947881Y-30599500D01*
X84947873Y-30599500D01*
X84947864Y-30599500D01*
X83952129Y-30599500D01*
X83952123Y-30599501D01*
X83892516Y-30605908D01*
X83757671Y-30656202D01*
X83757664Y-30656206D01*
X83642455Y-30742452D01*
X83642452Y-30742455D01*
X83556206Y-30857664D01*
X83556202Y-30857671D01*
X83505908Y-30992517D01*
X83500385Y-31043892D01*
X83499501Y-31052123D01*
X83499500Y-31052135D01*
X82900499Y-31052135D01*
X82900499Y-31052128D01*
X82894091Y-30992517D01*
X82863252Y-30909834D01*
X82843797Y-30857671D01*
X82843793Y-30857664D01*
X82757547Y-30742455D01*
X82757544Y-30742452D01*
X82642335Y-30656206D01*
X82642328Y-30656202D01*
X82507482Y-30605908D01*
X82507483Y-30605908D01*
X82447883Y-30599501D01*
X82447881Y-30599500D01*
X82447873Y-30599500D01*
X82447864Y-30599500D01*
X81452129Y-30599500D01*
X81452123Y-30599501D01*
X81392516Y-30605908D01*
X81257671Y-30656202D01*
X81257664Y-30656206D01*
X81142455Y-30742452D01*
X81142452Y-30742455D01*
X81056206Y-30857664D01*
X81056202Y-30857671D01*
X81005908Y-30992517D01*
X81000385Y-31043892D01*
X80999501Y-31052123D01*
X80999500Y-31052135D01*
X80999500Y-31847870D01*
X80999501Y-31847876D01*
X81005908Y-31907483D01*
X81056202Y-32042328D01*
X81056206Y-32042335D01*
X81142452Y-32157544D01*
X81142455Y-32157547D01*
X81257664Y-32243793D01*
X81257669Y-32243796D01*
X81318833Y-32266608D01*
X81374766Y-32308478D01*
X81399184Y-32373942D01*
X81399500Y-32382790D01*
X81399500Y-34122474D01*
X81411984Y-34169068D01*
X81411985Y-34169068D01*
X81411985Y-34169069D01*
X81437016Y-34262485D01*
X81493467Y-34360262D01*
X81509489Y-34388013D01*
X81509491Y-34388016D01*
X83156963Y-36035488D01*
X83190448Y-36096811D01*
X83190899Y-36098976D01*
X83200458Y-36147031D01*
X83200460Y-36147038D01*
X83251376Y-36269961D01*
X83251386Y-36269979D01*
X83325301Y-36380601D01*
X83325307Y-36380609D01*
X83419390Y-36474692D01*
X83419398Y-36474698D01*
X83530020Y-36548613D01*
X83530023Y-36548614D01*
X83530031Y-36548620D01*
X83530037Y-36548622D01*
X83530038Y-36548623D01*
X83567007Y-36563936D01*
X83652964Y-36599540D01*
X83652968Y-36599540D01*
X83652969Y-36599541D01*
X83783466Y-36625500D01*
X83783469Y-36625500D01*
X83916533Y-36625500D01*
X84004325Y-36608035D01*
X84047036Y-36599540D01*
X84169969Y-36548620D01*
X84256609Y-36490728D01*
X84323287Y-36469851D01*
X84390667Y-36488336D01*
X84437357Y-36540314D01*
X84449500Y-36593831D01*
X84449500Y-44064071D01*
X84473503Y-44184737D01*
X84473504Y-44184743D01*
X84474497Y-44189739D01*
X84474498Y-44189742D01*
X84493354Y-44235263D01*
X84523535Y-44308127D01*
X84581397Y-44394725D01*
X84594726Y-44414673D01*
X84594727Y-44414674D01*
X85494724Y-45314669D01*
X85541257Y-45361202D01*
X85585332Y-45405277D01*
X85691866Y-45476461D01*
X85691872Y-45476464D01*
X85691873Y-45476465D01*
X85810256Y-45525501D01*
X85810260Y-45525501D01*
X85810261Y-45525502D01*
X85935928Y-45550500D01*
X85935931Y-45550500D01*
X87164071Y-45550500D01*
X87248615Y-45533682D01*
X87289744Y-45525501D01*
X87408127Y-45476465D01*
X87415710Y-45471397D01*
X87482387Y-45450519D01*
X87484602Y-45450499D01*
X87719017Y-45450499D01*
X87719018Y-45450499D01*
X87812804Y-45435646D01*
X87925842Y-45378050D01*
X88015550Y-45288342D01*
X88073146Y-45175304D01*
X88073146Y-45175302D01*
X88073147Y-45175301D01*
X88078027Y-45144491D01*
X88107956Y-45081356D01*
X88167268Y-45044425D01*
X88237130Y-45045423D01*
X88295363Y-45084033D01*
X88323477Y-45147996D01*
X88324500Y-45163889D01*
X88324500Y-45604192D01*
X88304815Y-45671231D01*
X88288181Y-45691873D01*
X88066873Y-45913181D01*
X88005550Y-45946666D01*
X87979192Y-45949500D01*
X87675323Y-45949500D01*
X87602264Y-45964032D01*
X87602260Y-45964033D01*
X87519399Y-46019399D01*
X87464033Y-46102260D01*
X87464032Y-46102264D01*
X87449500Y-46175321D01*
X87449500Y-47224678D01*
X87464032Y-47297735D01*
X87464033Y-47297739D01*
X87464034Y-47297740D01*
X87519399Y-47380601D01*
X87586195Y-47425232D01*
X87602260Y-47435966D01*
X87602264Y-47435967D01*
X87675321Y-47450499D01*
X87675324Y-47450500D01*
X87675326Y-47450500D01*
X88724676Y-47450500D01*
X88724677Y-47450499D01*
X88797740Y-47435966D01*
X88880601Y-47380601D01*
X88935966Y-47297740D01*
X88950500Y-47224674D01*
X88950500Y-46920808D01*
X88970185Y-46853769D01*
X88986819Y-46833127D01*
X89480272Y-46339674D01*
X89480277Y-46339669D01*
X89551466Y-46233126D01*
X89600501Y-46114743D01*
X89614476Y-46044491D01*
X89625500Y-45989069D01*
X89625500Y-44894808D01*
X89645185Y-44827769D01*
X89697989Y-44782014D01*
X89767147Y-44772070D01*
X89830703Y-44801095D01*
X89837181Y-44807127D01*
X90813181Y-45783127D01*
X90846666Y-45844450D01*
X90849500Y-45870808D01*
X90849500Y-47102870D01*
X90849501Y-47102876D01*
X90855908Y-47162483D01*
X90906202Y-47297328D01*
X90906203Y-47297329D01*
X90906204Y-47297331D01*
X90949329Y-47354938D01*
X90992454Y-47412547D01*
X91009400Y-47425232D01*
X91025874Y-47447238D01*
X91044966Y-47467024D01*
X91048780Y-47477837D01*
X91051272Y-47481165D01*
X91056708Y-47500307D01*
X91071505Y-47574692D01*
X91071506Y-47574696D01*
X91074498Y-47589743D01*
X91123534Y-47708125D01*
X91123535Y-47708127D01*
X91182177Y-47795892D01*
X91194726Y-47814673D01*
X91194727Y-47814674D01*
X92094724Y-48714669D01*
X92127874Y-48747819D01*
X92161359Y-48809142D01*
X92156375Y-48878834D01*
X92114503Y-48934767D01*
X92049039Y-48959184D01*
X92040193Y-48959500D01*
X90668872Y-48959500D01*
X90437772Y-48989926D01*
X90408884Y-48993730D01*
X90155581Y-49061602D01*
X90155571Y-49061605D01*
X89913309Y-49161953D01*
X89913299Y-49161958D01*
X89686196Y-49293075D01*
X89478148Y-49452718D01*
X89292718Y-49638148D01*
X89133075Y-49846196D01*
X89001958Y-50073299D01*
X89001953Y-50073309D01*
X88901605Y-50315571D01*
X88901602Y-50315581D01*
X88833730Y-50568884D01*
X88799500Y-50828872D01*
X88799500Y-53121613D01*
X88779815Y-53188652D01*
X88727011Y-53234407D01*
X88657853Y-53244351D01*
X88594297Y-53215326D01*
X88587819Y-53209294D01*
X84138016Y-48759491D01*
X84138015Y-48759490D01*
X84012485Y-48687016D01*
X84012481Y-48687014D01*
X84006858Y-48685508D01*
X84006858Y-48685507D01*
X83896334Y-48655893D01*
X83872475Y-48649500D01*
X83872474Y-48649500D01*
X80879387Y-48649500D01*
X80812348Y-48629815D01*
X80791706Y-48613181D01*
X80521819Y-48343294D01*
X80488334Y-48281971D01*
X80485500Y-48255613D01*
X80485500Y-46510273D01*
X80485499Y-46510271D01*
X80470967Y-46437214D01*
X80470966Y-46437210D01*
X80451103Y-46407483D01*
X80415601Y-46354349D01*
X80332740Y-46298984D01*
X80332739Y-46298983D01*
X80332735Y-46298982D01*
X80259677Y-46284450D01*
X80259674Y-46284450D01*
X79976466Y-46284450D01*
X79909427Y-46264765D01*
X79869079Y-46222449D01*
X79825514Y-46146992D01*
X79825508Y-46146984D01*
X76588016Y-42909491D01*
X76588015Y-42909490D01*
X76462485Y-42837016D01*
X76462486Y-42837016D01*
X76412237Y-42823552D01*
X76322475Y-42799500D01*
X69727525Y-42799500D01*
X69643519Y-42822009D01*
X69587513Y-42837016D01*
X69587512Y-42837017D01*
X69461989Y-42909487D01*
X69461984Y-42909491D01*
X66959491Y-45411983D01*
X66959489Y-45411985D01*
X66931119Y-45461125D01*
X66902711Y-45510330D01*
X66887016Y-45537515D01*
X66849500Y-45677525D01*
X66849500Y-52677526D01*
X66849500Y-52822474D01*
X66887016Y-52962485D01*
X66959490Y-53088015D01*
X73361985Y-59490510D01*
X73452413Y-59542718D01*
X73487515Y-59562984D01*
X73627525Y-59600500D01*
X75049598Y-59600500D01*
X75116637Y-59620185D01*
X75137395Y-59636935D01*
X75145962Y-59645525D01*
X75169399Y-59680601D01*
X75204010Y-59703726D01*
X75212695Y-59712435D01*
X75223756Y-59732755D01*
X75238594Y-59750511D01*
X75240145Y-59762866D01*
X75246099Y-59773803D01*
X75244417Y-59796879D01*
X75247301Y-59819836D01*
X75241926Y-59831068D01*
X75241022Y-59843488D01*
X75227131Y-59861992D01*
X75217146Y-59882863D01*
X75200892Y-59896947D01*
X75199077Y-59899366D01*
X75197369Y-59900000D01*
X75193791Y-59903100D01*
X75177653Y-59913884D01*
X75169399Y-59919399D01*
X75114033Y-60002260D01*
X75114032Y-60002264D01*
X75099500Y-60075321D01*
X75099500Y-61024678D01*
X75114032Y-61097735D01*
X75114033Y-61097739D01*
X75114034Y-61097740D01*
X75169399Y-61180601D01*
X75169400Y-61180601D01*
X75169401Y-61180603D01*
X75176617Y-61187819D01*
X75210102Y-61249142D01*
X75205118Y-61318834D01*
X75163246Y-61374767D01*
X75097782Y-61399184D01*
X75088936Y-61399500D01*
X74335929Y-61399500D01*
X74210261Y-61424497D01*
X74210255Y-61424499D01*
X74134034Y-61456071D01*
X74134025Y-61456074D01*
X74132241Y-61456814D01*
X74091873Y-61473535D01*
X74084710Y-61478320D01*
X74075349Y-61482543D01*
X74074437Y-61482669D01*
X74071819Y-61484069D01*
X74030034Y-61501378D01*
X74030024Y-61501383D01*
X73919394Y-61575304D01*
X73919390Y-61575307D01*
X73825307Y-61669390D01*
X73825301Y-61669398D01*
X73751386Y-61780020D01*
X73751376Y-61780038D01*
X73700461Y-61902959D01*
X73700458Y-61902969D01*
X73674500Y-62033466D01*
X73674500Y-62033469D01*
X73674500Y-62166531D01*
X73674500Y-62166533D01*
X73674499Y-62166533D01*
X73700458Y-62297030D01*
X73700461Y-62297040D01*
X73751376Y-62419961D01*
X73751383Y-62419974D01*
X73775862Y-62456609D01*
X73796740Y-62523287D01*
X73778255Y-62590667D01*
X73726276Y-62637357D01*
X73672760Y-62649500D01*
X59724500Y-62649500D01*
X59657461Y-62629815D01*
X59611706Y-62577011D01*
X59600500Y-62525500D01*
X59600500Y-61575323D01*
X59600499Y-61575321D01*
X59585967Y-61502264D01*
X59585966Y-61502260D01*
X59572792Y-61482543D01*
X59530601Y-61419399D01*
X59506209Y-61403101D01*
X59461405Y-61349491D01*
X59452698Y-61280166D01*
X59482852Y-61217138D01*
X59506210Y-61196898D01*
X59530601Y-61180601D01*
X59585966Y-61097740D01*
X59600500Y-61024674D01*
X59600500Y-60075326D01*
X59600500Y-60075323D01*
X59600499Y-60075321D01*
X59585967Y-60002264D01*
X59585966Y-60002260D01*
X59549977Y-59948398D01*
X59530601Y-59919399D01*
X59506209Y-59903101D01*
X59461405Y-59849491D01*
X59452698Y-59780166D01*
X59482852Y-59717138D01*
X59506210Y-59696898D01*
X59530601Y-59680601D01*
X59585966Y-59597740D01*
X59600500Y-59524674D01*
X59600500Y-58575326D01*
X59600500Y-58575323D01*
X59600499Y-58575321D01*
X59585967Y-58502264D01*
X59585966Y-58502260D01*
X59570969Y-58479815D01*
X59530601Y-58419399D01*
X59530599Y-58419397D01*
X59530598Y-58419396D01*
X59523383Y-58412181D01*
X59489898Y-58350858D01*
X59494882Y-58281166D01*
X59536754Y-58225233D01*
X59602218Y-58200816D01*
X59611064Y-58200500D01*
X60214071Y-58200500D01*
X60314110Y-58180600D01*
X60339744Y-58175501D01*
X60458127Y-58126465D01*
X60483532Y-58109490D01*
X60564669Y-58055277D01*
X64805276Y-53814670D01*
X64876465Y-53708127D01*
X64925501Y-53589744D01*
X64936572Y-53534088D01*
X64950500Y-53464069D01*
X64950500Y-48924499D01*
X64970185Y-48857460D01*
X65022989Y-48811705D01*
X65074500Y-48800499D01*
X65447871Y-48800499D01*
X65447872Y-48800499D01*
X65507483Y-48794091D01*
X65642331Y-48743796D01*
X65757546Y-48657546D01*
X65843796Y-48542331D01*
X65894091Y-48407483D01*
X65900500Y-48347873D01*
X65900499Y-47552128D01*
X65894091Y-47492517D01*
X65880191Y-47455250D01*
X65843797Y-47357671D01*
X65843793Y-47357664D01*
X65757547Y-47242455D01*
X65757544Y-47242452D01*
X65642335Y-47156206D01*
X65642328Y-47156202D01*
X65507482Y-47105908D01*
X65507483Y-47105908D01*
X65447883Y-47099501D01*
X65447881Y-47099500D01*
X65447873Y-47099500D01*
X65447864Y-47099500D01*
X64452129Y-47099500D01*
X64452123Y-47099501D01*
X64392516Y-47105908D01*
X64257671Y-47156202D01*
X64257664Y-47156206D01*
X64142457Y-47242451D01*
X64142451Y-47242457D01*
X64136948Y-47249809D01*
X64133291Y-47252546D01*
X64131393Y-47256703D01*
X64105575Y-47273294D01*
X64081015Y-47291681D01*
X64075385Y-47292696D01*
X64072615Y-47294477D01*
X64037680Y-47299500D01*
X63962320Y-47299500D01*
X63895281Y-47279815D01*
X63863052Y-47249809D01*
X63857548Y-47242457D01*
X63857546Y-47242454D01*
X63857542Y-47242451D01*
X63742335Y-47156206D01*
X63742328Y-47156202D01*
X63607482Y-47105908D01*
X63607483Y-47105908D01*
X63547883Y-47099501D01*
X63547881Y-47099500D01*
X63547873Y-47099500D01*
X63547864Y-47099500D01*
X62552129Y-47099500D01*
X62552123Y-47099501D01*
X62492516Y-47105908D01*
X62357671Y-47156202D01*
X62357664Y-47156206D01*
X62242455Y-47242452D01*
X62242452Y-47242455D01*
X62156206Y-47357664D01*
X62156202Y-47357671D01*
X62105908Y-47492517D01*
X62105071Y-47500307D01*
X62099501Y-47552123D01*
X62099500Y-47552135D01*
X62099500Y-48347870D01*
X62099501Y-48347876D01*
X62105908Y-48407483D01*
X62156202Y-48542328D01*
X62156206Y-48542335D01*
X62242452Y-48657544D01*
X62242455Y-48657547D01*
X62357664Y-48743793D01*
X62357671Y-48743797D01*
X62492517Y-48794091D01*
X62492516Y-48794091D01*
X62499444Y-48794835D01*
X62552127Y-48800500D01*
X63525500Y-48800499D01*
X63592539Y-48820183D01*
X63638294Y-48872987D01*
X63649500Y-48924499D01*
X63649500Y-53079192D01*
X63629815Y-53146231D01*
X63613181Y-53166873D01*
X59916873Y-56863181D01*
X59889945Y-56877884D01*
X59864127Y-56894477D01*
X59857926Y-56895368D01*
X59855550Y-56896666D01*
X59829192Y-56899500D01*
X59611064Y-56899500D01*
X59544025Y-56879815D01*
X59498270Y-56827011D01*
X59488326Y-56757853D01*
X59517351Y-56694297D01*
X59523383Y-56687819D01*
X59530598Y-56680603D01*
X59530597Y-56680603D01*
X59530601Y-56680601D01*
X59585966Y-56597740D01*
X59600500Y-56524674D01*
X59600500Y-55575326D01*
X59600500Y-55575323D01*
X59600499Y-55575321D01*
X59585967Y-55502264D01*
X59585966Y-55502260D01*
X59563664Y-55468882D01*
X59530601Y-55419399D01*
X59506209Y-55403101D01*
X59461405Y-55349491D01*
X59452698Y-55280166D01*
X59482852Y-55217138D01*
X59506207Y-55196899D01*
X59530601Y-55180601D01*
X59585966Y-55097740D01*
X59600500Y-55024674D01*
X59600500Y-54857255D01*
X59620185Y-54790216D01*
X59636819Y-54769574D01*
X59981893Y-54424500D01*
X60380480Y-54025913D01*
X60394136Y-54002260D01*
X60433207Y-53934587D01*
X60460500Y-53832727D01*
X60460500Y-49322729D01*
X60460501Y-49322716D01*
X60460501Y-49207274D01*
X60448358Y-49161958D01*
X60433207Y-49105413D01*
X60433206Y-49105412D01*
X60433206Y-49105410D01*
X60433204Y-49105407D01*
X60419844Y-49082267D01*
X60419842Y-49082265D01*
X60414957Y-49073803D01*
X60380480Y-49014087D01*
X60305913Y-48939520D01*
X60305910Y-48939518D01*
X59863048Y-48496656D01*
X59416819Y-48050426D01*
X59383334Y-47989103D01*
X59380500Y-47962745D01*
X59380500Y-47847253D01*
X59400185Y-47780214D01*
X59416814Y-47759577D01*
X61624256Y-45552135D01*
X63999500Y-45552135D01*
X63999500Y-46347870D01*
X63999501Y-46347876D01*
X64005908Y-46407483D01*
X64056202Y-46542328D01*
X64056206Y-46542335D01*
X64142452Y-46657544D01*
X64142455Y-46657547D01*
X64257664Y-46743793D01*
X64257671Y-46743797D01*
X64392517Y-46794091D01*
X64392516Y-46794091D01*
X64399444Y-46794835D01*
X64452127Y-46800500D01*
X65447872Y-46800499D01*
X65507483Y-46794091D01*
X65642331Y-46743796D01*
X65757546Y-46657546D01*
X65843796Y-46542331D01*
X65894091Y-46407483D01*
X65900500Y-46347873D01*
X65900499Y-45552128D01*
X65894091Y-45492517D01*
X65888104Y-45476466D01*
X65843797Y-45357671D01*
X65843793Y-45357664D01*
X65757547Y-45242455D01*
X65757544Y-45242452D01*
X65642335Y-45156206D01*
X65642328Y-45156202D01*
X65581167Y-45133391D01*
X65563440Y-45120121D01*
X65543297Y-45110922D01*
X65536015Y-45099591D01*
X65525233Y-45091520D01*
X65517494Y-45070771D01*
X65505523Y-45052144D01*
X65502371Y-45030227D01*
X65500816Y-45026056D01*
X65500500Y-45017209D01*
X65500500Y-44929387D01*
X65520185Y-44862348D01*
X65536819Y-44841706D01*
X68191706Y-42186819D01*
X68253029Y-42153334D01*
X68279387Y-42150500D01*
X78470400Y-42150500D01*
X78537439Y-42170185D01*
X78539251Y-42171371D01*
X78580031Y-42198620D01*
X78702964Y-42249540D01*
X78702968Y-42249540D01*
X78702969Y-42249541D01*
X78833466Y-42275500D01*
X78833469Y-42275500D01*
X78966533Y-42275500D01*
X79067074Y-42255500D01*
X79097036Y-42249540D01*
X79219969Y-42198620D01*
X79330606Y-42124695D01*
X79424695Y-42030606D01*
X79498620Y-41919969D01*
X79549540Y-41797036D01*
X79575040Y-41668844D01*
X79575500Y-41666533D01*
X79575500Y-41533466D01*
X79549541Y-41402969D01*
X79549540Y-41402968D01*
X79549540Y-41402964D01*
X79530298Y-41356510D01*
X79498623Y-41280038D01*
X79498622Y-41280037D01*
X79498620Y-41280031D01*
X79452378Y-41210825D01*
X79424698Y-41169398D01*
X79424692Y-41169390D01*
X79330609Y-41075307D01*
X79330601Y-41075301D01*
X79219979Y-41001386D01*
X79219972Y-41001382D01*
X79219969Y-41001380D01*
X79219965Y-41001378D01*
X79219961Y-41001376D01*
X79097040Y-40950461D01*
X79097030Y-40950458D01*
X78966533Y-40924500D01*
X78966531Y-40924500D01*
X78833469Y-40924500D01*
X78833467Y-40924500D01*
X78702969Y-40950458D01*
X78702959Y-40950461D01*
X78580038Y-41001376D01*
X78580026Y-41001383D01*
X78580022Y-41001386D01*
X78539289Y-41028602D01*
X78472614Y-41049480D01*
X78470400Y-41049500D01*
X67927525Y-41049500D01*
X67831221Y-41075305D01*
X67787514Y-41087016D01*
X67661986Y-41159489D01*
X67661983Y-41159491D01*
X64509489Y-44311985D01*
X64494273Y-44338342D01*
X64461721Y-44394724D01*
X64450828Y-44413591D01*
X64437017Y-44437512D01*
X64437016Y-44437513D01*
X64436659Y-44438846D01*
X64399500Y-44577525D01*
X64399500Y-44577527D01*
X64399500Y-45017209D01*
X64379815Y-45084248D01*
X64327011Y-45130003D01*
X64318833Y-45133391D01*
X64257671Y-45156202D01*
X64257664Y-45156206D01*
X64142455Y-45242452D01*
X64142452Y-45242455D01*
X64056206Y-45357664D01*
X64056202Y-45357671D01*
X64005908Y-45492517D01*
X64001071Y-45537515D01*
X63999501Y-45552123D01*
X63999500Y-45552135D01*
X61624256Y-45552135D01*
X75705703Y-31470687D01*
X75705708Y-31470684D01*
X75715911Y-31460480D01*
X75715913Y-31460480D01*
X75790480Y-31385913D01*
X75843207Y-31294587D01*
X75856383Y-31245413D01*
X75870501Y-31192727D01*
X75870501Y-31087273D01*
X75870500Y-31087269D01*
X75870500Y-29569057D01*
X75890185Y-29502018D01*
X75942989Y-29456263D01*
X76012147Y-29446319D01*
X76068810Y-29469790D01*
X76138520Y-29521975D01*
X76167668Y-29543795D01*
X76167671Y-29543797D01*
X76302517Y-29594091D01*
X76302516Y-29594091D01*
X76309444Y-29594835D01*
X76362127Y-29600500D01*
X77157872Y-29600499D01*
X77217483Y-29594091D01*
X77352331Y-29543796D01*
X77467546Y-29457546D01*
X77553796Y-29342331D01*
X77604091Y-29207483D01*
X77610500Y-29147873D01*
X77610499Y-28152128D01*
X77604091Y-28092517D01*
X77573307Y-28009982D01*
X77553797Y-27957671D01*
X77553793Y-27957664D01*
X77480473Y-27859722D01*
X77480472Y-27859721D01*
X77467546Y-27842454D01*
X77450278Y-27829527D01*
X77450276Y-27829525D01*
X77352335Y-27756206D01*
X77352328Y-27756202D01*
X77217482Y-27705908D01*
X77217484Y-27705908D01*
X77161244Y-27699862D01*
X77096693Y-27673124D01*
X77056845Y-27615731D01*
X77050500Y-27576573D01*
X77050500Y-27314874D01*
X77070185Y-27247835D01*
X77122989Y-27202080D01*
X77192147Y-27192136D01*
X77255703Y-27221161D01*
X77281166Y-27256478D01*
X77282953Y-27255447D01*
X77287015Y-27262483D01*
X77287016Y-27262485D01*
X77359490Y-27388015D01*
X77711985Y-27740510D01*
X77837515Y-27812984D01*
X77977525Y-27850500D01*
X79375500Y-27850500D01*
X79442539Y-27870185D01*
X79488294Y-27922989D01*
X79499500Y-27974500D01*
X79499500Y-29470613D01*
X79479815Y-29537652D01*
X79463181Y-29558294D01*
X78508294Y-30513181D01*
X78446971Y-30546666D01*
X78420613Y-30549500D01*
X77675323Y-30549500D01*
X77602264Y-30564032D01*
X77602260Y-30564033D01*
X77519399Y-30619399D01*
X77464033Y-30702260D01*
X77464032Y-30702264D01*
X77449500Y-30775321D01*
X77449500Y-31824678D01*
X77464032Y-31897735D01*
X77464033Y-31897739D01*
X77482405Y-31925235D01*
X77519399Y-31980601D01*
X77576695Y-32018884D01*
X77602260Y-32035966D01*
X77602264Y-32035967D01*
X77675321Y-32050499D01*
X77675324Y-32050500D01*
X77675326Y-32050500D01*
X78724676Y-32050500D01*
X78724677Y-32050499D01*
X78797740Y-32035966D01*
X78880601Y-31980601D01*
X78935966Y-31897740D01*
X78950500Y-31824674D01*
X78950500Y-31679387D01*
X78970185Y-31612348D01*
X78986819Y-31591706D01*
X79736197Y-30842328D01*
X80490510Y-30088015D01*
X80562984Y-29962485D01*
X80593258Y-29849501D01*
X80600500Y-29822475D01*
X80600500Y-28064518D01*
X80620185Y-27997479D01*
X80672989Y-27951724D01*
X80742147Y-27941780D01*
X80805703Y-27970805D01*
X80840682Y-28021185D01*
X80881202Y-28129827D01*
X80881203Y-28129828D01*
X80881204Y-28129830D01*
X80967454Y-28245046D01*
X81082670Y-28331296D01*
X81082672Y-28331296D01*
X81082674Y-28331298D01*
X81218832Y-28382081D01*
X81236557Y-28395349D01*
X81256703Y-28404550D01*
X81263985Y-28415882D01*
X81274766Y-28423952D01*
X81282504Y-28444697D01*
X81294477Y-28463328D01*
X81297628Y-28485245D01*
X81299184Y-28489416D01*
X81299500Y-28498263D01*
X81299500Y-28562819D01*
X81279815Y-28629858D01*
X81249812Y-28662085D01*
X81142452Y-28742455D01*
X81056206Y-28857664D01*
X81056202Y-28857671D01*
X81005908Y-28992517D01*
X80999817Y-29049179D01*
X80999501Y-29052123D01*
X80999500Y-29052135D01*
X80999500Y-29847870D01*
X80999501Y-29847876D01*
X81005908Y-29907483D01*
X81056202Y-30042328D01*
X81056206Y-30042335D01*
X81142452Y-30157544D01*
X81142455Y-30157547D01*
X81257664Y-30243793D01*
X81257671Y-30243797D01*
X81392517Y-30294091D01*
X81392516Y-30294091D01*
X81399444Y-30294835D01*
X81452127Y-30300500D01*
X82447872Y-30300499D01*
X82507483Y-30294091D01*
X82642331Y-30243796D01*
X82757546Y-30157546D01*
X82843796Y-30042331D01*
X82894091Y-29907483D01*
X82900500Y-29847873D01*
X82900499Y-29052128D01*
X82894091Y-28992517D01*
X82860890Y-28903501D01*
X82843797Y-28857671D01*
X82843793Y-28857664D01*
X82757547Y-28742455D01*
X82650188Y-28662085D01*
X82647451Y-28658429D01*
X82643297Y-28656532D01*
X82626705Y-28630714D01*
X82608318Y-28606151D01*
X82607302Y-28600523D01*
X82605523Y-28597754D01*
X82600500Y-28562819D01*
X82600500Y-28498263D01*
X82620185Y-28431224D01*
X82672989Y-28385469D01*
X82681168Y-28382081D01*
X82817325Y-28331298D01*
X82817325Y-28331297D01*
X82817330Y-28331296D01*
X82932546Y-28245046D01*
X83018796Y-28129830D01*
X83069091Y-27994982D01*
X83075500Y-27935372D01*
X83075500Y-26927136D01*
X83324500Y-26927136D01*
X83324500Y-27947863D01*
X83324501Y-27947882D01*
X83330908Y-28007481D01*
X83381202Y-28142327D01*
X83381203Y-28142328D01*
X83381204Y-28142330D01*
X83467454Y-28257546D01*
X83582670Y-28343796D01*
X83582672Y-28343796D01*
X83582674Y-28343798D01*
X83718832Y-28394581D01*
X83736557Y-28407849D01*
X83756703Y-28417050D01*
X83763985Y-28428382D01*
X83774766Y-28436452D01*
X83782504Y-28457197D01*
X83794477Y-28475828D01*
X83797628Y-28497745D01*
X83799184Y-28501916D01*
X83799500Y-28510763D01*
X83799500Y-28562819D01*
X83779815Y-28629858D01*
X83749812Y-28662085D01*
X83642452Y-28742455D01*
X83556206Y-28857664D01*
X83556202Y-28857671D01*
X83505908Y-28992517D01*
X83499817Y-29049179D01*
X83499501Y-29052123D01*
X83499500Y-29052135D01*
X83499500Y-29847870D01*
X83499501Y-29847876D01*
X83505908Y-29907483D01*
X83556202Y-30042328D01*
X83556206Y-30042335D01*
X83642452Y-30157544D01*
X83642455Y-30157547D01*
X83757664Y-30243793D01*
X83757671Y-30243797D01*
X83892517Y-30294091D01*
X83892516Y-30294091D01*
X83899444Y-30294835D01*
X83952127Y-30300500D01*
X84947872Y-30300499D01*
X85007483Y-30294091D01*
X85142331Y-30243796D01*
X85257546Y-30157546D01*
X85343796Y-30042331D01*
X85394091Y-29907483D01*
X85400500Y-29847873D01*
X85400499Y-29052128D01*
X85394091Y-28992517D01*
X85360890Y-28903501D01*
X85343797Y-28857671D01*
X85343793Y-28857664D01*
X85257547Y-28742455D01*
X85150188Y-28662085D01*
X85147451Y-28658429D01*
X85143297Y-28656532D01*
X85126705Y-28630714D01*
X85108318Y-28606151D01*
X85107302Y-28600523D01*
X85105523Y-28597754D01*
X85100500Y-28562819D01*
X85100500Y-28510763D01*
X85120185Y-28443724D01*
X85172989Y-28397969D01*
X85181168Y-28394581D01*
X85205980Y-28385327D01*
X85317330Y-28343796D01*
X85432546Y-28257546D01*
X85518796Y-28142330D01*
X85569091Y-28007482D01*
X85575500Y-27947872D01*
X85575500Y-26927128D01*
X85569091Y-26867518D01*
X85548563Y-26812480D01*
X85518797Y-26732672D01*
X85518796Y-26732671D01*
X85518796Y-26732670D01*
X85432546Y-26617454D01*
X85317330Y-26531204D01*
X85317328Y-26531203D01*
X85317327Y-26531202D01*
X85182481Y-26480908D01*
X85182482Y-26480908D01*
X85122882Y-26474501D01*
X85122880Y-26474500D01*
X85122872Y-26474500D01*
X83777128Y-26474500D01*
X83777120Y-26474500D01*
X83777117Y-26474501D01*
X83717518Y-26480908D01*
X83582672Y-26531202D01*
X83582670Y-26531204D01*
X83467454Y-26617454D01*
X83381204Y-26732670D01*
X83381202Y-26732672D01*
X83330908Y-26867518D01*
X83324501Y-26927117D01*
X83324500Y-26927136D01*
X83075500Y-26927136D01*
X83075500Y-26914628D01*
X83069091Y-26855018D01*
X83034084Y-26761158D01*
X83018797Y-26720172D01*
X83018796Y-26720171D01*
X83018796Y-26720170D01*
X82932546Y-26604954D01*
X82817330Y-26518704D01*
X82817328Y-26518703D01*
X82817327Y-26518702D01*
X82682481Y-26468408D01*
X82682482Y-26468408D01*
X82622882Y-26462001D01*
X82622880Y-26462000D01*
X82622872Y-26462000D01*
X82622864Y-26462000D01*
X82504834Y-26462000D01*
X82437795Y-26442315D01*
X82392040Y-26389511D01*
X82382096Y-26320353D01*
X82397447Y-26276001D01*
X82436460Y-26208424D01*
X82462984Y-26162485D01*
X82500500Y-26022475D01*
X82500500Y-25537000D01*
X82520185Y-25469961D01*
X82572989Y-25424206D01*
X82619594Y-25414067D01*
X82619547Y-25413178D01*
X82622845Y-25413000D01*
X82622872Y-25413000D01*
X82682482Y-25406591D01*
X82817330Y-25356296D01*
X82932546Y-25270046D01*
X83018796Y-25154830D01*
X83018796Y-25154829D01*
X83022270Y-25150189D01*
X83025926Y-25147451D01*
X83027824Y-25143297D01*
X83053638Y-25126706D01*
X83078204Y-25108318D01*
X83083833Y-25107302D01*
X83086602Y-25105523D01*
X83121537Y-25100500D01*
X83271139Y-25100500D01*
X83338178Y-25120185D01*
X83375637Y-25160418D01*
X83375889Y-25160230D01*
X83377637Y-25162566D01*
X83379970Y-25165071D01*
X83381202Y-25167327D01*
X83381203Y-25167329D01*
X83381204Y-25167330D01*
X83467454Y-25282546D01*
X83582670Y-25368796D01*
X83582671Y-25368796D01*
X83582672Y-25368797D01*
X83717518Y-25419091D01*
X83717517Y-25419091D01*
X83724445Y-25419835D01*
X83777128Y-25425500D01*
X83777137Y-25425500D01*
X85122863Y-25425500D01*
X85122872Y-25425500D01*
X85182482Y-25419091D01*
X85317330Y-25368796D01*
X85432546Y-25282546D01*
X85518796Y-25167330D01*
X85569091Y-25032482D01*
X85575500Y-24972872D01*
X85575500Y-23952128D01*
X85569091Y-23892518D01*
X85549316Y-23839499D01*
X85518797Y-23757672D01*
X85518795Y-23757669D01*
X85514961Y-23752548D01*
X85494771Y-23725577D01*
X85470355Y-23660114D01*
X85485207Y-23591841D01*
X85506354Y-23563590D01*
X86333127Y-22736819D01*
X86394450Y-22703334D01*
X86420808Y-22700500D01*
X94129192Y-22700500D01*
X94196231Y-22720185D01*
G37*
%TD.AperFunction*%
%TA.AperFunction,Conductor*%
G36*
X95556922Y-20201280D02*
G01*
X95647266Y-20211459D01*
X95674331Y-20217636D01*
X95753540Y-20245352D01*
X95778553Y-20257398D01*
X95849606Y-20302043D01*
X95871313Y-20319355D01*
X95930644Y-20378686D01*
X95947957Y-20400395D01*
X95992600Y-20471444D01*
X96004648Y-20496462D01*
X96032362Y-20575666D01*
X96038540Y-20602735D01*
X96048720Y-20693076D01*
X96049500Y-20706961D01*
X96049500Y-22430191D01*
X96029815Y-22497230D01*
X95977011Y-22542985D01*
X95907853Y-22552929D01*
X95844297Y-22523904D01*
X95837819Y-22517872D01*
X94864673Y-21544726D01*
X94864669Y-21544723D01*
X94758127Y-21473535D01*
X94639744Y-21424499D01*
X94639738Y-21424497D01*
X94514071Y-21399500D01*
X94514069Y-21399500D01*
X86035931Y-21399500D01*
X86035929Y-21399500D01*
X85910261Y-21424497D01*
X85910255Y-21424499D01*
X85791870Y-21473535D01*
X85685331Y-21544722D01*
X85685324Y-21544728D01*
X83944726Y-23285326D01*
X83873533Y-23391876D01*
X83859523Y-23425698D01*
X83815681Y-23480100D01*
X83758221Y-23501532D01*
X83717517Y-23505908D01*
X83582672Y-23556202D01*
X83582670Y-23556204D01*
X83467454Y-23642454D01*
X83387087Y-23749811D01*
X83383430Y-23752548D01*
X83381533Y-23756703D01*
X83355718Y-23773293D01*
X83331153Y-23791682D01*
X83325523Y-23792697D01*
X83322755Y-23794477D01*
X83287820Y-23799500D01*
X83121537Y-23799500D01*
X83054498Y-23779815D01*
X83022270Y-23749811D01*
X83018796Y-23745170D01*
X82932546Y-23629954D01*
X82817330Y-23543704D01*
X82817328Y-23543703D01*
X82817327Y-23543702D01*
X82682481Y-23493408D01*
X82682482Y-23493408D01*
X82622882Y-23487001D01*
X82622880Y-23487000D01*
X82622872Y-23487000D01*
X82622864Y-23487000D01*
X82416887Y-23487000D01*
X82349848Y-23467315D01*
X82329206Y-23450681D01*
X81738016Y-22859491D01*
X81738015Y-22859490D01*
X81612485Y-22787016D01*
X81533385Y-22765821D01*
X81533384Y-22765820D01*
X81479543Y-22751394D01*
X81472475Y-22749500D01*
X70627525Y-22749500D01*
X70566615Y-22765820D01*
X70566615Y-22765821D01*
X70487515Y-22787016D01*
X70487513Y-22787016D01*
X70487513Y-22787017D01*
X70361986Y-22859489D01*
X70361983Y-22859491D01*
X69159489Y-24061985D01*
X69125866Y-24120225D01*
X69109109Y-24149250D01*
X69106151Y-24154373D01*
X69106149Y-24154375D01*
X69087018Y-24187509D01*
X69087017Y-24187510D01*
X69087016Y-24187515D01*
X69049500Y-24327525D01*
X69049500Y-24327527D01*
X69049500Y-26672476D01*
X69066298Y-26735169D01*
X69087014Y-26812480D01*
X69087016Y-26812485D01*
X69159490Y-26938015D01*
X69859490Y-27638014D01*
X69859491Y-27638015D01*
X69961985Y-27740509D01*
X69961986Y-27740510D01*
X69961988Y-27740511D01*
X70087511Y-27812982D01*
X70087512Y-27812982D01*
X70087515Y-27812984D01*
X70227525Y-27850500D01*
X70227528Y-27850500D01*
X72577582Y-27850500D01*
X72644621Y-27870185D01*
X72690376Y-27922989D01*
X72700320Y-27992147D01*
X72693764Y-28017833D01*
X72665908Y-28092517D01*
X72659501Y-28152116D01*
X72659501Y-28152123D01*
X72659500Y-28152135D01*
X72659500Y-29147870D01*
X72659501Y-29147876D01*
X72665908Y-29207483D01*
X72716202Y-29342328D01*
X72716206Y-29342335D01*
X72802452Y-29457544D01*
X72802455Y-29457547D01*
X72917664Y-29543793D01*
X72917671Y-29543797D01*
X73052517Y-29594091D01*
X73052516Y-29594091D01*
X73059444Y-29594835D01*
X73112127Y-29600500D01*
X73907872Y-29600499D01*
X73967483Y-29594091D01*
X74102331Y-29543796D01*
X74217546Y-29457546D01*
X74246234Y-29419222D01*
X74302167Y-29377353D01*
X74371859Y-29372369D01*
X74433182Y-29405854D01*
X74466666Y-29467177D01*
X74469500Y-29493535D01*
X74469500Y-30692744D01*
X74449815Y-30759783D01*
X74433181Y-30780425D01*
X57232987Y-47980618D01*
X57171664Y-48014103D01*
X57101972Y-48009119D01*
X57046039Y-47967247D01*
X57021622Y-47901783D01*
X57021306Y-47892768D01*
X57025400Y-45186252D01*
X57025503Y-45185869D01*
X57025500Y-45120314D01*
X57025599Y-45054865D01*
X57025597Y-45054861D01*
X57025598Y-45054858D01*
X57025534Y-45054367D01*
X57025533Y-45054358D01*
X57025497Y-45054085D01*
X57024977Y-45052144D01*
X57008622Y-44991118D01*
X57008626Y-44990918D01*
X57008573Y-44990933D01*
X56991686Y-44927525D01*
X56991631Y-44927392D01*
X56991630Y-44927390D01*
X56991624Y-44927374D01*
X56991388Y-44926801D01*
X56981393Y-44909491D01*
X56958592Y-44870003D01*
X56925964Y-44813292D01*
X56925693Y-44813020D01*
X56925499Y-44812684D01*
X56925486Y-44812666D01*
X56879103Y-44766288D01*
X56879117Y-44766273D01*
X56878965Y-44766151D01*
X56844999Y-44732082D01*
X56811607Y-44670709D01*
X56816697Y-44601025D01*
X56818239Y-44597113D01*
X56819737Y-44593497D01*
X56850500Y-44438842D01*
X56850500Y-44281158D01*
X56850500Y-44281155D01*
X56850499Y-44281153D01*
X56836978Y-44213181D01*
X56819737Y-44126503D01*
X56759394Y-43980821D01*
X56743068Y-43956388D01*
X56722191Y-43889716D01*
X56740674Y-43822336D01*
X56743032Y-43818665D01*
X56759394Y-43794179D01*
X56819737Y-43648497D01*
X56850500Y-43493842D01*
X56850500Y-43336158D01*
X56850500Y-43336155D01*
X56850499Y-43336153D01*
X56839563Y-43281175D01*
X56819737Y-43181503D01*
X56819735Y-43181498D01*
X56759397Y-43035827D01*
X56759395Y-43035824D01*
X56759394Y-43035821D01*
X56756434Y-43031392D01*
X56735555Y-42964719D01*
X56754037Y-42897338D01*
X56756403Y-42893653D01*
X56759394Y-42889179D01*
X56819737Y-42743497D01*
X56850500Y-42588842D01*
X56850500Y-42431158D01*
X56850500Y-42431155D01*
X56850499Y-42431153D01*
X56846924Y-42413181D01*
X56819737Y-42276503D01*
X56800683Y-42230502D01*
X56759397Y-42130827D01*
X56759389Y-42130812D01*
X56751424Y-42118892D01*
X56730545Y-42052215D01*
X56749029Y-41984834D01*
X56751424Y-41981108D01*
X56759389Y-41969187D01*
X56759390Y-41969184D01*
X56759394Y-41969179D01*
X56819737Y-41823497D01*
X56850500Y-41668842D01*
X56850500Y-41511158D01*
X56850500Y-41511155D01*
X56850499Y-41511153D01*
X56833060Y-41423481D01*
X56819737Y-41356503D01*
X56819735Y-41356498D01*
X56759396Y-41210825D01*
X56759395Y-41210823D01*
X56759394Y-41210821D01*
X56749752Y-41196390D01*
X56728873Y-41129717D01*
X56747356Y-41062336D01*
X56749726Y-41058647D01*
X56759394Y-41044179D01*
X56819737Y-40898497D01*
X56850500Y-40743842D01*
X56850500Y-40586158D01*
X56850500Y-40586155D01*
X56850499Y-40586153D01*
X56843031Y-40548611D01*
X56819737Y-40431503D01*
X56809010Y-40405606D01*
X56759397Y-40285827D01*
X56759389Y-40285812D01*
X56751424Y-40273892D01*
X56730545Y-40207215D01*
X56749029Y-40139834D01*
X56751424Y-40136108D01*
X56759389Y-40124187D01*
X56759390Y-40124184D01*
X56759394Y-40124179D01*
X56819737Y-39978497D01*
X56850500Y-39823842D01*
X56850500Y-39666158D01*
X56850500Y-39666155D01*
X56850499Y-39666153D01*
X56848287Y-39655031D01*
X56819737Y-39511503D01*
X56779728Y-39414911D01*
X56759396Y-39365825D01*
X56759394Y-39365822D01*
X56759394Y-39365821D01*
X56754763Y-39358891D01*
X56733885Y-39292215D01*
X56752369Y-39224834D01*
X56754764Y-39221108D01*
X56759394Y-39214179D01*
X56819737Y-39068497D01*
X56850500Y-38913842D01*
X56850500Y-38756158D01*
X56850500Y-38756155D01*
X56850499Y-38756153D01*
X56819738Y-38601510D01*
X56819737Y-38601503D01*
X56813711Y-38586954D01*
X56759397Y-38455827D01*
X56759389Y-38455812D01*
X56751424Y-38443892D01*
X56730545Y-38377215D01*
X56749029Y-38309834D01*
X56751424Y-38306108D01*
X56759389Y-38294187D01*
X56759390Y-38294184D01*
X56759394Y-38294179D01*
X56819737Y-38148497D01*
X56850500Y-37993842D01*
X56850500Y-37836158D01*
X56850500Y-37836155D01*
X56850499Y-37836153D01*
X56819738Y-37681510D01*
X56819737Y-37681503D01*
X56791561Y-37613479D01*
X56759396Y-37535825D01*
X56759395Y-37535823D01*
X56759394Y-37535821D01*
X56749752Y-37521390D01*
X56728873Y-37454717D01*
X56747356Y-37387336D01*
X56749726Y-37383647D01*
X56759394Y-37369179D01*
X56819737Y-37223497D01*
X56850500Y-37068842D01*
X56850500Y-36911158D01*
X56850500Y-36911155D01*
X56850499Y-36911153D01*
X56819737Y-36756503D01*
X56759394Y-36610821D01*
X56743068Y-36586388D01*
X56739209Y-36574065D01*
X56733249Y-36566533D01*
X58424499Y-36566533D01*
X58450458Y-36697030D01*
X58450461Y-36697040D01*
X58501376Y-36819961D01*
X58501386Y-36819979D01*
X58575301Y-36930601D01*
X58575307Y-36930609D01*
X58669390Y-37024692D01*
X58669398Y-37024698D01*
X58780020Y-37098613D01*
X58780023Y-37098614D01*
X58780031Y-37098620D01*
X58780037Y-37098622D01*
X58780038Y-37098623D01*
X58902959Y-37149538D01*
X58902964Y-37149540D01*
X58902968Y-37149540D01*
X58902969Y-37149541D01*
X59033466Y-37175500D01*
X59033469Y-37175500D01*
X59166533Y-37175500D01*
X59254325Y-37158035D01*
X59297036Y-37149540D01*
X59419969Y-37098620D01*
X59530606Y-37024695D01*
X59624695Y-36930606D01*
X59698620Y-36819969D01*
X59749540Y-36697036D01*
X59760422Y-36642331D01*
X59775500Y-36566533D01*
X59775500Y-36433466D01*
X59752883Y-36319769D01*
X59750500Y-36295577D01*
X59750500Y-34870807D01*
X59770185Y-34803768D01*
X59786819Y-34783126D01*
X59983126Y-34586819D01*
X60044449Y-34553334D01*
X60070807Y-34550500D01*
X60524676Y-34550500D01*
X60524677Y-34550499D01*
X60597740Y-34535966D01*
X60680601Y-34480601D01*
X60735966Y-34397740D01*
X60750500Y-34324674D01*
X60750500Y-33275326D01*
X60750500Y-33275323D01*
X60750499Y-33275321D01*
X60735967Y-33202264D01*
X60735966Y-33202260D01*
X60726171Y-33187601D01*
X60680601Y-33119399D01*
X60597740Y-33064034D01*
X60597739Y-33064033D01*
X60597735Y-33064032D01*
X60524677Y-33049500D01*
X60524674Y-33049500D01*
X59475326Y-33049500D01*
X59475323Y-33049500D01*
X59402264Y-33064032D01*
X59402260Y-33064033D01*
X59319399Y-33119399D01*
X59264033Y-33202260D01*
X59264032Y-33202264D01*
X59249500Y-33275321D01*
X59249500Y-33429191D01*
X59229815Y-33496230D01*
X59213181Y-33516872D01*
X58594727Y-34135325D01*
X58594721Y-34135332D01*
X58541711Y-34214668D01*
X58541712Y-34214669D01*
X58523534Y-34241874D01*
X58474499Y-34360255D01*
X58474497Y-34360261D01*
X58449500Y-34485928D01*
X58449500Y-36295577D01*
X58447414Y-36316748D01*
X58447328Y-36318685D01*
X58447230Y-36319201D01*
X58424500Y-36433469D01*
X58424500Y-36566531D01*
X58424500Y-36566533D01*
X58424499Y-36566533D01*
X56733249Y-36566533D01*
X56731194Y-36563936D01*
X56728969Y-36541361D01*
X56722191Y-36519716D01*
X56725448Y-36505645D01*
X56724341Y-36494404D01*
X56732895Y-36473485D01*
X56735783Y-36461016D01*
X56739062Y-36454606D01*
X56759394Y-36424179D01*
X56819737Y-36278497D01*
X56850500Y-36123842D01*
X56850500Y-35966158D01*
X56850500Y-35966155D01*
X56850499Y-35966153D01*
X56821748Y-35821613D01*
X56819737Y-35811503D01*
X56806701Y-35780031D01*
X56759396Y-35665825D01*
X56759395Y-35665823D01*
X56759394Y-35665821D01*
X56753093Y-35656391D01*
X56732214Y-35589718D01*
X56750696Y-35522337D01*
X56753068Y-35518645D01*
X56759394Y-35509179D01*
X56819737Y-35363497D01*
X56850500Y-35208842D01*
X56850500Y-35051158D01*
X56850500Y-35051155D01*
X56850499Y-35051153D01*
X56840879Y-35002789D01*
X56819737Y-34896503D01*
X56816268Y-34888127D01*
X56759397Y-34750827D01*
X56759389Y-34750812D01*
X56751424Y-34738892D01*
X56730545Y-34672215D01*
X56749029Y-34604834D01*
X56751424Y-34601108D01*
X56759389Y-34589187D01*
X56759390Y-34589184D01*
X56759394Y-34589179D01*
X56819737Y-34443497D01*
X56850500Y-34288842D01*
X56850500Y-34131158D01*
X56850500Y-34131155D01*
X56850499Y-34131153D01*
X56819738Y-33976510D01*
X56819737Y-33976503D01*
X56818308Y-33973054D01*
X56759396Y-33830825D01*
X56759395Y-33830823D01*
X56759394Y-33830821D01*
X56749752Y-33816390D01*
X56728873Y-33749717D01*
X56747356Y-33682336D01*
X56749726Y-33678647D01*
X56759394Y-33664179D01*
X56819737Y-33518497D01*
X56850500Y-33363842D01*
X56850500Y-33206158D01*
X56850500Y-33206155D01*
X56850499Y-33206153D01*
X56833242Y-33119399D01*
X56819737Y-33051503D01*
X56759394Y-32905821D01*
X56743068Y-32881388D01*
X56722191Y-32814716D01*
X56740674Y-32747336D01*
X56743032Y-32743665D01*
X56759394Y-32719179D01*
X56819737Y-32573497D01*
X56850500Y-32418842D01*
X56850500Y-32261158D01*
X56850500Y-32261155D01*
X56850499Y-32261153D01*
X56829890Y-32157546D01*
X56819737Y-32106503D01*
X56793158Y-32042335D01*
X56759397Y-31960827D01*
X56759395Y-31960824D01*
X56759394Y-31960821D01*
X56756434Y-31956392D01*
X56735555Y-31889719D01*
X56754037Y-31822338D01*
X56756403Y-31818653D01*
X56759394Y-31814179D01*
X56819737Y-31668497D01*
X56850500Y-31513842D01*
X56850500Y-31356158D01*
X56850500Y-31356155D01*
X56850499Y-31356153D01*
X56844805Y-31327527D01*
X56819737Y-31201503D01*
X56772422Y-31087273D01*
X56759397Y-31055827D01*
X56759389Y-31055812D01*
X56751424Y-31043892D01*
X56730545Y-30977215D01*
X56749029Y-30909834D01*
X56751424Y-30906108D01*
X56759389Y-30894187D01*
X56759390Y-30894184D01*
X56759394Y-30894179D01*
X56819737Y-30748497D01*
X56850500Y-30593842D01*
X56850500Y-30436158D01*
X56850500Y-30436155D01*
X56850499Y-30436153D01*
X56823841Y-30302135D01*
X56819737Y-30281503D01*
X56804119Y-30243797D01*
X56759396Y-30135825D01*
X56759395Y-30135823D01*
X56759394Y-30135821D01*
X56749752Y-30121390D01*
X56728873Y-30054717D01*
X56747356Y-29987336D01*
X56749726Y-29983647D01*
X56759394Y-29969179D01*
X56819737Y-29823497D01*
X56850500Y-29668842D01*
X56850500Y-29511158D01*
X56850500Y-29511155D01*
X56850499Y-29511153D01*
X56848682Y-29502018D01*
X56819737Y-29356503D01*
X56813917Y-29342452D01*
X56759397Y-29210827D01*
X56759389Y-29210812D01*
X56751424Y-29198892D01*
X56730545Y-29132215D01*
X56749029Y-29064834D01*
X56751424Y-29061108D01*
X56759389Y-29049187D01*
X56759390Y-29049184D01*
X56759394Y-29049179D01*
X56819737Y-28903497D01*
X56850500Y-28748842D01*
X56850500Y-28591158D01*
X56850500Y-28591155D01*
X56850499Y-28591153D01*
X56835723Y-28516872D01*
X56819737Y-28436503D01*
X56802691Y-28395349D01*
X56759396Y-28290825D01*
X56759394Y-28290822D01*
X56759394Y-28290821D01*
X56754763Y-28283891D01*
X56733885Y-28217215D01*
X56752369Y-28149834D01*
X56754764Y-28146108D01*
X56755618Y-28144830D01*
X56759394Y-28139179D01*
X56819737Y-27993497D01*
X56850500Y-27838842D01*
X56850500Y-27800321D01*
X57149500Y-27800321D01*
X57149500Y-28599678D01*
X57164032Y-28672735D01*
X57164033Y-28672739D01*
X57164034Y-28672740D01*
X57219399Y-28755601D01*
X57297014Y-28807461D01*
X57302260Y-28810966D01*
X57302264Y-28810967D01*
X57375321Y-28825499D01*
X57375324Y-28825500D01*
X57375326Y-28825500D01*
X58424676Y-28825500D01*
X58424677Y-28825499D01*
X58497740Y-28810966D01*
X58556960Y-28771396D01*
X58623638Y-28750520D01*
X58625850Y-28750500D01*
X59225500Y-28750500D01*
X59292539Y-28770185D01*
X59338294Y-28822989D01*
X59349500Y-28874500D01*
X59349500Y-29162819D01*
X59329815Y-29229858D01*
X59299812Y-29262085D01*
X59192452Y-29342455D01*
X59106206Y-29457664D01*
X59106202Y-29457671D01*
X59055908Y-29592517D01*
X59049501Y-29652116D01*
X59049501Y-29652123D01*
X59049500Y-29652135D01*
X59049500Y-29720612D01*
X59029815Y-29787651D01*
X59013181Y-29808293D01*
X57759491Y-31061983D01*
X57759487Y-31061988D01*
X57705260Y-31155914D01*
X57687018Y-31187510D01*
X57687016Y-31187513D01*
X57683266Y-31201510D01*
X57649500Y-31327525D01*
X57649500Y-31327527D01*
X57649500Y-31472474D01*
X57670138Y-31549500D01*
X57687013Y-31612478D01*
X57687016Y-31612485D01*
X57759490Y-31738015D01*
X57861985Y-31840510D01*
X57977987Y-31907483D01*
X57977989Y-31907484D01*
X57977990Y-31907485D01*
X57987511Y-31912982D01*
X57987512Y-31912982D01*
X57987515Y-31912984D01*
X58127525Y-31950500D01*
X58127526Y-31950500D01*
X58127528Y-31950500D01*
X58272472Y-31950500D01*
X58272474Y-31950500D01*
X58272475Y-31950500D01*
X58412485Y-31912984D01*
X58422013Y-31907483D01*
X58538015Y-31840510D01*
X59271030Y-31107493D01*
X59332351Y-31074010D01*
X59402040Y-31078993D01*
X59442517Y-31094091D01*
X59502127Y-31100500D01*
X60297872Y-31100499D01*
X60357483Y-31094091D01*
X60492331Y-31043796D01*
X60607546Y-30957546D01*
X60693796Y-30842331D01*
X60744091Y-30707483D01*
X60750500Y-30647873D01*
X60750499Y-29652135D01*
X61049500Y-29652135D01*
X61049500Y-30647870D01*
X61049501Y-30647876D01*
X61055908Y-30707483D01*
X61106202Y-30842328D01*
X61106206Y-30842335D01*
X61192452Y-30957544D01*
X61192455Y-30957547D01*
X61307664Y-31043793D01*
X61307671Y-31043797D01*
X61442517Y-31094091D01*
X61442516Y-31094091D01*
X61449444Y-31094835D01*
X61502127Y-31100500D01*
X62297872Y-31100499D01*
X62357483Y-31094091D01*
X62492331Y-31043796D01*
X62607546Y-30957546D01*
X62693796Y-30842331D01*
X62744091Y-30707483D01*
X62750500Y-30647873D01*
X62750499Y-29652128D01*
X62744091Y-29592517D01*
X62725919Y-29543796D01*
X62693797Y-29457671D01*
X62693793Y-29457664D01*
X62607547Y-29342455D01*
X62607544Y-29342452D01*
X62492335Y-29256206D01*
X62492328Y-29256202D01*
X62357482Y-29205908D01*
X62357483Y-29205908D01*
X62297883Y-29199501D01*
X62297881Y-29199500D01*
X62297873Y-29199500D01*
X62297864Y-29199500D01*
X61502129Y-29199500D01*
X61502123Y-29199501D01*
X61442516Y-29205908D01*
X61307671Y-29256202D01*
X61307664Y-29256206D01*
X61192455Y-29342452D01*
X61192452Y-29342455D01*
X61106206Y-29457664D01*
X61106202Y-29457671D01*
X61055908Y-29592517D01*
X61049501Y-29652116D01*
X61049501Y-29652123D01*
X61049500Y-29652135D01*
X60750499Y-29652135D01*
X60750499Y-29652128D01*
X60744091Y-29592517D01*
X60725919Y-29543796D01*
X60693797Y-29457671D01*
X60693793Y-29457664D01*
X60607547Y-29342455D01*
X60607381Y-29342331D01*
X60580693Y-29322352D01*
X60500188Y-29262085D01*
X60458318Y-29206151D01*
X60450500Y-29162819D01*
X60450500Y-28874500D01*
X60470185Y-28807461D01*
X60522989Y-28761706D01*
X60574500Y-28750500D01*
X63174150Y-28750500D01*
X63241189Y-28770185D01*
X63243040Y-28771397D01*
X63302260Y-28810966D01*
X63302264Y-28810967D01*
X63375321Y-28825499D01*
X63375324Y-28825500D01*
X63375326Y-28825500D01*
X64424676Y-28825500D01*
X64424677Y-28825499D01*
X64497740Y-28810966D01*
X64580601Y-28755601D01*
X64635966Y-28672740D01*
X64650500Y-28599674D01*
X64650500Y-27800326D01*
X64650500Y-27800323D01*
X64650499Y-27800321D01*
X64635967Y-27727264D01*
X64635966Y-27727260D01*
X64620082Y-27703488D01*
X64580601Y-27644399D01*
X64497740Y-27589034D01*
X64497739Y-27589033D01*
X64497735Y-27589032D01*
X64424677Y-27574500D01*
X64424674Y-27574500D01*
X63375326Y-27574500D01*
X63375323Y-27574500D01*
X63302264Y-27589032D01*
X63302260Y-27589033D01*
X63243040Y-27628603D01*
X63176362Y-27649480D01*
X63174150Y-27649500D01*
X58625850Y-27649500D01*
X58558811Y-27629815D01*
X58556960Y-27628603D01*
X58497739Y-27589033D01*
X58497735Y-27589032D01*
X58424677Y-27574500D01*
X58424674Y-27574500D01*
X57375326Y-27574500D01*
X57375323Y-27574500D01*
X57302264Y-27589032D01*
X57302260Y-27589033D01*
X57219399Y-27644399D01*
X57164033Y-27727260D01*
X57164032Y-27727264D01*
X57149500Y-27800321D01*
X56850500Y-27800321D01*
X56850500Y-27681158D01*
X56850500Y-27681155D01*
X56850499Y-27681153D01*
X56832175Y-27589032D01*
X56819737Y-27526503D01*
X56819735Y-27526498D01*
X56759397Y-27380827D01*
X56759389Y-27380812D01*
X56751424Y-27368892D01*
X56730545Y-27302215D01*
X56749029Y-27234834D01*
X56751424Y-27231108D01*
X56759389Y-27219187D01*
X56759390Y-27219184D01*
X56759394Y-27219179D01*
X56762825Y-27210897D01*
X56819735Y-27073501D01*
X56819737Y-27073497D01*
X56848353Y-26929636D01*
X65864500Y-26929636D01*
X65864500Y-27950363D01*
X65864501Y-27950382D01*
X65870908Y-28009981D01*
X65921202Y-28144827D01*
X65921203Y-28144828D01*
X65921204Y-28144830D01*
X66007454Y-28260046D01*
X66122670Y-28346296D01*
X66122672Y-28346296D01*
X66122674Y-28346298D01*
X66258832Y-28397081D01*
X66276557Y-28410349D01*
X66296703Y-28419550D01*
X66303985Y-28430882D01*
X66314766Y-28438952D01*
X66322504Y-28459697D01*
X66334477Y-28478328D01*
X66337628Y-28500245D01*
X66339184Y-28504416D01*
X66339500Y-28513263D01*
X66339500Y-28570305D01*
X66319815Y-28637344D01*
X66289812Y-28669571D01*
X66192452Y-28742455D01*
X66106206Y-28857664D01*
X66106202Y-28857671D01*
X66055908Y-28992517D01*
X66049817Y-29049179D01*
X66049501Y-29052123D01*
X66049500Y-29052135D01*
X66049500Y-29847870D01*
X66049501Y-29847876D01*
X66055908Y-29907483D01*
X66106202Y-30042328D01*
X66106206Y-30042335D01*
X66192452Y-30157544D01*
X66192455Y-30157547D01*
X66307664Y-30243793D01*
X66307671Y-30243797D01*
X66442517Y-30294091D01*
X66442516Y-30294091D01*
X66449444Y-30294835D01*
X66502127Y-30300500D01*
X67497872Y-30300499D01*
X67557483Y-30294091D01*
X67692331Y-30243796D01*
X67807546Y-30157546D01*
X67893796Y-30042331D01*
X67944091Y-29907483D01*
X67950500Y-29847873D01*
X67950499Y-29052128D01*
X67944091Y-28992517D01*
X67910890Y-28903501D01*
X67893797Y-28857671D01*
X67893793Y-28857664D01*
X67807547Y-28742455D01*
X67690188Y-28654599D01*
X67687451Y-28650943D01*
X67683297Y-28649046D01*
X67666705Y-28623228D01*
X67648318Y-28598665D01*
X67647302Y-28593037D01*
X67645523Y-28590268D01*
X67640500Y-28555333D01*
X67640500Y-28513263D01*
X67660185Y-28446224D01*
X67712989Y-28400469D01*
X67721168Y-28397081D01*
X67857325Y-28346298D01*
X67857325Y-28346297D01*
X67857330Y-28346296D01*
X67972546Y-28260046D01*
X68058796Y-28144830D01*
X68109091Y-28009982D01*
X68115500Y-27950372D01*
X68115500Y-26929628D01*
X68109091Y-26870018D01*
X68058796Y-26735170D01*
X67972546Y-26619954D01*
X67857330Y-26533704D01*
X67857328Y-26533703D01*
X67857327Y-26533702D01*
X67722481Y-26483408D01*
X67722482Y-26483408D01*
X67662882Y-26477001D01*
X67662880Y-26477000D01*
X67662872Y-26477000D01*
X66317128Y-26477000D01*
X66317120Y-26477000D01*
X66317117Y-26477001D01*
X66257518Y-26483408D01*
X66122672Y-26533702D01*
X66122670Y-26533704D01*
X66007454Y-26619954D01*
X65923076Y-26732670D01*
X65921205Y-26735169D01*
X65921202Y-26735172D01*
X65870908Y-26870018D01*
X65864501Y-26929617D01*
X65864500Y-26929636D01*
X56848353Y-26929636D01*
X56850500Y-26918842D01*
X56850500Y-26761158D01*
X56850500Y-26761155D01*
X56850499Y-26761153D01*
X56832860Y-26672475D01*
X56819737Y-26606503D01*
X56789582Y-26533702D01*
X56759396Y-26460825D01*
X56759395Y-26460823D01*
X56759394Y-26460821D01*
X56749752Y-26446390D01*
X56728873Y-26379717D01*
X56747356Y-26312336D01*
X56749726Y-26308647D01*
X56759394Y-26294179D01*
X56819737Y-26148497D01*
X56850500Y-25993842D01*
X56850500Y-25836158D01*
X56850500Y-25836155D01*
X56850499Y-25836153D01*
X56840389Y-25785328D01*
X56819737Y-25681503D01*
X56759394Y-25535821D01*
X56743068Y-25511388D01*
X56722191Y-25444716D01*
X56740674Y-25377336D01*
X56743032Y-25373665D01*
X56759394Y-25349179D01*
X56819737Y-25203497D01*
X56850500Y-25048842D01*
X56850500Y-24896533D01*
X64734499Y-24896533D01*
X64760458Y-25027030D01*
X64760461Y-25027040D01*
X64811376Y-25149961D01*
X64811386Y-25149979D01*
X64885301Y-25260601D01*
X64885307Y-25260609D01*
X64979390Y-25354692D01*
X64979398Y-25354698D01*
X65090020Y-25428613D01*
X65090023Y-25428614D01*
X65090031Y-25428620D01*
X65090037Y-25428622D01*
X65090038Y-25428623D01*
X65132548Y-25446231D01*
X65212964Y-25479540D01*
X65212968Y-25479540D01*
X65212969Y-25479541D01*
X65343466Y-25505500D01*
X65343469Y-25505500D01*
X65476533Y-25505500D01*
X65578939Y-25485129D01*
X65607036Y-25479540D01*
X65729969Y-25428620D01*
X65840606Y-25354695D01*
X65875890Y-25319411D01*
X65937212Y-25285925D01*
X66006904Y-25290909D01*
X66037883Y-25307825D01*
X66122665Y-25371293D01*
X66122672Y-25371297D01*
X66257518Y-25421591D01*
X66257517Y-25421591D01*
X66264445Y-25422335D01*
X66317128Y-25428000D01*
X66317137Y-25428000D01*
X67662863Y-25428000D01*
X67662872Y-25428000D01*
X67722482Y-25421591D01*
X67857330Y-25371296D01*
X67972546Y-25285046D01*
X68058796Y-25169830D01*
X68109091Y-25034982D01*
X68115500Y-24975372D01*
X68115500Y-23954628D01*
X68109091Y-23895018D01*
X68085404Y-23831510D01*
X68058797Y-23760172D01*
X68058796Y-23760171D01*
X68058796Y-23760170D01*
X67972546Y-23644954D01*
X67857330Y-23558704D01*
X67857328Y-23558703D01*
X67857327Y-23558702D01*
X67722481Y-23508408D01*
X67722482Y-23508408D01*
X67662882Y-23502001D01*
X67662880Y-23502000D01*
X67662872Y-23502000D01*
X66317128Y-23502000D01*
X66317120Y-23502000D01*
X66317117Y-23502001D01*
X66257518Y-23508408D01*
X66122672Y-23558702D01*
X66122670Y-23558704D01*
X66007454Y-23644954D01*
X65923076Y-23757670D01*
X65917730Y-23764811D01*
X65861796Y-23806682D01*
X65818463Y-23814500D01*
X65710929Y-23814500D01*
X65585261Y-23839497D01*
X65585255Y-23839499D01*
X65466874Y-23888534D01*
X65360331Y-23959723D01*
X65094577Y-24225476D01*
X65075787Y-24240896D01*
X64979394Y-24305304D01*
X64979390Y-24305307D01*
X64885307Y-24399390D01*
X64885301Y-24399398D01*
X64811386Y-24510020D01*
X64811376Y-24510038D01*
X64760461Y-24632959D01*
X64760458Y-24632969D01*
X64734500Y-24763466D01*
X64734500Y-24763469D01*
X64734500Y-24896531D01*
X64734500Y-24896533D01*
X64734499Y-24896533D01*
X56850500Y-24896533D01*
X56850500Y-24891158D01*
X56850500Y-24891155D01*
X56850499Y-24891153D01*
X56828702Y-24781568D01*
X56819738Y-24736508D01*
X56819737Y-24736507D01*
X56819737Y-24736503D01*
X56785600Y-24654088D01*
X56759397Y-24590827D01*
X56759395Y-24590824D01*
X56759394Y-24590821D01*
X56756434Y-24586392D01*
X56735555Y-24519719D01*
X56754037Y-24452338D01*
X56756403Y-24448653D01*
X56759394Y-24444179D01*
X56819737Y-24298497D01*
X56850500Y-24143842D01*
X56850500Y-23986158D01*
X56850500Y-23986155D01*
X56850499Y-23986153D01*
X56819737Y-23831503D01*
X56806481Y-23799500D01*
X56759397Y-23685827D01*
X56759389Y-23685812D01*
X56751424Y-23673892D01*
X56730545Y-23607215D01*
X56749029Y-23539834D01*
X56751424Y-23536108D01*
X56759389Y-23524187D01*
X56759390Y-23524184D01*
X56759394Y-23524179D01*
X56819737Y-23378497D01*
X56850500Y-23223842D01*
X56850500Y-23066158D01*
X56850500Y-23066155D01*
X56850499Y-23066153D01*
X56819738Y-22911510D01*
X56819737Y-22911503D01*
X56798192Y-22859489D01*
X56759396Y-22765825D01*
X56759395Y-22765823D01*
X56759394Y-22765821D01*
X56749752Y-22751390D01*
X56728873Y-22684717D01*
X56747356Y-22617336D01*
X56749726Y-22613647D01*
X56759394Y-22599179D01*
X56819737Y-22453497D01*
X56850500Y-22298842D01*
X56850500Y-22141158D01*
X56850500Y-22141155D01*
X56850499Y-22141153D01*
X56819738Y-21986510D01*
X56819737Y-21986503D01*
X56819735Y-21986498D01*
X56759397Y-21840827D01*
X56759389Y-21840812D01*
X56751424Y-21828892D01*
X56730545Y-21762215D01*
X56749029Y-21694834D01*
X56751424Y-21691108D01*
X56759389Y-21679187D01*
X56759390Y-21679184D01*
X56759394Y-21679179D01*
X56819737Y-21533497D01*
X56850500Y-21378842D01*
X56850500Y-21221158D01*
X56844542Y-21191207D01*
X56850768Y-21121619D01*
X56878474Y-21079339D01*
X56950500Y-21007314D01*
X57016392Y-20893186D01*
X57050500Y-20765892D01*
X57050500Y-20707027D01*
X57051294Y-20693018D01*
X57061659Y-20601863D01*
X57067950Y-20574559D01*
X57070020Y-20568699D01*
X57096159Y-20494728D01*
X57108415Y-20469541D01*
X57153837Y-20398066D01*
X57171434Y-20376277D01*
X57231739Y-20316830D01*
X57253781Y-20299546D01*
X57325887Y-20255161D01*
X57351247Y-20243265D01*
X57431491Y-20216198D01*
X57458868Y-20210303D01*
X57550176Y-20201243D01*
X57562172Y-20200639D01*
X57563112Y-20200637D01*
X57623046Y-20201496D01*
X57626900Y-20200521D01*
X57638558Y-20200500D01*
X57638595Y-20200511D01*
X57638784Y-20200500D01*
X95543038Y-20200500D01*
X95556922Y-20201280D01*
G37*
%TD.AperFunction*%
%TA.AperFunction,Conductor*%
G36*
X90804943Y-34772773D02*
G01*
X90805934Y-34770960D01*
X90813716Y-34775208D01*
X90813717Y-34775208D01*
X90813722Y-34775212D01*
X90922231Y-34815683D01*
X90945200Y-34824251D01*
X91003309Y-34830499D01*
X91003326Y-34830500D01*
X91104192Y-34830500D01*
X91133632Y-34839144D01*
X91163619Y-34845668D01*
X91168634Y-34849422D01*
X91171231Y-34850185D01*
X91191873Y-34866819D01*
X91213181Y-34888127D01*
X91246666Y-34949450D01*
X91249500Y-34975808D01*
X91249500Y-35734071D01*
X91258644Y-35780038D01*
X91270451Y-35839394D01*
X91274499Y-35859744D01*
X91305425Y-35934407D01*
X91323535Y-35978127D01*
X91360511Y-36033466D01*
X91394726Y-36084673D01*
X91394727Y-36084674D01*
X92771782Y-37461728D01*
X92805267Y-37523051D01*
X92806575Y-37568805D01*
X92799500Y-37613479D01*
X92799500Y-37976517D01*
X92802245Y-37993846D01*
X92814354Y-38070304D01*
X92871950Y-38183342D01*
X92871952Y-38183344D01*
X92871954Y-38183347D01*
X92961652Y-38273045D01*
X92961654Y-38273046D01*
X92961658Y-38273050D01*
X93052851Y-38319515D01*
X93103647Y-38367490D01*
X93120442Y-38435311D01*
X93097904Y-38501446D01*
X93052852Y-38540484D01*
X92961658Y-38586950D01*
X92961657Y-38586951D01*
X92961652Y-38586954D01*
X92871954Y-38676652D01*
X92871951Y-38676657D01*
X92814352Y-38789698D01*
X92799500Y-38883475D01*
X92799500Y-39246517D01*
X92805686Y-39285572D01*
X92814354Y-39340304D01*
X92871950Y-39453342D01*
X92871952Y-39453344D01*
X92871954Y-39453347D01*
X92961652Y-39543045D01*
X92961654Y-39543046D01*
X92961658Y-39543050D01*
X93052851Y-39589515D01*
X93103647Y-39637490D01*
X93120442Y-39705311D01*
X93097904Y-39771446D01*
X93052852Y-39810484D01*
X92961658Y-39856950D01*
X92961657Y-39856951D01*
X92961652Y-39856954D01*
X92871954Y-39946652D01*
X92871951Y-39946657D01*
X92814352Y-40059698D01*
X92799500Y-40153475D01*
X92799500Y-40516517D01*
X92808543Y-40573613D01*
X92814354Y-40610304D01*
X92871950Y-40723342D01*
X92871952Y-40723344D01*
X92871954Y-40723347D01*
X92961652Y-40813045D01*
X92961654Y-40813046D01*
X92961658Y-40813050D01*
X93052851Y-40859515D01*
X93103647Y-40907490D01*
X93120442Y-40975311D01*
X93097904Y-41041446D01*
X93052852Y-41080484D01*
X92961658Y-41126950D01*
X92961657Y-41126951D01*
X92961652Y-41126954D01*
X92871954Y-41216652D01*
X92871951Y-41216657D01*
X92814352Y-41329698D01*
X92799500Y-41423475D01*
X92799500Y-41786517D01*
X92808444Y-41842985D01*
X92814354Y-41880304D01*
X92871950Y-41993342D01*
X92871952Y-41993344D01*
X92871954Y-41993347D01*
X92961652Y-42083045D01*
X92961654Y-42083046D01*
X92961658Y-42083050D01*
X93074694Y-42140645D01*
X93074698Y-42140647D01*
X93168475Y-42155499D01*
X93168481Y-42155500D01*
X93640397Y-42155499D01*
X93707436Y-42175183D01*
X93709285Y-42176395D01*
X93711365Y-42177785D01*
X93716873Y-42181465D01*
X93835256Y-42230501D01*
X93835260Y-42230501D01*
X93835261Y-42230502D01*
X93960928Y-42255500D01*
X93960931Y-42255500D01*
X94384192Y-42255500D01*
X94451231Y-42275185D01*
X94471873Y-42291819D01*
X94713181Y-42533127D01*
X94746666Y-42594450D01*
X94749500Y-42620808D01*
X94749500Y-47079192D01*
X94729815Y-47146231D01*
X94713181Y-47166873D01*
X94266873Y-47613181D01*
X94205550Y-47646666D01*
X94179192Y-47649500D01*
X92920807Y-47649500D01*
X92853768Y-47629815D01*
X92833126Y-47613181D01*
X92556523Y-47336578D01*
X92523038Y-47275255D01*
X92528021Y-47205566D01*
X92544091Y-47162483D01*
X92550500Y-47102873D01*
X92550499Y-45757128D01*
X92544091Y-45697517D01*
X92536635Y-45677527D01*
X92493797Y-45562671D01*
X92493793Y-45562664D01*
X92407547Y-45447455D01*
X92407544Y-45447452D01*
X92292335Y-45361206D01*
X92292328Y-45361202D01*
X92220030Y-45334237D01*
X92175682Y-45305736D01*
X90314674Y-43444727D01*
X90314673Y-43444726D01*
X90314669Y-43444723D01*
X90208127Y-43373535D01*
X90089744Y-43324499D01*
X90089738Y-43324497D01*
X89964071Y-43299500D01*
X89964069Y-43299500D01*
X89039069Y-43299500D01*
X88910931Y-43299500D01*
X88910929Y-43299500D01*
X88785261Y-43324497D01*
X88785255Y-43324499D01*
X88666872Y-43373535D01*
X88666868Y-43373537D01*
X88659282Y-43378606D01*
X88592604Y-43399480D01*
X88590399Y-43399500D01*
X88355982Y-43399500D01*
X88262196Y-43414354D01*
X88248224Y-43421473D01*
X88179555Y-43434367D01*
X88114815Y-43408088D01*
X88074560Y-43350981D01*
X88071732Y-43284960D01*
X88071620Y-43284943D01*
X88071707Y-43284389D01*
X88071570Y-43281175D01*
X88073019Y-43276105D01*
X88087999Y-43181524D01*
X88088000Y-43181519D01*
X88087999Y-42818482D01*
X88073146Y-42724696D01*
X88015550Y-42611658D01*
X88015546Y-42611654D01*
X88015545Y-42611652D01*
X87925847Y-42521954D01*
X87925844Y-42521952D01*
X87925842Y-42521950D01*
X87849017Y-42482805D01*
X87812801Y-42464352D01*
X87719024Y-42449500D01*
X87719019Y-42449500D01*
X87520808Y-42449500D01*
X87453769Y-42429815D01*
X87433127Y-42413181D01*
X87166819Y-42146873D01*
X87133334Y-42085550D01*
X87130500Y-42059192D01*
X87130500Y-41651040D01*
X87150185Y-41584001D01*
X87202989Y-41538246D01*
X87272147Y-41528302D01*
X87335703Y-41557327D01*
X87342181Y-41563359D01*
X87889092Y-42110271D01*
X87889099Y-42110277D01*
X87995639Y-42181464D01*
X87995638Y-42181464D01*
X88030312Y-42195826D01*
X88114024Y-42230501D01*
X88114028Y-42230501D01*
X88114029Y-42230502D01*
X88239696Y-42255500D01*
X88239699Y-42255500D01*
X89569071Y-42255500D01*
X89653615Y-42238682D01*
X89694744Y-42230501D01*
X89813127Y-42181465D01*
X89820710Y-42176397D01*
X89887387Y-42155519D01*
X89889602Y-42155499D01*
X89931517Y-42155499D01*
X89931518Y-42155499D01*
X90025304Y-42140646D01*
X90138342Y-42083050D01*
X90228050Y-41993342D01*
X90285646Y-41880304D01*
X90285646Y-41880302D01*
X90285647Y-41880301D01*
X90296282Y-41813147D01*
X90300500Y-41786519D01*
X90300499Y-41423482D01*
X90285646Y-41329696D01*
X90228050Y-41216658D01*
X90228046Y-41216654D01*
X90228045Y-41216652D01*
X90138347Y-41126954D01*
X90138344Y-41126952D01*
X90138342Y-41126950D01*
X90061517Y-41087805D01*
X90025301Y-41069352D01*
X89931524Y-41054500D01*
X89931519Y-41054500D01*
X89889601Y-41054500D01*
X89822562Y-41034815D01*
X89820747Y-41033626D01*
X89813127Y-41028535D01*
X89813124Y-41028533D01*
X89813123Y-41028533D01*
X89694744Y-40979499D01*
X89694738Y-40979497D01*
X89569071Y-40954500D01*
X89569069Y-40954500D01*
X89139069Y-40954500D01*
X88624576Y-40954500D01*
X88557537Y-40934815D01*
X88536895Y-40918181D01*
X87166819Y-39548105D01*
X87133334Y-39486782D01*
X87130500Y-39460424D01*
X87130500Y-39173386D01*
X87150185Y-39106347D01*
X87202989Y-39060592D01*
X87272147Y-39050648D01*
X87335703Y-39079673D01*
X87342181Y-39085705D01*
X87761986Y-39505510D01*
X87887516Y-39577984D01*
X88027526Y-39615500D01*
X88027529Y-39615500D01*
X89161909Y-39615500D01*
X89161917Y-39615499D01*
X89931517Y-39615499D01*
X89931518Y-39615499D01*
X90025304Y-39600646D01*
X90138342Y-39543050D01*
X90228050Y-39453342D01*
X90285646Y-39340304D01*
X90285646Y-39340302D01*
X90285647Y-39340301D01*
X90300499Y-39246524D01*
X90300500Y-39246519D01*
X90300499Y-38883482D01*
X90285646Y-38789696D01*
X90228050Y-38676658D01*
X90228046Y-38676654D01*
X90228045Y-38676652D01*
X90138347Y-38586954D01*
X90138344Y-38586952D01*
X90138342Y-38586950D01*
X90047150Y-38540485D01*
X90025301Y-38529352D01*
X89931524Y-38514500D01*
X89931519Y-38514500D01*
X89147476Y-38514500D01*
X89147475Y-38514500D01*
X88379388Y-38514500D01*
X88349947Y-38505855D01*
X88319961Y-38499332D01*
X88314945Y-38495577D01*
X88312349Y-38494815D01*
X88291707Y-38478181D01*
X88185819Y-38372293D01*
X88152334Y-38310970D01*
X88149500Y-38284612D01*
X88149500Y-37180386D01*
X88169185Y-37113347D01*
X88185815Y-37092709D01*
X88341706Y-36936817D01*
X88403029Y-36903333D01*
X88429387Y-36900499D01*
X88947871Y-36900499D01*
X88947872Y-36900499D01*
X89007483Y-36894091D01*
X89142331Y-36843796D01*
X89257546Y-36757546D01*
X89343796Y-36642331D01*
X89394091Y-36507483D01*
X89400500Y-36447873D01*
X89400499Y-35452128D01*
X89394091Y-35392517D01*
X89383267Y-35363497D01*
X89343797Y-35257671D01*
X89343793Y-35257664D01*
X89257547Y-35142455D01*
X89257544Y-35142452D01*
X89142335Y-35056206D01*
X89142328Y-35056202D01*
X89007482Y-35005908D01*
X89007483Y-35005908D01*
X88978466Y-35002789D01*
X88913915Y-34976051D01*
X88874066Y-34918659D01*
X88871573Y-34848834D01*
X88907225Y-34788745D01*
X88969705Y-34757470D01*
X88991721Y-34755500D01*
X90746118Y-34755500D01*
X90804943Y-34772773D01*
G37*
%TD.AperFunction*%
%TA.AperFunction,Conductor*%
G36*
X95990667Y-40496632D02*
G01*
X96037357Y-40548611D01*
X96049500Y-40602127D01*
X96049500Y-41730191D01*
X96029815Y-41797230D01*
X95977011Y-41842985D01*
X95907853Y-41852929D01*
X95844297Y-41823904D01*
X95837819Y-41817872D01*
X95119674Y-41099727D01*
X95114965Y-41095863D01*
X95116529Y-41093956D01*
X95078668Y-41048649D01*
X95069965Y-40979323D01*
X95100123Y-40916297D01*
X95159568Y-40879581D01*
X95159904Y-40879489D01*
X95277485Y-40847984D01*
X95403015Y-40775510D01*
X95510490Y-40668033D01*
X95571811Y-40634550D01*
X95573857Y-40634123D01*
X95622036Y-40624540D01*
X95744969Y-40573620D01*
X95830429Y-40516518D01*
X95856610Y-40499025D01*
X95923287Y-40478147D01*
X95990667Y-40496632D01*
G37*
%TD.AperFunction*%
%TA.AperFunction,Conductor*%
G36*
X95968834Y-26153627D02*
G01*
X96024767Y-26195499D01*
X96049184Y-26260963D01*
X96049500Y-26269809D01*
X96049500Y-35821613D01*
X96029815Y-35888652D01*
X95977011Y-35934407D01*
X95907853Y-35944351D01*
X95844297Y-35915326D01*
X95837819Y-35909294D01*
X95588016Y-35659491D01*
X95588015Y-35659490D01*
X95462485Y-35587016D01*
X95462480Y-35587014D01*
X95418780Y-35575304D01*
X95418780Y-35575305D01*
X95370627Y-35562402D01*
X95322475Y-35549500D01*
X95322474Y-35549500D01*
X94779600Y-35549500D01*
X94712561Y-35529815D01*
X94710748Y-35528628D01*
X94669969Y-35501380D01*
X94669965Y-35501378D01*
X94669961Y-35501376D01*
X94547040Y-35450461D01*
X94547030Y-35450458D01*
X94416533Y-35424500D01*
X94416531Y-35424500D01*
X94283469Y-35424500D01*
X94283467Y-35424500D01*
X94152969Y-35450458D01*
X94152959Y-35450461D01*
X94030038Y-35501376D01*
X94030020Y-35501386D01*
X93919398Y-35575301D01*
X93919390Y-35575307D01*
X93825307Y-35669390D01*
X93825301Y-35669398D01*
X93751386Y-35780020D01*
X93751376Y-35780038D01*
X93700461Y-35902959D01*
X93700458Y-35902969D01*
X93674500Y-36033466D01*
X93674500Y-36166535D01*
X93683650Y-36212534D01*
X93677423Y-36282125D01*
X93634560Y-36337302D01*
X93568670Y-36360547D01*
X93500673Y-36344479D01*
X93474352Y-36324406D01*
X92586819Y-35436873D01*
X92553334Y-35375550D01*
X92550500Y-35349192D01*
X92550500Y-34590928D01*
X92525502Y-34465261D01*
X92525501Y-34465260D01*
X92525501Y-34465256D01*
X92482011Y-34360261D01*
X92476466Y-34346875D01*
X92476461Y-34346867D01*
X92435344Y-34285331D01*
X92435343Y-34285330D01*
X92435340Y-34285325D01*
X92405276Y-34240330D01*
X92174319Y-34009373D01*
X92140834Y-33948050D01*
X92138000Y-33921692D01*
X92138000Y-33820826D01*
X92137999Y-33820809D01*
X92131751Y-33762700D01*
X92082712Y-33631222D01*
X92082709Y-33631217D01*
X92050233Y-33587834D01*
X92025816Y-33522370D01*
X92025500Y-33513524D01*
X92025500Y-33229870D01*
X92045185Y-33162831D01*
X92050234Y-33155558D01*
X92077303Y-33119399D01*
X92107712Y-33078778D01*
X92156751Y-32947299D01*
X92161210Y-32905826D01*
X92162999Y-32889190D01*
X92163000Y-32889173D01*
X92163000Y-32320826D01*
X92162999Y-32320809D01*
X92156751Y-32262700D01*
X92108318Y-32132847D01*
X92100500Y-32089513D01*
X92100500Y-31712320D01*
X92120185Y-31645281D01*
X92150192Y-31613051D01*
X92150948Y-31612485D01*
X92157546Y-31607546D01*
X92243796Y-31492331D01*
X92294091Y-31357483D01*
X92300500Y-31297873D01*
X92300499Y-30302128D01*
X92294229Y-30243797D01*
X92294091Y-30242516D01*
X92243797Y-30107671D01*
X92243793Y-30107664D01*
X92157548Y-29992457D01*
X92157546Y-29992454D01*
X92157542Y-29992451D01*
X92157540Y-29992449D01*
X92150187Y-29986944D01*
X92108317Y-29931009D01*
X92100500Y-29887679D01*
X92100500Y-29574500D01*
X92120185Y-29507461D01*
X92172989Y-29461706D01*
X92224500Y-29450500D01*
X92364071Y-29450500D01*
X92448615Y-29433682D01*
X92489744Y-29425501D01*
X92608127Y-29376465D01*
X92625780Y-29364670D01*
X92625781Y-29364670D01*
X92692295Y-29320226D01*
X92714669Y-29305277D01*
X94271700Y-27748246D01*
X95837819Y-26182128D01*
X95899142Y-26148643D01*
X95968834Y-26153627D01*
G37*
%TD.AperFunction*%
%TA.AperFunction,Conductor*%
G36*
X80767539Y-23870185D02*
G01*
X80813294Y-23922989D01*
X80824500Y-23974500D01*
X80824500Y-24960363D01*
X80824501Y-24960382D01*
X80830908Y-25019981D01*
X80881202Y-25154827D01*
X80881203Y-25154828D01*
X80881204Y-25154830D01*
X80967454Y-25270046D01*
X81082670Y-25356296D01*
X81082671Y-25356296D01*
X81082672Y-25356297D01*
X81224786Y-25409302D01*
X81223573Y-25412552D01*
X81270671Y-25439312D01*
X81303115Y-25501192D01*
X81296954Y-25570790D01*
X81254144Y-25626008D01*
X81188277Y-25649316D01*
X81181521Y-25649500D01*
X80902525Y-25649500D01*
X80783089Y-25681503D01*
X80783088Y-25681502D01*
X80762517Y-25687015D01*
X80762514Y-25687016D01*
X80636986Y-25759489D01*
X80636983Y-25759491D01*
X79683294Y-26713181D01*
X79621971Y-26746666D01*
X79595613Y-26749500D01*
X78474500Y-26749500D01*
X78407461Y-26729815D01*
X78361706Y-26677011D01*
X78350500Y-26625500D01*
X78350500Y-25843092D01*
X78350499Y-25843082D01*
X78350499Y-25479739D01*
X78370184Y-25412700D01*
X78422988Y-25366945D01*
X78442399Y-25359966D01*
X78512135Y-25341281D01*
X78643365Y-25265515D01*
X78750515Y-25158365D01*
X78826281Y-25027135D01*
X78865500Y-24880766D01*
X78865500Y-24729234D01*
X78826281Y-24582865D01*
X78750515Y-24451635D01*
X78643365Y-24344485D01*
X78563698Y-24298489D01*
X78512136Y-24268719D01*
X78382978Y-24234112D01*
X78365766Y-24229500D01*
X78214234Y-24229500D01*
X78067863Y-24268719D01*
X77936635Y-24344485D01*
X77936632Y-24344487D01*
X77829487Y-24451632D01*
X77829485Y-24451635D01*
X77753719Y-24582863D01*
X77734635Y-24654087D01*
X77714500Y-24729234D01*
X77714500Y-24880766D01*
X77717576Y-24892247D01*
X77719605Y-24899819D01*
X77719399Y-24908421D01*
X77722844Y-24916307D01*
X77718579Y-24942821D01*
X77717940Y-24969669D01*
X77713116Y-24976795D01*
X77711750Y-24985291D01*
X77693829Y-25005290D01*
X77678776Y-25027530D01*
X77669646Y-25032277D01*
X77665123Y-25037326D01*
X77646963Y-25044074D01*
X77632779Y-25051451D01*
X77621713Y-25054500D01*
X77618482Y-25054501D01*
X77524696Y-25069354D01*
X77473865Y-25095252D01*
X77461730Y-25098598D01*
X77438872Y-25098217D01*
X77416404Y-25102437D01*
X77398608Y-25097547D01*
X77391870Y-25097435D01*
X77387428Y-25094475D01*
X77376376Y-25091438D01*
X77310544Y-25060740D01*
X77263140Y-25054500D01*
X77036868Y-25054500D01*
X77026341Y-25055885D01*
X76989455Y-25060741D01*
X76989453Y-25060742D01*
X76989451Y-25060742D01*
X76952403Y-25078018D01*
X76883325Y-25088509D01*
X76847596Y-25078018D01*
X76810545Y-25060741D01*
X76810541Y-25060740D01*
X76763140Y-25054500D01*
X76763139Y-25054500D01*
X76647585Y-25054500D01*
X76580546Y-25034815D01*
X76534791Y-24982011D01*
X76534470Y-24981305D01*
X76530391Y-24972223D01*
X76523207Y-24945413D01*
X76504484Y-24912984D01*
X76470480Y-24854087D01*
X76395913Y-24779520D01*
X76388855Y-24772462D01*
X76388847Y-24772455D01*
X76195913Y-24579520D01*
X76157316Y-24557235D01*
X76104589Y-24526793D01*
X76041989Y-24510020D01*
X76002727Y-24499500D01*
X76002726Y-24499500D01*
X75410339Y-24499500D01*
X75410323Y-24499499D01*
X75402727Y-24499499D01*
X75297273Y-24499499D01*
X75211528Y-24522475D01*
X75211527Y-24522474D01*
X75195416Y-24526792D01*
X75195410Y-24526794D01*
X75104085Y-24579521D01*
X74829522Y-24854084D01*
X74829520Y-24854087D01*
X74776793Y-24945411D01*
X74772188Y-24962597D01*
X74735822Y-25022256D01*
X74672974Y-25052784D01*
X74652415Y-25054500D01*
X74536868Y-25054500D01*
X74526341Y-25055885D01*
X74489455Y-25060741D01*
X74489453Y-25060742D01*
X74489451Y-25060742D01*
X74452403Y-25078018D01*
X74383325Y-25088509D01*
X74347596Y-25078018D01*
X74310545Y-25060741D01*
X74310541Y-25060740D01*
X74263140Y-25054500D01*
X74036868Y-25054500D01*
X74026341Y-25055885D01*
X73989455Y-25060741D01*
X73989453Y-25060742D01*
X73989451Y-25060742D01*
X73952403Y-25078018D01*
X73883325Y-25088509D01*
X73847596Y-25078018D01*
X73810545Y-25060741D01*
X73810541Y-25060740D01*
X73763140Y-25054500D01*
X73536867Y-25054500D01*
X73489453Y-25060741D01*
X73423622Y-25091439D01*
X73354544Y-25101930D01*
X73338267Y-25098598D01*
X73326135Y-25095254D01*
X73275304Y-25069354D01*
X73181519Y-25054500D01*
X73178287Y-25054500D01*
X73167219Y-25051449D01*
X73143180Y-25036559D01*
X73117637Y-25024450D01*
X73113874Y-25018407D01*
X73107820Y-25014657D01*
X73095647Y-24989134D01*
X73080706Y-24965138D01*
X73080670Y-24957731D01*
X73077743Y-24951593D01*
X73080537Y-24929563D01*
X73080396Y-24899814D01*
X73085500Y-24880766D01*
X73085500Y-24729234D01*
X73046281Y-24582865D01*
X72970515Y-24451635D01*
X72863365Y-24344485D01*
X72783698Y-24298489D01*
X72732136Y-24268719D01*
X72602978Y-24234112D01*
X72585766Y-24229500D01*
X72434234Y-24229500D01*
X72287863Y-24268719D01*
X72156635Y-24344485D01*
X72156632Y-24344487D01*
X72049487Y-24451632D01*
X72049485Y-24451635D01*
X71973719Y-24582863D01*
X71954635Y-24654087D01*
X71934500Y-24729234D01*
X71934500Y-24880766D01*
X71938724Y-24896531D01*
X71973719Y-25027136D01*
X71993122Y-25060742D01*
X72049485Y-25158365D01*
X72156635Y-25265515D01*
X72287865Y-25341281D01*
X72357595Y-25359964D01*
X72417253Y-25396327D01*
X72447783Y-25459173D01*
X72449500Y-25479738D01*
X72449500Y-26625500D01*
X72429815Y-26692539D01*
X72377011Y-26738294D01*
X72325500Y-26749500D01*
X70579386Y-26749500D01*
X70512347Y-26729815D01*
X70491705Y-26713181D01*
X70186819Y-26408294D01*
X70153334Y-26346971D01*
X70150500Y-26320613D01*
X70150500Y-24679387D01*
X70170185Y-24612348D01*
X70186819Y-24591706D01*
X70891706Y-23886819D01*
X70953029Y-23853334D01*
X70979387Y-23850500D01*
X80700500Y-23850500D01*
X80767539Y-23870185D01*
G37*
%TD.AperFunction*%
%TD*%
%TA.AperFunction,Conductor*%
%TO.N,Earth*%
G36*
X54556922Y-20201280D02*
G01*
X54647266Y-20211459D01*
X54674331Y-20217636D01*
X54753540Y-20245352D01*
X54778553Y-20257398D01*
X54849606Y-20302043D01*
X54871313Y-20319355D01*
X54930644Y-20378686D01*
X54947957Y-20400395D01*
X54992600Y-20471444D01*
X55004648Y-20496462D01*
X55032362Y-20575666D01*
X55038540Y-20602735D01*
X55048720Y-20693076D01*
X55049500Y-20706961D01*
X55049500Y-20765891D01*
X55083608Y-20893187D01*
X55116554Y-20950250D01*
X55149500Y-21007314D01*
X55149502Y-21007316D01*
X55221521Y-21079335D01*
X55255006Y-21140658D01*
X55255457Y-21191207D01*
X55249500Y-21221153D01*
X55249500Y-21378846D01*
X55280261Y-21533489D01*
X55280264Y-21533501D01*
X55340602Y-21679171D01*
X55340604Y-21679175D01*
X55340606Y-21679179D01*
X55340609Y-21679183D01*
X55340611Y-21679187D01*
X55348578Y-21691111D01*
X55369455Y-21757789D01*
X55350969Y-21825168D01*
X55348578Y-21828889D01*
X55340611Y-21840812D01*
X55340602Y-21840828D01*
X55280264Y-21986498D01*
X55280261Y-21986510D01*
X55249500Y-22141153D01*
X55249500Y-22298846D01*
X55280261Y-22453489D01*
X55280264Y-22453501D01*
X55340602Y-22599171D01*
X55340604Y-22599175D01*
X55340606Y-22599179D01*
X55340609Y-22599184D01*
X55340610Y-22599185D01*
X55350249Y-22613612D01*
X55371125Y-22680290D01*
X55352639Y-22747670D01*
X55350249Y-22751388D01*
X55340610Y-22765814D01*
X55340602Y-22765828D01*
X55280264Y-22911498D01*
X55280261Y-22911510D01*
X55249500Y-23066153D01*
X55249500Y-23223846D01*
X55280261Y-23378489D01*
X55280264Y-23378501D01*
X55340602Y-23524171D01*
X55340604Y-23524175D01*
X55340606Y-23524179D01*
X55340609Y-23524183D01*
X55340611Y-23524187D01*
X55348578Y-23536111D01*
X55369455Y-23602789D01*
X55350969Y-23670168D01*
X55348578Y-23673889D01*
X55340611Y-23685812D01*
X55340602Y-23685828D01*
X55280264Y-23831498D01*
X55280261Y-23831510D01*
X55249500Y-23986153D01*
X55249500Y-24143846D01*
X55280261Y-24298489D01*
X55280264Y-24298501D01*
X55340602Y-24444171D01*
X55340604Y-24444175D01*
X55340606Y-24444179D01*
X55340610Y-24444186D01*
X55340613Y-24444190D01*
X55343570Y-24448617D01*
X55364443Y-24515296D01*
X55345954Y-24582675D01*
X55343570Y-24586383D01*
X55340613Y-24590809D01*
X55340602Y-24590828D01*
X55280264Y-24736498D01*
X55280261Y-24736510D01*
X55249500Y-24891153D01*
X55249500Y-25048846D01*
X55280261Y-25203489D01*
X55280264Y-25203501D01*
X55340604Y-25349177D01*
X55340605Y-25349179D01*
X55356930Y-25373611D01*
X55377807Y-25440288D01*
X55359321Y-25507668D01*
X55356930Y-25511389D01*
X55340605Y-25535820D01*
X55340604Y-25535822D01*
X55280264Y-25681498D01*
X55280261Y-25681510D01*
X55249500Y-25836153D01*
X55249500Y-25993846D01*
X55280261Y-26148489D01*
X55280264Y-26148501D01*
X55340602Y-26294171D01*
X55340604Y-26294175D01*
X55340606Y-26294179D01*
X55340609Y-26294184D01*
X55340610Y-26294185D01*
X55350249Y-26308612D01*
X55371125Y-26375290D01*
X55352639Y-26442670D01*
X55350249Y-26446388D01*
X55340610Y-26460814D01*
X55340602Y-26460828D01*
X55280264Y-26606498D01*
X55280261Y-26606510D01*
X55249500Y-26761153D01*
X55249500Y-26918846D01*
X55280261Y-27073489D01*
X55280264Y-27073501D01*
X55340602Y-27219171D01*
X55340604Y-27219175D01*
X55340606Y-27219179D01*
X55340609Y-27219183D01*
X55340611Y-27219187D01*
X55348578Y-27231111D01*
X55369455Y-27297789D01*
X55350969Y-27365168D01*
X55348578Y-27368889D01*
X55340611Y-27380812D01*
X55340602Y-27380828D01*
X55280264Y-27526498D01*
X55280261Y-27526510D01*
X55249500Y-27681153D01*
X55249500Y-27838846D01*
X55280261Y-27993489D01*
X55280264Y-27993501D01*
X55340602Y-28139172D01*
X55340612Y-28139190D01*
X55345238Y-28146114D01*
X55366113Y-28212792D01*
X55347625Y-28280172D01*
X55345238Y-28283886D01*
X55340612Y-28290809D01*
X55340602Y-28290827D01*
X55280264Y-28436498D01*
X55280261Y-28436510D01*
X55249500Y-28591153D01*
X55249500Y-28748846D01*
X55280261Y-28903489D01*
X55280264Y-28903501D01*
X55340602Y-29049171D01*
X55340604Y-29049175D01*
X55340606Y-29049179D01*
X55340609Y-29049183D01*
X55340611Y-29049187D01*
X55348578Y-29061111D01*
X55369455Y-29127789D01*
X55350969Y-29195168D01*
X55348578Y-29198889D01*
X55340611Y-29210812D01*
X55340602Y-29210828D01*
X55280264Y-29356498D01*
X55280261Y-29356510D01*
X55249500Y-29511153D01*
X55249500Y-29668846D01*
X55280261Y-29823489D01*
X55280264Y-29823501D01*
X55340602Y-29969171D01*
X55340604Y-29969175D01*
X55340606Y-29969179D01*
X55340609Y-29969184D01*
X55340610Y-29969185D01*
X55350249Y-29983612D01*
X55371125Y-30050290D01*
X55352639Y-30117670D01*
X55350249Y-30121388D01*
X55340610Y-30135814D01*
X55340602Y-30135828D01*
X55280264Y-30281498D01*
X55280261Y-30281510D01*
X55249500Y-30436153D01*
X55249500Y-30593846D01*
X55280261Y-30748489D01*
X55280264Y-30748501D01*
X55340602Y-30894171D01*
X55340604Y-30894175D01*
X55340606Y-30894179D01*
X55340609Y-30894183D01*
X55340611Y-30894187D01*
X55348578Y-30906111D01*
X55369455Y-30972789D01*
X55350969Y-31040168D01*
X55348578Y-31043889D01*
X55340611Y-31055812D01*
X55340602Y-31055828D01*
X55280264Y-31201498D01*
X55280261Y-31201510D01*
X55249500Y-31356153D01*
X55249500Y-31513846D01*
X55280261Y-31668489D01*
X55280264Y-31668501D01*
X55340602Y-31814171D01*
X55340604Y-31814175D01*
X55340606Y-31814179D01*
X55340610Y-31814186D01*
X55340613Y-31814190D01*
X55343570Y-31818617D01*
X55364443Y-31885296D01*
X55345954Y-31952675D01*
X55343570Y-31956383D01*
X55340613Y-31960809D01*
X55340602Y-31960828D01*
X55280264Y-32106498D01*
X55280261Y-32106510D01*
X55249500Y-32261153D01*
X55249500Y-32418846D01*
X55280261Y-32573489D01*
X55280264Y-32573501D01*
X55340604Y-32719177D01*
X55340605Y-32719179D01*
X55356930Y-32743611D01*
X55377807Y-32810288D01*
X55359321Y-32877668D01*
X55356930Y-32881389D01*
X55340605Y-32905820D01*
X55340604Y-32905822D01*
X55280264Y-33051498D01*
X55280261Y-33051510D01*
X55249500Y-33206153D01*
X55249500Y-33363846D01*
X55280261Y-33518489D01*
X55280264Y-33518501D01*
X55340602Y-33664171D01*
X55340604Y-33664175D01*
X55340606Y-33664179D01*
X55340609Y-33664184D01*
X55340610Y-33664185D01*
X55350249Y-33678612D01*
X55371125Y-33745290D01*
X55352639Y-33812670D01*
X55350249Y-33816388D01*
X55340610Y-33830814D01*
X55340602Y-33830828D01*
X55280264Y-33976498D01*
X55280261Y-33976510D01*
X55249500Y-34131153D01*
X55249500Y-34288846D01*
X55280261Y-34443489D01*
X55280264Y-34443501D01*
X55340602Y-34589171D01*
X55340604Y-34589175D01*
X55340606Y-34589179D01*
X55340609Y-34589183D01*
X55340611Y-34589187D01*
X55348578Y-34601111D01*
X55369455Y-34667789D01*
X55350969Y-34735168D01*
X55348578Y-34738889D01*
X55340611Y-34750812D01*
X55340602Y-34750828D01*
X55280264Y-34896498D01*
X55280261Y-34896510D01*
X55249500Y-35051153D01*
X55249500Y-35208846D01*
X55280261Y-35363489D01*
X55280264Y-35363501D01*
X55340602Y-35509171D01*
X55340612Y-35509189D01*
X55346909Y-35518614D01*
X55367784Y-35585292D01*
X55349297Y-35652671D01*
X55346909Y-35656386D01*
X55340612Y-35665810D01*
X55340602Y-35665828D01*
X55280264Y-35811498D01*
X55280261Y-35811510D01*
X55249500Y-35966153D01*
X55249500Y-36123846D01*
X55280261Y-36278489D01*
X55280264Y-36278501D01*
X55340604Y-36424177D01*
X55340605Y-36424179D01*
X55356930Y-36448611D01*
X55377807Y-36515288D01*
X55359321Y-36582668D01*
X55356930Y-36586389D01*
X55340605Y-36610820D01*
X55340604Y-36610822D01*
X55280264Y-36756498D01*
X55280261Y-36756510D01*
X55249500Y-36911153D01*
X55249500Y-37068846D01*
X55280261Y-37223489D01*
X55280264Y-37223501D01*
X55340602Y-37369171D01*
X55340604Y-37369175D01*
X55340606Y-37369179D01*
X55340609Y-37369184D01*
X55340610Y-37369185D01*
X55350249Y-37383612D01*
X55371125Y-37450290D01*
X55352639Y-37517670D01*
X55350249Y-37521388D01*
X55340610Y-37535814D01*
X55340602Y-37535828D01*
X55280264Y-37681498D01*
X55280261Y-37681510D01*
X55249500Y-37836153D01*
X55249500Y-37993846D01*
X55280261Y-38148489D01*
X55280264Y-38148501D01*
X55340602Y-38294171D01*
X55340604Y-38294175D01*
X55340606Y-38294179D01*
X55340609Y-38294183D01*
X55340611Y-38294187D01*
X55348578Y-38306111D01*
X55369455Y-38372789D01*
X55350969Y-38440168D01*
X55348578Y-38443889D01*
X55340611Y-38455812D01*
X55340602Y-38455828D01*
X55280264Y-38601498D01*
X55280261Y-38601510D01*
X55249500Y-38756153D01*
X55249500Y-38913846D01*
X55280261Y-39068489D01*
X55280264Y-39068501D01*
X55340602Y-39214172D01*
X55340612Y-39214190D01*
X55345238Y-39221114D01*
X55366113Y-39287792D01*
X55347625Y-39355172D01*
X55345238Y-39358886D01*
X55340612Y-39365809D01*
X55340602Y-39365827D01*
X55280264Y-39511498D01*
X55280261Y-39511510D01*
X55249500Y-39666153D01*
X55249500Y-39823846D01*
X55280261Y-39978489D01*
X55280264Y-39978501D01*
X55340602Y-40124171D01*
X55340604Y-40124175D01*
X55340606Y-40124179D01*
X55340609Y-40124183D01*
X55340611Y-40124187D01*
X55348578Y-40136111D01*
X55369455Y-40202789D01*
X55350969Y-40270168D01*
X55348578Y-40273889D01*
X55340611Y-40285812D01*
X55340602Y-40285828D01*
X55280264Y-40431498D01*
X55280261Y-40431510D01*
X55249500Y-40586153D01*
X55249500Y-40743846D01*
X55280261Y-40898489D01*
X55280264Y-40898501D01*
X55340602Y-41044171D01*
X55340604Y-41044175D01*
X55340606Y-41044179D01*
X55340609Y-41044184D01*
X55340610Y-41044185D01*
X55350249Y-41058612D01*
X55371125Y-41125290D01*
X55352639Y-41192670D01*
X55350249Y-41196388D01*
X55340610Y-41210814D01*
X55340602Y-41210828D01*
X55280264Y-41356498D01*
X55280261Y-41356510D01*
X55249500Y-41511153D01*
X55249500Y-41668846D01*
X55280261Y-41823489D01*
X55280264Y-41823501D01*
X55340602Y-41969171D01*
X55340604Y-41969175D01*
X55340606Y-41969179D01*
X55340609Y-41969183D01*
X55340611Y-41969187D01*
X55348578Y-41981111D01*
X55369455Y-42047789D01*
X55350969Y-42115168D01*
X55348578Y-42118889D01*
X55340611Y-42130812D01*
X55340602Y-42130828D01*
X55280264Y-42276498D01*
X55280261Y-42276510D01*
X55249500Y-42431153D01*
X55249500Y-42588846D01*
X55280261Y-42743489D01*
X55280264Y-42743501D01*
X55340602Y-42889171D01*
X55340604Y-42889175D01*
X55340606Y-42889179D01*
X55340610Y-42889186D01*
X55340613Y-42889190D01*
X55343570Y-42893617D01*
X55364443Y-42960296D01*
X55345954Y-43027675D01*
X55343570Y-43031383D01*
X55340613Y-43035809D01*
X55340602Y-43035828D01*
X55280264Y-43181498D01*
X55280261Y-43181510D01*
X55249500Y-43336153D01*
X55249500Y-43493846D01*
X55280261Y-43648489D01*
X55280264Y-43648501D01*
X55340604Y-43794177D01*
X55340605Y-43794179D01*
X55356930Y-43818611D01*
X55377807Y-43885288D01*
X55359321Y-43952668D01*
X55356930Y-43956389D01*
X55340605Y-43980820D01*
X55340604Y-43980822D01*
X55280264Y-44126498D01*
X55280261Y-44126510D01*
X55249500Y-44281153D01*
X55249500Y-44438846D01*
X55276194Y-44573045D01*
X55274275Y-44594484D01*
X55277177Y-44615815D01*
X55271223Y-44628593D01*
X55269967Y-44642636D01*
X55256760Y-44659636D01*
X55247670Y-44679149D01*
X55231554Y-44692085D01*
X55227104Y-44697814D01*
X55220822Y-44702058D01*
X55217665Y-44704052D01*
X55200576Y-44713468D01*
X55196591Y-44717296D01*
X55192667Y-44719562D01*
X55191881Y-44720347D01*
X55191879Y-44720349D01*
X55155406Y-44756824D01*
X55153630Y-44758565D01*
X55105543Y-44804763D01*
X55105541Y-44804765D01*
X55104077Y-44807186D01*
X55102589Y-44809648D01*
X55099486Y-44812753D01*
X55073362Y-44858004D01*
X55072698Y-44859103D01*
X55072682Y-44859132D01*
X55037374Y-44917550D01*
X55037374Y-44917551D01*
X55035750Y-44923156D01*
X55033599Y-44926884D01*
X55020337Y-44976387D01*
X55000720Y-45044135D01*
X55000720Y-45044137D01*
X55000710Y-45044198D01*
X55000584Y-45050117D01*
X54999497Y-45054179D01*
X54999498Y-45101346D01*
X54999470Y-45102708D01*
X54999249Y-45103405D01*
X54998119Y-45118521D01*
X54982648Y-45221390D01*
X54973861Y-45252119D01*
X54935592Y-45340715D01*
X54919244Y-45368176D01*
X54859599Y-45444053D01*
X54836775Y-45466424D01*
X54759717Y-45524536D01*
X54731935Y-45540329D01*
X54642584Y-45576816D01*
X54611689Y-45584984D01*
X54507949Y-45598466D01*
X54491968Y-45599500D01*
X36556484Y-45599500D01*
X36540505Y-45598466D01*
X36515382Y-45595201D01*
X36438257Y-45585178D01*
X36407358Y-45577009D01*
X36317959Y-45540501D01*
X36290175Y-45524705D01*
X36213073Y-45466557D01*
X36190253Y-45444189D01*
X36130572Y-45368263D01*
X36114227Y-45340804D01*
X36075938Y-45252150D01*
X36067153Y-45221421D01*
X36064007Y-45200499D01*
X36051878Y-45119822D01*
X36050500Y-45101386D01*
X36050500Y-43861156D01*
X37074499Y-43861156D01*
X37110065Y-44039952D01*
X37110068Y-44039962D01*
X37179829Y-44208382D01*
X37179836Y-44208394D01*
X37210998Y-44255031D01*
X37229512Y-44299726D01*
X37230260Y-44303486D01*
X37230263Y-44303498D01*
X37290602Y-44449172D01*
X37290609Y-44449185D01*
X37378210Y-44580288D01*
X37378213Y-44580292D01*
X37703211Y-44905289D01*
X37772040Y-44974118D01*
X37814712Y-45016790D01*
X37945817Y-45104392D01*
X37945819Y-45104392D01*
X37945821Y-45104394D01*
X38040940Y-45143793D01*
X38040945Y-45143795D01*
X38040947Y-45143797D01*
X38091497Y-45164735D01*
X38091502Y-45164737D01*
X38197855Y-45185892D01*
X38246152Y-45195499D01*
X38246155Y-45195500D01*
X38246157Y-45195500D01*
X38246158Y-45195500D01*
X39528979Y-45195500D01*
X39542234Y-45196211D01*
X39546915Y-45196714D01*
X39582127Y-45200500D01*
X41377872Y-45200499D01*
X41437483Y-45194091D01*
X41572331Y-45143796D01*
X41687546Y-45057546D01*
X41773796Y-44942331D01*
X41824091Y-44807483D01*
X41830500Y-44747873D01*
X41830499Y-42952128D01*
X41824091Y-42892517D01*
X41819447Y-42880067D01*
X41773797Y-42757671D01*
X41773793Y-42757664D01*
X41687547Y-42642455D01*
X41687544Y-42642452D01*
X41572335Y-42556206D01*
X41572328Y-42556202D01*
X41437482Y-42505908D01*
X41437483Y-42505908D01*
X41377883Y-42499501D01*
X41377881Y-42499500D01*
X41377873Y-42499500D01*
X41377864Y-42499500D01*
X39582129Y-42499500D01*
X39582123Y-42499501D01*
X39522516Y-42505908D01*
X39387671Y-42556202D01*
X39387664Y-42556206D01*
X39272455Y-42642452D01*
X39272452Y-42642455D01*
X39186206Y-42757664D01*
X39186202Y-42757671D01*
X39135908Y-42892517D01*
X39129501Y-42952116D01*
X39129501Y-42952123D01*
X39129500Y-42952135D01*
X39129500Y-43455018D01*
X39109815Y-43522057D01*
X39057011Y-43567812D01*
X38987853Y-43577756D01*
X38924297Y-43548731D01*
X38890939Y-43502470D01*
X38820168Y-43331612D01*
X38820166Y-43331608D01*
X38718886Y-43180032D01*
X38718880Y-43180024D01*
X38589975Y-43051119D01*
X38589967Y-43051113D01*
X38438391Y-42949833D01*
X38438387Y-42949831D01*
X38269962Y-42880068D01*
X38269952Y-42880065D01*
X38091156Y-42844500D01*
X38091154Y-42844500D01*
X37908846Y-42844500D01*
X37908844Y-42844500D01*
X37730047Y-42880065D01*
X37730037Y-42880068D01*
X37561612Y-42949831D01*
X37561608Y-42949833D01*
X37410032Y-43051113D01*
X37410024Y-43051119D01*
X37281119Y-43180024D01*
X37281113Y-43180032D01*
X37179833Y-43331608D01*
X37179831Y-43331612D01*
X37110068Y-43500037D01*
X37110065Y-43500047D01*
X37074500Y-43678843D01*
X37074500Y-43678846D01*
X37074500Y-43861154D01*
X37074500Y-43861156D01*
X37074499Y-43861156D01*
X36050500Y-43861156D01*
X36050500Y-25088713D01*
X40449500Y-25088713D01*
X40449500Y-25551286D01*
X40475036Y-25712517D01*
X40482754Y-25761243D01*
X40507095Y-25836158D01*
X40548444Y-25963414D01*
X40644951Y-26152820D01*
X40769890Y-26324786D01*
X40920213Y-26475109D01*
X41092179Y-26600048D01*
X41092181Y-26600049D01*
X41092184Y-26600051D01*
X41281588Y-26696557D01*
X41483757Y-26762246D01*
X41693713Y-26795500D01*
X41693714Y-26795500D01*
X41906286Y-26795500D01*
X41906287Y-26795500D01*
X42116243Y-26762246D01*
X42318412Y-26696557D01*
X42507816Y-26600051D01*
X42529789Y-26584086D01*
X42679786Y-26475109D01*
X42679788Y-26475106D01*
X42679792Y-26475104D01*
X42830104Y-26324792D01*
X42949683Y-26160204D01*
X43005011Y-26117540D01*
X43074624Y-26111561D01*
X43136420Y-26144166D01*
X43150313Y-26160199D01*
X43269896Y-26324792D01*
X43420208Y-26475104D01*
X43448384Y-26495575D01*
X43491050Y-26550902D01*
X43499500Y-26595893D01*
X43499500Y-40218846D01*
X43530261Y-40373489D01*
X43530264Y-40373501D01*
X43590602Y-40519172D01*
X43590609Y-40519185D01*
X43678210Y-40650288D01*
X43678213Y-40650292D01*
X44743181Y-41715259D01*
X44776666Y-41776582D01*
X44779500Y-41802940D01*
X44779500Y-42375678D01*
X44759815Y-42442717D01*
X44707011Y-42488472D01*
X44665381Y-42498702D01*
X44665429Y-42499146D01*
X44662134Y-42499500D01*
X44662131Y-42499500D01*
X44662128Y-42499501D01*
X44662122Y-42499501D01*
X44602516Y-42505908D01*
X44467671Y-42556202D01*
X44467664Y-42556206D01*
X44352455Y-42642452D01*
X44352452Y-42642455D01*
X44266206Y-42757664D01*
X44266202Y-42757671D01*
X44215908Y-42892517D01*
X44209501Y-42952116D01*
X44209501Y-42952123D01*
X44209500Y-42952135D01*
X44209500Y-44747870D01*
X44209501Y-44747876D01*
X44215908Y-44807483D01*
X44266202Y-44942328D01*
X44266206Y-44942335D01*
X44352452Y-45057544D01*
X44352455Y-45057547D01*
X44467664Y-45143793D01*
X44467671Y-45143797D01*
X44602517Y-45194091D01*
X44602516Y-45194091D01*
X44609444Y-45194835D01*
X44662127Y-45200500D01*
X46457872Y-45200499D01*
X46517483Y-45194091D01*
X46652331Y-45143796D01*
X46755690Y-45066421D01*
X46821152Y-45042004D01*
X46889425Y-45056855D01*
X46904303Y-45066416D01*
X46982573Y-45125009D01*
X47007668Y-45143795D01*
X47007671Y-45143797D01*
X47142517Y-45194091D01*
X47142516Y-45194091D01*
X47149444Y-45194835D01*
X47202127Y-45200500D01*
X48997872Y-45200499D01*
X49057483Y-45194091D01*
X49192331Y-45143796D01*
X49307546Y-45057546D01*
X49393796Y-44942331D01*
X49444091Y-44807483D01*
X49450500Y-44747873D01*
X49450499Y-42952128D01*
X49444091Y-42892517D01*
X49439447Y-42880067D01*
X49393797Y-42757671D01*
X49393793Y-42757664D01*
X49307547Y-42642455D01*
X49307544Y-42642452D01*
X49192335Y-42556206D01*
X49192328Y-42556202D01*
X49057483Y-42505908D01*
X49011243Y-42500937D01*
X48946693Y-42474199D01*
X48906845Y-42416806D01*
X48900500Y-42377648D01*
X48900500Y-41802940D01*
X48920185Y-41735901D01*
X48936819Y-41715259D01*
X50102786Y-40549292D01*
X50102789Y-40549289D01*
X50190394Y-40418179D01*
X50250737Y-40272497D01*
X50281500Y-40117842D01*
X50281500Y-39960158D01*
X50281500Y-26760676D01*
X50301185Y-26693637D01*
X50340405Y-26655136D01*
X50368656Y-26637712D01*
X50492712Y-26513656D01*
X50584814Y-26364334D01*
X50639999Y-26197797D01*
X50650500Y-26095009D01*
X50650500Y-25772135D01*
X52399500Y-25772135D01*
X52399500Y-26867870D01*
X52399501Y-26867876D01*
X52405908Y-26927483D01*
X52456202Y-27062328D01*
X52456206Y-27062335D01*
X52542452Y-27177544D01*
X52542455Y-27177547D01*
X52657664Y-27263793D01*
X52657671Y-27263797D01*
X52792517Y-27314091D01*
X52792516Y-27314091D01*
X52799444Y-27314835D01*
X52852127Y-27320500D01*
X53947872Y-27320499D01*
X54007483Y-27314091D01*
X54142331Y-27263796D01*
X54257546Y-27177546D01*
X54343796Y-27062331D01*
X54394091Y-26927483D01*
X54400500Y-26867873D01*
X54400499Y-25772128D01*
X54394091Y-25712517D01*
X54343796Y-25577669D01*
X54343795Y-25577668D01*
X54343793Y-25577664D01*
X54257548Y-25462457D01*
X54257546Y-25462454D01*
X54257542Y-25462451D01*
X54257540Y-25462449D01*
X54250187Y-25456944D01*
X54247451Y-25453289D01*
X54243297Y-25451392D01*
X54226704Y-25425572D01*
X54208317Y-25401009D01*
X54207301Y-25395381D01*
X54205523Y-25392614D01*
X54200500Y-25357679D01*
X54200500Y-25125438D01*
X54218431Y-25064369D01*
X54217295Y-25063762D01*
X54220163Y-25058394D01*
X54220167Y-25058389D01*
X54289933Y-24889958D01*
X54301572Y-24831445D01*
X54325500Y-24711156D01*
X54325500Y-24528843D01*
X54289934Y-24350047D01*
X54289933Y-24350046D01*
X54289933Y-24350042D01*
X54275507Y-24315214D01*
X54220168Y-24181612D01*
X54220166Y-24181608D01*
X54118886Y-24030032D01*
X54118880Y-24030024D01*
X53989975Y-23901119D01*
X53989967Y-23901113D01*
X53838391Y-23799833D01*
X53838387Y-23799831D01*
X53669962Y-23730068D01*
X53669952Y-23730065D01*
X53491156Y-23694500D01*
X53491154Y-23694500D01*
X53308846Y-23694500D01*
X53308844Y-23694500D01*
X53130047Y-23730065D01*
X53130037Y-23730068D01*
X52961612Y-23799831D01*
X52961608Y-23799833D01*
X52810032Y-23901113D01*
X52810024Y-23901119D01*
X52681119Y-24030024D01*
X52681113Y-24030032D01*
X52579833Y-24181608D01*
X52579831Y-24181612D01*
X52510068Y-24350037D01*
X52510065Y-24350047D01*
X52474500Y-24528843D01*
X52474500Y-24528846D01*
X52474500Y-24711154D01*
X52474500Y-24711156D01*
X52474499Y-24711156D01*
X52510065Y-24889952D01*
X52510068Y-24889962D01*
X52579830Y-25058384D01*
X52582705Y-25063762D01*
X52581124Y-25064606D01*
X52584251Y-25074592D01*
X52594477Y-25090503D01*
X52598927Y-25121457D01*
X52599480Y-25123221D01*
X52599500Y-25125438D01*
X52599500Y-25357679D01*
X52579815Y-25424718D01*
X52549813Y-25456944D01*
X52542459Y-25462449D01*
X52542451Y-25462457D01*
X52456206Y-25577664D01*
X52456202Y-25577671D01*
X52405908Y-25712517D01*
X52400670Y-25761243D01*
X52399501Y-25772123D01*
X52399500Y-25772135D01*
X50650500Y-25772135D01*
X50650499Y-25203501D01*
X50650499Y-24544998D01*
X50650498Y-24544981D01*
X50639999Y-24442203D01*
X50639998Y-24442200D01*
X50609461Y-24350047D01*
X50584814Y-24275666D01*
X50492712Y-24126344D01*
X50368656Y-24002288D01*
X50219334Y-23910186D01*
X50052797Y-23855001D01*
X50052795Y-23855000D01*
X49950010Y-23844500D01*
X48649998Y-23844500D01*
X48649981Y-23844501D01*
X48547203Y-23855000D01*
X48547200Y-23855001D01*
X48380668Y-23910185D01*
X48380663Y-23910187D01*
X48231342Y-24002289D01*
X48107289Y-24126342D01*
X48015187Y-24275663D01*
X48015185Y-24275668D01*
X47987349Y-24359670D01*
X47960001Y-24442203D01*
X47960001Y-24442204D01*
X47960000Y-24442204D01*
X47949500Y-24544983D01*
X47949500Y-26095001D01*
X47949501Y-26095018D01*
X47960000Y-26197796D01*
X47960001Y-26197799D01*
X48015185Y-26364331D01*
X48015187Y-26364336D01*
X48023307Y-26377500D01*
X48107288Y-26513656D01*
X48231344Y-26637712D01*
X48380666Y-26729814D01*
X48547203Y-26784999D01*
X48569101Y-26787236D01*
X48633793Y-26813631D01*
X48673945Y-26870812D01*
X48680500Y-26910594D01*
X48680500Y-39656060D01*
X48660815Y-39723099D01*
X48644181Y-39743741D01*
X47589711Y-40798211D01*
X47533960Y-40853962D01*
X47478209Y-40909712D01*
X47390609Y-41040814D01*
X47390602Y-41040827D01*
X47330264Y-41186498D01*
X47330261Y-41186510D01*
X47299500Y-41341153D01*
X47299500Y-42377648D01*
X47279815Y-42444687D01*
X47227011Y-42490442D01*
X47188755Y-42500938D01*
X47142516Y-42505909D01*
X47007671Y-42556202D01*
X47007669Y-42556203D01*
X46904311Y-42633578D01*
X46838847Y-42657995D01*
X46770574Y-42643144D01*
X46755689Y-42633578D01*
X46652330Y-42556203D01*
X46652328Y-42556202D01*
X46517483Y-42505908D01*
X46491242Y-42503087D01*
X46426691Y-42476348D01*
X46386845Y-42418954D01*
X46380500Y-42379798D01*
X46380500Y-41341155D01*
X46380499Y-41341153D01*
X46349737Y-41186503D01*
X46349735Y-41186498D01*
X46289397Y-41040827D01*
X46289390Y-41040814D01*
X46201790Y-40909712D01*
X46190567Y-40898489D01*
X46090289Y-40798211D01*
X45136819Y-39844741D01*
X45103334Y-39783418D01*
X45100500Y-39757060D01*
X45100500Y-26595893D01*
X45120185Y-26528854D01*
X45151614Y-26495576D01*
X45179792Y-26475104D01*
X45330104Y-26324792D01*
X45330106Y-26324788D01*
X45330109Y-26324786D01*
X45455048Y-26152820D01*
X45455047Y-26152820D01*
X45455051Y-26152816D01*
X45551557Y-25963412D01*
X45617246Y-25761243D01*
X45650500Y-25551287D01*
X45650500Y-25088713D01*
X45617246Y-24878757D01*
X45551557Y-24676588D01*
X45455051Y-24487184D01*
X45455049Y-24487181D01*
X45455048Y-24487179D01*
X45330109Y-24315213D01*
X45179786Y-24164890D01*
X45007820Y-24039951D01*
X44818414Y-23943444D01*
X44818413Y-23943443D01*
X44818412Y-23943443D01*
X44616243Y-23877754D01*
X44616241Y-23877753D01*
X44616240Y-23877753D01*
X44454957Y-23852208D01*
X44406287Y-23844500D01*
X44193713Y-23844500D01*
X44145042Y-23852208D01*
X43983760Y-23877753D01*
X43781585Y-23943444D01*
X43592179Y-24039951D01*
X43420213Y-24164890D01*
X43269894Y-24315209D01*
X43269890Y-24315214D01*
X43150318Y-24479793D01*
X43094989Y-24522459D01*
X43025375Y-24528438D01*
X42963580Y-24495833D01*
X42949682Y-24479793D01*
X42830109Y-24315214D01*
X42830105Y-24315209D01*
X42679786Y-24164890D01*
X42507820Y-24039951D01*
X42318414Y-23943444D01*
X42318413Y-23943443D01*
X42318412Y-23943443D01*
X42116243Y-23877754D01*
X42116241Y-23877753D01*
X42116240Y-23877753D01*
X41954957Y-23852208D01*
X41906287Y-23844500D01*
X41693713Y-23844500D01*
X41645042Y-23852208D01*
X41483760Y-23877753D01*
X41281585Y-23943444D01*
X41092179Y-24039951D01*
X40920213Y-24164890D01*
X40769890Y-24315213D01*
X40644951Y-24487179D01*
X40548444Y-24676585D01*
X40482753Y-24878760D01*
X40449500Y-25088713D01*
X36050500Y-25088713D01*
X36050500Y-20706961D01*
X36051280Y-20693077D01*
X36051280Y-20693076D01*
X36061460Y-20602729D01*
X36067635Y-20575670D01*
X36095353Y-20496456D01*
X36107396Y-20471450D01*
X36152046Y-20400389D01*
X36169351Y-20378690D01*
X36228690Y-20319351D01*
X36250389Y-20302046D01*
X36321450Y-20257396D01*
X36346456Y-20245353D01*
X36425670Y-20217635D01*
X36452733Y-20211459D01*
X36515419Y-20204396D01*
X36543079Y-20201280D01*
X36556962Y-20200500D01*
X36615892Y-20200500D01*
X54484108Y-20200500D01*
X54543038Y-20200500D01*
X54556922Y-20201280D01*
G37*
%TD.AperFunction*%
%TD*%
M02*
