%TF.GenerationSoftware,KiCad,Pcbnew,9.0.2*%
%TF.CreationDate,2025-06-20T21:07:37+02:00*%
%TF.ProjectId,SlimeVR_board,536c696d-6556-4525-9f62-6f6172642e6b,2.5W*%
%TF.SameCoordinates,Original*%
%TF.FileFunction,Profile,NP*%
%FSLAX46Y46*%
G04 Gerber Fmt 4.6, Leading zero omitted, Abs format (unit mm)*
G04 Created by KiCad (PCBNEW 9.0.2) date 2025-06-20 21:07:37*
%MOMM*%
%LPD*%
G01*
G04 APERTURE LIST*
%TA.AperFunction,Profile*%
%ADD10C,0.050000*%
%TD*%
G04 APERTURE END LIST*
D10*
X96550000Y-47300000D02*
G75*
G02*
X95050000Y-48800000I-1500000J0D01*
G01*
X56350000Y-34240000D02*
G75*
G02*
X55750000Y-34240000I-300000J0D01*
G01*
X55750000Y-34240000D02*
G75*
G02*
X56350000Y-34240000I300000J0D01*
G01*
X56350000Y-23175000D02*
G75*
G02*
X55750000Y-23175000I-300000J0D01*
G01*
X55750000Y-23175000D02*
G75*
G02*
X56350000Y-23175000I300000J0D01*
G01*
X56350000Y-41620000D02*
G75*
G02*
X55750000Y-41620000I-300000J0D01*
G01*
X55750000Y-41620000D02*
G75*
G02*
X56350000Y-41620000I300000J0D01*
G01*
X56350000Y-38865000D02*
G75*
G02*
X55750000Y-38865000I-300000J0D01*
G01*
X55750000Y-38865000D02*
G75*
G02*
X56350000Y-38865000I300000J0D01*
G01*
X56350000Y-30545000D02*
G75*
G02*
X55750000Y-30545000I-300000J0D01*
G01*
X55750000Y-30545000D02*
G75*
G02*
X56350000Y-30545000I300000J0D01*
G01*
X56350000Y-25945000D02*
G75*
G02*
X55750000Y-25945000I-300000J0D01*
G01*
X55750000Y-25945000D02*
G75*
G02*
X56350000Y-25945000I300000J0D01*
G01*
X56350000Y-37945000D02*
G75*
G02*
X55750000Y-37945000I-300000J0D01*
G01*
X55750000Y-37945000D02*
G75*
G02*
X56350000Y-37945000I300000J0D01*
G01*
X95550000Y-19700000D02*
G75*
G02*
X96550000Y-20700000I0J-1000000D01*
G01*
X56350000Y-29620000D02*
G75*
G02*
X55750000Y-29620000I-300000J0D01*
G01*
X55750000Y-29620000D02*
G75*
G02*
X56350000Y-29620000I300000J0D01*
G01*
X56350000Y-31465000D02*
G75*
G02*
X55750000Y-31465000I-300000J0D01*
G01*
X55750000Y-31465000D02*
G75*
G02*
X56350000Y-31465000I300000J0D01*
G01*
X35550000Y-20730000D02*
G75*
G02*
X36550000Y-19730000I1000000J0D01*
G01*
X56350000Y-37020000D02*
G75*
G02*
X55750000Y-37020000I-300000J0D01*
G01*
X55750000Y-37020000D02*
G75*
G02*
X56350000Y-37020000I300000J0D01*
G01*
X36550000Y-46150000D02*
X54550000Y-46150000D01*
X95050000Y-48800000D02*
X90800000Y-48800000D01*
X56550000Y-20700000D02*
G75*
G02*
X57550000Y-19700000I1000000J0D01*
G01*
X75200000Y-63150000D02*
X58000000Y-63150000D01*
X96550000Y-61050000D02*
X96550000Y-68200000D01*
X89300000Y-50300000D02*
X89300000Y-58050000D01*
X76700000Y-68200000D02*
X76700000Y-64650000D01*
X56350000Y-25000000D02*
G75*
G02*
X55750000Y-25000000I-300000J0D01*
G01*
X55750000Y-25000000D02*
G75*
G02*
X56350000Y-25000000I300000J0D01*
G01*
X56500000Y-61650000D02*
X56525000Y-45150000D01*
X56350000Y-40695000D02*
G75*
G02*
X55750000Y-40695000I-300000J0D01*
G01*
X55750000Y-40695000D02*
G75*
G02*
X56350000Y-40695000I300000J0D01*
G01*
X90800000Y-59550000D02*
G75*
G02*
X89300000Y-58050000I0J1500000D01*
G01*
X56350000Y-35160000D02*
G75*
G02*
X55750000Y-35160000I-300000J0D01*
G01*
X55750000Y-35160000D02*
G75*
G02*
X56350000Y-35160000I300000J0D01*
G01*
X56350000Y-36075000D02*
G75*
G02*
X55750000Y-36075000I-300000J0D01*
G01*
X55750000Y-36075000D02*
G75*
G02*
X56350000Y-36075000I300000J0D01*
G01*
X56350000Y-28700000D02*
G75*
G02*
X55750000Y-28700000I-300000J0D01*
G01*
X55750000Y-28700000D02*
G75*
G02*
X56350000Y-28700000I300000J0D01*
G01*
X56350000Y-43445000D02*
G75*
G02*
X55750000Y-43445000I-300000J0D01*
G01*
X55750000Y-43445000D02*
G75*
G02*
X56350000Y-43445000I300000J0D01*
G01*
X56350000Y-22250000D02*
G75*
G02*
X55750000Y-22250000I-300000J0D01*
G01*
X55750000Y-22250000D02*
G75*
G02*
X56350000Y-22250000I300000J0D01*
G01*
X56550000Y-20730000D02*
X55550000Y-20730000D01*
X78200000Y-69700000D02*
G75*
G02*
X76700000Y-68200000I0J1500000D01*
G01*
X56350000Y-27790000D02*
G75*
G02*
X55750000Y-27790000I-300000J0D01*
G01*
X55750000Y-27790000D02*
G75*
G02*
X56350000Y-27790000I300000J0D01*
G01*
X56350000Y-44390000D02*
G75*
G02*
X55750000Y-44390000I-300000J0D01*
G01*
X55750000Y-44390000D02*
G75*
G02*
X56350000Y-44390000I300000J0D01*
G01*
X54550000Y-19730000D02*
G75*
G02*
X55550000Y-20730000I0J-1000000D01*
G01*
X95050000Y-69700000D02*
X78200000Y-69700000D01*
X56350000Y-21330000D02*
G75*
G02*
X55750000Y-21330000I-300000J0D01*
G01*
X55750000Y-21330000D02*
G75*
G02*
X56350000Y-21330000I300000J0D01*
G01*
X56350000Y-32370000D02*
G75*
G02*
X55750000Y-32370000I-300000J0D01*
G01*
X55750000Y-32370000D02*
G75*
G02*
X56350000Y-32370000I300000J0D01*
G01*
X56350000Y-42540000D02*
G75*
G02*
X55750000Y-42540000I-300000J0D01*
G01*
X55750000Y-42540000D02*
G75*
G02*
X56350000Y-42540000I300000J0D01*
G01*
X56350000Y-24095000D02*
G75*
G02*
X55750000Y-24095000I-300000J0D01*
G01*
X55750000Y-24095000D02*
G75*
G02*
X56350000Y-24095000I300000J0D01*
G01*
X56350000Y-39775000D02*
G75*
G02*
X55750000Y-39775000I-300000J0D01*
G01*
X55750000Y-39775000D02*
G75*
G02*
X56350000Y-39775000I300000J0D01*
G01*
X56350000Y-26870000D02*
G75*
G02*
X55750000Y-26870000I-300000J0D01*
G01*
X55750000Y-26870000D02*
G75*
G02*
X56350000Y-26870000I300000J0D01*
G01*
X57550000Y-19700000D02*
X95550000Y-19700000D01*
X54550000Y-19730000D02*
X36550000Y-19730000D01*
X95050000Y-59550000D02*
G75*
G02*
X96550000Y-61050000I0J-1500000D01*
G01*
X96550000Y-68200000D02*
G75*
G02*
X95050000Y-69700000I-1500000J0D01*
G01*
X35550000Y-20730000D02*
X35550000Y-45150000D01*
X96550000Y-20700000D02*
X96550000Y-47300000D01*
X89300000Y-50300000D02*
G75*
G02*
X90800000Y-48800000I1500000J0D01*
G01*
X36550000Y-46150000D02*
G75*
G02*
X35550000Y-45150000I0J1000000D01*
G01*
X58000000Y-63150000D02*
G75*
G02*
X56500000Y-61650000I0J1500000D01*
G01*
X56525000Y-45150000D02*
X55550000Y-45150000D01*
X55550000Y-45150000D02*
G75*
G02*
X54550000Y-46150000I-1000000J0D01*
G01*
X75200000Y-63150000D02*
G75*
G02*
X76700000Y-64650000I0J-1500000D01*
G01*
X56550000Y-20730000D02*
X56550000Y-20700000D01*
X90800000Y-59550000D02*
X95050000Y-59550000D01*
X56350000Y-33315000D02*
G75*
G02*
X55750000Y-33315000I-300000J0D01*
G01*
X55750000Y-33315000D02*
G75*
G02*
X56350000Y-33315000I300000J0D01*
G01*
M02*
