%TF.GenerationSoftware,KiCad,Pcbnew,9.0.2*%
%TF.CreationDate,2025-12-26T22:53:19+01:00*%
%TF.ProjectId,SlimeVR_board,536c696d-6556-4525-9f62-6f6172642e6b,3W*%
%TF.SameCoordinates,Original*%
%TF.FileFunction,Profile,NP*%
%FSLAX46Y46*%
G04 Gerber Fmt 4.6, Leading zero omitted, Abs format (unit mm)*
G04 Created by KiCad (PCBNEW 9.0.2) date 2025-12-26 22:53:19*
%MOMM*%
%LPD*%
G01*
G04 APERTURE LIST*
%TA.AperFunction,Profile*%
%ADD10C,0.050000*%
%TD*%
G04 APERTURE END LIST*
D10*
X55499799Y-45120048D02*
G75*
G02*
X54500000Y-46100000I-999799J20048D01*
G01*
X96550000Y-47960000D02*
G75*
G02*
X95050000Y-49460000I-1500000J0D01*
G01*
X56350000Y-37915000D02*
G75*
G02*
X55750000Y-37915000I-300000J0D01*
G01*
X55750000Y-37915000D02*
G75*
G02*
X56350000Y-37915000I300000J0D01*
G01*
X56350000Y-21300000D02*
G75*
G02*
X55750000Y-21300000I-300000J0D01*
G01*
X55750000Y-21300000D02*
G75*
G02*
X56350000Y-21300000I300000J0D01*
G01*
X36550000Y-46100200D02*
G75*
G02*
X35550000Y-45120000I0J1000200D01*
G01*
X56350000Y-27760000D02*
G75*
G02*
X55750000Y-27760000I-300000J0D01*
G01*
X55750000Y-27760000D02*
G75*
G02*
X56350000Y-27760000I300000J0D01*
G01*
X56550000Y-20700000D02*
G75*
G02*
X57564335Y-19700103I1000000J0D01*
G01*
X95550000Y-19700000D02*
G75*
G02*
X96550000Y-20700000I0J-1000000D01*
G01*
X56350000Y-32340000D02*
G75*
G02*
X55750000Y-32340000I-300000J0D01*
G01*
X55750000Y-32340000D02*
G75*
G02*
X56350000Y-32340000I300000J0D01*
G01*
X56350000Y-22220000D02*
G75*
G02*
X55750000Y-22220000I-300000J0D01*
G01*
X55750000Y-22220000D02*
G75*
G02*
X56350000Y-22220000I300000J0D01*
G01*
X56350000Y-43415000D02*
G75*
G02*
X55750000Y-43415000I-300000J0D01*
G01*
X55750000Y-43415000D02*
G75*
G02*
X56350000Y-43415000I300000J0D01*
G01*
X56350000Y-34210000D02*
G75*
G02*
X55750000Y-34210000I-300000J0D01*
G01*
X55750000Y-34210000D02*
G75*
G02*
X56350000Y-34210000I300000J0D01*
G01*
X56350000Y-42510000D02*
G75*
G02*
X55750000Y-42510000I-300000J0D01*
G01*
X55750000Y-42510000D02*
G75*
G02*
X56350000Y-42510000I300000J0D01*
G01*
X56350000Y-36990000D02*
G75*
G02*
X55750000Y-36990000I-300000J0D01*
G01*
X55750000Y-36990000D02*
G75*
G02*
X56350000Y-36990000I300000J0D01*
G01*
X56350000Y-31435000D02*
G75*
G02*
X55750000Y-31435000I-300000J0D01*
G01*
X55750000Y-31435000D02*
G75*
G02*
X56350000Y-31435000I300000J0D01*
G01*
X56350000Y-30515000D02*
G75*
G02*
X55750000Y-30515000I-300000J0D01*
G01*
X55750000Y-30515000D02*
G75*
G02*
X56350000Y-30515000I300000J0D01*
G01*
X56350000Y-24970000D02*
G75*
G02*
X55750000Y-24970000I-300000J0D01*
G01*
X55750000Y-24970000D02*
G75*
G02*
X56350000Y-24970000I300000J0D01*
G01*
X35550000Y-20700000D02*
X35550000Y-45120000D01*
X95050000Y-49460000D02*
X90800000Y-49460000D01*
X56525000Y-45120000D02*
X55500000Y-45120048D01*
X56350000Y-39745000D02*
G75*
G02*
X55750000Y-39745000I-300000J0D01*
G01*
X55750000Y-39745000D02*
G75*
G02*
X56350000Y-39745000I300000J0D01*
G01*
X75200000Y-63150000D02*
X58000000Y-63150000D01*
X96550000Y-61050000D02*
X96550000Y-68200000D01*
X89300000Y-50960000D02*
X89300000Y-58050000D01*
X56350000Y-41590000D02*
G75*
G02*
X55750000Y-41590000I-300000J0D01*
G01*
X55750000Y-41590000D02*
G75*
G02*
X56350000Y-41590000I300000J0D01*
G01*
X76700000Y-68200000D02*
X76700000Y-64650000D01*
X56350000Y-26840000D02*
G75*
G02*
X55750000Y-26840000I-300000J0D01*
G01*
X55750000Y-26840000D02*
G75*
G02*
X56350000Y-26840000I300000J0D01*
G01*
X56350000Y-36045000D02*
G75*
G02*
X55750000Y-36045000I-300000J0D01*
G01*
X55750000Y-36045000D02*
G75*
G02*
X56350000Y-36045000I300000J0D01*
G01*
X56500000Y-61650000D02*
X56525000Y-45120000D01*
X55550000Y-20700000D02*
X56550000Y-20700000D01*
X90800000Y-59550000D02*
G75*
G02*
X89300000Y-58050000I0J1500000D01*
G01*
X56350000Y-35130000D02*
G75*
G02*
X55750000Y-35130000I-300000J0D01*
G01*
X55750000Y-35130000D02*
G75*
G02*
X56350000Y-35130000I300000J0D01*
G01*
X56350000Y-29590000D02*
G75*
G02*
X55750000Y-29590000I-300000J0D01*
G01*
X55750000Y-29590000D02*
G75*
G02*
X56350000Y-29590000I300000J0D01*
G01*
X56350000Y-40665000D02*
G75*
G02*
X55750000Y-40665000I-300000J0D01*
G01*
X55750000Y-40665000D02*
G75*
G02*
X56350000Y-40665000I300000J0D01*
G01*
X78200000Y-69700000D02*
G75*
G02*
X76700000Y-68200000I0J1500000D01*
G01*
X56350000Y-44360000D02*
G75*
G02*
X55750000Y-44360000I-300000J0D01*
G01*
X55750000Y-44360000D02*
G75*
G02*
X56350000Y-44360000I300000J0D01*
G01*
X56350000Y-24065000D02*
G75*
G02*
X55750000Y-24065000I-300000J0D01*
G01*
X55750000Y-24065000D02*
G75*
G02*
X56350000Y-24065000I300000J0D01*
G01*
X56350000Y-25915000D02*
G75*
G02*
X55750000Y-25915000I-300000J0D01*
G01*
X55750000Y-25915000D02*
G75*
G02*
X56350000Y-25915000I300000J0D01*
G01*
X35550000Y-20700000D02*
G75*
G02*
X36550000Y-19700000I1000000J0D01*
G01*
X95050000Y-69700000D02*
X78200000Y-69700000D01*
X56350000Y-23145000D02*
G75*
G02*
X55750000Y-23145000I-300000J0D01*
G01*
X55750000Y-23145000D02*
G75*
G02*
X56350000Y-23145000I300000J0D01*
G01*
X56350000Y-38835000D02*
G75*
G02*
X55750000Y-38835000I-300000J0D01*
G01*
X55750000Y-38835000D02*
G75*
G02*
X56350000Y-38835000I300000J0D01*
G01*
X54550000Y-19700000D02*
X36550000Y-19700000D01*
X56350000Y-33285000D02*
G75*
G02*
X55750000Y-33285000I-300000J0D01*
G01*
X55750000Y-33285000D02*
G75*
G02*
X56350000Y-33285000I300000J0D01*
G01*
X54500000Y-46100000D02*
X36550000Y-46100000D01*
X57564336Y-19700001D02*
X95550000Y-19700000D01*
X95050000Y-59550000D02*
G75*
G02*
X96550000Y-61050000I0J-1500000D01*
G01*
X54550000Y-19700000D02*
G75*
G02*
X55550000Y-20700000I0J-1000000D01*
G01*
X96550000Y-68200000D02*
G75*
G02*
X95050000Y-69700000I-1500000J0D01*
G01*
X96550000Y-20700000D02*
X96550000Y-47960000D01*
X89300000Y-50960000D02*
G75*
G02*
X90800000Y-49460000I1500000J0D01*
G01*
X58000000Y-63150000D02*
G75*
G02*
X56500000Y-61650000I0J1500000D01*
G01*
X75200000Y-63150000D02*
G75*
G02*
X76700000Y-64650000I0J-1500000D01*
G01*
X90800000Y-59550000D02*
X95050000Y-59550000D01*
X56350000Y-28670000D02*
G75*
G02*
X55750000Y-28670000I-300000J0D01*
G01*
X55750000Y-28670000D02*
G75*
G02*
X56350000Y-28670000I300000J0D01*
G01*
M02*
