%TF.GenerationSoftware,KiCad,Pcbnew,9.0.2*%
%TF.CreationDate,2025-06-20T21:07:37+02:00*%
%TF.ProjectId,SlimeVR_board,536c696d-6556-4525-9f62-6f6172642e6b,2.5W*%
%TF.SameCoordinates,Original*%
%TF.FileFunction,Legend,Top*%
%TF.FilePolarity,Positive*%
%FSLAX46Y46*%
G04 Gerber Fmt 4.6, Leading zero omitted, Abs format (unit mm)*
G04 Created by KiCad (PCBNEW 9.0.2) date 2025-06-20 21:07:37*
%MOMM*%
%LPD*%
G01*
G04 APERTURE LIST*
%ADD10C,0.100000*%
%ADD11C,0.200000*%
%ADD12C,0.300000*%
%ADD13C,0.150000*%
%ADD14C,0.120000*%
G04 APERTURE END LIST*
D10*
X81300000Y-63150000D02*
X81300000Y-69600000D01*
X81200000Y-63150000D02*
X76800000Y-66300000D01*
X81300000Y-69600000D02*
X78200000Y-69600893D01*
X76800000Y-68149989D02*
X76800000Y-63150000D01*
X81300000Y-69200000D02*
X80700000Y-69600000D01*
X76800000Y-63150000D02*
X81300000Y-63150000D01*
X78350000Y-63150000D02*
X76800000Y-64250000D01*
X76800000Y-67300000D02*
X81300000Y-64100000D01*
X76800000Y-65250000D02*
X79750000Y-63150000D01*
X78200000Y-69600893D02*
G75*
G02*
X76800000Y-68150000I0J1400893D01*
G01*
D11*
X67940000Y-33309950D02*
X85940000Y-33309950D01*
X85940000Y-46309950D01*
X67940000Y-46309950D01*
X67940000Y-33309950D01*
X36700000Y-29800000D02*
X54700000Y-29800000D01*
X54700000Y-42800000D01*
X36700000Y-42800000D01*
X36700000Y-29800000D01*
D10*
X81300000Y-68150000D02*
X79300000Y-69600000D01*
X77150000Y-69100000D02*
X81300000Y-66150000D01*
X81300000Y-67150000D02*
X77900000Y-69550000D01*
X81300000Y-65150000D02*
X76850000Y-68300000D01*
D12*
X69970828Y-44205439D02*
X68470828Y-44205439D01*
X69970828Y-43491153D02*
X68470828Y-43491153D01*
X68470828Y-43491153D02*
X69542257Y-42991153D01*
X69542257Y-42991153D02*
X68470828Y-42491153D01*
X68470828Y-42491153D02*
X69970828Y-42491153D01*
X68470828Y-41776867D02*
X69685114Y-41776867D01*
X69685114Y-41776867D02*
X69827971Y-41705438D01*
X69827971Y-41705438D02*
X69899400Y-41634010D01*
X69899400Y-41634010D02*
X69970828Y-41491152D01*
X69970828Y-41491152D02*
X69970828Y-41205438D01*
X69970828Y-41205438D02*
X69899400Y-41062581D01*
X69899400Y-41062581D02*
X69827971Y-40991152D01*
X69827971Y-40991152D02*
X69685114Y-40919724D01*
X69685114Y-40919724D02*
X68470828Y-40919724D01*
X69970828Y-39062581D02*
X68470828Y-39062581D01*
X69185114Y-39062581D02*
X69185114Y-38205438D01*
X69970828Y-38205438D02*
X68470828Y-38205438D01*
X69899400Y-36919723D02*
X69970828Y-37062580D01*
X69970828Y-37062580D02*
X69970828Y-37348295D01*
X69970828Y-37348295D02*
X69899400Y-37491152D01*
X69899400Y-37491152D02*
X69756542Y-37562580D01*
X69756542Y-37562580D02*
X69185114Y-37562580D01*
X69185114Y-37562580D02*
X69042257Y-37491152D01*
X69042257Y-37491152D02*
X68970828Y-37348295D01*
X68970828Y-37348295D02*
X68970828Y-37062580D01*
X68970828Y-37062580D02*
X69042257Y-36919723D01*
X69042257Y-36919723D02*
X69185114Y-36848295D01*
X69185114Y-36848295D02*
X69327971Y-36848295D01*
X69327971Y-36848295D02*
X69470828Y-37562580D01*
X69970828Y-36205438D02*
X68970828Y-36205438D01*
X69256542Y-36205438D02*
X69113685Y-36134009D01*
X69113685Y-36134009D02*
X69042257Y-36062581D01*
X69042257Y-36062581D02*
X68970828Y-35919723D01*
X68970828Y-35919723D02*
X68970828Y-35776866D01*
X69899400Y-34705438D02*
X69970828Y-34848295D01*
X69970828Y-34848295D02*
X69970828Y-35134010D01*
X69970828Y-35134010D02*
X69899400Y-35276867D01*
X69899400Y-35276867D02*
X69756542Y-35348295D01*
X69756542Y-35348295D02*
X69185114Y-35348295D01*
X69185114Y-35348295D02*
X69042257Y-35276867D01*
X69042257Y-35276867D02*
X68970828Y-35134010D01*
X68970828Y-35134010D02*
X68970828Y-34848295D01*
X68970828Y-34848295D02*
X69042257Y-34705438D01*
X69042257Y-34705438D02*
X69185114Y-34634010D01*
X69185114Y-34634010D02*
X69327971Y-34634010D01*
X69327971Y-34634010D02*
X69470828Y-35348295D01*
D13*
X72684580Y-43121742D02*
X72732200Y-43169361D01*
X72732200Y-43169361D02*
X72779819Y-43312218D01*
X72779819Y-43312218D02*
X72779819Y-43407456D01*
X72779819Y-43407456D02*
X72732200Y-43550313D01*
X72732200Y-43550313D02*
X72636961Y-43645551D01*
X72636961Y-43645551D02*
X72541723Y-43693170D01*
X72541723Y-43693170D02*
X72351247Y-43740789D01*
X72351247Y-43740789D02*
X72208390Y-43740789D01*
X72208390Y-43740789D02*
X72017914Y-43693170D01*
X72017914Y-43693170D02*
X71922676Y-43645551D01*
X71922676Y-43645551D02*
X71827438Y-43550313D01*
X71827438Y-43550313D02*
X71779819Y-43407456D01*
X71779819Y-43407456D02*
X71779819Y-43312218D01*
X71779819Y-43312218D02*
X71827438Y-43169361D01*
X71827438Y-43169361D02*
X71875057Y-43121742D01*
X72779819Y-42550313D02*
X72732200Y-42645551D01*
X72732200Y-42645551D02*
X72684580Y-42693170D01*
X72684580Y-42693170D02*
X72589342Y-42740789D01*
X72589342Y-42740789D02*
X72303628Y-42740789D01*
X72303628Y-42740789D02*
X72208390Y-42693170D01*
X72208390Y-42693170D02*
X72160771Y-42645551D01*
X72160771Y-42645551D02*
X72113152Y-42550313D01*
X72113152Y-42550313D02*
X72113152Y-42407456D01*
X72113152Y-42407456D02*
X72160771Y-42312218D01*
X72160771Y-42312218D02*
X72208390Y-42264599D01*
X72208390Y-42264599D02*
X72303628Y-42216980D01*
X72303628Y-42216980D02*
X72589342Y-42216980D01*
X72589342Y-42216980D02*
X72684580Y-42264599D01*
X72684580Y-42264599D02*
X72732200Y-42312218D01*
X72732200Y-42312218D02*
X72779819Y-42407456D01*
X72779819Y-42407456D02*
X72779819Y-42550313D01*
X72113152Y-41788408D02*
X72779819Y-41788408D01*
X72208390Y-41788408D02*
X72160771Y-41740789D01*
X72160771Y-41740789D02*
X72113152Y-41645551D01*
X72113152Y-41645551D02*
X72113152Y-41502694D01*
X72113152Y-41502694D02*
X72160771Y-41407456D01*
X72160771Y-41407456D02*
X72256009Y-41359837D01*
X72256009Y-41359837D02*
X72779819Y-41359837D01*
X72113152Y-41026503D02*
X72113152Y-40645551D01*
X71779819Y-40883646D02*
X72636961Y-40883646D01*
X72636961Y-40883646D02*
X72732200Y-40836027D01*
X72732200Y-40836027D02*
X72779819Y-40740789D01*
X72779819Y-40740789D02*
X72779819Y-40645551D01*
X72779819Y-39883646D02*
X72256009Y-39883646D01*
X72256009Y-39883646D02*
X72160771Y-39931265D01*
X72160771Y-39931265D02*
X72113152Y-40026503D01*
X72113152Y-40026503D02*
X72113152Y-40216979D01*
X72113152Y-40216979D02*
X72160771Y-40312217D01*
X72732200Y-39883646D02*
X72779819Y-39978884D01*
X72779819Y-39978884D02*
X72779819Y-40216979D01*
X72779819Y-40216979D02*
X72732200Y-40312217D01*
X72732200Y-40312217D02*
X72636961Y-40359836D01*
X72636961Y-40359836D02*
X72541723Y-40359836D01*
X72541723Y-40359836D02*
X72446485Y-40312217D01*
X72446485Y-40312217D02*
X72398866Y-40216979D01*
X72398866Y-40216979D02*
X72398866Y-39978884D01*
X72398866Y-39978884D02*
X72351247Y-39883646D01*
X72113152Y-39550312D02*
X72113152Y-39169360D01*
X71779819Y-39407455D02*
X72636961Y-39407455D01*
X72636961Y-39407455D02*
X72732200Y-39359836D01*
X72732200Y-39359836D02*
X72779819Y-39264598D01*
X72779819Y-39264598D02*
X72779819Y-39169360D01*
X72779819Y-38836026D02*
X72113152Y-38836026D01*
X71779819Y-38836026D02*
X71827438Y-38883645D01*
X71827438Y-38883645D02*
X71875057Y-38836026D01*
X71875057Y-38836026D02*
X71827438Y-38788407D01*
X71827438Y-38788407D02*
X71779819Y-38836026D01*
X71779819Y-38836026D02*
X71875057Y-38836026D01*
X72779819Y-38359836D02*
X71779819Y-38359836D01*
X72160771Y-38359836D02*
X72113152Y-38264598D01*
X72113152Y-38264598D02*
X72113152Y-38074122D01*
X72113152Y-38074122D02*
X72160771Y-37978884D01*
X72160771Y-37978884D02*
X72208390Y-37931265D01*
X72208390Y-37931265D02*
X72303628Y-37883646D01*
X72303628Y-37883646D02*
X72589342Y-37883646D01*
X72589342Y-37883646D02*
X72684580Y-37931265D01*
X72684580Y-37931265D02*
X72732200Y-37978884D01*
X72732200Y-37978884D02*
X72779819Y-38074122D01*
X72779819Y-38074122D02*
X72779819Y-38264598D01*
X72779819Y-38264598D02*
X72732200Y-38359836D01*
X72779819Y-37312217D02*
X72732200Y-37407455D01*
X72732200Y-37407455D02*
X72636961Y-37455074D01*
X72636961Y-37455074D02*
X71779819Y-37455074D01*
X72732200Y-36550312D02*
X72779819Y-36645550D01*
X72779819Y-36645550D02*
X72779819Y-36836026D01*
X72779819Y-36836026D02*
X72732200Y-36931264D01*
X72732200Y-36931264D02*
X72636961Y-36978883D01*
X72636961Y-36978883D02*
X72256009Y-36978883D01*
X72256009Y-36978883D02*
X72160771Y-36931264D01*
X72160771Y-36931264D02*
X72113152Y-36836026D01*
X72113152Y-36836026D02*
X72113152Y-36645550D01*
X72113152Y-36645550D02*
X72160771Y-36550312D01*
X72160771Y-36550312D02*
X72256009Y-36502693D01*
X72256009Y-36502693D02*
X72351247Y-36502693D01*
X72351247Y-36502693D02*
X72446485Y-36978883D01*
X72684580Y-36074121D02*
X72732200Y-36026502D01*
X72732200Y-36026502D02*
X72779819Y-36074121D01*
X72779819Y-36074121D02*
X72732200Y-36121740D01*
X72732200Y-36121740D02*
X72684580Y-36074121D01*
X72684580Y-36074121D02*
X72779819Y-36074121D01*
X72160771Y-36074121D02*
X72208390Y-36026502D01*
X72208390Y-36026502D02*
X72256009Y-36074121D01*
X72256009Y-36074121D02*
X72208390Y-36121740D01*
X72208390Y-36121740D02*
X72160771Y-36074121D01*
X72160771Y-36074121D02*
X72256009Y-36074121D01*
X41019580Y-39403377D02*
X41067200Y-39450996D01*
X41067200Y-39450996D02*
X41114819Y-39593853D01*
X41114819Y-39593853D02*
X41114819Y-39689091D01*
X41114819Y-39689091D02*
X41067200Y-39831948D01*
X41067200Y-39831948D02*
X40971961Y-39927186D01*
X40971961Y-39927186D02*
X40876723Y-39974805D01*
X40876723Y-39974805D02*
X40686247Y-40022424D01*
X40686247Y-40022424D02*
X40543390Y-40022424D01*
X40543390Y-40022424D02*
X40352914Y-39974805D01*
X40352914Y-39974805D02*
X40257676Y-39927186D01*
X40257676Y-39927186D02*
X40162438Y-39831948D01*
X40162438Y-39831948D02*
X40114819Y-39689091D01*
X40114819Y-39689091D02*
X40114819Y-39593853D01*
X40114819Y-39593853D02*
X40162438Y-39450996D01*
X40162438Y-39450996D02*
X40210057Y-39403377D01*
X41114819Y-38831948D02*
X41067200Y-38927186D01*
X41067200Y-38927186D02*
X41019580Y-38974805D01*
X41019580Y-38974805D02*
X40924342Y-39022424D01*
X40924342Y-39022424D02*
X40638628Y-39022424D01*
X40638628Y-39022424D02*
X40543390Y-38974805D01*
X40543390Y-38974805D02*
X40495771Y-38927186D01*
X40495771Y-38927186D02*
X40448152Y-38831948D01*
X40448152Y-38831948D02*
X40448152Y-38689091D01*
X40448152Y-38689091D02*
X40495771Y-38593853D01*
X40495771Y-38593853D02*
X40543390Y-38546234D01*
X40543390Y-38546234D02*
X40638628Y-38498615D01*
X40638628Y-38498615D02*
X40924342Y-38498615D01*
X40924342Y-38498615D02*
X41019580Y-38546234D01*
X41019580Y-38546234D02*
X41067200Y-38593853D01*
X41067200Y-38593853D02*
X41114819Y-38689091D01*
X41114819Y-38689091D02*
X41114819Y-38831948D01*
X40448152Y-38070043D02*
X41114819Y-38070043D01*
X40543390Y-38070043D02*
X40495771Y-38022424D01*
X40495771Y-38022424D02*
X40448152Y-37927186D01*
X40448152Y-37927186D02*
X40448152Y-37784329D01*
X40448152Y-37784329D02*
X40495771Y-37689091D01*
X40495771Y-37689091D02*
X40591009Y-37641472D01*
X40591009Y-37641472D02*
X41114819Y-37641472D01*
X40448152Y-37308138D02*
X40448152Y-36927186D01*
X40114819Y-37165281D02*
X40971961Y-37165281D01*
X40971961Y-37165281D02*
X41067200Y-37117662D01*
X41067200Y-37117662D02*
X41114819Y-37022424D01*
X41114819Y-37022424D02*
X41114819Y-36927186D01*
X41114819Y-36165281D02*
X40591009Y-36165281D01*
X40591009Y-36165281D02*
X40495771Y-36212900D01*
X40495771Y-36212900D02*
X40448152Y-36308138D01*
X40448152Y-36308138D02*
X40448152Y-36498614D01*
X40448152Y-36498614D02*
X40495771Y-36593852D01*
X41067200Y-36165281D02*
X41114819Y-36260519D01*
X41114819Y-36260519D02*
X41114819Y-36498614D01*
X41114819Y-36498614D02*
X41067200Y-36593852D01*
X41067200Y-36593852D02*
X40971961Y-36641471D01*
X40971961Y-36641471D02*
X40876723Y-36641471D01*
X40876723Y-36641471D02*
X40781485Y-36593852D01*
X40781485Y-36593852D02*
X40733866Y-36498614D01*
X40733866Y-36498614D02*
X40733866Y-36260519D01*
X40733866Y-36260519D02*
X40686247Y-36165281D01*
X40448152Y-35831947D02*
X40448152Y-35450995D01*
X40114819Y-35689090D02*
X40971961Y-35689090D01*
X40971961Y-35689090D02*
X41067200Y-35641471D01*
X41067200Y-35641471D02*
X41114819Y-35546233D01*
X41114819Y-35546233D02*
X41114819Y-35450995D01*
X41114819Y-35117661D02*
X40448152Y-35117661D01*
X40114819Y-35117661D02*
X40162438Y-35165280D01*
X40162438Y-35165280D02*
X40210057Y-35117661D01*
X40210057Y-35117661D02*
X40162438Y-35070042D01*
X40162438Y-35070042D02*
X40114819Y-35117661D01*
X40114819Y-35117661D02*
X40210057Y-35117661D01*
X41114819Y-34641471D02*
X40114819Y-34641471D01*
X40495771Y-34641471D02*
X40448152Y-34546233D01*
X40448152Y-34546233D02*
X40448152Y-34355757D01*
X40448152Y-34355757D02*
X40495771Y-34260519D01*
X40495771Y-34260519D02*
X40543390Y-34212900D01*
X40543390Y-34212900D02*
X40638628Y-34165281D01*
X40638628Y-34165281D02*
X40924342Y-34165281D01*
X40924342Y-34165281D02*
X41019580Y-34212900D01*
X41019580Y-34212900D02*
X41067200Y-34260519D01*
X41067200Y-34260519D02*
X41114819Y-34355757D01*
X41114819Y-34355757D02*
X41114819Y-34546233D01*
X41114819Y-34546233D02*
X41067200Y-34641471D01*
X41114819Y-33593852D02*
X41067200Y-33689090D01*
X41067200Y-33689090D02*
X40971961Y-33736709D01*
X40971961Y-33736709D02*
X40114819Y-33736709D01*
X41067200Y-32831947D02*
X41114819Y-32927185D01*
X41114819Y-32927185D02*
X41114819Y-33117661D01*
X41114819Y-33117661D02*
X41067200Y-33212899D01*
X41067200Y-33212899D02*
X40971961Y-33260518D01*
X40971961Y-33260518D02*
X40591009Y-33260518D01*
X40591009Y-33260518D02*
X40495771Y-33212899D01*
X40495771Y-33212899D02*
X40448152Y-33117661D01*
X40448152Y-33117661D02*
X40448152Y-32927185D01*
X40448152Y-32927185D02*
X40495771Y-32831947D01*
X40495771Y-32831947D02*
X40591009Y-32784328D01*
X40591009Y-32784328D02*
X40686247Y-32784328D01*
X40686247Y-32784328D02*
X40781485Y-33260518D01*
X41019580Y-32355756D02*
X41067200Y-32308137D01*
X41067200Y-32308137D02*
X41114819Y-32355756D01*
X41114819Y-32355756D02*
X41067200Y-32403375D01*
X41067200Y-32403375D02*
X41019580Y-32355756D01*
X41019580Y-32355756D02*
X41114819Y-32355756D01*
X40495771Y-32355756D02*
X40543390Y-32308137D01*
X40543390Y-32308137D02*
X40591009Y-32355756D01*
X40591009Y-32355756D02*
X40543390Y-32403375D01*
X40543390Y-32403375D02*
X40495771Y-32355756D01*
X40495771Y-32355756D02*
X40591009Y-32355756D01*
D12*
X38730828Y-40695489D02*
X37230828Y-40695489D01*
X38730828Y-39981203D02*
X37230828Y-39981203D01*
X37230828Y-39981203D02*
X38302257Y-39481203D01*
X38302257Y-39481203D02*
X37230828Y-38981203D01*
X37230828Y-38981203D02*
X38730828Y-38981203D01*
X37230828Y-38266917D02*
X38445114Y-38266917D01*
X38445114Y-38266917D02*
X38587971Y-38195488D01*
X38587971Y-38195488D02*
X38659400Y-38124060D01*
X38659400Y-38124060D02*
X38730828Y-37981202D01*
X38730828Y-37981202D02*
X38730828Y-37695488D01*
X38730828Y-37695488D02*
X38659400Y-37552631D01*
X38659400Y-37552631D02*
X38587971Y-37481202D01*
X38587971Y-37481202D02*
X38445114Y-37409774D01*
X38445114Y-37409774D02*
X37230828Y-37409774D01*
X38730828Y-35552631D02*
X37230828Y-35552631D01*
X37945114Y-35552631D02*
X37945114Y-34695488D01*
X38730828Y-34695488D02*
X37230828Y-34695488D01*
X38659400Y-33409773D02*
X38730828Y-33552630D01*
X38730828Y-33552630D02*
X38730828Y-33838345D01*
X38730828Y-33838345D02*
X38659400Y-33981202D01*
X38659400Y-33981202D02*
X38516542Y-34052630D01*
X38516542Y-34052630D02*
X37945114Y-34052630D01*
X37945114Y-34052630D02*
X37802257Y-33981202D01*
X37802257Y-33981202D02*
X37730828Y-33838345D01*
X37730828Y-33838345D02*
X37730828Y-33552630D01*
X37730828Y-33552630D02*
X37802257Y-33409773D01*
X37802257Y-33409773D02*
X37945114Y-33338345D01*
X37945114Y-33338345D02*
X38087971Y-33338345D01*
X38087971Y-33338345D02*
X38230828Y-34052630D01*
X38730828Y-32695488D02*
X37730828Y-32695488D01*
X38016542Y-32695488D02*
X37873685Y-32624059D01*
X37873685Y-32624059D02*
X37802257Y-32552631D01*
X37802257Y-32552631D02*
X37730828Y-32409773D01*
X37730828Y-32409773D02*
X37730828Y-32266916D01*
X38659400Y-31195488D02*
X38730828Y-31338345D01*
X38730828Y-31338345D02*
X38730828Y-31624060D01*
X38730828Y-31624060D02*
X38659400Y-31766917D01*
X38659400Y-31766917D02*
X38516542Y-31838345D01*
X38516542Y-31838345D02*
X37945114Y-31838345D01*
X37945114Y-31838345D02*
X37802257Y-31766917D01*
X37802257Y-31766917D02*
X37730828Y-31624060D01*
X37730828Y-31624060D02*
X37730828Y-31338345D01*
X37730828Y-31338345D02*
X37802257Y-31195488D01*
X37802257Y-31195488D02*
X37945114Y-31124060D01*
X37945114Y-31124060D02*
X38087971Y-31124060D01*
X38087971Y-31124060D02*
X38230828Y-31838345D01*
D13*
X64408207Y-39869819D02*
X64074874Y-39393628D01*
X63836779Y-39869819D02*
X63836779Y-38869819D01*
X63836779Y-38869819D02*
X64217731Y-38869819D01*
X64217731Y-38869819D02*
X64312969Y-38917438D01*
X64312969Y-38917438D02*
X64360588Y-38965057D01*
X64360588Y-38965057D02*
X64408207Y-39060295D01*
X64408207Y-39060295D02*
X64408207Y-39203152D01*
X64408207Y-39203152D02*
X64360588Y-39298390D01*
X64360588Y-39298390D02*
X64312969Y-39346009D01*
X64312969Y-39346009D02*
X64217731Y-39393628D01*
X64217731Y-39393628D02*
X63836779Y-39393628D01*
X65217731Y-39822200D02*
X65122493Y-39869819D01*
X65122493Y-39869819D02*
X64932017Y-39869819D01*
X64932017Y-39869819D02*
X64836779Y-39822200D01*
X64836779Y-39822200D02*
X64789160Y-39726961D01*
X64789160Y-39726961D02*
X64789160Y-39346009D01*
X64789160Y-39346009D02*
X64836779Y-39250771D01*
X64836779Y-39250771D02*
X64932017Y-39203152D01*
X64932017Y-39203152D02*
X65122493Y-39203152D01*
X65122493Y-39203152D02*
X65217731Y-39250771D01*
X65217731Y-39250771D02*
X65265350Y-39346009D01*
X65265350Y-39346009D02*
X65265350Y-39441247D01*
X65265350Y-39441247D02*
X64789160Y-39536485D01*
X65646303Y-39822200D02*
X65741541Y-39869819D01*
X65741541Y-39869819D02*
X65932017Y-39869819D01*
X65932017Y-39869819D02*
X66027255Y-39822200D01*
X66027255Y-39822200D02*
X66074874Y-39726961D01*
X66074874Y-39726961D02*
X66074874Y-39679342D01*
X66074874Y-39679342D02*
X66027255Y-39584104D01*
X66027255Y-39584104D02*
X65932017Y-39536485D01*
X65932017Y-39536485D02*
X65789160Y-39536485D01*
X65789160Y-39536485D02*
X65693922Y-39488866D01*
X65693922Y-39488866D02*
X65646303Y-39393628D01*
X65646303Y-39393628D02*
X65646303Y-39346009D01*
X65646303Y-39346009D02*
X65693922Y-39250771D01*
X65693922Y-39250771D02*
X65789160Y-39203152D01*
X65789160Y-39203152D02*
X65932017Y-39203152D01*
X65932017Y-39203152D02*
X66027255Y-39250771D01*
X66884398Y-39822200D02*
X66789160Y-39869819D01*
X66789160Y-39869819D02*
X66598684Y-39869819D01*
X66598684Y-39869819D02*
X66503446Y-39822200D01*
X66503446Y-39822200D02*
X66455827Y-39726961D01*
X66455827Y-39726961D02*
X66455827Y-39346009D01*
X66455827Y-39346009D02*
X66503446Y-39250771D01*
X66503446Y-39250771D02*
X66598684Y-39203152D01*
X66598684Y-39203152D02*
X66789160Y-39203152D01*
X66789160Y-39203152D02*
X66884398Y-39250771D01*
X66884398Y-39250771D02*
X66932017Y-39346009D01*
X66932017Y-39346009D02*
X66932017Y-39441247D01*
X66932017Y-39441247D02*
X66455827Y-39536485D01*
X67217732Y-39203152D02*
X67598684Y-39203152D01*
X67360589Y-38869819D02*
X67360589Y-39726961D01*
X67360589Y-39726961D02*
X67408208Y-39822200D01*
X67408208Y-39822200D02*
X67503446Y-39869819D01*
X67503446Y-39869819D02*
X67598684Y-39869819D01*
X64370112Y-30926009D02*
X64512969Y-30973628D01*
X64512969Y-30973628D02*
X64560588Y-31021247D01*
X64560588Y-31021247D02*
X64608207Y-31116485D01*
X64608207Y-31116485D02*
X64608207Y-31259342D01*
X64608207Y-31259342D02*
X64560588Y-31354580D01*
X64560588Y-31354580D02*
X64512969Y-31402200D01*
X64512969Y-31402200D02*
X64417731Y-31449819D01*
X64417731Y-31449819D02*
X64036779Y-31449819D01*
X64036779Y-31449819D02*
X64036779Y-30449819D01*
X64036779Y-30449819D02*
X64370112Y-30449819D01*
X64370112Y-30449819D02*
X64465350Y-30497438D01*
X64465350Y-30497438D02*
X64512969Y-30545057D01*
X64512969Y-30545057D02*
X64560588Y-30640295D01*
X64560588Y-30640295D02*
X64560588Y-30735533D01*
X64560588Y-30735533D02*
X64512969Y-30830771D01*
X64512969Y-30830771D02*
X64465350Y-30878390D01*
X64465350Y-30878390D02*
X64370112Y-30926009D01*
X64370112Y-30926009D02*
X64036779Y-30926009D01*
X65179636Y-31449819D02*
X65084398Y-31402200D01*
X65084398Y-31402200D02*
X65036779Y-31354580D01*
X65036779Y-31354580D02*
X64989160Y-31259342D01*
X64989160Y-31259342D02*
X64989160Y-30973628D01*
X64989160Y-30973628D02*
X65036779Y-30878390D01*
X65036779Y-30878390D02*
X65084398Y-30830771D01*
X65084398Y-30830771D02*
X65179636Y-30783152D01*
X65179636Y-30783152D02*
X65322493Y-30783152D01*
X65322493Y-30783152D02*
X65417731Y-30830771D01*
X65417731Y-30830771D02*
X65465350Y-30878390D01*
X65465350Y-30878390D02*
X65512969Y-30973628D01*
X65512969Y-30973628D02*
X65512969Y-31259342D01*
X65512969Y-31259342D02*
X65465350Y-31354580D01*
X65465350Y-31354580D02*
X65417731Y-31402200D01*
X65417731Y-31402200D02*
X65322493Y-31449819D01*
X65322493Y-31449819D02*
X65179636Y-31449819D01*
X66084398Y-31449819D02*
X65989160Y-31402200D01*
X65989160Y-31402200D02*
X65941541Y-31354580D01*
X65941541Y-31354580D02*
X65893922Y-31259342D01*
X65893922Y-31259342D02*
X65893922Y-30973628D01*
X65893922Y-30973628D02*
X65941541Y-30878390D01*
X65941541Y-30878390D02*
X65989160Y-30830771D01*
X65989160Y-30830771D02*
X66084398Y-30783152D01*
X66084398Y-30783152D02*
X66227255Y-30783152D01*
X66227255Y-30783152D02*
X66322493Y-30830771D01*
X66322493Y-30830771D02*
X66370112Y-30878390D01*
X66370112Y-30878390D02*
X66417731Y-30973628D01*
X66417731Y-30973628D02*
X66417731Y-31259342D01*
X66417731Y-31259342D02*
X66370112Y-31354580D01*
X66370112Y-31354580D02*
X66322493Y-31402200D01*
X66322493Y-31402200D02*
X66227255Y-31449819D01*
X66227255Y-31449819D02*
X66084398Y-31449819D01*
X66703446Y-30783152D02*
X67084398Y-30783152D01*
X66846303Y-30449819D02*
X66846303Y-31306961D01*
X66846303Y-31306961D02*
X66893922Y-31402200D01*
X66893922Y-31402200D02*
X66989160Y-31449819D01*
X66989160Y-31449819D02*
X67084398Y-31449819D01*
X87229160Y-20837256D02*
X87372017Y-20884875D01*
X87372017Y-20884875D02*
X87610112Y-20884875D01*
X87610112Y-20884875D02*
X87705350Y-20837256D01*
X87705350Y-20837256D02*
X87752969Y-20789636D01*
X87752969Y-20789636D02*
X87800588Y-20694398D01*
X87800588Y-20694398D02*
X87800588Y-20599160D01*
X87800588Y-20599160D02*
X87752969Y-20503922D01*
X87752969Y-20503922D02*
X87705350Y-20456303D01*
X87705350Y-20456303D02*
X87610112Y-20408684D01*
X87610112Y-20408684D02*
X87419636Y-20361065D01*
X87419636Y-20361065D02*
X87324398Y-20313446D01*
X87324398Y-20313446D02*
X87276779Y-20265827D01*
X87276779Y-20265827D02*
X87229160Y-20170589D01*
X87229160Y-20170589D02*
X87229160Y-20075351D01*
X87229160Y-20075351D02*
X87276779Y-19980113D01*
X87276779Y-19980113D02*
X87324398Y-19932494D01*
X87324398Y-19932494D02*
X87419636Y-19884875D01*
X87419636Y-19884875D02*
X87657731Y-19884875D01*
X87657731Y-19884875D02*
X87800588Y-19932494D01*
X88133922Y-20218208D02*
X88324398Y-20884875D01*
X88324398Y-20884875D02*
X88514874Y-20408684D01*
X88514874Y-20408684D02*
X88705350Y-20884875D01*
X88705350Y-20884875D02*
X88895826Y-20218208D01*
X89276779Y-20884875D02*
X89276779Y-20218208D01*
X89276779Y-19884875D02*
X89229160Y-19932494D01*
X89229160Y-19932494D02*
X89276779Y-19980113D01*
X89276779Y-19980113D02*
X89324398Y-19932494D01*
X89324398Y-19932494D02*
X89276779Y-19884875D01*
X89276779Y-19884875D02*
X89276779Y-19980113D01*
X89610112Y-20218208D02*
X89991064Y-20218208D01*
X89752969Y-19884875D02*
X89752969Y-20742017D01*
X89752969Y-20742017D02*
X89800588Y-20837256D01*
X89800588Y-20837256D02*
X89895826Y-20884875D01*
X89895826Y-20884875D02*
X89991064Y-20884875D01*
X90752969Y-20837256D02*
X90657731Y-20884875D01*
X90657731Y-20884875D02*
X90467255Y-20884875D01*
X90467255Y-20884875D02*
X90372017Y-20837256D01*
X90372017Y-20837256D02*
X90324398Y-20789636D01*
X90324398Y-20789636D02*
X90276779Y-20694398D01*
X90276779Y-20694398D02*
X90276779Y-20408684D01*
X90276779Y-20408684D02*
X90324398Y-20313446D01*
X90324398Y-20313446D02*
X90372017Y-20265827D01*
X90372017Y-20265827D02*
X90467255Y-20218208D01*
X90467255Y-20218208D02*
X90657731Y-20218208D01*
X90657731Y-20218208D02*
X90752969Y-20265827D01*
X91181541Y-20884875D02*
X91181541Y-19884875D01*
X91610112Y-20884875D02*
X91610112Y-20361065D01*
X91610112Y-20361065D02*
X91562493Y-20265827D01*
X91562493Y-20265827D02*
X91467255Y-20218208D01*
X91467255Y-20218208D02*
X91324398Y-20218208D01*
X91324398Y-20218208D02*
X91229160Y-20265827D01*
X91229160Y-20265827D02*
X91181541Y-20313446D01*
X92848208Y-20884875D02*
X92848208Y-20218208D01*
X92848208Y-19884875D02*
X92800589Y-19932494D01*
X92800589Y-19932494D02*
X92848208Y-19980113D01*
X92848208Y-19980113D02*
X92895827Y-19932494D01*
X92895827Y-19932494D02*
X92848208Y-19884875D01*
X92848208Y-19884875D02*
X92848208Y-19980113D01*
X93276779Y-20837256D02*
X93372017Y-20884875D01*
X93372017Y-20884875D02*
X93562493Y-20884875D01*
X93562493Y-20884875D02*
X93657731Y-20837256D01*
X93657731Y-20837256D02*
X93705350Y-20742017D01*
X93705350Y-20742017D02*
X93705350Y-20694398D01*
X93705350Y-20694398D02*
X93657731Y-20599160D01*
X93657731Y-20599160D02*
X93562493Y-20551541D01*
X93562493Y-20551541D02*
X93419636Y-20551541D01*
X93419636Y-20551541D02*
X93324398Y-20503922D01*
X93324398Y-20503922D02*
X93276779Y-20408684D01*
X93276779Y-20408684D02*
X93276779Y-20361065D01*
X93276779Y-20361065D02*
X93324398Y-20265827D01*
X93324398Y-20265827D02*
X93419636Y-20218208D01*
X93419636Y-20218208D02*
X93562493Y-20218208D01*
X93562493Y-20218208D02*
X93657731Y-20265827D01*
X87705350Y-22494819D02*
X87705350Y-21971009D01*
X87705350Y-21971009D02*
X87657731Y-21875771D01*
X87657731Y-21875771D02*
X87562493Y-21828152D01*
X87562493Y-21828152D02*
X87372017Y-21828152D01*
X87372017Y-21828152D02*
X87276779Y-21875771D01*
X87705350Y-22447200D02*
X87610112Y-22494819D01*
X87610112Y-22494819D02*
X87372017Y-22494819D01*
X87372017Y-22494819D02*
X87276779Y-22447200D01*
X87276779Y-22447200D02*
X87229160Y-22351961D01*
X87229160Y-22351961D02*
X87229160Y-22256723D01*
X87229160Y-22256723D02*
X87276779Y-22161485D01*
X87276779Y-22161485D02*
X87372017Y-22113866D01*
X87372017Y-22113866D02*
X87610112Y-22113866D01*
X87610112Y-22113866D02*
X87705350Y-22066247D01*
X88181541Y-21828152D02*
X88181541Y-22494819D01*
X88181541Y-21923390D02*
X88229160Y-21875771D01*
X88229160Y-21875771D02*
X88324398Y-21828152D01*
X88324398Y-21828152D02*
X88467255Y-21828152D01*
X88467255Y-21828152D02*
X88562493Y-21875771D01*
X88562493Y-21875771D02*
X88610112Y-21971009D01*
X88610112Y-21971009D02*
X88610112Y-22494819D01*
X89514874Y-21828152D02*
X89514874Y-22637676D01*
X89514874Y-22637676D02*
X89467255Y-22732914D01*
X89467255Y-22732914D02*
X89419636Y-22780533D01*
X89419636Y-22780533D02*
X89324398Y-22828152D01*
X89324398Y-22828152D02*
X89181541Y-22828152D01*
X89181541Y-22828152D02*
X89086303Y-22780533D01*
X89514874Y-22447200D02*
X89419636Y-22494819D01*
X89419636Y-22494819D02*
X89229160Y-22494819D01*
X89229160Y-22494819D02*
X89133922Y-22447200D01*
X89133922Y-22447200D02*
X89086303Y-22399580D01*
X89086303Y-22399580D02*
X89038684Y-22304342D01*
X89038684Y-22304342D02*
X89038684Y-22018628D01*
X89038684Y-22018628D02*
X89086303Y-21923390D01*
X89086303Y-21923390D02*
X89133922Y-21875771D01*
X89133922Y-21875771D02*
X89229160Y-21828152D01*
X89229160Y-21828152D02*
X89419636Y-21828152D01*
X89419636Y-21828152D02*
X89514874Y-21875771D01*
X90133922Y-22494819D02*
X90038684Y-22447200D01*
X90038684Y-22447200D02*
X89991065Y-22351961D01*
X89991065Y-22351961D02*
X89991065Y-21494819D01*
X90895827Y-22447200D02*
X90800589Y-22494819D01*
X90800589Y-22494819D02*
X90610113Y-22494819D01*
X90610113Y-22494819D02*
X90514875Y-22447200D01*
X90514875Y-22447200D02*
X90467256Y-22351961D01*
X90467256Y-22351961D02*
X90467256Y-21971009D01*
X90467256Y-21971009D02*
X90514875Y-21875771D01*
X90514875Y-21875771D02*
X90610113Y-21828152D01*
X90610113Y-21828152D02*
X90800589Y-21828152D01*
X90800589Y-21828152D02*
X90895827Y-21875771D01*
X90895827Y-21875771D02*
X90943446Y-21971009D01*
X90943446Y-21971009D02*
X90943446Y-22066247D01*
X90943446Y-22066247D02*
X90467256Y-22161485D01*
X91800589Y-22494819D02*
X91800589Y-21494819D01*
X91800589Y-22447200D02*
X91705351Y-22494819D01*
X91705351Y-22494819D02*
X91514875Y-22494819D01*
X91514875Y-22494819D02*
X91419637Y-22447200D01*
X91419637Y-22447200D02*
X91372018Y-22399580D01*
X91372018Y-22399580D02*
X91324399Y-22304342D01*
X91324399Y-22304342D02*
X91324399Y-22018628D01*
X91324399Y-22018628D02*
X91372018Y-21923390D01*
X91372018Y-21923390D02*
X91419637Y-21875771D01*
X91419637Y-21875771D02*
X91514875Y-21828152D01*
X91514875Y-21828152D02*
X91705351Y-21828152D01*
X91705351Y-21828152D02*
X91800589Y-21875771D01*
X93086304Y-22494819D02*
X93276780Y-22494819D01*
X93276780Y-22494819D02*
X93372018Y-22447200D01*
X93372018Y-22447200D02*
X93419637Y-22399580D01*
X93419637Y-22399580D02*
X93514875Y-22256723D01*
X93514875Y-22256723D02*
X93562494Y-22066247D01*
X93562494Y-22066247D02*
X93562494Y-21685295D01*
X93562494Y-21685295D02*
X93514875Y-21590057D01*
X93514875Y-21590057D02*
X93467256Y-21542438D01*
X93467256Y-21542438D02*
X93372018Y-21494819D01*
X93372018Y-21494819D02*
X93181542Y-21494819D01*
X93181542Y-21494819D02*
X93086304Y-21542438D01*
X93086304Y-21542438D02*
X93038685Y-21590057D01*
X93038685Y-21590057D02*
X92991066Y-21685295D01*
X92991066Y-21685295D02*
X92991066Y-21923390D01*
X92991066Y-21923390D02*
X93038685Y-22018628D01*
X93038685Y-22018628D02*
X93086304Y-22066247D01*
X93086304Y-22066247D02*
X93181542Y-22113866D01*
X93181542Y-22113866D02*
X93372018Y-22113866D01*
X93372018Y-22113866D02*
X93467256Y-22066247D01*
X93467256Y-22066247D02*
X93514875Y-22018628D01*
X93514875Y-22018628D02*
X93562494Y-21923390D01*
X94181542Y-21494819D02*
X94276780Y-21494819D01*
X94276780Y-21494819D02*
X94372018Y-21542438D01*
X94372018Y-21542438D02*
X94419637Y-21590057D01*
X94419637Y-21590057D02*
X94467256Y-21685295D01*
X94467256Y-21685295D02*
X94514875Y-21875771D01*
X94514875Y-21875771D02*
X94514875Y-22113866D01*
X94514875Y-22113866D02*
X94467256Y-22304342D01*
X94467256Y-22304342D02*
X94419637Y-22399580D01*
X94419637Y-22399580D02*
X94372018Y-22447200D01*
X94372018Y-22447200D02*
X94276780Y-22494819D01*
X94276780Y-22494819D02*
X94181542Y-22494819D01*
X94181542Y-22494819D02*
X94086304Y-22447200D01*
X94086304Y-22447200D02*
X94038685Y-22399580D01*
X94038685Y-22399580D02*
X93991066Y-22304342D01*
X93991066Y-22304342D02*
X93943447Y-22113866D01*
X93943447Y-22113866D02*
X93943447Y-21875771D01*
X93943447Y-21875771D02*
X93991066Y-21685295D01*
X93991066Y-21685295D02*
X94038685Y-21590057D01*
X94038685Y-21590057D02*
X94086304Y-21542438D01*
X94086304Y-21542438D02*
X94181542Y-21494819D01*
X95086304Y-21494819D02*
X94991066Y-21542438D01*
X94991066Y-21542438D02*
X94943447Y-21637676D01*
X94943447Y-21637676D02*
X94991066Y-21732914D01*
X94991066Y-21732914D02*
X95086304Y-21780533D01*
X95086304Y-21780533D02*
X95181542Y-21732914D01*
X95181542Y-21732914D02*
X95229161Y-21637676D01*
X95229161Y-21637676D02*
X95181542Y-21542438D01*
X95181542Y-21542438D02*
X95086304Y-21494819D01*
X75230043Y-43353170D02*
X74230043Y-43353170D01*
X75134804Y-42305552D02*
X75182424Y-42353171D01*
X75182424Y-42353171D02*
X75230043Y-42496028D01*
X75230043Y-42496028D02*
X75230043Y-42591266D01*
X75230043Y-42591266D02*
X75182424Y-42734123D01*
X75182424Y-42734123D02*
X75087185Y-42829361D01*
X75087185Y-42829361D02*
X74991947Y-42876980D01*
X74991947Y-42876980D02*
X74801471Y-42924599D01*
X74801471Y-42924599D02*
X74658614Y-42924599D01*
X74658614Y-42924599D02*
X74468138Y-42876980D01*
X74468138Y-42876980D02*
X74372900Y-42829361D01*
X74372900Y-42829361D02*
X74277662Y-42734123D01*
X74277662Y-42734123D02*
X74230043Y-42591266D01*
X74230043Y-42591266D02*
X74230043Y-42496028D01*
X74230043Y-42496028D02*
X74277662Y-42353171D01*
X74277662Y-42353171D02*
X74325281Y-42305552D01*
X75230043Y-41876980D02*
X74230043Y-41876980D01*
X74230043Y-41876980D02*
X74944328Y-41543647D01*
X74944328Y-41543647D02*
X74230043Y-41210314D01*
X74230043Y-41210314D02*
X75230043Y-41210314D01*
X74849090Y-40734123D02*
X74849090Y-39972219D01*
X74563376Y-39067457D02*
X75230043Y-39067457D01*
X74182424Y-39305552D02*
X74896709Y-39543647D01*
X74896709Y-39543647D02*
X74896709Y-38924600D01*
X74230043Y-38067457D02*
X74230043Y-38543647D01*
X74230043Y-38543647D02*
X74706233Y-38591266D01*
X74706233Y-38591266D02*
X74658614Y-38543647D01*
X74658614Y-38543647D02*
X74610995Y-38448409D01*
X74610995Y-38448409D02*
X74610995Y-38210314D01*
X74610995Y-38210314D02*
X74658614Y-38115076D01*
X74658614Y-38115076D02*
X74706233Y-38067457D01*
X74706233Y-38067457D02*
X74801471Y-38019838D01*
X74801471Y-38019838D02*
X75039566Y-38019838D01*
X75039566Y-38019838D02*
X75134804Y-38067457D01*
X75134804Y-38067457D02*
X75182424Y-38115076D01*
X75182424Y-38115076D02*
X75230043Y-38210314D01*
X75230043Y-38210314D02*
X75230043Y-38448409D01*
X75230043Y-38448409D02*
X75182424Y-38543647D01*
X75182424Y-38543647D02*
X75134804Y-38591266D01*
X74658614Y-37448409D02*
X74610995Y-37543647D01*
X74610995Y-37543647D02*
X74563376Y-37591266D01*
X74563376Y-37591266D02*
X74468138Y-37638885D01*
X74468138Y-37638885D02*
X74420519Y-37638885D01*
X74420519Y-37638885D02*
X74325281Y-37591266D01*
X74325281Y-37591266D02*
X74277662Y-37543647D01*
X74277662Y-37543647D02*
X74230043Y-37448409D01*
X74230043Y-37448409D02*
X74230043Y-37257933D01*
X74230043Y-37257933D02*
X74277662Y-37162695D01*
X74277662Y-37162695D02*
X74325281Y-37115076D01*
X74325281Y-37115076D02*
X74420519Y-37067457D01*
X74420519Y-37067457D02*
X74468138Y-37067457D01*
X74468138Y-37067457D02*
X74563376Y-37115076D01*
X74563376Y-37115076D02*
X74610995Y-37162695D01*
X74610995Y-37162695D02*
X74658614Y-37257933D01*
X74658614Y-37257933D02*
X74658614Y-37448409D01*
X74658614Y-37448409D02*
X74706233Y-37543647D01*
X74706233Y-37543647D02*
X74753852Y-37591266D01*
X74753852Y-37591266D02*
X74849090Y-37638885D01*
X74849090Y-37638885D02*
X75039566Y-37638885D01*
X75039566Y-37638885D02*
X75134804Y-37591266D01*
X75134804Y-37591266D02*
X75182424Y-37543647D01*
X75182424Y-37543647D02*
X75230043Y-37448409D01*
X75230043Y-37448409D02*
X75230043Y-37257933D01*
X75230043Y-37257933D02*
X75182424Y-37162695D01*
X75182424Y-37162695D02*
X75134804Y-37115076D01*
X75134804Y-37115076D02*
X75039566Y-37067457D01*
X75039566Y-37067457D02*
X74849090Y-37067457D01*
X74849090Y-37067457D02*
X74753852Y-37115076D01*
X74753852Y-37115076D02*
X74706233Y-37162695D01*
X74706233Y-37162695D02*
X74658614Y-37257933D01*
X74230043Y-36210314D02*
X74230043Y-36400790D01*
X74230043Y-36400790D02*
X74277662Y-36496028D01*
X74277662Y-36496028D02*
X74325281Y-36543647D01*
X74325281Y-36543647D02*
X74468138Y-36638885D01*
X74468138Y-36638885D02*
X74658614Y-36686504D01*
X74658614Y-36686504D02*
X75039566Y-36686504D01*
X75039566Y-36686504D02*
X75134804Y-36638885D01*
X75134804Y-36638885D02*
X75182424Y-36591266D01*
X75182424Y-36591266D02*
X75230043Y-36496028D01*
X75230043Y-36496028D02*
X75230043Y-36305552D01*
X75230043Y-36305552D02*
X75182424Y-36210314D01*
X75182424Y-36210314D02*
X75134804Y-36162695D01*
X75134804Y-36162695D02*
X75039566Y-36115076D01*
X75039566Y-36115076D02*
X74801471Y-36115076D01*
X74801471Y-36115076D02*
X74706233Y-36162695D01*
X74706233Y-36162695D02*
X74658614Y-36210314D01*
X74658614Y-36210314D02*
X74610995Y-36305552D01*
X74610995Y-36305552D02*
X74610995Y-36496028D01*
X74610995Y-36496028D02*
X74658614Y-36591266D01*
X74658614Y-36591266D02*
X74706233Y-36638885D01*
X74706233Y-36638885D02*
X74801471Y-36686504D01*
X76839987Y-42876980D02*
X76839987Y-43353170D01*
X76839987Y-43353170D02*
X75839987Y-43353170D01*
X76792368Y-42591265D02*
X76839987Y-42448408D01*
X76839987Y-42448408D02*
X76839987Y-42210313D01*
X76839987Y-42210313D02*
X76792368Y-42115075D01*
X76792368Y-42115075D02*
X76744748Y-42067456D01*
X76744748Y-42067456D02*
X76649510Y-42019837D01*
X76649510Y-42019837D02*
X76554272Y-42019837D01*
X76554272Y-42019837D02*
X76459034Y-42067456D01*
X76459034Y-42067456D02*
X76411415Y-42115075D01*
X76411415Y-42115075D02*
X76363796Y-42210313D01*
X76363796Y-42210313D02*
X76316177Y-42400789D01*
X76316177Y-42400789D02*
X76268558Y-42496027D01*
X76268558Y-42496027D02*
X76220939Y-42543646D01*
X76220939Y-42543646D02*
X76125701Y-42591265D01*
X76125701Y-42591265D02*
X76030463Y-42591265D01*
X76030463Y-42591265D02*
X75935225Y-42543646D01*
X75935225Y-42543646D02*
X75887606Y-42496027D01*
X75887606Y-42496027D02*
X75839987Y-42400789D01*
X75839987Y-42400789D02*
X75839987Y-42162694D01*
X75839987Y-42162694D02*
X75887606Y-42019837D01*
X76839987Y-41591265D02*
X75839987Y-41591265D01*
X75839987Y-41591265D02*
X76554272Y-41257932D01*
X76554272Y-41257932D02*
X75839987Y-40924599D01*
X75839987Y-40924599D02*
X76839987Y-40924599D01*
X75839987Y-40019837D02*
X75839987Y-40210313D01*
X75839987Y-40210313D02*
X75887606Y-40305551D01*
X75887606Y-40305551D02*
X75935225Y-40353170D01*
X75935225Y-40353170D02*
X76078082Y-40448408D01*
X76078082Y-40448408D02*
X76268558Y-40496027D01*
X76268558Y-40496027D02*
X76649510Y-40496027D01*
X76649510Y-40496027D02*
X76744748Y-40448408D01*
X76744748Y-40448408D02*
X76792368Y-40400789D01*
X76792368Y-40400789D02*
X76839987Y-40305551D01*
X76839987Y-40305551D02*
X76839987Y-40115075D01*
X76839987Y-40115075D02*
X76792368Y-40019837D01*
X76792368Y-40019837D02*
X76744748Y-39972218D01*
X76744748Y-39972218D02*
X76649510Y-39924599D01*
X76649510Y-39924599D02*
X76411415Y-39924599D01*
X76411415Y-39924599D02*
X76316177Y-39972218D01*
X76316177Y-39972218D02*
X76268558Y-40019837D01*
X76268558Y-40019837D02*
X76220939Y-40115075D01*
X76220939Y-40115075D02*
X76220939Y-40305551D01*
X76220939Y-40305551D02*
X76268558Y-40400789D01*
X76268558Y-40400789D02*
X76316177Y-40448408D01*
X76316177Y-40448408D02*
X76411415Y-40496027D01*
X76839987Y-39496027D02*
X75839987Y-39496027D01*
X75839987Y-39496027D02*
X75839987Y-39257932D01*
X75839987Y-39257932D02*
X75887606Y-39115075D01*
X75887606Y-39115075D02*
X75982844Y-39019837D01*
X75982844Y-39019837D02*
X76078082Y-38972218D01*
X76078082Y-38972218D02*
X76268558Y-38924599D01*
X76268558Y-38924599D02*
X76411415Y-38924599D01*
X76411415Y-38924599D02*
X76601891Y-38972218D01*
X76601891Y-38972218D02*
X76697129Y-39019837D01*
X76697129Y-39019837D02*
X76792368Y-39115075D01*
X76792368Y-39115075D02*
X76839987Y-39257932D01*
X76839987Y-39257932D02*
X76839987Y-39496027D01*
X76792368Y-38543646D02*
X76839987Y-38400789D01*
X76839987Y-38400789D02*
X76839987Y-38162694D01*
X76839987Y-38162694D02*
X76792368Y-38067456D01*
X76792368Y-38067456D02*
X76744748Y-38019837D01*
X76744748Y-38019837D02*
X76649510Y-37972218D01*
X76649510Y-37972218D02*
X76554272Y-37972218D01*
X76554272Y-37972218D02*
X76459034Y-38019837D01*
X76459034Y-38019837D02*
X76411415Y-38067456D01*
X76411415Y-38067456D02*
X76363796Y-38162694D01*
X76363796Y-38162694D02*
X76316177Y-38353170D01*
X76316177Y-38353170D02*
X76268558Y-38448408D01*
X76268558Y-38448408D02*
X76220939Y-38496027D01*
X76220939Y-38496027D02*
X76125701Y-38543646D01*
X76125701Y-38543646D02*
X76030463Y-38543646D01*
X76030463Y-38543646D02*
X75935225Y-38496027D01*
X75935225Y-38496027D02*
X75887606Y-38448408D01*
X75887606Y-38448408D02*
X75839987Y-38353170D01*
X75839987Y-38353170D02*
X75839987Y-38115075D01*
X75839987Y-38115075D02*
X75887606Y-37972218D01*
X75839987Y-37686503D02*
X76839987Y-37353170D01*
X76839987Y-37353170D02*
X75839987Y-37019837D01*
X78449931Y-42876980D02*
X78449931Y-43353170D01*
X78449931Y-43353170D02*
X77449931Y-43353170D01*
X78402312Y-42591265D02*
X78449931Y-42448408D01*
X78449931Y-42448408D02*
X78449931Y-42210313D01*
X78449931Y-42210313D02*
X78402312Y-42115075D01*
X78402312Y-42115075D02*
X78354692Y-42067456D01*
X78354692Y-42067456D02*
X78259454Y-42019837D01*
X78259454Y-42019837D02*
X78164216Y-42019837D01*
X78164216Y-42019837D02*
X78068978Y-42067456D01*
X78068978Y-42067456D02*
X78021359Y-42115075D01*
X78021359Y-42115075D02*
X77973740Y-42210313D01*
X77973740Y-42210313D02*
X77926121Y-42400789D01*
X77926121Y-42400789D02*
X77878502Y-42496027D01*
X77878502Y-42496027D02*
X77830883Y-42543646D01*
X77830883Y-42543646D02*
X77735645Y-42591265D01*
X77735645Y-42591265D02*
X77640407Y-42591265D01*
X77640407Y-42591265D02*
X77545169Y-42543646D01*
X77545169Y-42543646D02*
X77497550Y-42496027D01*
X77497550Y-42496027D02*
X77449931Y-42400789D01*
X77449931Y-42400789D02*
X77449931Y-42162694D01*
X77449931Y-42162694D02*
X77497550Y-42019837D01*
X78449931Y-41591265D02*
X77449931Y-41591265D01*
X77449931Y-41591265D02*
X78164216Y-41257932D01*
X78164216Y-41257932D02*
X77449931Y-40924599D01*
X77449931Y-40924599D02*
X78449931Y-40924599D01*
X77449931Y-40019837D02*
X77449931Y-40210313D01*
X77449931Y-40210313D02*
X77497550Y-40305551D01*
X77497550Y-40305551D02*
X77545169Y-40353170D01*
X77545169Y-40353170D02*
X77688026Y-40448408D01*
X77688026Y-40448408D02*
X77878502Y-40496027D01*
X77878502Y-40496027D02*
X78259454Y-40496027D01*
X78259454Y-40496027D02*
X78354692Y-40448408D01*
X78354692Y-40448408D02*
X78402312Y-40400789D01*
X78402312Y-40400789D02*
X78449931Y-40305551D01*
X78449931Y-40305551D02*
X78449931Y-40115075D01*
X78449931Y-40115075D02*
X78402312Y-40019837D01*
X78402312Y-40019837D02*
X78354692Y-39972218D01*
X78354692Y-39972218D02*
X78259454Y-39924599D01*
X78259454Y-39924599D02*
X78021359Y-39924599D01*
X78021359Y-39924599D02*
X77926121Y-39972218D01*
X77926121Y-39972218D02*
X77878502Y-40019837D01*
X77878502Y-40019837D02*
X77830883Y-40115075D01*
X77830883Y-40115075D02*
X77830883Y-40305551D01*
X77830883Y-40305551D02*
X77878502Y-40400789D01*
X77878502Y-40400789D02*
X77926121Y-40448408D01*
X77926121Y-40448408D02*
X78021359Y-40496027D01*
X78449931Y-39496027D02*
X77449931Y-39496027D01*
X77449931Y-39496027D02*
X77449931Y-39257932D01*
X77449931Y-39257932D02*
X77497550Y-39115075D01*
X77497550Y-39115075D02*
X77592788Y-39019837D01*
X77592788Y-39019837D02*
X77688026Y-38972218D01*
X77688026Y-38972218D02*
X77878502Y-38924599D01*
X77878502Y-38924599D02*
X78021359Y-38924599D01*
X78021359Y-38924599D02*
X78211835Y-38972218D01*
X78211835Y-38972218D02*
X78307073Y-39019837D01*
X78307073Y-39019837D02*
X78402312Y-39115075D01*
X78402312Y-39115075D02*
X78449931Y-39257932D01*
X78449931Y-39257932D02*
X78449931Y-39496027D01*
X78402312Y-38543646D02*
X78449931Y-38400789D01*
X78449931Y-38400789D02*
X78449931Y-38162694D01*
X78449931Y-38162694D02*
X78402312Y-38067456D01*
X78402312Y-38067456D02*
X78354692Y-38019837D01*
X78354692Y-38019837D02*
X78259454Y-37972218D01*
X78259454Y-37972218D02*
X78164216Y-37972218D01*
X78164216Y-37972218D02*
X78068978Y-38019837D01*
X78068978Y-38019837D02*
X78021359Y-38067456D01*
X78021359Y-38067456D02*
X77973740Y-38162694D01*
X77973740Y-38162694D02*
X77926121Y-38353170D01*
X77926121Y-38353170D02*
X77878502Y-38448408D01*
X77878502Y-38448408D02*
X77830883Y-38496027D01*
X77830883Y-38496027D02*
X77735645Y-38543646D01*
X77735645Y-38543646D02*
X77640407Y-38543646D01*
X77640407Y-38543646D02*
X77545169Y-38496027D01*
X77545169Y-38496027D02*
X77497550Y-38448408D01*
X77497550Y-38448408D02*
X77449931Y-38353170D01*
X77449931Y-38353170D02*
X77449931Y-38115075D01*
X77449931Y-38115075D02*
X77497550Y-37972218D01*
X78449931Y-36972218D02*
X77973740Y-37305551D01*
X78449931Y-37543646D02*
X77449931Y-37543646D01*
X77449931Y-37543646D02*
X77449931Y-37162694D01*
X77449931Y-37162694D02*
X77497550Y-37067456D01*
X77497550Y-37067456D02*
X77545169Y-37019837D01*
X77545169Y-37019837D02*
X77640407Y-36972218D01*
X77640407Y-36972218D02*
X77783264Y-36972218D01*
X77783264Y-36972218D02*
X77878502Y-37019837D01*
X77878502Y-37019837D02*
X77926121Y-37067456D01*
X77926121Y-37067456D02*
X77973740Y-37162694D01*
X77973740Y-37162694D02*
X77973740Y-37543646D01*
X79536065Y-43019837D02*
X79583684Y-42876980D01*
X79583684Y-42876980D02*
X79631303Y-42829361D01*
X79631303Y-42829361D02*
X79726541Y-42781742D01*
X79726541Y-42781742D02*
X79869398Y-42781742D01*
X79869398Y-42781742D02*
X79964636Y-42829361D01*
X79964636Y-42829361D02*
X80012256Y-42876980D01*
X80012256Y-42876980D02*
X80059875Y-42972218D01*
X80059875Y-42972218D02*
X80059875Y-43353170D01*
X80059875Y-43353170D02*
X79059875Y-43353170D01*
X79059875Y-43353170D02*
X79059875Y-43019837D01*
X79059875Y-43019837D02*
X79107494Y-42924599D01*
X79107494Y-42924599D02*
X79155113Y-42876980D01*
X79155113Y-42876980D02*
X79250351Y-42829361D01*
X79250351Y-42829361D02*
X79345589Y-42829361D01*
X79345589Y-42829361D02*
X79440827Y-42876980D01*
X79440827Y-42876980D02*
X79488446Y-42924599D01*
X79488446Y-42924599D02*
X79536065Y-43019837D01*
X79536065Y-43019837D02*
X79536065Y-43353170D01*
X80059875Y-42353170D02*
X79059875Y-42353170D01*
X79059875Y-42353170D02*
X79774160Y-42019837D01*
X79774160Y-42019837D02*
X79059875Y-41686504D01*
X79059875Y-41686504D02*
X80059875Y-41686504D01*
X80059875Y-41210313D02*
X79059875Y-41210313D01*
X80059875Y-40210314D02*
X80059875Y-40781742D01*
X80059875Y-40496028D02*
X79059875Y-40496028D01*
X79059875Y-40496028D02*
X79202732Y-40591266D01*
X79202732Y-40591266D02*
X79297970Y-40686504D01*
X79297970Y-40686504D02*
X79345589Y-40781742D01*
X79059875Y-39353171D02*
X79059875Y-39543647D01*
X79059875Y-39543647D02*
X79107494Y-39638885D01*
X79107494Y-39638885D02*
X79155113Y-39686504D01*
X79155113Y-39686504D02*
X79297970Y-39781742D01*
X79297970Y-39781742D02*
X79488446Y-39829361D01*
X79488446Y-39829361D02*
X79869398Y-39829361D01*
X79869398Y-39829361D02*
X79964636Y-39781742D01*
X79964636Y-39781742D02*
X80012256Y-39734123D01*
X80012256Y-39734123D02*
X80059875Y-39638885D01*
X80059875Y-39638885D02*
X80059875Y-39448409D01*
X80059875Y-39448409D02*
X80012256Y-39353171D01*
X80012256Y-39353171D02*
X79964636Y-39305552D01*
X79964636Y-39305552D02*
X79869398Y-39257933D01*
X79869398Y-39257933D02*
X79631303Y-39257933D01*
X79631303Y-39257933D02*
X79536065Y-39305552D01*
X79536065Y-39305552D02*
X79488446Y-39353171D01*
X79488446Y-39353171D02*
X79440827Y-39448409D01*
X79440827Y-39448409D02*
X79440827Y-39638885D01*
X79440827Y-39638885D02*
X79488446Y-39734123D01*
X79488446Y-39734123D02*
X79536065Y-39781742D01*
X79536065Y-39781742D02*
X79631303Y-39829361D01*
X79059875Y-38638885D02*
X79059875Y-38543647D01*
X79059875Y-38543647D02*
X79107494Y-38448409D01*
X79107494Y-38448409D02*
X79155113Y-38400790D01*
X79155113Y-38400790D02*
X79250351Y-38353171D01*
X79250351Y-38353171D02*
X79440827Y-38305552D01*
X79440827Y-38305552D02*
X79678922Y-38305552D01*
X79678922Y-38305552D02*
X79869398Y-38353171D01*
X79869398Y-38353171D02*
X79964636Y-38400790D01*
X79964636Y-38400790D02*
X80012256Y-38448409D01*
X80012256Y-38448409D02*
X80059875Y-38543647D01*
X80059875Y-38543647D02*
X80059875Y-38638885D01*
X80059875Y-38638885D02*
X80012256Y-38734123D01*
X80012256Y-38734123D02*
X79964636Y-38781742D01*
X79964636Y-38781742D02*
X79869398Y-38829361D01*
X79869398Y-38829361D02*
X79678922Y-38876980D01*
X79678922Y-38876980D02*
X79440827Y-38876980D01*
X79440827Y-38876980D02*
X79250351Y-38829361D01*
X79250351Y-38829361D02*
X79155113Y-38781742D01*
X79155113Y-38781742D02*
X79107494Y-38734123D01*
X79107494Y-38734123D02*
X79059875Y-38638885D01*
X80669819Y-43210313D02*
X80907914Y-43210313D01*
X80812676Y-43448408D02*
X80907914Y-43210313D01*
X80907914Y-43210313D02*
X80812676Y-42972218D01*
X81098390Y-43353170D02*
X80907914Y-43210313D01*
X80907914Y-43210313D02*
X81098390Y-43067456D01*
X81669819Y-42591265D02*
X80669819Y-42591265D01*
X80669819Y-42591265D02*
X81669819Y-42019837D01*
X81669819Y-42019837D02*
X80669819Y-42019837D01*
X81669819Y-41400789D02*
X81622200Y-41496027D01*
X81622200Y-41496027D02*
X81574580Y-41543646D01*
X81574580Y-41543646D02*
X81479342Y-41591265D01*
X81479342Y-41591265D02*
X81193628Y-41591265D01*
X81193628Y-41591265D02*
X81098390Y-41543646D01*
X81098390Y-41543646D02*
X81050771Y-41496027D01*
X81050771Y-41496027D02*
X81003152Y-41400789D01*
X81003152Y-41400789D02*
X81003152Y-41257932D01*
X81003152Y-41257932D02*
X81050771Y-41162694D01*
X81050771Y-41162694D02*
X81098390Y-41115075D01*
X81098390Y-41115075D02*
X81193628Y-41067456D01*
X81193628Y-41067456D02*
X81479342Y-41067456D01*
X81479342Y-41067456D02*
X81574580Y-41115075D01*
X81574580Y-41115075D02*
X81622200Y-41162694D01*
X81622200Y-41162694D02*
X81669819Y-41257932D01*
X81669819Y-41257932D02*
X81669819Y-41400789D01*
X81003152Y-40781741D02*
X81003152Y-40400789D01*
X80669819Y-40638884D02*
X81526961Y-40638884D01*
X81526961Y-40638884D02*
X81622200Y-40591265D01*
X81622200Y-40591265D02*
X81669819Y-40496027D01*
X81669819Y-40496027D02*
X81669819Y-40400789D01*
X81622200Y-39686503D02*
X81669819Y-39781741D01*
X81669819Y-39781741D02*
X81669819Y-39972217D01*
X81669819Y-39972217D02*
X81622200Y-40067455D01*
X81622200Y-40067455D02*
X81526961Y-40115074D01*
X81526961Y-40115074D02*
X81146009Y-40115074D01*
X81146009Y-40115074D02*
X81050771Y-40067455D01*
X81050771Y-40067455D02*
X81003152Y-39972217D01*
X81003152Y-39972217D02*
X81003152Y-39781741D01*
X81003152Y-39781741D02*
X81050771Y-39686503D01*
X81050771Y-39686503D02*
X81146009Y-39638884D01*
X81146009Y-39638884D02*
X81241247Y-39638884D01*
X81241247Y-39638884D02*
X81336485Y-40115074D01*
X80669819Y-39067455D02*
X80907914Y-39067455D01*
X80812676Y-39305550D02*
X80907914Y-39067455D01*
X80907914Y-39067455D02*
X80812676Y-38829360D01*
X81098390Y-39210312D02*
X80907914Y-39067455D01*
X80907914Y-39067455D02*
X81098390Y-38924598D01*
X91218978Y-45013220D02*
X91218978Y-44251316D01*
X94438866Y-45013220D02*
X94438866Y-44251316D01*
X94819819Y-44632268D02*
X94057914Y-44632268D01*
X43565043Y-39634805D02*
X42565043Y-39634805D01*
X43469804Y-38587187D02*
X43517424Y-38634806D01*
X43517424Y-38634806D02*
X43565043Y-38777663D01*
X43565043Y-38777663D02*
X43565043Y-38872901D01*
X43565043Y-38872901D02*
X43517424Y-39015758D01*
X43517424Y-39015758D02*
X43422185Y-39110996D01*
X43422185Y-39110996D02*
X43326947Y-39158615D01*
X43326947Y-39158615D02*
X43136471Y-39206234D01*
X43136471Y-39206234D02*
X42993614Y-39206234D01*
X42993614Y-39206234D02*
X42803138Y-39158615D01*
X42803138Y-39158615D02*
X42707900Y-39110996D01*
X42707900Y-39110996D02*
X42612662Y-39015758D01*
X42612662Y-39015758D02*
X42565043Y-38872901D01*
X42565043Y-38872901D02*
X42565043Y-38777663D01*
X42565043Y-38777663D02*
X42612662Y-38634806D01*
X42612662Y-38634806D02*
X42660281Y-38587187D01*
X43565043Y-38158615D02*
X42565043Y-38158615D01*
X42565043Y-38158615D02*
X43279328Y-37825282D01*
X43279328Y-37825282D02*
X42565043Y-37491949D01*
X42565043Y-37491949D02*
X43565043Y-37491949D01*
X43184090Y-37015758D02*
X43184090Y-36253854D01*
X42898376Y-35349092D02*
X43565043Y-35349092D01*
X42517424Y-35587187D02*
X43231709Y-35825282D01*
X43231709Y-35825282D02*
X43231709Y-35206235D01*
X42565043Y-34349092D02*
X42565043Y-34825282D01*
X42565043Y-34825282D02*
X43041233Y-34872901D01*
X43041233Y-34872901D02*
X42993614Y-34825282D01*
X42993614Y-34825282D02*
X42945995Y-34730044D01*
X42945995Y-34730044D02*
X42945995Y-34491949D01*
X42945995Y-34491949D02*
X42993614Y-34396711D01*
X42993614Y-34396711D02*
X43041233Y-34349092D01*
X43041233Y-34349092D02*
X43136471Y-34301473D01*
X43136471Y-34301473D02*
X43374566Y-34301473D01*
X43374566Y-34301473D02*
X43469804Y-34349092D01*
X43469804Y-34349092D02*
X43517424Y-34396711D01*
X43517424Y-34396711D02*
X43565043Y-34491949D01*
X43565043Y-34491949D02*
X43565043Y-34730044D01*
X43565043Y-34730044D02*
X43517424Y-34825282D01*
X43517424Y-34825282D02*
X43469804Y-34872901D01*
X42993614Y-33730044D02*
X42945995Y-33825282D01*
X42945995Y-33825282D02*
X42898376Y-33872901D01*
X42898376Y-33872901D02*
X42803138Y-33920520D01*
X42803138Y-33920520D02*
X42755519Y-33920520D01*
X42755519Y-33920520D02*
X42660281Y-33872901D01*
X42660281Y-33872901D02*
X42612662Y-33825282D01*
X42612662Y-33825282D02*
X42565043Y-33730044D01*
X42565043Y-33730044D02*
X42565043Y-33539568D01*
X42565043Y-33539568D02*
X42612662Y-33444330D01*
X42612662Y-33444330D02*
X42660281Y-33396711D01*
X42660281Y-33396711D02*
X42755519Y-33349092D01*
X42755519Y-33349092D02*
X42803138Y-33349092D01*
X42803138Y-33349092D02*
X42898376Y-33396711D01*
X42898376Y-33396711D02*
X42945995Y-33444330D01*
X42945995Y-33444330D02*
X42993614Y-33539568D01*
X42993614Y-33539568D02*
X42993614Y-33730044D01*
X42993614Y-33730044D02*
X43041233Y-33825282D01*
X43041233Y-33825282D02*
X43088852Y-33872901D01*
X43088852Y-33872901D02*
X43184090Y-33920520D01*
X43184090Y-33920520D02*
X43374566Y-33920520D01*
X43374566Y-33920520D02*
X43469804Y-33872901D01*
X43469804Y-33872901D02*
X43517424Y-33825282D01*
X43517424Y-33825282D02*
X43565043Y-33730044D01*
X43565043Y-33730044D02*
X43565043Y-33539568D01*
X43565043Y-33539568D02*
X43517424Y-33444330D01*
X43517424Y-33444330D02*
X43469804Y-33396711D01*
X43469804Y-33396711D02*
X43374566Y-33349092D01*
X43374566Y-33349092D02*
X43184090Y-33349092D01*
X43184090Y-33349092D02*
X43088852Y-33396711D01*
X43088852Y-33396711D02*
X43041233Y-33444330D01*
X43041233Y-33444330D02*
X42993614Y-33539568D01*
X42565043Y-32491949D02*
X42565043Y-32682425D01*
X42565043Y-32682425D02*
X42612662Y-32777663D01*
X42612662Y-32777663D02*
X42660281Y-32825282D01*
X42660281Y-32825282D02*
X42803138Y-32920520D01*
X42803138Y-32920520D02*
X42993614Y-32968139D01*
X42993614Y-32968139D02*
X43374566Y-32968139D01*
X43374566Y-32968139D02*
X43469804Y-32920520D01*
X43469804Y-32920520D02*
X43517424Y-32872901D01*
X43517424Y-32872901D02*
X43565043Y-32777663D01*
X43565043Y-32777663D02*
X43565043Y-32587187D01*
X43565043Y-32587187D02*
X43517424Y-32491949D01*
X43517424Y-32491949D02*
X43469804Y-32444330D01*
X43469804Y-32444330D02*
X43374566Y-32396711D01*
X43374566Y-32396711D02*
X43136471Y-32396711D01*
X43136471Y-32396711D02*
X43041233Y-32444330D01*
X43041233Y-32444330D02*
X42993614Y-32491949D01*
X42993614Y-32491949D02*
X42945995Y-32587187D01*
X42945995Y-32587187D02*
X42945995Y-32777663D01*
X42945995Y-32777663D02*
X42993614Y-32872901D01*
X42993614Y-32872901D02*
X43041233Y-32920520D01*
X43041233Y-32920520D02*
X43136471Y-32968139D01*
X45174987Y-39158615D02*
X45174987Y-39634805D01*
X45174987Y-39634805D02*
X44174987Y-39634805D01*
X45127368Y-38872900D02*
X45174987Y-38730043D01*
X45174987Y-38730043D02*
X45174987Y-38491948D01*
X45174987Y-38491948D02*
X45127368Y-38396710D01*
X45127368Y-38396710D02*
X45079748Y-38349091D01*
X45079748Y-38349091D02*
X44984510Y-38301472D01*
X44984510Y-38301472D02*
X44889272Y-38301472D01*
X44889272Y-38301472D02*
X44794034Y-38349091D01*
X44794034Y-38349091D02*
X44746415Y-38396710D01*
X44746415Y-38396710D02*
X44698796Y-38491948D01*
X44698796Y-38491948D02*
X44651177Y-38682424D01*
X44651177Y-38682424D02*
X44603558Y-38777662D01*
X44603558Y-38777662D02*
X44555939Y-38825281D01*
X44555939Y-38825281D02*
X44460701Y-38872900D01*
X44460701Y-38872900D02*
X44365463Y-38872900D01*
X44365463Y-38872900D02*
X44270225Y-38825281D01*
X44270225Y-38825281D02*
X44222606Y-38777662D01*
X44222606Y-38777662D02*
X44174987Y-38682424D01*
X44174987Y-38682424D02*
X44174987Y-38444329D01*
X44174987Y-38444329D02*
X44222606Y-38301472D01*
X45174987Y-37872900D02*
X44174987Y-37872900D01*
X44174987Y-37872900D02*
X44889272Y-37539567D01*
X44889272Y-37539567D02*
X44174987Y-37206234D01*
X44174987Y-37206234D02*
X45174987Y-37206234D01*
X44174987Y-36301472D02*
X44174987Y-36491948D01*
X44174987Y-36491948D02*
X44222606Y-36587186D01*
X44222606Y-36587186D02*
X44270225Y-36634805D01*
X44270225Y-36634805D02*
X44413082Y-36730043D01*
X44413082Y-36730043D02*
X44603558Y-36777662D01*
X44603558Y-36777662D02*
X44984510Y-36777662D01*
X44984510Y-36777662D02*
X45079748Y-36730043D01*
X45079748Y-36730043D02*
X45127368Y-36682424D01*
X45127368Y-36682424D02*
X45174987Y-36587186D01*
X45174987Y-36587186D02*
X45174987Y-36396710D01*
X45174987Y-36396710D02*
X45127368Y-36301472D01*
X45127368Y-36301472D02*
X45079748Y-36253853D01*
X45079748Y-36253853D02*
X44984510Y-36206234D01*
X44984510Y-36206234D02*
X44746415Y-36206234D01*
X44746415Y-36206234D02*
X44651177Y-36253853D01*
X44651177Y-36253853D02*
X44603558Y-36301472D01*
X44603558Y-36301472D02*
X44555939Y-36396710D01*
X44555939Y-36396710D02*
X44555939Y-36587186D01*
X44555939Y-36587186D02*
X44603558Y-36682424D01*
X44603558Y-36682424D02*
X44651177Y-36730043D01*
X44651177Y-36730043D02*
X44746415Y-36777662D01*
X45174987Y-35777662D02*
X44174987Y-35777662D01*
X44174987Y-35777662D02*
X44174987Y-35539567D01*
X44174987Y-35539567D02*
X44222606Y-35396710D01*
X44222606Y-35396710D02*
X44317844Y-35301472D01*
X44317844Y-35301472D02*
X44413082Y-35253853D01*
X44413082Y-35253853D02*
X44603558Y-35206234D01*
X44603558Y-35206234D02*
X44746415Y-35206234D01*
X44746415Y-35206234D02*
X44936891Y-35253853D01*
X44936891Y-35253853D02*
X45032129Y-35301472D01*
X45032129Y-35301472D02*
X45127368Y-35396710D01*
X45127368Y-35396710D02*
X45174987Y-35539567D01*
X45174987Y-35539567D02*
X45174987Y-35777662D01*
X45127368Y-34825281D02*
X45174987Y-34682424D01*
X45174987Y-34682424D02*
X45174987Y-34444329D01*
X45174987Y-34444329D02*
X45127368Y-34349091D01*
X45127368Y-34349091D02*
X45079748Y-34301472D01*
X45079748Y-34301472D02*
X44984510Y-34253853D01*
X44984510Y-34253853D02*
X44889272Y-34253853D01*
X44889272Y-34253853D02*
X44794034Y-34301472D01*
X44794034Y-34301472D02*
X44746415Y-34349091D01*
X44746415Y-34349091D02*
X44698796Y-34444329D01*
X44698796Y-34444329D02*
X44651177Y-34634805D01*
X44651177Y-34634805D02*
X44603558Y-34730043D01*
X44603558Y-34730043D02*
X44555939Y-34777662D01*
X44555939Y-34777662D02*
X44460701Y-34825281D01*
X44460701Y-34825281D02*
X44365463Y-34825281D01*
X44365463Y-34825281D02*
X44270225Y-34777662D01*
X44270225Y-34777662D02*
X44222606Y-34730043D01*
X44222606Y-34730043D02*
X44174987Y-34634805D01*
X44174987Y-34634805D02*
X44174987Y-34396710D01*
X44174987Y-34396710D02*
X44222606Y-34253853D01*
X44174987Y-33968138D02*
X45174987Y-33634805D01*
X45174987Y-33634805D02*
X44174987Y-33301472D01*
X46784931Y-39158615D02*
X46784931Y-39634805D01*
X46784931Y-39634805D02*
X45784931Y-39634805D01*
X46737312Y-38872900D02*
X46784931Y-38730043D01*
X46784931Y-38730043D02*
X46784931Y-38491948D01*
X46784931Y-38491948D02*
X46737312Y-38396710D01*
X46737312Y-38396710D02*
X46689692Y-38349091D01*
X46689692Y-38349091D02*
X46594454Y-38301472D01*
X46594454Y-38301472D02*
X46499216Y-38301472D01*
X46499216Y-38301472D02*
X46403978Y-38349091D01*
X46403978Y-38349091D02*
X46356359Y-38396710D01*
X46356359Y-38396710D02*
X46308740Y-38491948D01*
X46308740Y-38491948D02*
X46261121Y-38682424D01*
X46261121Y-38682424D02*
X46213502Y-38777662D01*
X46213502Y-38777662D02*
X46165883Y-38825281D01*
X46165883Y-38825281D02*
X46070645Y-38872900D01*
X46070645Y-38872900D02*
X45975407Y-38872900D01*
X45975407Y-38872900D02*
X45880169Y-38825281D01*
X45880169Y-38825281D02*
X45832550Y-38777662D01*
X45832550Y-38777662D02*
X45784931Y-38682424D01*
X45784931Y-38682424D02*
X45784931Y-38444329D01*
X45784931Y-38444329D02*
X45832550Y-38301472D01*
X46784931Y-37872900D02*
X45784931Y-37872900D01*
X45784931Y-37872900D02*
X46499216Y-37539567D01*
X46499216Y-37539567D02*
X45784931Y-37206234D01*
X45784931Y-37206234D02*
X46784931Y-37206234D01*
X45784931Y-36301472D02*
X45784931Y-36491948D01*
X45784931Y-36491948D02*
X45832550Y-36587186D01*
X45832550Y-36587186D02*
X45880169Y-36634805D01*
X45880169Y-36634805D02*
X46023026Y-36730043D01*
X46023026Y-36730043D02*
X46213502Y-36777662D01*
X46213502Y-36777662D02*
X46594454Y-36777662D01*
X46594454Y-36777662D02*
X46689692Y-36730043D01*
X46689692Y-36730043D02*
X46737312Y-36682424D01*
X46737312Y-36682424D02*
X46784931Y-36587186D01*
X46784931Y-36587186D02*
X46784931Y-36396710D01*
X46784931Y-36396710D02*
X46737312Y-36301472D01*
X46737312Y-36301472D02*
X46689692Y-36253853D01*
X46689692Y-36253853D02*
X46594454Y-36206234D01*
X46594454Y-36206234D02*
X46356359Y-36206234D01*
X46356359Y-36206234D02*
X46261121Y-36253853D01*
X46261121Y-36253853D02*
X46213502Y-36301472D01*
X46213502Y-36301472D02*
X46165883Y-36396710D01*
X46165883Y-36396710D02*
X46165883Y-36587186D01*
X46165883Y-36587186D02*
X46213502Y-36682424D01*
X46213502Y-36682424D02*
X46261121Y-36730043D01*
X46261121Y-36730043D02*
X46356359Y-36777662D01*
X46784931Y-35777662D02*
X45784931Y-35777662D01*
X45784931Y-35777662D02*
X45784931Y-35539567D01*
X45784931Y-35539567D02*
X45832550Y-35396710D01*
X45832550Y-35396710D02*
X45927788Y-35301472D01*
X45927788Y-35301472D02*
X46023026Y-35253853D01*
X46023026Y-35253853D02*
X46213502Y-35206234D01*
X46213502Y-35206234D02*
X46356359Y-35206234D01*
X46356359Y-35206234D02*
X46546835Y-35253853D01*
X46546835Y-35253853D02*
X46642073Y-35301472D01*
X46642073Y-35301472D02*
X46737312Y-35396710D01*
X46737312Y-35396710D02*
X46784931Y-35539567D01*
X46784931Y-35539567D02*
X46784931Y-35777662D01*
X46737312Y-34825281D02*
X46784931Y-34682424D01*
X46784931Y-34682424D02*
X46784931Y-34444329D01*
X46784931Y-34444329D02*
X46737312Y-34349091D01*
X46737312Y-34349091D02*
X46689692Y-34301472D01*
X46689692Y-34301472D02*
X46594454Y-34253853D01*
X46594454Y-34253853D02*
X46499216Y-34253853D01*
X46499216Y-34253853D02*
X46403978Y-34301472D01*
X46403978Y-34301472D02*
X46356359Y-34349091D01*
X46356359Y-34349091D02*
X46308740Y-34444329D01*
X46308740Y-34444329D02*
X46261121Y-34634805D01*
X46261121Y-34634805D02*
X46213502Y-34730043D01*
X46213502Y-34730043D02*
X46165883Y-34777662D01*
X46165883Y-34777662D02*
X46070645Y-34825281D01*
X46070645Y-34825281D02*
X45975407Y-34825281D01*
X45975407Y-34825281D02*
X45880169Y-34777662D01*
X45880169Y-34777662D02*
X45832550Y-34730043D01*
X45832550Y-34730043D02*
X45784931Y-34634805D01*
X45784931Y-34634805D02*
X45784931Y-34396710D01*
X45784931Y-34396710D02*
X45832550Y-34253853D01*
X46784931Y-33253853D02*
X46308740Y-33587186D01*
X46784931Y-33825281D02*
X45784931Y-33825281D01*
X45784931Y-33825281D02*
X45784931Y-33444329D01*
X45784931Y-33444329D02*
X45832550Y-33349091D01*
X45832550Y-33349091D02*
X45880169Y-33301472D01*
X45880169Y-33301472D02*
X45975407Y-33253853D01*
X45975407Y-33253853D02*
X46118264Y-33253853D01*
X46118264Y-33253853D02*
X46213502Y-33301472D01*
X46213502Y-33301472D02*
X46261121Y-33349091D01*
X46261121Y-33349091D02*
X46308740Y-33444329D01*
X46308740Y-33444329D02*
X46308740Y-33825281D01*
X47871065Y-39301472D02*
X47918684Y-39158615D01*
X47918684Y-39158615D02*
X47966303Y-39110996D01*
X47966303Y-39110996D02*
X48061541Y-39063377D01*
X48061541Y-39063377D02*
X48204398Y-39063377D01*
X48204398Y-39063377D02*
X48299636Y-39110996D01*
X48299636Y-39110996D02*
X48347256Y-39158615D01*
X48347256Y-39158615D02*
X48394875Y-39253853D01*
X48394875Y-39253853D02*
X48394875Y-39634805D01*
X48394875Y-39634805D02*
X47394875Y-39634805D01*
X47394875Y-39634805D02*
X47394875Y-39301472D01*
X47394875Y-39301472D02*
X47442494Y-39206234D01*
X47442494Y-39206234D02*
X47490113Y-39158615D01*
X47490113Y-39158615D02*
X47585351Y-39110996D01*
X47585351Y-39110996D02*
X47680589Y-39110996D01*
X47680589Y-39110996D02*
X47775827Y-39158615D01*
X47775827Y-39158615D02*
X47823446Y-39206234D01*
X47823446Y-39206234D02*
X47871065Y-39301472D01*
X47871065Y-39301472D02*
X47871065Y-39634805D01*
X48394875Y-38634805D02*
X47394875Y-38634805D01*
X47394875Y-38634805D02*
X48109160Y-38301472D01*
X48109160Y-38301472D02*
X47394875Y-37968139D01*
X47394875Y-37968139D02*
X48394875Y-37968139D01*
X48394875Y-37491948D02*
X47394875Y-37491948D01*
X48394875Y-36491949D02*
X48394875Y-37063377D01*
X48394875Y-36777663D02*
X47394875Y-36777663D01*
X47394875Y-36777663D02*
X47537732Y-36872901D01*
X47537732Y-36872901D02*
X47632970Y-36968139D01*
X47632970Y-36968139D02*
X47680589Y-37063377D01*
X47394875Y-35634806D02*
X47394875Y-35825282D01*
X47394875Y-35825282D02*
X47442494Y-35920520D01*
X47442494Y-35920520D02*
X47490113Y-35968139D01*
X47490113Y-35968139D02*
X47632970Y-36063377D01*
X47632970Y-36063377D02*
X47823446Y-36110996D01*
X47823446Y-36110996D02*
X48204398Y-36110996D01*
X48204398Y-36110996D02*
X48299636Y-36063377D01*
X48299636Y-36063377D02*
X48347256Y-36015758D01*
X48347256Y-36015758D02*
X48394875Y-35920520D01*
X48394875Y-35920520D02*
X48394875Y-35730044D01*
X48394875Y-35730044D02*
X48347256Y-35634806D01*
X48347256Y-35634806D02*
X48299636Y-35587187D01*
X48299636Y-35587187D02*
X48204398Y-35539568D01*
X48204398Y-35539568D02*
X47966303Y-35539568D01*
X47966303Y-35539568D02*
X47871065Y-35587187D01*
X47871065Y-35587187D02*
X47823446Y-35634806D01*
X47823446Y-35634806D02*
X47775827Y-35730044D01*
X47775827Y-35730044D02*
X47775827Y-35920520D01*
X47775827Y-35920520D02*
X47823446Y-36015758D01*
X47823446Y-36015758D02*
X47871065Y-36063377D01*
X47871065Y-36063377D02*
X47966303Y-36110996D01*
X47394875Y-34920520D02*
X47394875Y-34825282D01*
X47394875Y-34825282D02*
X47442494Y-34730044D01*
X47442494Y-34730044D02*
X47490113Y-34682425D01*
X47490113Y-34682425D02*
X47585351Y-34634806D01*
X47585351Y-34634806D02*
X47775827Y-34587187D01*
X47775827Y-34587187D02*
X48013922Y-34587187D01*
X48013922Y-34587187D02*
X48204398Y-34634806D01*
X48204398Y-34634806D02*
X48299636Y-34682425D01*
X48299636Y-34682425D02*
X48347256Y-34730044D01*
X48347256Y-34730044D02*
X48394875Y-34825282D01*
X48394875Y-34825282D02*
X48394875Y-34920520D01*
X48394875Y-34920520D02*
X48347256Y-35015758D01*
X48347256Y-35015758D02*
X48299636Y-35063377D01*
X48299636Y-35063377D02*
X48204398Y-35110996D01*
X48204398Y-35110996D02*
X48013922Y-35158615D01*
X48013922Y-35158615D02*
X47775827Y-35158615D01*
X47775827Y-35158615D02*
X47585351Y-35110996D01*
X47585351Y-35110996D02*
X47490113Y-35063377D01*
X47490113Y-35063377D02*
X47442494Y-35015758D01*
X47442494Y-35015758D02*
X47394875Y-34920520D01*
X49004819Y-39491948D02*
X49242914Y-39491948D01*
X49147676Y-39730043D02*
X49242914Y-39491948D01*
X49242914Y-39491948D02*
X49147676Y-39253853D01*
X49433390Y-39634805D02*
X49242914Y-39491948D01*
X49242914Y-39491948D02*
X49433390Y-39349091D01*
X50004819Y-38872900D02*
X49004819Y-38872900D01*
X49004819Y-38872900D02*
X50004819Y-38301472D01*
X50004819Y-38301472D02*
X49004819Y-38301472D01*
X50004819Y-37682424D02*
X49957200Y-37777662D01*
X49957200Y-37777662D02*
X49909580Y-37825281D01*
X49909580Y-37825281D02*
X49814342Y-37872900D01*
X49814342Y-37872900D02*
X49528628Y-37872900D01*
X49528628Y-37872900D02*
X49433390Y-37825281D01*
X49433390Y-37825281D02*
X49385771Y-37777662D01*
X49385771Y-37777662D02*
X49338152Y-37682424D01*
X49338152Y-37682424D02*
X49338152Y-37539567D01*
X49338152Y-37539567D02*
X49385771Y-37444329D01*
X49385771Y-37444329D02*
X49433390Y-37396710D01*
X49433390Y-37396710D02*
X49528628Y-37349091D01*
X49528628Y-37349091D02*
X49814342Y-37349091D01*
X49814342Y-37349091D02*
X49909580Y-37396710D01*
X49909580Y-37396710D02*
X49957200Y-37444329D01*
X49957200Y-37444329D02*
X50004819Y-37539567D01*
X50004819Y-37539567D02*
X50004819Y-37682424D01*
X49338152Y-37063376D02*
X49338152Y-36682424D01*
X49004819Y-36920519D02*
X49861961Y-36920519D01*
X49861961Y-36920519D02*
X49957200Y-36872900D01*
X49957200Y-36872900D02*
X50004819Y-36777662D01*
X50004819Y-36777662D02*
X50004819Y-36682424D01*
X49957200Y-35968138D02*
X50004819Y-36063376D01*
X50004819Y-36063376D02*
X50004819Y-36253852D01*
X50004819Y-36253852D02*
X49957200Y-36349090D01*
X49957200Y-36349090D02*
X49861961Y-36396709D01*
X49861961Y-36396709D02*
X49481009Y-36396709D01*
X49481009Y-36396709D02*
X49385771Y-36349090D01*
X49385771Y-36349090D02*
X49338152Y-36253852D01*
X49338152Y-36253852D02*
X49338152Y-36063376D01*
X49338152Y-36063376D02*
X49385771Y-35968138D01*
X49385771Y-35968138D02*
X49481009Y-35920519D01*
X49481009Y-35920519D02*
X49576247Y-35920519D01*
X49576247Y-35920519D02*
X49671485Y-36396709D01*
X49004819Y-35349090D02*
X49242914Y-35349090D01*
X49147676Y-35587185D02*
X49242914Y-35349090D01*
X49242914Y-35349090D02*
X49147676Y-35110995D01*
X49433390Y-35491947D02*
X49242914Y-35349090D01*
X49242914Y-35349090D02*
X49433390Y-35206233D01*
X92088095Y-35754819D02*
X92088095Y-36564342D01*
X92088095Y-36564342D02*
X92135714Y-36659580D01*
X92135714Y-36659580D02*
X92183333Y-36707200D01*
X92183333Y-36707200D02*
X92278571Y-36754819D01*
X92278571Y-36754819D02*
X92469047Y-36754819D01*
X92469047Y-36754819D02*
X92564285Y-36707200D01*
X92564285Y-36707200D02*
X92611904Y-36659580D01*
X92611904Y-36659580D02*
X92659523Y-36564342D01*
X92659523Y-36564342D02*
X92659523Y-35754819D01*
X93659523Y-36754819D02*
X93088095Y-36754819D01*
X93373809Y-36754819D02*
X93373809Y-35754819D01*
X93373809Y-35754819D02*
X93278571Y-35897676D01*
X93278571Y-35897676D02*
X93183333Y-35992914D01*
X93183333Y-35992914D02*
X93088095Y-36040533D01*
X72343333Y-27604819D02*
X72010000Y-27128628D01*
X71771905Y-27604819D02*
X71771905Y-26604819D01*
X71771905Y-26604819D02*
X72152857Y-26604819D01*
X72152857Y-26604819D02*
X72248095Y-26652438D01*
X72248095Y-26652438D02*
X72295714Y-26700057D01*
X72295714Y-26700057D02*
X72343333Y-26795295D01*
X72343333Y-26795295D02*
X72343333Y-26938152D01*
X72343333Y-26938152D02*
X72295714Y-27033390D01*
X72295714Y-27033390D02*
X72248095Y-27081009D01*
X72248095Y-27081009D02*
X72152857Y-27128628D01*
X72152857Y-27128628D02*
X71771905Y-27128628D01*
X73200476Y-26938152D02*
X73200476Y-27604819D01*
X72962381Y-26557200D02*
X72724286Y-27271485D01*
X72724286Y-27271485D02*
X73343333Y-27271485D01*
X76559523Y-30754819D02*
X76083333Y-30754819D01*
X76083333Y-30754819D02*
X76035714Y-31231009D01*
X76035714Y-31231009D02*
X76083333Y-31183390D01*
X76083333Y-31183390D02*
X76178571Y-31135771D01*
X76178571Y-31135771D02*
X76416666Y-31135771D01*
X76416666Y-31135771D02*
X76511904Y-31183390D01*
X76511904Y-31183390D02*
X76559523Y-31231009D01*
X76559523Y-31231009D02*
X76607142Y-31326247D01*
X76607142Y-31326247D02*
X76607142Y-31564342D01*
X76607142Y-31564342D02*
X76559523Y-31659580D01*
X76559523Y-31659580D02*
X76511904Y-31707200D01*
X76511904Y-31707200D02*
X76416666Y-31754819D01*
X76416666Y-31754819D02*
X76178571Y-31754819D01*
X76178571Y-31754819D02*
X76083333Y-31707200D01*
X76083333Y-31707200D02*
X76035714Y-31659580D01*
X76892857Y-30754819D02*
X77226190Y-31754819D01*
X77226190Y-31754819D02*
X77559523Y-30754819D01*
X88166666Y-46404819D02*
X88166666Y-47119104D01*
X88166666Y-47119104D02*
X88119047Y-47261961D01*
X88119047Y-47261961D02*
X88023809Y-47357200D01*
X88023809Y-47357200D02*
X87880952Y-47404819D01*
X87880952Y-47404819D02*
X87785714Y-47404819D01*
X88595238Y-46500057D02*
X88642857Y-46452438D01*
X88642857Y-46452438D02*
X88738095Y-46404819D01*
X88738095Y-46404819D02*
X88976190Y-46404819D01*
X88976190Y-46404819D02*
X89071428Y-46452438D01*
X89071428Y-46452438D02*
X89119047Y-46500057D01*
X89119047Y-46500057D02*
X89166666Y-46595295D01*
X89166666Y-46595295D02*
X89166666Y-46690533D01*
X89166666Y-46690533D02*
X89119047Y-46833390D01*
X89119047Y-46833390D02*
X88547619Y-47404819D01*
X88547619Y-47404819D02*
X89166666Y-47404819D01*
X63454819Y-49816666D02*
X62978628Y-50149999D01*
X63454819Y-50388094D02*
X62454819Y-50388094D01*
X62454819Y-50388094D02*
X62454819Y-50007142D01*
X62454819Y-50007142D02*
X62502438Y-49911904D01*
X62502438Y-49911904D02*
X62550057Y-49864285D01*
X62550057Y-49864285D02*
X62645295Y-49816666D01*
X62645295Y-49816666D02*
X62788152Y-49816666D01*
X62788152Y-49816666D02*
X62883390Y-49864285D01*
X62883390Y-49864285D02*
X62931009Y-49911904D01*
X62931009Y-49911904D02*
X62978628Y-50007142D01*
X62978628Y-50007142D02*
X62978628Y-50388094D01*
X63454819Y-48864285D02*
X63454819Y-49435713D01*
X63454819Y-49149999D02*
X62454819Y-49149999D01*
X62454819Y-49149999D02*
X62597676Y-49245237D01*
X62597676Y-49245237D02*
X62692914Y-49340475D01*
X62692914Y-49340475D02*
X62740533Y-49435713D01*
X83711905Y-23404819D02*
X83711905Y-22404819D01*
X83711905Y-22404819D02*
X83950000Y-22404819D01*
X83950000Y-22404819D02*
X84092857Y-22452438D01*
X84092857Y-22452438D02*
X84188095Y-22547676D01*
X84188095Y-22547676D02*
X84235714Y-22642914D01*
X84235714Y-22642914D02*
X84283333Y-22833390D01*
X84283333Y-22833390D02*
X84283333Y-22976247D01*
X84283333Y-22976247D02*
X84235714Y-23166723D01*
X84235714Y-23166723D02*
X84188095Y-23261961D01*
X84188095Y-23261961D02*
X84092857Y-23357200D01*
X84092857Y-23357200D02*
X83950000Y-23404819D01*
X83950000Y-23404819D02*
X83711905Y-23404819D01*
X84664286Y-22500057D02*
X84711905Y-22452438D01*
X84711905Y-22452438D02*
X84807143Y-22404819D01*
X84807143Y-22404819D02*
X85045238Y-22404819D01*
X85045238Y-22404819D02*
X85140476Y-22452438D01*
X85140476Y-22452438D02*
X85188095Y-22500057D01*
X85188095Y-22500057D02*
X85235714Y-22595295D01*
X85235714Y-22595295D02*
X85235714Y-22690533D01*
X85235714Y-22690533D02*
X85188095Y-22833390D01*
X85188095Y-22833390D02*
X84616667Y-23404819D01*
X84616667Y-23404819D02*
X85235714Y-23404819D01*
X81004819Y-30616666D02*
X80528628Y-30949999D01*
X81004819Y-31188094D02*
X80004819Y-31188094D01*
X80004819Y-31188094D02*
X80004819Y-30807142D01*
X80004819Y-30807142D02*
X80052438Y-30711904D01*
X80052438Y-30711904D02*
X80100057Y-30664285D01*
X80100057Y-30664285D02*
X80195295Y-30616666D01*
X80195295Y-30616666D02*
X80338152Y-30616666D01*
X80338152Y-30616666D02*
X80433390Y-30664285D01*
X80433390Y-30664285D02*
X80481009Y-30711904D01*
X80481009Y-30711904D02*
X80528628Y-30807142D01*
X80528628Y-30807142D02*
X80528628Y-31188094D01*
X80004819Y-29711904D02*
X80004819Y-30188094D01*
X80004819Y-30188094D02*
X80481009Y-30235713D01*
X80481009Y-30235713D02*
X80433390Y-30188094D01*
X80433390Y-30188094D02*
X80385771Y-30092856D01*
X80385771Y-30092856D02*
X80385771Y-29854761D01*
X80385771Y-29854761D02*
X80433390Y-29759523D01*
X80433390Y-29759523D02*
X80481009Y-29711904D01*
X80481009Y-29711904D02*
X80576247Y-29664285D01*
X80576247Y-29664285D02*
X80814342Y-29664285D01*
X80814342Y-29664285D02*
X80909580Y-29711904D01*
X80909580Y-29711904D02*
X80957200Y-29759523D01*
X80957200Y-29759523D02*
X81004819Y-29854761D01*
X81004819Y-29854761D02*
X81004819Y-30092856D01*
X81004819Y-30092856D02*
X80957200Y-30188094D01*
X80957200Y-30188094D02*
X80909580Y-30235713D01*
X81366666Y-47104819D02*
X81366666Y-47819104D01*
X81366666Y-47819104D02*
X81319047Y-47961961D01*
X81319047Y-47961961D02*
X81223809Y-48057200D01*
X81223809Y-48057200D02*
X81080952Y-48104819D01*
X81080952Y-48104819D02*
X80985714Y-48104819D01*
X81747619Y-47104819D02*
X82366666Y-47104819D01*
X82366666Y-47104819D02*
X82033333Y-47485771D01*
X82033333Y-47485771D02*
X82176190Y-47485771D01*
X82176190Y-47485771D02*
X82271428Y-47533390D01*
X82271428Y-47533390D02*
X82319047Y-47581009D01*
X82319047Y-47581009D02*
X82366666Y-47676247D01*
X82366666Y-47676247D02*
X82366666Y-47914342D01*
X82366666Y-47914342D02*
X82319047Y-48009580D01*
X82319047Y-48009580D02*
X82271428Y-48057200D01*
X82271428Y-48057200D02*
X82176190Y-48104819D01*
X82176190Y-48104819D02*
X81890476Y-48104819D01*
X81890476Y-48104819D02*
X81795238Y-48057200D01*
X81795238Y-48057200D02*
X81747619Y-48009580D01*
X66251905Y-23394819D02*
X66251905Y-22394819D01*
X66251905Y-22394819D02*
X66490000Y-22394819D01*
X66490000Y-22394819D02*
X66632857Y-22442438D01*
X66632857Y-22442438D02*
X66728095Y-22537676D01*
X66728095Y-22537676D02*
X66775714Y-22632914D01*
X66775714Y-22632914D02*
X66823333Y-22823390D01*
X66823333Y-22823390D02*
X66823333Y-22966247D01*
X66823333Y-22966247D02*
X66775714Y-23156723D01*
X66775714Y-23156723D02*
X66728095Y-23251961D01*
X66728095Y-23251961D02*
X66632857Y-23347200D01*
X66632857Y-23347200D02*
X66490000Y-23394819D01*
X66490000Y-23394819D02*
X66251905Y-23394819D01*
X67156667Y-22394819D02*
X67775714Y-22394819D01*
X67775714Y-22394819D02*
X67442381Y-22775771D01*
X67442381Y-22775771D02*
X67585238Y-22775771D01*
X67585238Y-22775771D02*
X67680476Y-22823390D01*
X67680476Y-22823390D02*
X67728095Y-22871009D01*
X67728095Y-22871009D02*
X67775714Y-22966247D01*
X67775714Y-22966247D02*
X67775714Y-23204342D01*
X67775714Y-23204342D02*
X67728095Y-23299580D01*
X67728095Y-23299580D02*
X67680476Y-23347200D01*
X67680476Y-23347200D02*
X67585238Y-23394819D01*
X67585238Y-23394819D02*
X67299524Y-23394819D01*
X67299524Y-23394819D02*
X67204286Y-23347200D01*
X67204286Y-23347200D02*
X67156667Y-23299580D01*
X59023333Y-31829580D02*
X58975714Y-31877200D01*
X58975714Y-31877200D02*
X58832857Y-31924819D01*
X58832857Y-31924819D02*
X58737619Y-31924819D01*
X58737619Y-31924819D02*
X58594762Y-31877200D01*
X58594762Y-31877200D02*
X58499524Y-31781961D01*
X58499524Y-31781961D02*
X58451905Y-31686723D01*
X58451905Y-31686723D02*
X58404286Y-31496247D01*
X58404286Y-31496247D02*
X58404286Y-31353390D01*
X58404286Y-31353390D02*
X58451905Y-31162914D01*
X58451905Y-31162914D02*
X58499524Y-31067676D01*
X58499524Y-31067676D02*
X58594762Y-30972438D01*
X58594762Y-30972438D02*
X58737619Y-30924819D01*
X58737619Y-30924819D02*
X58832857Y-30924819D01*
X58832857Y-30924819D02*
X58975714Y-30972438D01*
X58975714Y-30972438D02*
X59023333Y-31020057D01*
X59880476Y-31258152D02*
X59880476Y-31924819D01*
X59642381Y-30877200D02*
X59404286Y-31591485D01*
X59404286Y-31591485D02*
X60023333Y-31591485D01*
X69023333Y-29894819D02*
X68690000Y-29418628D01*
X68451905Y-29894819D02*
X68451905Y-28894819D01*
X68451905Y-28894819D02*
X68832857Y-28894819D01*
X68832857Y-28894819D02*
X68928095Y-28942438D01*
X68928095Y-28942438D02*
X68975714Y-28990057D01*
X68975714Y-28990057D02*
X69023333Y-29085295D01*
X69023333Y-29085295D02*
X69023333Y-29228152D01*
X69023333Y-29228152D02*
X68975714Y-29323390D01*
X68975714Y-29323390D02*
X68928095Y-29371009D01*
X68928095Y-29371009D02*
X68832857Y-29418628D01*
X68832857Y-29418628D02*
X68451905Y-29418628D01*
X69594762Y-29323390D02*
X69499524Y-29275771D01*
X69499524Y-29275771D02*
X69451905Y-29228152D01*
X69451905Y-29228152D02*
X69404286Y-29132914D01*
X69404286Y-29132914D02*
X69404286Y-29085295D01*
X69404286Y-29085295D02*
X69451905Y-28990057D01*
X69451905Y-28990057D02*
X69499524Y-28942438D01*
X69499524Y-28942438D02*
X69594762Y-28894819D01*
X69594762Y-28894819D02*
X69785238Y-28894819D01*
X69785238Y-28894819D02*
X69880476Y-28942438D01*
X69880476Y-28942438D02*
X69928095Y-28990057D01*
X69928095Y-28990057D02*
X69975714Y-29085295D01*
X69975714Y-29085295D02*
X69975714Y-29132914D01*
X69975714Y-29132914D02*
X69928095Y-29228152D01*
X69928095Y-29228152D02*
X69880476Y-29275771D01*
X69880476Y-29275771D02*
X69785238Y-29323390D01*
X69785238Y-29323390D02*
X69594762Y-29323390D01*
X69594762Y-29323390D02*
X69499524Y-29371009D01*
X69499524Y-29371009D02*
X69451905Y-29418628D01*
X69451905Y-29418628D02*
X69404286Y-29513866D01*
X69404286Y-29513866D02*
X69404286Y-29704342D01*
X69404286Y-29704342D02*
X69451905Y-29799580D01*
X69451905Y-29799580D02*
X69499524Y-29847200D01*
X69499524Y-29847200D02*
X69594762Y-29894819D01*
X69594762Y-29894819D02*
X69785238Y-29894819D01*
X69785238Y-29894819D02*
X69880476Y-29847200D01*
X69880476Y-29847200D02*
X69928095Y-29799580D01*
X69928095Y-29799580D02*
X69975714Y-29704342D01*
X69975714Y-29704342D02*
X69975714Y-29513866D01*
X69975714Y-29513866D02*
X69928095Y-29418628D01*
X69928095Y-29418628D02*
X69880476Y-29371009D01*
X69880476Y-29371009D02*
X69785238Y-29323390D01*
X93357142Y-31304819D02*
X93023809Y-30828628D01*
X92785714Y-31304819D02*
X92785714Y-30304819D01*
X92785714Y-30304819D02*
X93166666Y-30304819D01*
X93166666Y-30304819D02*
X93261904Y-30352438D01*
X93261904Y-30352438D02*
X93309523Y-30400057D01*
X93309523Y-30400057D02*
X93357142Y-30495295D01*
X93357142Y-30495295D02*
X93357142Y-30638152D01*
X93357142Y-30638152D02*
X93309523Y-30733390D01*
X93309523Y-30733390D02*
X93261904Y-30781009D01*
X93261904Y-30781009D02*
X93166666Y-30828628D01*
X93166666Y-30828628D02*
X92785714Y-30828628D01*
X94309523Y-31304819D02*
X93738095Y-31304819D01*
X94023809Y-31304819D02*
X94023809Y-30304819D01*
X94023809Y-30304819D02*
X93928571Y-30447676D01*
X93928571Y-30447676D02*
X93833333Y-30542914D01*
X93833333Y-30542914D02*
X93738095Y-30590533D01*
X95261904Y-31304819D02*
X94690476Y-31304819D01*
X94976190Y-31304819D02*
X94976190Y-30304819D01*
X94976190Y-30304819D02*
X94880952Y-30447676D01*
X94880952Y-30447676D02*
X94785714Y-30542914D01*
X94785714Y-30542914D02*
X94690476Y-30590533D01*
X82958333Y-59134580D02*
X82910714Y-59182200D01*
X82910714Y-59182200D02*
X82767857Y-59229819D01*
X82767857Y-59229819D02*
X82672619Y-59229819D01*
X82672619Y-59229819D02*
X82529762Y-59182200D01*
X82529762Y-59182200D02*
X82434524Y-59086961D01*
X82434524Y-59086961D02*
X82386905Y-58991723D01*
X82386905Y-58991723D02*
X82339286Y-58801247D01*
X82339286Y-58801247D02*
X82339286Y-58658390D01*
X82339286Y-58658390D02*
X82386905Y-58467914D01*
X82386905Y-58467914D02*
X82434524Y-58372676D01*
X82434524Y-58372676D02*
X82529762Y-58277438D01*
X82529762Y-58277438D02*
X82672619Y-58229819D01*
X82672619Y-58229819D02*
X82767857Y-58229819D01*
X82767857Y-58229819D02*
X82910714Y-58277438D01*
X82910714Y-58277438D02*
X82958333Y-58325057D01*
X83434524Y-59229819D02*
X83625000Y-59229819D01*
X83625000Y-59229819D02*
X83720238Y-59182200D01*
X83720238Y-59182200D02*
X83767857Y-59134580D01*
X83767857Y-59134580D02*
X83863095Y-58991723D01*
X83863095Y-58991723D02*
X83910714Y-58801247D01*
X83910714Y-58801247D02*
X83910714Y-58420295D01*
X83910714Y-58420295D02*
X83863095Y-58325057D01*
X83863095Y-58325057D02*
X83815476Y-58277438D01*
X83815476Y-58277438D02*
X83720238Y-58229819D01*
X83720238Y-58229819D02*
X83529762Y-58229819D01*
X83529762Y-58229819D02*
X83434524Y-58277438D01*
X83434524Y-58277438D02*
X83386905Y-58325057D01*
X83386905Y-58325057D02*
X83339286Y-58420295D01*
X83339286Y-58420295D02*
X83339286Y-58658390D01*
X83339286Y-58658390D02*
X83386905Y-58753628D01*
X83386905Y-58753628D02*
X83434524Y-58801247D01*
X83434524Y-58801247D02*
X83529762Y-58848866D01*
X83529762Y-58848866D02*
X83720238Y-58848866D01*
X83720238Y-58848866D02*
X83815476Y-58801247D01*
X83815476Y-58801247D02*
X83863095Y-58753628D01*
X83863095Y-58753628D02*
X83910714Y-58658390D01*
X86133333Y-30904819D02*
X85800000Y-30428628D01*
X85561905Y-30904819D02*
X85561905Y-29904819D01*
X85561905Y-29904819D02*
X85942857Y-29904819D01*
X85942857Y-29904819D02*
X86038095Y-29952438D01*
X86038095Y-29952438D02*
X86085714Y-30000057D01*
X86085714Y-30000057D02*
X86133333Y-30095295D01*
X86133333Y-30095295D02*
X86133333Y-30238152D01*
X86133333Y-30238152D02*
X86085714Y-30333390D01*
X86085714Y-30333390D02*
X86038095Y-30381009D01*
X86038095Y-30381009D02*
X85942857Y-30428628D01*
X85942857Y-30428628D02*
X85561905Y-30428628D01*
X86990476Y-29904819D02*
X86800000Y-29904819D01*
X86800000Y-29904819D02*
X86704762Y-29952438D01*
X86704762Y-29952438D02*
X86657143Y-30000057D01*
X86657143Y-30000057D02*
X86561905Y-30142914D01*
X86561905Y-30142914D02*
X86514286Y-30333390D01*
X86514286Y-30333390D02*
X86514286Y-30714342D01*
X86514286Y-30714342D02*
X86561905Y-30809580D01*
X86561905Y-30809580D02*
X86609524Y-30857200D01*
X86609524Y-30857200D02*
X86704762Y-30904819D01*
X86704762Y-30904819D02*
X86895238Y-30904819D01*
X86895238Y-30904819D02*
X86990476Y-30857200D01*
X86990476Y-30857200D02*
X87038095Y-30809580D01*
X87038095Y-30809580D02*
X87085714Y-30714342D01*
X87085714Y-30714342D02*
X87085714Y-30476247D01*
X87085714Y-30476247D02*
X87038095Y-30381009D01*
X87038095Y-30381009D02*
X86990476Y-30333390D01*
X86990476Y-30333390D02*
X86895238Y-30285771D01*
X86895238Y-30285771D02*
X86704762Y-30285771D01*
X86704762Y-30285771D02*
X86609524Y-30333390D01*
X86609524Y-30333390D02*
X86561905Y-30381009D01*
X86561905Y-30381009D02*
X86514286Y-30476247D01*
X89408333Y-34464580D02*
X89360714Y-34512200D01*
X89360714Y-34512200D02*
X89217857Y-34559819D01*
X89217857Y-34559819D02*
X89122619Y-34559819D01*
X89122619Y-34559819D02*
X88979762Y-34512200D01*
X88979762Y-34512200D02*
X88884524Y-34416961D01*
X88884524Y-34416961D02*
X88836905Y-34321723D01*
X88836905Y-34321723D02*
X88789286Y-34131247D01*
X88789286Y-34131247D02*
X88789286Y-33988390D01*
X88789286Y-33988390D02*
X88836905Y-33797914D01*
X88836905Y-33797914D02*
X88884524Y-33702676D01*
X88884524Y-33702676D02*
X88979762Y-33607438D01*
X88979762Y-33607438D02*
X89122619Y-33559819D01*
X89122619Y-33559819D02*
X89217857Y-33559819D01*
X89217857Y-33559819D02*
X89360714Y-33607438D01*
X89360714Y-33607438D02*
X89408333Y-33655057D01*
X89979762Y-33988390D02*
X89884524Y-33940771D01*
X89884524Y-33940771D02*
X89836905Y-33893152D01*
X89836905Y-33893152D02*
X89789286Y-33797914D01*
X89789286Y-33797914D02*
X89789286Y-33750295D01*
X89789286Y-33750295D02*
X89836905Y-33655057D01*
X89836905Y-33655057D02*
X89884524Y-33607438D01*
X89884524Y-33607438D02*
X89979762Y-33559819D01*
X89979762Y-33559819D02*
X90170238Y-33559819D01*
X90170238Y-33559819D02*
X90265476Y-33607438D01*
X90265476Y-33607438D02*
X90313095Y-33655057D01*
X90313095Y-33655057D02*
X90360714Y-33750295D01*
X90360714Y-33750295D02*
X90360714Y-33797914D01*
X90360714Y-33797914D02*
X90313095Y-33893152D01*
X90313095Y-33893152D02*
X90265476Y-33940771D01*
X90265476Y-33940771D02*
X90170238Y-33988390D01*
X90170238Y-33988390D02*
X89979762Y-33988390D01*
X89979762Y-33988390D02*
X89884524Y-34036009D01*
X89884524Y-34036009D02*
X89836905Y-34083628D01*
X89836905Y-34083628D02*
X89789286Y-34178866D01*
X89789286Y-34178866D02*
X89789286Y-34369342D01*
X89789286Y-34369342D02*
X89836905Y-34464580D01*
X89836905Y-34464580D02*
X89884524Y-34512200D01*
X89884524Y-34512200D02*
X89979762Y-34559819D01*
X89979762Y-34559819D02*
X90170238Y-34559819D01*
X90170238Y-34559819D02*
X90265476Y-34512200D01*
X90265476Y-34512200D02*
X90313095Y-34464580D01*
X90313095Y-34464580D02*
X90360714Y-34369342D01*
X90360714Y-34369342D02*
X90360714Y-34178866D01*
X90360714Y-34178866D02*
X90313095Y-34083628D01*
X90313095Y-34083628D02*
X90265476Y-34036009D01*
X90265476Y-34036009D02*
X90170238Y-33988390D01*
X36838095Y-27752438D02*
X36742857Y-27704819D01*
X36742857Y-27704819D02*
X36600000Y-27704819D01*
X36600000Y-27704819D02*
X36457143Y-27752438D01*
X36457143Y-27752438D02*
X36361905Y-27847676D01*
X36361905Y-27847676D02*
X36314286Y-27942914D01*
X36314286Y-27942914D02*
X36266667Y-28133390D01*
X36266667Y-28133390D02*
X36266667Y-28276247D01*
X36266667Y-28276247D02*
X36314286Y-28466723D01*
X36314286Y-28466723D02*
X36361905Y-28561961D01*
X36361905Y-28561961D02*
X36457143Y-28657200D01*
X36457143Y-28657200D02*
X36600000Y-28704819D01*
X36600000Y-28704819D02*
X36695238Y-28704819D01*
X36695238Y-28704819D02*
X36838095Y-28657200D01*
X36838095Y-28657200D02*
X36885714Y-28609580D01*
X36885714Y-28609580D02*
X36885714Y-28276247D01*
X36885714Y-28276247D02*
X36695238Y-28276247D01*
X37314286Y-28704819D02*
X37314286Y-27704819D01*
X37314286Y-27704819D02*
X37885714Y-28704819D01*
X37885714Y-28704819D02*
X37885714Y-27704819D01*
X38361905Y-28704819D02*
X38361905Y-27704819D01*
X38361905Y-27704819D02*
X38600000Y-27704819D01*
X38600000Y-27704819D02*
X38742857Y-27752438D01*
X38742857Y-27752438D02*
X38838095Y-27847676D01*
X38838095Y-27847676D02*
X38885714Y-27942914D01*
X38885714Y-27942914D02*
X38933333Y-28133390D01*
X38933333Y-28133390D02*
X38933333Y-28276247D01*
X38933333Y-28276247D02*
X38885714Y-28466723D01*
X38885714Y-28466723D02*
X38838095Y-28561961D01*
X38838095Y-28561961D02*
X38742857Y-28657200D01*
X38742857Y-28657200D02*
X38600000Y-28704819D01*
X38600000Y-28704819D02*
X38361905Y-28704819D01*
X72298095Y-30852438D02*
X72202857Y-30804819D01*
X72202857Y-30804819D02*
X72060000Y-30804819D01*
X72060000Y-30804819D02*
X71917143Y-30852438D01*
X71917143Y-30852438D02*
X71821905Y-30947676D01*
X71821905Y-30947676D02*
X71774286Y-31042914D01*
X71774286Y-31042914D02*
X71726667Y-31233390D01*
X71726667Y-31233390D02*
X71726667Y-31376247D01*
X71726667Y-31376247D02*
X71774286Y-31566723D01*
X71774286Y-31566723D02*
X71821905Y-31661961D01*
X71821905Y-31661961D02*
X71917143Y-31757200D01*
X71917143Y-31757200D02*
X72060000Y-31804819D01*
X72060000Y-31804819D02*
X72155238Y-31804819D01*
X72155238Y-31804819D02*
X72298095Y-31757200D01*
X72298095Y-31757200D02*
X72345714Y-31709580D01*
X72345714Y-31709580D02*
X72345714Y-31376247D01*
X72345714Y-31376247D02*
X72155238Y-31376247D01*
X72774286Y-31804819D02*
X72774286Y-30804819D01*
X72774286Y-30804819D02*
X73345714Y-31804819D01*
X73345714Y-31804819D02*
X73345714Y-30804819D01*
X73821905Y-31804819D02*
X73821905Y-30804819D01*
X73821905Y-30804819D02*
X74060000Y-30804819D01*
X74060000Y-30804819D02*
X74202857Y-30852438D01*
X74202857Y-30852438D02*
X74298095Y-30947676D01*
X74298095Y-30947676D02*
X74345714Y-31042914D01*
X74345714Y-31042914D02*
X74393333Y-31233390D01*
X74393333Y-31233390D02*
X74393333Y-31376247D01*
X74393333Y-31376247D02*
X74345714Y-31566723D01*
X74345714Y-31566723D02*
X74298095Y-31661961D01*
X74298095Y-31661961D02*
X74202857Y-31757200D01*
X74202857Y-31757200D02*
X74060000Y-31804819D01*
X74060000Y-31804819D02*
X73821905Y-31804819D01*
X52076037Y-41916666D02*
X52123656Y-41773809D01*
X52123656Y-41773809D02*
X52171275Y-41726190D01*
X52171275Y-41726190D02*
X52266513Y-41678571D01*
X52266513Y-41678571D02*
X52409370Y-41678571D01*
X52409370Y-41678571D02*
X52504608Y-41726190D01*
X52504608Y-41726190D02*
X52552228Y-41773809D01*
X52552228Y-41773809D02*
X52599847Y-41869047D01*
X52599847Y-41869047D02*
X52599847Y-42249999D01*
X52599847Y-42249999D02*
X51599847Y-42249999D01*
X51599847Y-42249999D02*
X51599847Y-41916666D01*
X51599847Y-41916666D02*
X51647466Y-41821428D01*
X51647466Y-41821428D02*
X51695085Y-41773809D01*
X51695085Y-41773809D02*
X51790323Y-41726190D01*
X51790323Y-41726190D02*
X51885561Y-41726190D01*
X51885561Y-41726190D02*
X51980799Y-41773809D01*
X51980799Y-41773809D02*
X52028418Y-41821428D01*
X52028418Y-41821428D02*
X52076037Y-41916666D01*
X52076037Y-41916666D02*
X52076037Y-42249999D01*
X52599847Y-41249999D02*
X51599847Y-41249999D01*
X51599847Y-41249999D02*
X52314132Y-40916666D01*
X52314132Y-40916666D02*
X51599847Y-40583333D01*
X51599847Y-40583333D02*
X52599847Y-40583333D01*
X52599847Y-40107142D02*
X51599847Y-40107142D01*
X52599847Y-39107143D02*
X52599847Y-39678571D01*
X52599847Y-39392857D02*
X51599847Y-39392857D01*
X51599847Y-39392857D02*
X51742704Y-39488095D01*
X51742704Y-39488095D02*
X51837942Y-39583333D01*
X51837942Y-39583333D02*
X51885561Y-39678571D01*
X51599847Y-38250000D02*
X51599847Y-38440476D01*
X51599847Y-38440476D02*
X51647466Y-38535714D01*
X51647466Y-38535714D02*
X51695085Y-38583333D01*
X51695085Y-38583333D02*
X51837942Y-38678571D01*
X51837942Y-38678571D02*
X52028418Y-38726190D01*
X52028418Y-38726190D02*
X52409370Y-38726190D01*
X52409370Y-38726190D02*
X52504608Y-38678571D01*
X52504608Y-38678571D02*
X52552228Y-38630952D01*
X52552228Y-38630952D02*
X52599847Y-38535714D01*
X52599847Y-38535714D02*
X52599847Y-38345238D01*
X52599847Y-38345238D02*
X52552228Y-38250000D01*
X52552228Y-38250000D02*
X52504608Y-38202381D01*
X52504608Y-38202381D02*
X52409370Y-38154762D01*
X52409370Y-38154762D02*
X52171275Y-38154762D01*
X52171275Y-38154762D02*
X52076037Y-38202381D01*
X52076037Y-38202381D02*
X52028418Y-38250000D01*
X52028418Y-38250000D02*
X51980799Y-38345238D01*
X51980799Y-38345238D02*
X51980799Y-38535714D01*
X51980799Y-38535714D02*
X52028418Y-38630952D01*
X52028418Y-38630952D02*
X52076037Y-38678571D01*
X52076037Y-38678571D02*
X52171275Y-38726190D01*
X51599847Y-37535714D02*
X51599847Y-37440476D01*
X51599847Y-37440476D02*
X51647466Y-37345238D01*
X51647466Y-37345238D02*
X51695085Y-37297619D01*
X51695085Y-37297619D02*
X51790323Y-37250000D01*
X51790323Y-37250000D02*
X51980799Y-37202381D01*
X51980799Y-37202381D02*
X52218894Y-37202381D01*
X52218894Y-37202381D02*
X52409370Y-37250000D01*
X52409370Y-37250000D02*
X52504608Y-37297619D01*
X52504608Y-37297619D02*
X52552228Y-37345238D01*
X52552228Y-37345238D02*
X52599847Y-37440476D01*
X52599847Y-37440476D02*
X52599847Y-37535714D01*
X52599847Y-37535714D02*
X52552228Y-37630952D01*
X52552228Y-37630952D02*
X52504608Y-37678571D01*
X52504608Y-37678571D02*
X52409370Y-37726190D01*
X52409370Y-37726190D02*
X52218894Y-37773809D01*
X52218894Y-37773809D02*
X51980799Y-37773809D01*
X51980799Y-37773809D02*
X51790323Y-37726190D01*
X51790323Y-37726190D02*
X51695085Y-37678571D01*
X51695085Y-37678571D02*
X51647466Y-37630952D01*
X51647466Y-37630952D02*
X51599847Y-37535714D01*
X53543124Y-42440475D02*
X53543124Y-41726190D01*
X53114552Y-42154761D02*
X54400267Y-42440475D01*
X53971695Y-41821428D02*
X53971695Y-42535713D01*
X54400267Y-42107142D02*
X53114552Y-41821428D01*
X53305029Y-41440475D02*
X53257410Y-41392856D01*
X53257410Y-41392856D02*
X53209791Y-41297618D01*
X53209791Y-41297618D02*
X53209791Y-41059523D01*
X53209791Y-41059523D02*
X53257410Y-40964285D01*
X53257410Y-40964285D02*
X53305029Y-40916666D01*
X53305029Y-40916666D02*
X53400267Y-40869047D01*
X53400267Y-40869047D02*
X53495505Y-40869047D01*
X53495505Y-40869047D02*
X53638362Y-40916666D01*
X53638362Y-40916666D02*
X54209791Y-41488094D01*
X54209791Y-41488094D02*
X54209791Y-40869047D01*
X53257410Y-39154761D02*
X53209791Y-39249999D01*
X53209791Y-39249999D02*
X53209791Y-39392856D01*
X53209791Y-39392856D02*
X53257410Y-39535713D01*
X53257410Y-39535713D02*
X53352648Y-39630951D01*
X53352648Y-39630951D02*
X53447886Y-39678570D01*
X53447886Y-39678570D02*
X53638362Y-39726189D01*
X53638362Y-39726189D02*
X53781219Y-39726189D01*
X53781219Y-39726189D02*
X53971695Y-39678570D01*
X53971695Y-39678570D02*
X54066933Y-39630951D01*
X54066933Y-39630951D02*
X54162172Y-39535713D01*
X54162172Y-39535713D02*
X54209791Y-39392856D01*
X54209791Y-39392856D02*
X54209791Y-39297618D01*
X54209791Y-39297618D02*
X54162172Y-39154761D01*
X54162172Y-39154761D02*
X54114552Y-39107142D01*
X54114552Y-39107142D02*
X53781219Y-39107142D01*
X53781219Y-39107142D02*
X53781219Y-39297618D01*
X54209791Y-38678570D02*
X53209791Y-38678570D01*
X53209791Y-38678570D02*
X54209791Y-38107142D01*
X54209791Y-38107142D02*
X53209791Y-38107142D01*
X54209791Y-37630951D02*
X53209791Y-37630951D01*
X53209791Y-37630951D02*
X53209791Y-37392856D01*
X53209791Y-37392856D02*
X53257410Y-37249999D01*
X53257410Y-37249999D02*
X53352648Y-37154761D01*
X53352648Y-37154761D02*
X53447886Y-37107142D01*
X53447886Y-37107142D02*
X53638362Y-37059523D01*
X53638362Y-37059523D02*
X53781219Y-37059523D01*
X53781219Y-37059523D02*
X53971695Y-37107142D01*
X53971695Y-37107142D02*
X54066933Y-37154761D01*
X54066933Y-37154761D02*
X54162172Y-37249999D01*
X54162172Y-37249999D02*
X54209791Y-37392856D01*
X54209791Y-37392856D02*
X54209791Y-37630951D01*
X81639580Y-60486666D02*
X81687200Y-60534285D01*
X81687200Y-60534285D02*
X81734819Y-60677142D01*
X81734819Y-60677142D02*
X81734819Y-60772380D01*
X81734819Y-60772380D02*
X81687200Y-60915237D01*
X81687200Y-60915237D02*
X81591961Y-61010475D01*
X81591961Y-61010475D02*
X81496723Y-61058094D01*
X81496723Y-61058094D02*
X81306247Y-61105713D01*
X81306247Y-61105713D02*
X81163390Y-61105713D01*
X81163390Y-61105713D02*
X80972914Y-61058094D01*
X80972914Y-61058094D02*
X80877676Y-61010475D01*
X80877676Y-61010475D02*
X80782438Y-60915237D01*
X80782438Y-60915237D02*
X80734819Y-60772380D01*
X80734819Y-60772380D02*
X80734819Y-60677142D01*
X80734819Y-60677142D02*
X80782438Y-60534285D01*
X80782438Y-60534285D02*
X80830057Y-60486666D01*
X80734819Y-59581904D02*
X80734819Y-60058094D01*
X80734819Y-60058094D02*
X81211009Y-60105713D01*
X81211009Y-60105713D02*
X81163390Y-60058094D01*
X81163390Y-60058094D02*
X81115771Y-59962856D01*
X81115771Y-59962856D02*
X81115771Y-59724761D01*
X81115771Y-59724761D02*
X81163390Y-59629523D01*
X81163390Y-59629523D02*
X81211009Y-59581904D01*
X81211009Y-59581904D02*
X81306247Y-59534285D01*
X81306247Y-59534285D02*
X81544342Y-59534285D01*
X81544342Y-59534285D02*
X81639580Y-59581904D01*
X81639580Y-59581904D02*
X81687200Y-59629523D01*
X81687200Y-59629523D02*
X81734819Y-59724761D01*
X81734819Y-59724761D02*
X81734819Y-59962856D01*
X81734819Y-59962856D02*
X81687200Y-60058094D01*
X81687200Y-60058094D02*
X81639580Y-60105713D01*
X52261905Y-27654819D02*
X52880952Y-27654819D01*
X52880952Y-27654819D02*
X52547619Y-28035771D01*
X52547619Y-28035771D02*
X52690476Y-28035771D01*
X52690476Y-28035771D02*
X52785714Y-28083390D01*
X52785714Y-28083390D02*
X52833333Y-28131009D01*
X52833333Y-28131009D02*
X52880952Y-28226247D01*
X52880952Y-28226247D02*
X52880952Y-28464342D01*
X52880952Y-28464342D02*
X52833333Y-28559580D01*
X52833333Y-28559580D02*
X52785714Y-28607200D01*
X52785714Y-28607200D02*
X52690476Y-28654819D01*
X52690476Y-28654819D02*
X52404762Y-28654819D01*
X52404762Y-28654819D02*
X52309524Y-28607200D01*
X52309524Y-28607200D02*
X52261905Y-28559580D01*
X53166667Y-27654819D02*
X53500000Y-28654819D01*
X53500000Y-28654819D02*
X53833333Y-27654819D01*
X54071429Y-27654819D02*
X54690476Y-27654819D01*
X54690476Y-27654819D02*
X54357143Y-28035771D01*
X54357143Y-28035771D02*
X54500000Y-28035771D01*
X54500000Y-28035771D02*
X54595238Y-28083390D01*
X54595238Y-28083390D02*
X54642857Y-28131009D01*
X54642857Y-28131009D02*
X54690476Y-28226247D01*
X54690476Y-28226247D02*
X54690476Y-28464342D01*
X54690476Y-28464342D02*
X54642857Y-28559580D01*
X54642857Y-28559580D02*
X54595238Y-28607200D01*
X54595238Y-28607200D02*
X54500000Y-28654819D01*
X54500000Y-28654819D02*
X54214286Y-28654819D01*
X54214286Y-28654819D02*
X54119048Y-28607200D01*
X54119048Y-28607200D02*
X54071429Y-28559580D01*
X65404819Y-49916666D02*
X64928628Y-50249999D01*
X65404819Y-50488094D02*
X64404819Y-50488094D01*
X64404819Y-50488094D02*
X64404819Y-50107142D01*
X64404819Y-50107142D02*
X64452438Y-50011904D01*
X64452438Y-50011904D02*
X64500057Y-49964285D01*
X64500057Y-49964285D02*
X64595295Y-49916666D01*
X64595295Y-49916666D02*
X64738152Y-49916666D01*
X64738152Y-49916666D02*
X64833390Y-49964285D01*
X64833390Y-49964285D02*
X64881009Y-50011904D01*
X64881009Y-50011904D02*
X64928628Y-50107142D01*
X64928628Y-50107142D02*
X64928628Y-50488094D01*
X64500057Y-49535713D02*
X64452438Y-49488094D01*
X64452438Y-49488094D02*
X64404819Y-49392856D01*
X64404819Y-49392856D02*
X64404819Y-49154761D01*
X64404819Y-49154761D02*
X64452438Y-49059523D01*
X64452438Y-49059523D02*
X64500057Y-49011904D01*
X64500057Y-49011904D02*
X64595295Y-48964285D01*
X64595295Y-48964285D02*
X64690533Y-48964285D01*
X64690533Y-48964285D02*
X64833390Y-49011904D01*
X64833390Y-49011904D02*
X65404819Y-49583332D01*
X65404819Y-49583332D02*
X65404819Y-48964285D01*
X92361905Y-29204819D02*
X92361905Y-28204819D01*
X92361905Y-28204819D02*
X92600000Y-28204819D01*
X92600000Y-28204819D02*
X92742857Y-28252438D01*
X92742857Y-28252438D02*
X92838095Y-28347676D01*
X92838095Y-28347676D02*
X92885714Y-28442914D01*
X92885714Y-28442914D02*
X92933333Y-28633390D01*
X92933333Y-28633390D02*
X92933333Y-28776247D01*
X92933333Y-28776247D02*
X92885714Y-28966723D01*
X92885714Y-28966723D02*
X92838095Y-29061961D01*
X92838095Y-29061961D02*
X92742857Y-29157200D01*
X92742857Y-29157200D02*
X92600000Y-29204819D01*
X92600000Y-29204819D02*
X92361905Y-29204819D01*
X93790476Y-28538152D02*
X93790476Y-29204819D01*
X93552381Y-28157200D02*
X93314286Y-28871485D01*
X93314286Y-28871485D02*
X93933333Y-28871485D01*
X86708333Y-36454819D02*
X86375000Y-35978628D01*
X86136905Y-36454819D02*
X86136905Y-35454819D01*
X86136905Y-35454819D02*
X86517857Y-35454819D01*
X86517857Y-35454819D02*
X86613095Y-35502438D01*
X86613095Y-35502438D02*
X86660714Y-35550057D01*
X86660714Y-35550057D02*
X86708333Y-35645295D01*
X86708333Y-35645295D02*
X86708333Y-35788152D01*
X86708333Y-35788152D02*
X86660714Y-35883390D01*
X86660714Y-35883390D02*
X86613095Y-35931009D01*
X86613095Y-35931009D02*
X86517857Y-35978628D01*
X86517857Y-35978628D02*
X86136905Y-35978628D01*
X87041667Y-35454819D02*
X87708333Y-35454819D01*
X87708333Y-35454819D02*
X87279762Y-36454819D01*
X81211905Y-23404819D02*
X81211905Y-22404819D01*
X81211905Y-22404819D02*
X81450000Y-22404819D01*
X81450000Y-22404819D02*
X81592857Y-22452438D01*
X81592857Y-22452438D02*
X81688095Y-22547676D01*
X81688095Y-22547676D02*
X81735714Y-22642914D01*
X81735714Y-22642914D02*
X81783333Y-22833390D01*
X81783333Y-22833390D02*
X81783333Y-22976247D01*
X81783333Y-22976247D02*
X81735714Y-23166723D01*
X81735714Y-23166723D02*
X81688095Y-23261961D01*
X81688095Y-23261961D02*
X81592857Y-23357200D01*
X81592857Y-23357200D02*
X81450000Y-23404819D01*
X81450000Y-23404819D02*
X81211905Y-23404819D01*
X82735714Y-23404819D02*
X82164286Y-23404819D01*
X82450000Y-23404819D02*
X82450000Y-22404819D01*
X82450000Y-22404819D02*
X82354762Y-22547676D01*
X82354762Y-22547676D02*
X82259524Y-22642914D01*
X82259524Y-22642914D02*
X82164286Y-22690533D01*
X62393333Y-31829580D02*
X62345714Y-31877200D01*
X62345714Y-31877200D02*
X62202857Y-31924819D01*
X62202857Y-31924819D02*
X62107619Y-31924819D01*
X62107619Y-31924819D02*
X61964762Y-31877200D01*
X61964762Y-31877200D02*
X61869524Y-31781961D01*
X61869524Y-31781961D02*
X61821905Y-31686723D01*
X61821905Y-31686723D02*
X61774286Y-31496247D01*
X61774286Y-31496247D02*
X61774286Y-31353390D01*
X61774286Y-31353390D02*
X61821905Y-31162914D01*
X61821905Y-31162914D02*
X61869524Y-31067676D01*
X61869524Y-31067676D02*
X61964762Y-30972438D01*
X61964762Y-30972438D02*
X62107619Y-30924819D01*
X62107619Y-30924819D02*
X62202857Y-30924819D01*
X62202857Y-30924819D02*
X62345714Y-30972438D01*
X62345714Y-30972438D02*
X62393333Y-31020057D01*
X62726667Y-30924819D02*
X63393333Y-30924819D01*
X63393333Y-30924819D02*
X62964762Y-31924819D01*
X58438095Y-47704819D02*
X58438095Y-48514342D01*
X58438095Y-48514342D02*
X58485714Y-48609580D01*
X58485714Y-48609580D02*
X58533333Y-48657200D01*
X58533333Y-48657200D02*
X58628571Y-48704819D01*
X58628571Y-48704819D02*
X58819047Y-48704819D01*
X58819047Y-48704819D02*
X58914285Y-48657200D01*
X58914285Y-48657200D02*
X58961904Y-48609580D01*
X58961904Y-48609580D02*
X59009523Y-48514342D01*
X59009523Y-48514342D02*
X59009523Y-47704819D01*
X59438095Y-47800057D02*
X59485714Y-47752438D01*
X59485714Y-47752438D02*
X59580952Y-47704819D01*
X59580952Y-47704819D02*
X59819047Y-47704819D01*
X59819047Y-47704819D02*
X59914285Y-47752438D01*
X59914285Y-47752438D02*
X59961904Y-47800057D01*
X59961904Y-47800057D02*
X60009523Y-47895295D01*
X60009523Y-47895295D02*
X60009523Y-47990533D01*
X60009523Y-47990533D02*
X59961904Y-48133390D01*
X59961904Y-48133390D02*
X59390476Y-48704819D01*
X59390476Y-48704819D02*
X60009523Y-48704819D01*
X91861904Y-43231009D02*
X92004761Y-43278628D01*
X92004761Y-43278628D02*
X92052380Y-43326247D01*
X92052380Y-43326247D02*
X92099999Y-43421485D01*
X92099999Y-43421485D02*
X92099999Y-43564342D01*
X92099999Y-43564342D02*
X92052380Y-43659580D01*
X92052380Y-43659580D02*
X92004761Y-43707200D01*
X92004761Y-43707200D02*
X91909523Y-43754819D01*
X91909523Y-43754819D02*
X91528571Y-43754819D01*
X91528571Y-43754819D02*
X91528571Y-42754819D01*
X91528571Y-42754819D02*
X91861904Y-42754819D01*
X91861904Y-42754819D02*
X91957142Y-42802438D01*
X91957142Y-42802438D02*
X92004761Y-42850057D01*
X92004761Y-42850057D02*
X92052380Y-42945295D01*
X92052380Y-42945295D02*
X92052380Y-43040533D01*
X92052380Y-43040533D02*
X92004761Y-43135771D01*
X92004761Y-43135771D02*
X91957142Y-43183390D01*
X91957142Y-43183390D02*
X91861904Y-43231009D01*
X91861904Y-43231009D02*
X91528571Y-43231009D01*
X92480952Y-43469104D02*
X92957142Y-43469104D01*
X92385714Y-43754819D02*
X92719047Y-42754819D01*
X92719047Y-42754819D02*
X93052380Y-43754819D01*
X93242857Y-42754819D02*
X93814285Y-42754819D01*
X93528571Y-43754819D02*
X93528571Y-42754819D01*
X37691666Y-20779819D02*
X37691666Y-21494104D01*
X37691666Y-21494104D02*
X37644047Y-21636961D01*
X37644047Y-21636961D02*
X37548809Y-21732200D01*
X37548809Y-21732200D02*
X37405952Y-21779819D01*
X37405952Y-21779819D02*
X37310714Y-21779819D01*
X38310714Y-21208390D02*
X38215476Y-21160771D01*
X38215476Y-21160771D02*
X38167857Y-21113152D01*
X38167857Y-21113152D02*
X38120238Y-21017914D01*
X38120238Y-21017914D02*
X38120238Y-20970295D01*
X38120238Y-20970295D02*
X38167857Y-20875057D01*
X38167857Y-20875057D02*
X38215476Y-20827438D01*
X38215476Y-20827438D02*
X38310714Y-20779819D01*
X38310714Y-20779819D02*
X38501190Y-20779819D01*
X38501190Y-20779819D02*
X38596428Y-20827438D01*
X38596428Y-20827438D02*
X38644047Y-20875057D01*
X38644047Y-20875057D02*
X38691666Y-20970295D01*
X38691666Y-20970295D02*
X38691666Y-21017914D01*
X38691666Y-21017914D02*
X38644047Y-21113152D01*
X38644047Y-21113152D02*
X38596428Y-21160771D01*
X38596428Y-21160771D02*
X38501190Y-21208390D01*
X38501190Y-21208390D02*
X38310714Y-21208390D01*
X38310714Y-21208390D02*
X38215476Y-21256009D01*
X38215476Y-21256009D02*
X38167857Y-21303628D01*
X38167857Y-21303628D02*
X38120238Y-21398866D01*
X38120238Y-21398866D02*
X38120238Y-21589342D01*
X38120238Y-21589342D02*
X38167857Y-21684580D01*
X38167857Y-21684580D02*
X38215476Y-21732200D01*
X38215476Y-21732200D02*
X38310714Y-21779819D01*
X38310714Y-21779819D02*
X38501190Y-21779819D01*
X38501190Y-21779819D02*
X38596428Y-21732200D01*
X38596428Y-21732200D02*
X38644047Y-21684580D01*
X38644047Y-21684580D02*
X38691666Y-21589342D01*
X38691666Y-21589342D02*
X38691666Y-21398866D01*
X38691666Y-21398866D02*
X38644047Y-21303628D01*
X38644047Y-21303628D02*
X38596428Y-21256009D01*
X38596428Y-21256009D02*
X38501190Y-21208390D01*
X61457142Y-38954819D02*
X61123809Y-38478628D01*
X60885714Y-38954819D02*
X60885714Y-37954819D01*
X60885714Y-37954819D02*
X61266666Y-37954819D01*
X61266666Y-37954819D02*
X61361904Y-38002438D01*
X61361904Y-38002438D02*
X61409523Y-38050057D01*
X61409523Y-38050057D02*
X61457142Y-38145295D01*
X61457142Y-38145295D02*
X61457142Y-38288152D01*
X61457142Y-38288152D02*
X61409523Y-38383390D01*
X61409523Y-38383390D02*
X61361904Y-38431009D01*
X61361904Y-38431009D02*
X61266666Y-38478628D01*
X61266666Y-38478628D02*
X60885714Y-38478628D01*
X62409523Y-38954819D02*
X61838095Y-38954819D01*
X62123809Y-38954819D02*
X62123809Y-37954819D01*
X62123809Y-37954819D02*
X62028571Y-38097676D01*
X62028571Y-38097676D02*
X61933333Y-38192914D01*
X61933333Y-38192914D02*
X61838095Y-38240533D01*
X63028571Y-37954819D02*
X63123809Y-37954819D01*
X63123809Y-37954819D02*
X63219047Y-38002438D01*
X63219047Y-38002438D02*
X63266666Y-38050057D01*
X63266666Y-38050057D02*
X63314285Y-38145295D01*
X63314285Y-38145295D02*
X63361904Y-38335771D01*
X63361904Y-38335771D02*
X63361904Y-38573866D01*
X63361904Y-38573866D02*
X63314285Y-38764342D01*
X63314285Y-38764342D02*
X63266666Y-38859580D01*
X63266666Y-38859580D02*
X63219047Y-38907200D01*
X63219047Y-38907200D02*
X63123809Y-38954819D01*
X63123809Y-38954819D02*
X63028571Y-38954819D01*
X63028571Y-38954819D02*
X62933333Y-38907200D01*
X62933333Y-38907200D02*
X62885714Y-38859580D01*
X62885714Y-38859580D02*
X62838095Y-38764342D01*
X62838095Y-38764342D02*
X62790476Y-38573866D01*
X62790476Y-38573866D02*
X62790476Y-38335771D01*
X62790476Y-38335771D02*
X62838095Y-38145295D01*
X62838095Y-38145295D02*
X62885714Y-38050057D01*
X62885714Y-38050057D02*
X62933333Y-38002438D01*
X62933333Y-38002438D02*
X63028571Y-37954819D01*
X92466667Y-27057200D02*
X92609524Y-27104819D01*
X92609524Y-27104819D02*
X92847619Y-27104819D01*
X92847619Y-27104819D02*
X92942857Y-27057200D01*
X92942857Y-27057200D02*
X92990476Y-27009580D01*
X92990476Y-27009580D02*
X93038095Y-26914342D01*
X93038095Y-26914342D02*
X93038095Y-26819104D01*
X93038095Y-26819104D02*
X92990476Y-26723866D01*
X92990476Y-26723866D02*
X92942857Y-26676247D01*
X92942857Y-26676247D02*
X92847619Y-26628628D01*
X92847619Y-26628628D02*
X92657143Y-26581009D01*
X92657143Y-26581009D02*
X92561905Y-26533390D01*
X92561905Y-26533390D02*
X92514286Y-26485771D01*
X92514286Y-26485771D02*
X92466667Y-26390533D01*
X92466667Y-26390533D02*
X92466667Y-26295295D01*
X92466667Y-26295295D02*
X92514286Y-26200057D01*
X92514286Y-26200057D02*
X92561905Y-26152438D01*
X92561905Y-26152438D02*
X92657143Y-26104819D01*
X92657143Y-26104819D02*
X92895238Y-26104819D01*
X92895238Y-26104819D02*
X93038095Y-26152438D01*
X93371429Y-26104819D02*
X93609524Y-27104819D01*
X93609524Y-27104819D02*
X93800000Y-26390533D01*
X93800000Y-26390533D02*
X93990476Y-27104819D01*
X93990476Y-27104819D02*
X94228572Y-26104819D01*
X95133333Y-27104819D02*
X94561905Y-27104819D01*
X94847619Y-27104819D02*
X94847619Y-26104819D01*
X94847619Y-26104819D02*
X94752381Y-26247676D01*
X94752381Y-26247676D02*
X94657143Y-26342914D01*
X94657143Y-26342914D02*
X94561905Y-26390533D01*
X63083333Y-21922080D02*
X63035714Y-21969700D01*
X63035714Y-21969700D02*
X62892857Y-22017319D01*
X62892857Y-22017319D02*
X62797619Y-22017319D01*
X62797619Y-22017319D02*
X62654762Y-21969700D01*
X62654762Y-21969700D02*
X62559524Y-21874461D01*
X62559524Y-21874461D02*
X62511905Y-21779223D01*
X62511905Y-21779223D02*
X62464286Y-21588747D01*
X62464286Y-21588747D02*
X62464286Y-21445890D01*
X62464286Y-21445890D02*
X62511905Y-21255414D01*
X62511905Y-21255414D02*
X62559524Y-21160176D01*
X62559524Y-21160176D02*
X62654762Y-21064938D01*
X62654762Y-21064938D02*
X62797619Y-21017319D01*
X62797619Y-21017319D02*
X62892857Y-21017319D01*
X62892857Y-21017319D02*
X63035714Y-21064938D01*
X63035714Y-21064938D02*
X63083333Y-21112557D01*
X63464286Y-21112557D02*
X63511905Y-21064938D01*
X63511905Y-21064938D02*
X63607143Y-21017319D01*
X63607143Y-21017319D02*
X63845238Y-21017319D01*
X63845238Y-21017319D02*
X63940476Y-21064938D01*
X63940476Y-21064938D02*
X63988095Y-21112557D01*
X63988095Y-21112557D02*
X64035714Y-21207795D01*
X64035714Y-21207795D02*
X64035714Y-21303033D01*
X64035714Y-21303033D02*
X63988095Y-21445890D01*
X63988095Y-21445890D02*
X63416667Y-22017319D01*
X63416667Y-22017319D02*
X64035714Y-22017319D01*
X61593810Y-25034819D02*
X61593810Y-24034819D01*
X62641428Y-24939580D02*
X62593809Y-24987200D01*
X62593809Y-24987200D02*
X62450952Y-25034819D01*
X62450952Y-25034819D02*
X62355714Y-25034819D01*
X62355714Y-25034819D02*
X62212857Y-24987200D01*
X62212857Y-24987200D02*
X62117619Y-24891961D01*
X62117619Y-24891961D02*
X62070000Y-24796723D01*
X62070000Y-24796723D02*
X62022381Y-24606247D01*
X62022381Y-24606247D02*
X62022381Y-24463390D01*
X62022381Y-24463390D02*
X62070000Y-24272914D01*
X62070000Y-24272914D02*
X62117619Y-24177676D01*
X62117619Y-24177676D02*
X62212857Y-24082438D01*
X62212857Y-24082438D02*
X62355714Y-24034819D01*
X62355714Y-24034819D02*
X62450952Y-24034819D01*
X62450952Y-24034819D02*
X62593809Y-24082438D01*
X62593809Y-24082438D02*
X62641428Y-24130057D01*
X63593809Y-25034819D02*
X63022381Y-25034819D01*
X63308095Y-25034819D02*
X63308095Y-24034819D01*
X63308095Y-24034819D02*
X63212857Y-24177676D01*
X63212857Y-24177676D02*
X63117619Y-24272914D01*
X63117619Y-24272914D02*
X63022381Y-24320533D01*
X77593333Y-27604819D02*
X77260000Y-27128628D01*
X77021905Y-27604819D02*
X77021905Y-26604819D01*
X77021905Y-26604819D02*
X77402857Y-26604819D01*
X77402857Y-26604819D02*
X77498095Y-26652438D01*
X77498095Y-26652438D02*
X77545714Y-26700057D01*
X77545714Y-26700057D02*
X77593333Y-26795295D01*
X77593333Y-26795295D02*
X77593333Y-26938152D01*
X77593333Y-26938152D02*
X77545714Y-27033390D01*
X77545714Y-27033390D02*
X77498095Y-27081009D01*
X77498095Y-27081009D02*
X77402857Y-27128628D01*
X77402857Y-27128628D02*
X77021905Y-27128628D01*
X77926667Y-26604819D02*
X78545714Y-26604819D01*
X78545714Y-26604819D02*
X78212381Y-26985771D01*
X78212381Y-26985771D02*
X78355238Y-26985771D01*
X78355238Y-26985771D02*
X78450476Y-27033390D01*
X78450476Y-27033390D02*
X78498095Y-27081009D01*
X78498095Y-27081009D02*
X78545714Y-27176247D01*
X78545714Y-27176247D02*
X78545714Y-27414342D01*
X78545714Y-27414342D02*
X78498095Y-27509580D01*
X78498095Y-27509580D02*
X78450476Y-27557200D01*
X78450476Y-27557200D02*
X78355238Y-27604819D01*
X78355238Y-27604819D02*
X78069524Y-27604819D01*
X78069524Y-27604819D02*
X77974286Y-27557200D01*
X77974286Y-27557200D02*
X77926667Y-27509580D01*
X57911905Y-36654819D02*
X58530952Y-36654819D01*
X58530952Y-36654819D02*
X58197619Y-37035771D01*
X58197619Y-37035771D02*
X58340476Y-37035771D01*
X58340476Y-37035771D02*
X58435714Y-37083390D01*
X58435714Y-37083390D02*
X58483333Y-37131009D01*
X58483333Y-37131009D02*
X58530952Y-37226247D01*
X58530952Y-37226247D02*
X58530952Y-37464342D01*
X58530952Y-37464342D02*
X58483333Y-37559580D01*
X58483333Y-37559580D02*
X58435714Y-37607200D01*
X58435714Y-37607200D02*
X58340476Y-37654819D01*
X58340476Y-37654819D02*
X58054762Y-37654819D01*
X58054762Y-37654819D02*
X57959524Y-37607200D01*
X57959524Y-37607200D02*
X57911905Y-37559580D01*
X58816667Y-36654819D02*
X59150000Y-37654819D01*
X59150000Y-37654819D02*
X59483333Y-36654819D01*
X59721429Y-36654819D02*
X60340476Y-36654819D01*
X60340476Y-36654819D02*
X60007143Y-37035771D01*
X60007143Y-37035771D02*
X60150000Y-37035771D01*
X60150000Y-37035771D02*
X60245238Y-37083390D01*
X60245238Y-37083390D02*
X60292857Y-37131009D01*
X60292857Y-37131009D02*
X60340476Y-37226247D01*
X60340476Y-37226247D02*
X60340476Y-37464342D01*
X60340476Y-37464342D02*
X60292857Y-37559580D01*
X60292857Y-37559580D02*
X60245238Y-37607200D01*
X60245238Y-37607200D02*
X60150000Y-37654819D01*
X60150000Y-37654819D02*
X59864286Y-37654819D01*
X59864286Y-37654819D02*
X59769048Y-37607200D01*
X59769048Y-37607200D02*
X59721429Y-37559580D01*
X81699580Y-62386666D02*
X81747200Y-62434285D01*
X81747200Y-62434285D02*
X81794819Y-62577142D01*
X81794819Y-62577142D02*
X81794819Y-62672380D01*
X81794819Y-62672380D02*
X81747200Y-62815237D01*
X81747200Y-62815237D02*
X81651961Y-62910475D01*
X81651961Y-62910475D02*
X81556723Y-62958094D01*
X81556723Y-62958094D02*
X81366247Y-63005713D01*
X81366247Y-63005713D02*
X81223390Y-63005713D01*
X81223390Y-63005713D02*
X81032914Y-62958094D01*
X81032914Y-62958094D02*
X80937676Y-62910475D01*
X80937676Y-62910475D02*
X80842438Y-62815237D01*
X80842438Y-62815237D02*
X80794819Y-62672380D01*
X80794819Y-62672380D02*
X80794819Y-62577142D01*
X80794819Y-62577142D02*
X80842438Y-62434285D01*
X80842438Y-62434285D02*
X80890057Y-62386666D01*
X80794819Y-62053332D02*
X80794819Y-61434285D01*
X80794819Y-61434285D02*
X81175771Y-61767618D01*
X81175771Y-61767618D02*
X81175771Y-61624761D01*
X81175771Y-61624761D02*
X81223390Y-61529523D01*
X81223390Y-61529523D02*
X81271009Y-61481904D01*
X81271009Y-61481904D02*
X81366247Y-61434285D01*
X81366247Y-61434285D02*
X81604342Y-61434285D01*
X81604342Y-61434285D02*
X81699580Y-61481904D01*
X81699580Y-61481904D02*
X81747200Y-61529523D01*
X81747200Y-61529523D02*
X81794819Y-61624761D01*
X81794819Y-61624761D02*
X81794819Y-61910475D01*
X81794819Y-61910475D02*
X81747200Y-62005713D01*
X81747200Y-62005713D02*
X81699580Y-62053332D01*
X65116666Y-31854819D02*
X65116666Y-32569104D01*
X65116666Y-32569104D02*
X65069047Y-32711961D01*
X65069047Y-32711961D02*
X64973809Y-32807200D01*
X64973809Y-32807200D02*
X64830952Y-32854819D01*
X64830952Y-32854819D02*
X64735714Y-32854819D01*
X66021428Y-31854819D02*
X65830952Y-31854819D01*
X65830952Y-31854819D02*
X65735714Y-31902438D01*
X65735714Y-31902438D02*
X65688095Y-31950057D01*
X65688095Y-31950057D02*
X65592857Y-32092914D01*
X65592857Y-32092914D02*
X65545238Y-32283390D01*
X65545238Y-32283390D02*
X65545238Y-32664342D01*
X65545238Y-32664342D02*
X65592857Y-32759580D01*
X65592857Y-32759580D02*
X65640476Y-32807200D01*
X65640476Y-32807200D02*
X65735714Y-32854819D01*
X65735714Y-32854819D02*
X65926190Y-32854819D01*
X65926190Y-32854819D02*
X66021428Y-32807200D01*
X66021428Y-32807200D02*
X66069047Y-32759580D01*
X66069047Y-32759580D02*
X66116666Y-32664342D01*
X66116666Y-32664342D02*
X66116666Y-32426247D01*
X66116666Y-32426247D02*
X66069047Y-32331009D01*
X66069047Y-32331009D02*
X66021428Y-32283390D01*
X66021428Y-32283390D02*
X65926190Y-32235771D01*
X65926190Y-32235771D02*
X65735714Y-32235771D01*
X65735714Y-32235771D02*
X65640476Y-32283390D01*
X65640476Y-32283390D02*
X65592857Y-32331009D01*
X65592857Y-32331009D02*
X65545238Y-32426247D01*
X82882142Y-57584580D02*
X82834523Y-57632200D01*
X82834523Y-57632200D02*
X82691666Y-57679819D01*
X82691666Y-57679819D02*
X82596428Y-57679819D01*
X82596428Y-57679819D02*
X82453571Y-57632200D01*
X82453571Y-57632200D02*
X82358333Y-57536961D01*
X82358333Y-57536961D02*
X82310714Y-57441723D01*
X82310714Y-57441723D02*
X82263095Y-57251247D01*
X82263095Y-57251247D02*
X82263095Y-57108390D01*
X82263095Y-57108390D02*
X82310714Y-56917914D01*
X82310714Y-56917914D02*
X82358333Y-56822676D01*
X82358333Y-56822676D02*
X82453571Y-56727438D01*
X82453571Y-56727438D02*
X82596428Y-56679819D01*
X82596428Y-56679819D02*
X82691666Y-56679819D01*
X82691666Y-56679819D02*
X82834523Y-56727438D01*
X82834523Y-56727438D02*
X82882142Y-56775057D01*
X83834523Y-57679819D02*
X83263095Y-57679819D01*
X83548809Y-57679819D02*
X83548809Y-56679819D01*
X83548809Y-56679819D02*
X83453571Y-56822676D01*
X83453571Y-56822676D02*
X83358333Y-56917914D01*
X83358333Y-56917914D02*
X83263095Y-56965533D01*
X84453571Y-56679819D02*
X84548809Y-56679819D01*
X84548809Y-56679819D02*
X84644047Y-56727438D01*
X84644047Y-56727438D02*
X84691666Y-56775057D01*
X84691666Y-56775057D02*
X84739285Y-56870295D01*
X84739285Y-56870295D02*
X84786904Y-57060771D01*
X84786904Y-57060771D02*
X84786904Y-57298866D01*
X84786904Y-57298866D02*
X84739285Y-57489342D01*
X84739285Y-57489342D02*
X84691666Y-57584580D01*
X84691666Y-57584580D02*
X84644047Y-57632200D01*
X84644047Y-57632200D02*
X84548809Y-57679819D01*
X84548809Y-57679819D02*
X84453571Y-57679819D01*
X84453571Y-57679819D02*
X84358333Y-57632200D01*
X84358333Y-57632200D02*
X84310714Y-57584580D01*
X84310714Y-57584580D02*
X84263095Y-57489342D01*
X84263095Y-57489342D02*
X84215476Y-57298866D01*
X84215476Y-57298866D02*
X84215476Y-57060771D01*
X84215476Y-57060771D02*
X84263095Y-56870295D01*
X84263095Y-56870295D02*
X84310714Y-56775057D01*
X84310714Y-56775057D02*
X84358333Y-56727438D01*
X84358333Y-56727438D02*
X84453571Y-56679819D01*
X69126666Y-20354819D02*
X69126666Y-21069104D01*
X69126666Y-21069104D02*
X69079047Y-21211961D01*
X69079047Y-21211961D02*
X68983809Y-21307200D01*
X68983809Y-21307200D02*
X68840952Y-21354819D01*
X68840952Y-21354819D02*
X68745714Y-21354819D01*
X70126666Y-21354819D02*
X69555238Y-21354819D01*
X69840952Y-21354819D02*
X69840952Y-20354819D01*
X69840952Y-20354819D02*
X69745714Y-20497676D01*
X69745714Y-20497676D02*
X69650476Y-20592914D01*
X69650476Y-20592914D02*
X69555238Y-20640533D01*
X62008333Y-40179819D02*
X61675000Y-39703628D01*
X61436905Y-40179819D02*
X61436905Y-39179819D01*
X61436905Y-39179819D02*
X61817857Y-39179819D01*
X61817857Y-39179819D02*
X61913095Y-39227438D01*
X61913095Y-39227438D02*
X61960714Y-39275057D01*
X61960714Y-39275057D02*
X62008333Y-39370295D01*
X62008333Y-39370295D02*
X62008333Y-39513152D01*
X62008333Y-39513152D02*
X61960714Y-39608390D01*
X61960714Y-39608390D02*
X61913095Y-39656009D01*
X61913095Y-39656009D02*
X61817857Y-39703628D01*
X61817857Y-39703628D02*
X61436905Y-39703628D01*
X62484524Y-40179819D02*
X62675000Y-40179819D01*
X62675000Y-40179819D02*
X62770238Y-40132200D01*
X62770238Y-40132200D02*
X62817857Y-40084580D01*
X62817857Y-40084580D02*
X62913095Y-39941723D01*
X62913095Y-39941723D02*
X62960714Y-39751247D01*
X62960714Y-39751247D02*
X62960714Y-39370295D01*
X62960714Y-39370295D02*
X62913095Y-39275057D01*
X62913095Y-39275057D02*
X62865476Y-39227438D01*
X62865476Y-39227438D02*
X62770238Y-39179819D01*
X62770238Y-39179819D02*
X62579762Y-39179819D01*
X62579762Y-39179819D02*
X62484524Y-39227438D01*
X62484524Y-39227438D02*
X62436905Y-39275057D01*
X62436905Y-39275057D02*
X62389286Y-39370295D01*
X62389286Y-39370295D02*
X62389286Y-39608390D01*
X62389286Y-39608390D02*
X62436905Y-39703628D01*
X62436905Y-39703628D02*
X62484524Y-39751247D01*
X62484524Y-39751247D02*
X62579762Y-39798866D01*
X62579762Y-39798866D02*
X62770238Y-39798866D01*
X62770238Y-39798866D02*
X62865476Y-39751247D01*
X62865476Y-39751247D02*
X62913095Y-39703628D01*
X62913095Y-39703628D02*
X62960714Y-39608390D01*
X65286666Y-37804819D02*
X65286666Y-38519104D01*
X65286666Y-38519104D02*
X65239047Y-38661961D01*
X65239047Y-38661961D02*
X65143809Y-38757200D01*
X65143809Y-38757200D02*
X65000952Y-38804819D01*
X65000952Y-38804819D02*
X64905714Y-38804819D01*
X66239047Y-37804819D02*
X65762857Y-37804819D01*
X65762857Y-37804819D02*
X65715238Y-38281009D01*
X65715238Y-38281009D02*
X65762857Y-38233390D01*
X65762857Y-38233390D02*
X65858095Y-38185771D01*
X65858095Y-38185771D02*
X66096190Y-38185771D01*
X66096190Y-38185771D02*
X66191428Y-38233390D01*
X66191428Y-38233390D02*
X66239047Y-38281009D01*
X66239047Y-38281009D02*
X66286666Y-38376247D01*
X66286666Y-38376247D02*
X66286666Y-38614342D01*
X66286666Y-38614342D02*
X66239047Y-38709580D01*
X66239047Y-38709580D02*
X66191428Y-38757200D01*
X66191428Y-38757200D02*
X66096190Y-38804819D01*
X66096190Y-38804819D02*
X65858095Y-38804819D01*
X65858095Y-38804819D02*
X65762857Y-38757200D01*
X65762857Y-38757200D02*
X65715238Y-38709580D01*
X87004761Y-41900057D02*
X86909523Y-41852438D01*
X86909523Y-41852438D02*
X86814285Y-41757200D01*
X86814285Y-41757200D02*
X86671428Y-41614342D01*
X86671428Y-41614342D02*
X86576190Y-41566723D01*
X86576190Y-41566723D02*
X86480952Y-41566723D01*
X86528571Y-41804819D02*
X86433333Y-41757200D01*
X86433333Y-41757200D02*
X86338095Y-41661961D01*
X86338095Y-41661961D02*
X86290476Y-41471485D01*
X86290476Y-41471485D02*
X86290476Y-41138152D01*
X86290476Y-41138152D02*
X86338095Y-40947676D01*
X86338095Y-40947676D02*
X86433333Y-40852438D01*
X86433333Y-40852438D02*
X86528571Y-40804819D01*
X86528571Y-40804819D02*
X86719047Y-40804819D01*
X86719047Y-40804819D02*
X86814285Y-40852438D01*
X86814285Y-40852438D02*
X86909523Y-40947676D01*
X86909523Y-40947676D02*
X86957142Y-41138152D01*
X86957142Y-41138152D02*
X86957142Y-41471485D01*
X86957142Y-41471485D02*
X86909523Y-41661961D01*
X86909523Y-41661961D02*
X86814285Y-41757200D01*
X86814285Y-41757200D02*
X86719047Y-41804819D01*
X86719047Y-41804819D02*
X86528571Y-41804819D01*
X87909523Y-41804819D02*
X87338095Y-41804819D01*
X87623809Y-41804819D02*
X87623809Y-40804819D01*
X87623809Y-40804819D02*
X87528571Y-40947676D01*
X87528571Y-40947676D02*
X87433333Y-41042914D01*
X87433333Y-41042914D02*
X87338095Y-41090533D01*
X50156666Y-43634819D02*
X50156666Y-44349104D01*
X50156666Y-44349104D02*
X50109047Y-44491961D01*
X50109047Y-44491961D02*
X50013809Y-44587200D01*
X50013809Y-44587200D02*
X49870952Y-44634819D01*
X49870952Y-44634819D02*
X49775714Y-44634819D01*
X51061428Y-43968152D02*
X51061428Y-44634819D01*
X50823333Y-43587200D02*
X50585238Y-44301485D01*
X50585238Y-44301485D02*
X51204285Y-44301485D01*
X59560833Y-21929580D02*
X59513214Y-21977200D01*
X59513214Y-21977200D02*
X59370357Y-22024819D01*
X59370357Y-22024819D02*
X59275119Y-22024819D01*
X59275119Y-22024819D02*
X59132262Y-21977200D01*
X59132262Y-21977200D02*
X59037024Y-21881961D01*
X59037024Y-21881961D02*
X58989405Y-21786723D01*
X58989405Y-21786723D02*
X58941786Y-21596247D01*
X58941786Y-21596247D02*
X58941786Y-21453390D01*
X58941786Y-21453390D02*
X58989405Y-21262914D01*
X58989405Y-21262914D02*
X59037024Y-21167676D01*
X59037024Y-21167676D02*
X59132262Y-21072438D01*
X59132262Y-21072438D02*
X59275119Y-21024819D01*
X59275119Y-21024819D02*
X59370357Y-21024819D01*
X59370357Y-21024819D02*
X59513214Y-21072438D01*
X59513214Y-21072438D02*
X59560833Y-21120057D01*
X60417976Y-21024819D02*
X60227500Y-21024819D01*
X60227500Y-21024819D02*
X60132262Y-21072438D01*
X60132262Y-21072438D02*
X60084643Y-21120057D01*
X60084643Y-21120057D02*
X59989405Y-21262914D01*
X59989405Y-21262914D02*
X59941786Y-21453390D01*
X59941786Y-21453390D02*
X59941786Y-21834342D01*
X59941786Y-21834342D02*
X59989405Y-21929580D01*
X59989405Y-21929580D02*
X60037024Y-21977200D01*
X60037024Y-21977200D02*
X60132262Y-22024819D01*
X60132262Y-22024819D02*
X60322738Y-22024819D01*
X60322738Y-22024819D02*
X60417976Y-21977200D01*
X60417976Y-21977200D02*
X60465595Y-21929580D01*
X60465595Y-21929580D02*
X60513214Y-21834342D01*
X60513214Y-21834342D02*
X60513214Y-21596247D01*
X60513214Y-21596247D02*
X60465595Y-21501009D01*
X60465595Y-21501009D02*
X60417976Y-21453390D01*
X60417976Y-21453390D02*
X60322738Y-21405771D01*
X60322738Y-21405771D02*
X60132262Y-21405771D01*
X60132262Y-21405771D02*
X60037024Y-21453390D01*
X60037024Y-21453390D02*
X59989405Y-21501009D01*
X59989405Y-21501009D02*
X59941786Y-21596247D01*
X89408333Y-32964580D02*
X89360714Y-33012200D01*
X89360714Y-33012200D02*
X89217857Y-33059819D01*
X89217857Y-33059819D02*
X89122619Y-33059819D01*
X89122619Y-33059819D02*
X88979762Y-33012200D01*
X88979762Y-33012200D02*
X88884524Y-32916961D01*
X88884524Y-32916961D02*
X88836905Y-32821723D01*
X88836905Y-32821723D02*
X88789286Y-32631247D01*
X88789286Y-32631247D02*
X88789286Y-32488390D01*
X88789286Y-32488390D02*
X88836905Y-32297914D01*
X88836905Y-32297914D02*
X88884524Y-32202676D01*
X88884524Y-32202676D02*
X88979762Y-32107438D01*
X88979762Y-32107438D02*
X89122619Y-32059819D01*
X89122619Y-32059819D02*
X89217857Y-32059819D01*
X89217857Y-32059819D02*
X89360714Y-32107438D01*
X89360714Y-32107438D02*
X89408333Y-32155057D01*
X90360714Y-33059819D02*
X89789286Y-33059819D01*
X90075000Y-33059819D02*
X90075000Y-32059819D01*
X90075000Y-32059819D02*
X89979762Y-32202676D01*
X89979762Y-32202676D02*
X89884524Y-32297914D01*
X89884524Y-32297914D02*
X89789286Y-32345533D01*
X94854819Y-61583333D02*
X95569104Y-61583333D01*
X95569104Y-61583333D02*
X95711961Y-61630952D01*
X95711961Y-61630952D02*
X95807200Y-61726190D01*
X95807200Y-61726190D02*
X95854819Y-61869047D01*
X95854819Y-61869047D02*
X95854819Y-61964285D01*
X94854819Y-61202380D02*
X94854819Y-60535714D01*
X94854819Y-60535714D02*
X95854819Y-60964285D01*
X81933333Y-49976037D02*
X82076190Y-50023656D01*
X82076190Y-50023656D02*
X82123809Y-50071275D01*
X82123809Y-50071275D02*
X82171428Y-50166513D01*
X82171428Y-50166513D02*
X82171428Y-50309370D01*
X82171428Y-50309370D02*
X82123809Y-50404608D01*
X82123809Y-50404608D02*
X82076190Y-50452228D01*
X82076190Y-50452228D02*
X81980952Y-50499847D01*
X81980952Y-50499847D02*
X81600000Y-50499847D01*
X81600000Y-50499847D02*
X81600000Y-49499847D01*
X81600000Y-49499847D02*
X81933333Y-49499847D01*
X81933333Y-49499847D02*
X82028571Y-49547466D01*
X82028571Y-49547466D02*
X82076190Y-49595085D01*
X82076190Y-49595085D02*
X82123809Y-49690323D01*
X82123809Y-49690323D02*
X82123809Y-49785561D01*
X82123809Y-49785561D02*
X82076190Y-49880799D01*
X82076190Y-49880799D02*
X82028571Y-49928418D01*
X82028571Y-49928418D02*
X81933333Y-49976037D01*
X81933333Y-49976037D02*
X81600000Y-49976037D01*
X82600000Y-50499847D02*
X82600000Y-49499847D01*
X82600000Y-49499847D02*
X82933333Y-50214132D01*
X82933333Y-50214132D02*
X83266666Y-49499847D01*
X83266666Y-49499847D02*
X83266666Y-50499847D01*
X83742857Y-50499847D02*
X83742857Y-49499847D01*
X84742856Y-50499847D02*
X84171428Y-50499847D01*
X84457142Y-50499847D02*
X84457142Y-49499847D01*
X84457142Y-49499847D02*
X84361904Y-49642704D01*
X84361904Y-49642704D02*
X84266666Y-49737942D01*
X84266666Y-49737942D02*
X84171428Y-49785561D01*
X85599999Y-49499847D02*
X85409523Y-49499847D01*
X85409523Y-49499847D02*
X85314285Y-49547466D01*
X85314285Y-49547466D02*
X85266666Y-49595085D01*
X85266666Y-49595085D02*
X85171428Y-49737942D01*
X85171428Y-49737942D02*
X85123809Y-49928418D01*
X85123809Y-49928418D02*
X85123809Y-50309370D01*
X85123809Y-50309370D02*
X85171428Y-50404608D01*
X85171428Y-50404608D02*
X85219047Y-50452228D01*
X85219047Y-50452228D02*
X85314285Y-50499847D01*
X85314285Y-50499847D02*
X85504761Y-50499847D01*
X85504761Y-50499847D02*
X85599999Y-50452228D01*
X85599999Y-50452228D02*
X85647618Y-50404608D01*
X85647618Y-50404608D02*
X85695237Y-50309370D01*
X85695237Y-50309370D02*
X85695237Y-50071275D01*
X85695237Y-50071275D02*
X85647618Y-49976037D01*
X85647618Y-49976037D02*
X85599999Y-49928418D01*
X85599999Y-49928418D02*
X85504761Y-49880799D01*
X85504761Y-49880799D02*
X85314285Y-49880799D01*
X85314285Y-49880799D02*
X85219047Y-49928418D01*
X85219047Y-49928418D02*
X85171428Y-49976037D01*
X85171428Y-49976037D02*
X85123809Y-50071275D01*
X86314285Y-49499847D02*
X86409523Y-49499847D01*
X86409523Y-49499847D02*
X86504761Y-49547466D01*
X86504761Y-49547466D02*
X86552380Y-49595085D01*
X86552380Y-49595085D02*
X86599999Y-49690323D01*
X86599999Y-49690323D02*
X86647618Y-49880799D01*
X86647618Y-49880799D02*
X86647618Y-50118894D01*
X86647618Y-50118894D02*
X86599999Y-50309370D01*
X86599999Y-50309370D02*
X86552380Y-50404608D01*
X86552380Y-50404608D02*
X86504761Y-50452228D01*
X86504761Y-50452228D02*
X86409523Y-50499847D01*
X86409523Y-50499847D02*
X86314285Y-50499847D01*
X86314285Y-50499847D02*
X86219047Y-50452228D01*
X86219047Y-50452228D02*
X86171428Y-50404608D01*
X86171428Y-50404608D02*
X86123809Y-50309370D01*
X86123809Y-50309370D02*
X86076190Y-50118894D01*
X86076190Y-50118894D02*
X86076190Y-49880799D01*
X86076190Y-49880799D02*
X86123809Y-49690323D01*
X86123809Y-49690323D02*
X86171428Y-49595085D01*
X86171428Y-49595085D02*
X86219047Y-49547466D01*
X86219047Y-49547466D02*
X86314285Y-49499847D01*
X81409524Y-51443124D02*
X82123809Y-51443124D01*
X81695238Y-51014552D02*
X81409524Y-52300267D01*
X82028571Y-51871695D02*
X81314286Y-51871695D01*
X81742857Y-52300267D02*
X82028571Y-51014552D01*
X82409524Y-51205029D02*
X82457143Y-51157410D01*
X82457143Y-51157410D02*
X82552381Y-51109791D01*
X82552381Y-51109791D02*
X82790476Y-51109791D01*
X82790476Y-51109791D02*
X82885714Y-51157410D01*
X82885714Y-51157410D02*
X82933333Y-51205029D01*
X82933333Y-51205029D02*
X82980952Y-51300267D01*
X82980952Y-51300267D02*
X82980952Y-51395505D01*
X82980952Y-51395505D02*
X82933333Y-51538362D01*
X82933333Y-51538362D02*
X82361905Y-52109791D01*
X82361905Y-52109791D02*
X82980952Y-52109791D01*
X84695238Y-51157410D02*
X84600000Y-51109791D01*
X84600000Y-51109791D02*
X84457143Y-51109791D01*
X84457143Y-51109791D02*
X84314286Y-51157410D01*
X84314286Y-51157410D02*
X84219048Y-51252648D01*
X84219048Y-51252648D02*
X84171429Y-51347886D01*
X84171429Y-51347886D02*
X84123810Y-51538362D01*
X84123810Y-51538362D02*
X84123810Y-51681219D01*
X84123810Y-51681219D02*
X84171429Y-51871695D01*
X84171429Y-51871695D02*
X84219048Y-51966933D01*
X84219048Y-51966933D02*
X84314286Y-52062172D01*
X84314286Y-52062172D02*
X84457143Y-52109791D01*
X84457143Y-52109791D02*
X84552381Y-52109791D01*
X84552381Y-52109791D02*
X84695238Y-52062172D01*
X84695238Y-52062172D02*
X84742857Y-52014552D01*
X84742857Y-52014552D02*
X84742857Y-51681219D01*
X84742857Y-51681219D02*
X84552381Y-51681219D01*
X85171429Y-52109791D02*
X85171429Y-51109791D01*
X85171429Y-51109791D02*
X85742857Y-52109791D01*
X85742857Y-52109791D02*
X85742857Y-51109791D01*
X86219048Y-52109791D02*
X86219048Y-51109791D01*
X86219048Y-51109791D02*
X86457143Y-51109791D01*
X86457143Y-51109791D02*
X86600000Y-51157410D01*
X86600000Y-51157410D02*
X86695238Y-51252648D01*
X86695238Y-51252648D02*
X86742857Y-51347886D01*
X86742857Y-51347886D02*
X86790476Y-51538362D01*
X86790476Y-51538362D02*
X86790476Y-51681219D01*
X86790476Y-51681219D02*
X86742857Y-51871695D01*
X86742857Y-51871695D02*
X86695238Y-51966933D01*
X86695238Y-51966933D02*
X86600000Y-52062172D01*
X86600000Y-52062172D02*
X86457143Y-52109791D01*
X86457143Y-52109791D02*
X86219048Y-52109791D01*
D14*
%TO.C,U1*%
X91550000Y-37140000D02*
X89600000Y-37140000D01*
X91550000Y-37140000D02*
X93500000Y-37140000D01*
X91550000Y-42260000D02*
X89600000Y-42260000D01*
X91550000Y-42260000D02*
X93500000Y-42260000D01*
X88850000Y-37235000D02*
X88610000Y-36905000D01*
X89090000Y-36905000D01*
X88850000Y-37235000D01*
G36*
X88850000Y-37235000D02*
G01*
X88610000Y-36905000D01*
X89090000Y-36905000D01*
X88850000Y-37235000D01*
G37*
%TO.C,R4*%
X72282936Y-27915000D02*
X72737064Y-27915000D01*
X72282936Y-29385000D02*
X72737064Y-29385000D01*
%TO.C,5V*%
X78150000Y-30600000D02*
X79550000Y-30600000D01*
X78150000Y-32000000D02*
X78150000Y-30600000D01*
X79550000Y-30600000D02*
X79550000Y-32000000D01*
X79550000Y-32000000D02*
X78150000Y-32000000D01*
%TO.C,J2*%
X89890000Y-45040000D02*
X89890000Y-52860000D01*
X89890000Y-46640000D02*
X90810000Y-46640000D01*
X89890000Y-52860000D02*
X96010000Y-52860000D01*
X90650000Y-49000000D02*
X90650000Y-50600000D01*
X90650000Y-50600000D02*
X91650000Y-50600000D01*
X90810000Y-45040000D02*
X89890000Y-45040000D01*
X90810000Y-46640000D02*
X90810000Y-45040000D01*
X91090000Y-46640000D02*
X90810000Y-46640000D01*
X91090000Y-46640000D02*
X91090000Y-45425000D01*
X91150000Y-50600000D02*
X91150000Y-52860000D01*
X91650000Y-49000000D02*
X90650000Y-49000000D01*
X91650000Y-50600000D02*
X91650000Y-49000000D01*
X91650000Y-50600000D02*
X91650000Y-52860000D01*
X92450000Y-48500000D02*
X93450000Y-48500000D01*
X92450000Y-52860000D02*
X92450000Y-48500000D01*
X93450000Y-48500000D02*
X93450000Y-52860000D01*
X94250000Y-49000000D02*
X95250000Y-49000000D01*
X94250000Y-50600000D02*
X94250000Y-49000000D01*
X95090000Y-45040000D02*
X95090000Y-46640000D01*
X95090000Y-46640000D02*
X94810000Y-46640000D01*
X95250000Y-49000000D02*
X95250000Y-50600000D01*
X95250000Y-50600000D02*
X94250000Y-50600000D01*
X96010000Y-45040000D02*
X95090000Y-45040000D01*
X96010000Y-46640000D02*
X95090000Y-46640000D01*
X96010000Y-52860000D02*
X96010000Y-45040000D01*
%TO.C,R1*%
X62315000Y-47177064D02*
X62315000Y-46722936D01*
X63785000Y-47177064D02*
X63785000Y-46722936D01*
%TO.C,D2*%
X83315000Y-24350000D02*
X83315000Y-28410000D01*
X83315000Y-28410000D02*
X85585000Y-28410000D01*
X85585000Y-28410000D02*
X85585000Y-24350000D01*
%TO.C,R5*%
X81215000Y-30222936D02*
X81215000Y-30677064D01*
X82685000Y-30222936D02*
X82685000Y-30677064D01*
D10*
%TO.C,J3*%
X70515000Y-46384950D02*
X70515000Y-48384950D01*
X80765000Y-46384950D02*
X80765000Y-48384950D01*
D14*
%TO.C,D3*%
X65855000Y-24352500D02*
X65855000Y-28412500D01*
X65855000Y-28412500D02*
X68125000Y-28412500D01*
X68125000Y-28412500D02*
X68125000Y-24352500D01*
%TO.C,C4*%
X59383767Y-32090000D02*
X59091233Y-32090000D01*
X59383767Y-33110000D02*
X59091233Y-33110000D01*
%TO.C,R8*%
X66262936Y-28705000D02*
X66717064Y-28705000D01*
X66262936Y-30175000D02*
X66717064Y-30175000D01*
%TO.C,R11*%
X90272936Y-30115000D02*
X90727064Y-30115000D01*
X90272936Y-31585000D02*
X90727064Y-31585000D01*
%TO.C,C9*%
X80658767Y-58245000D02*
X80366233Y-58245000D01*
X80658767Y-59265000D02*
X80366233Y-59265000D01*
%TO.C,R6*%
X83715000Y-30222936D02*
X83715000Y-30677064D01*
X85185000Y-30222936D02*
X85185000Y-30677064D01*
%TO.C,C8*%
X92066233Y-33595000D02*
X92358767Y-33595000D01*
X92066233Y-34615000D02*
X92358767Y-34615000D01*
%TO.C,GND*%
X36900000Y-25650000D02*
X38300000Y-25650000D01*
X36900000Y-27050000D02*
X36900000Y-25650000D01*
X38300000Y-25650000D02*
X38300000Y-27050000D01*
X38300000Y-27050000D02*
X36900000Y-27050000D01*
X69800000Y-30650000D02*
X71200000Y-30650000D01*
X69800000Y-32050000D02*
X69800000Y-30650000D01*
X71200000Y-30650000D02*
X71200000Y-32050000D01*
X71200000Y-32050000D02*
X69800000Y-32050000D01*
%TO.C,BMI160
#2 GND*%
X52300000Y-43650000D02*
X54200000Y-43650000D01*
X52300000Y-45550000D02*
X52300000Y-43650000D01*
X54200000Y-43650000D02*
X54200000Y-45550000D01*
X54200000Y-45550000D02*
X52300000Y-45550000D01*
%TO.C,C5*%
X78791233Y-59790000D02*
X79083767Y-59790000D01*
X78791233Y-60810000D02*
X79083767Y-60810000D01*
%TO.C,3V3*%
X52700000Y-25650000D02*
X54100000Y-25650000D01*
X52700000Y-27050000D02*
X52700000Y-25650000D01*
X54100000Y-25650000D02*
X54100000Y-27050000D01*
X54100000Y-27050000D02*
X52700000Y-27050000D01*
%TO.C,R2*%
X64215000Y-46722936D02*
X64215000Y-47177064D01*
X65685000Y-46722936D02*
X65685000Y-47177064D01*
%TO.C,D4*%
X88790000Y-27950000D02*
X88790000Y-29650000D01*
X88790000Y-27950000D02*
X91450000Y-27950000D01*
X88790000Y-29650000D02*
X91450000Y-29650000D01*
%TO.C,R7*%
X89322936Y-35215000D02*
X89777064Y-35215000D01*
X89322936Y-36685000D02*
X89777064Y-36685000D01*
%TO.C,D1*%
X80815000Y-24337500D02*
X80815000Y-28397500D01*
X80815000Y-28397500D02*
X83085000Y-28397500D01*
X83085000Y-28397500D02*
X83085000Y-24337500D01*
%TO.C,C7*%
X62403733Y-32090000D02*
X62696267Y-32090000D01*
X62403733Y-33110000D02*
X62696267Y-33110000D01*
%TO.C,U2*%
X58240000Y-49340000D02*
X58240000Y-49040000D01*
X58240000Y-69260000D02*
X58240000Y-62760000D01*
X76460000Y-49040000D02*
X58240000Y-49040000D01*
X76460000Y-49340000D02*
X76460000Y-49040000D01*
X76460000Y-69260000D02*
X58240000Y-69260000D01*
X76460000Y-69260000D02*
X76460000Y-63450000D01*
X76450000Y-63250000D02*
X76450000Y-62750000D01*
X76950000Y-62750000D01*
X76450000Y-63250000D01*
G36*
X76450000Y-63250000D02*
G01*
X76450000Y-62750000D01*
X76950000Y-62750000D01*
X76450000Y-63250000D01*
G37*
%TO.C,BAT*%
X94550000Y-42600000D02*
X95950000Y-42600000D01*
X94550000Y-44000000D02*
X94550000Y-42600000D01*
X95950000Y-42600000D02*
X95950000Y-44000000D01*
X95950000Y-44000000D02*
X94550000Y-44000000D01*
%TO.C,J8*%
X39240000Y-17640000D02*
X39240000Y-29360000D01*
X39240000Y-29360000D02*
X40660000Y-29360000D01*
X40660000Y-29360000D02*
X40660000Y-24860000D01*
X41550000Y-18250000D02*
X41550000Y-23750000D01*
X41550000Y-23750000D02*
X42050000Y-23750000D01*
X42050000Y-18250000D02*
X41550000Y-18250000D01*
X42050000Y-23750000D02*
X42050000Y-18250000D01*
X44050000Y-18250000D02*
X44050000Y-23750000D01*
X44050000Y-23750000D02*
X44550000Y-23750000D01*
X44550000Y-18250000D02*
X44050000Y-18250000D01*
X44550000Y-23750000D02*
X44550000Y-18250000D01*
X45550000Y-17640000D02*
X39240000Y-17640000D01*
X45550000Y-17640000D02*
X51860000Y-17640000D01*
X46550000Y-18250000D02*
X46550000Y-23750000D01*
X46550000Y-23750000D02*
X47050000Y-23750000D01*
X47050000Y-18250000D02*
X46550000Y-18250000D01*
X47050000Y-23750000D02*
X47050000Y-18250000D01*
X49000000Y-27450000D02*
X49300000Y-26850000D01*
X49050000Y-18250000D02*
X49050000Y-23750000D01*
X49050000Y-23750000D02*
X49550000Y-23750000D01*
X49300000Y-26850000D02*
X49600000Y-27450000D01*
X49550000Y-18250000D02*
X49050000Y-18250000D01*
X49550000Y-23750000D02*
X49550000Y-18250000D01*
X49600000Y-27450000D02*
X49000000Y-27450000D01*
X50440000Y-29360000D02*
X50440000Y-24860000D01*
X51860000Y-17640000D02*
X51860000Y-29360000D01*
X51860000Y-29360000D02*
X50440000Y-29360000D01*
%TO.C,R10*%
X62122936Y-34065000D02*
X62577064Y-34065000D01*
X62122936Y-35535000D02*
X62577064Y-35535000D01*
%TO.C,SW1*%
X96110000Y-25835000D02*
X85890000Y-25835000D01*
X85890000Y-23115000D01*
X96110000Y-23115000D01*
X96110000Y-25835000D01*
%TO.C,C2*%
X63446267Y-22402500D02*
X63153733Y-22402500D01*
X63446267Y-23422500D02*
X63153733Y-23422500D01*
%TO.C,IC1*%
X57965000Y-28120000D02*
X57965000Y-25540000D01*
X57965000Y-28260000D02*
X57965000Y-25540000D01*
X58945000Y-25540000D02*
X57965000Y-25540000D01*
X61705000Y-25540000D02*
X62685000Y-25540000D01*
X62685000Y-25540000D02*
X62685000Y-28260000D01*
X58115000Y-28670000D02*
X57785000Y-28910000D01*
X57785000Y-28430000D01*
X58115000Y-28670000D01*
G36*
X58115000Y-28670000D02*
G01*
X57785000Y-28910000D01*
X57785000Y-28430000D01*
X58115000Y-28670000D01*
G37*
%TO.C,R3*%
X77532936Y-27915000D02*
X77987064Y-27915000D01*
X77532936Y-29385000D02*
X77987064Y-29385000D01*
%TO.C,3V3*%
X58450000Y-34650000D02*
X59850000Y-34650000D01*
X58450000Y-36050000D02*
X58450000Y-34650000D01*
X59850000Y-34650000D02*
X59850000Y-36050000D01*
X59850000Y-36050000D02*
X58450000Y-36050000D01*
%TO.C,C3*%
X78791233Y-61540000D02*
X79083767Y-61540000D01*
X78791233Y-62560000D02*
X79083767Y-62560000D01*
%TO.C,J6*%
X64500000Y-33200000D02*
X66400000Y-33200000D01*
X64500000Y-35100000D02*
X64500000Y-33200000D01*
X66400000Y-33200000D02*
X66400000Y-35100000D01*
X66400000Y-35100000D02*
X64500000Y-35100000D01*
%TO.C,C10*%
X80633767Y-56690000D02*
X80341233Y-56690000D01*
X80633767Y-57710000D02*
X80341233Y-57710000D01*
%TO.C,J1*%
X70730000Y-22300000D02*
X70730000Y-24000000D01*
X80070000Y-22300000D02*
X80070000Y-24000000D01*
%TO.C,R9*%
X62122936Y-36165000D02*
X62577064Y-36165000D01*
X62122936Y-37635000D02*
X62577064Y-37635000D01*
%TO.C,J5*%
X64500000Y-35700000D02*
X66400000Y-35700000D01*
X64500000Y-37600000D02*
X64500000Y-35700000D01*
X66400000Y-35700000D02*
X66400000Y-37600000D01*
X66400000Y-37600000D02*
X64500000Y-37600000D01*
%TO.C,Q1*%
X88337500Y-42390000D02*
X87687500Y-42390000D01*
X88337500Y-42390000D02*
X88987500Y-42390000D01*
X88337500Y-45510000D02*
X87687500Y-45510000D01*
X88337500Y-45510000D02*
X88987500Y-45510000D01*
X87175000Y-42440000D02*
X86935000Y-42110000D01*
X87415000Y-42110000D01*
X87175000Y-42440000D01*
G36*
X87175000Y-42440000D02*
G01*
X86935000Y-42110000D01*
X87415000Y-42110000D01*
X87175000Y-42440000D01*
G37*
D10*
%TO.C,J4*%
X39250000Y-42875000D02*
X39250000Y-44875000D01*
X49500000Y-42875000D02*
X49500000Y-44875000D01*
D14*
%TO.C,C6*%
X59886267Y-22410000D02*
X59593733Y-22410000D01*
X59886267Y-23430000D02*
X59593733Y-23430000D01*
%TO.C,C1*%
X92091233Y-32095000D02*
X92383767Y-32095000D01*
X92091233Y-33115000D02*
X92383767Y-33115000D01*
%TO.C,J7*%
X82040000Y-60145000D02*
X83460000Y-60145000D01*
X82040000Y-71865000D02*
X82040000Y-60145000D01*
X83460000Y-60145000D02*
X83460000Y-64645000D01*
X84300000Y-62055000D02*
X84900000Y-62055000D01*
X84350000Y-65755000D02*
X84350000Y-71255000D01*
X84350000Y-71255000D02*
X84850000Y-71255000D01*
X84600000Y-62655000D02*
X84300000Y-62055000D01*
X84850000Y-65755000D02*
X84350000Y-65755000D01*
X84850000Y-71255000D02*
X84850000Y-65755000D01*
X84900000Y-62055000D02*
X84600000Y-62655000D01*
X86850000Y-65755000D02*
X86850000Y-71255000D01*
X86850000Y-71255000D02*
X87350000Y-71255000D01*
X87350000Y-65755000D02*
X86850000Y-65755000D01*
X87350000Y-71255000D02*
X87350000Y-65755000D01*
X88350000Y-71865000D02*
X82040000Y-71865000D01*
X88350000Y-71865000D02*
X94660000Y-71865000D01*
X89350000Y-65755000D02*
X89350000Y-71255000D01*
X89350000Y-71255000D02*
X89850000Y-71255000D01*
X89850000Y-65755000D02*
X89350000Y-65755000D01*
X89850000Y-71255000D02*
X89850000Y-65755000D01*
X91850000Y-65755000D02*
X91850000Y-71255000D01*
X91850000Y-71255000D02*
X92350000Y-71255000D01*
X92350000Y-65755000D02*
X91850000Y-65755000D01*
X92350000Y-71255000D02*
X92350000Y-65755000D01*
X93240000Y-60145000D02*
X93240000Y-64645000D01*
X94660000Y-60145000D02*
X93240000Y-60145000D01*
X94660000Y-71865000D02*
X94660000Y-60145000D01*
%TO.C,BMI160
#2 GND*%
X83490000Y-47009950D02*
X85390000Y-47009950D01*
X83490000Y-48909950D02*
X83490000Y-47009950D01*
X85390000Y-47009950D02*
X85390000Y-48909950D01*
X85390000Y-48909950D02*
X83490000Y-48909950D01*
%TD*%
M02*
