%TF.GenerationSoftware,KiCad,Pcbnew,9.0.2*%
%TF.CreationDate,2025-12-26T22:53:18+01:00*%
%TF.ProjectId,SlimeVR_board,536c696d-6556-4525-9f62-6f6172642e6b,3W*%
%TF.SameCoordinates,Original*%
%TF.FileFunction,Copper,L2,Bot*%
%TF.FilePolarity,Positive*%
%FSLAX46Y46*%
G04 Gerber Fmt 4.6, Leading zero omitted, Abs format (unit mm)*
G04 Created by KiCad (PCBNEW 9.0.2) date 2025-12-26 22:53:18*
%MOMM*%
%LPD*%
G01*
G04 APERTURE LIST*
G04 Aperture macros list*
%AMRoundRect*
0 Rectangle with rounded corners*
0 $1 Rounding radius*
0 $2 $3 $4 $5 $6 $7 $8 $9 X,Y pos of 4 corners*
0 Add a 4 corners polygon primitive as box body*
4,1,4,$2,$3,$4,$5,$6,$7,$8,$9,$2,$3,0*
0 Add four circle primitives for the rounded corners*
1,1,$1+$1,$2,$3*
1,1,$1+$1,$4,$5*
1,1,$1+$1,$6,$7*
1,1,$1+$1,$8,$9*
0 Add four rect primitives between the rounded corners*
20,1,$1+$1,$2,$3,$4,$5,0*
20,1,$1+$1,$4,$5,$6,$7,0*
20,1,$1+$1,$6,$7,$8,$9,0*
20,1,$1+$1,$8,$9,$2,$3,0*%
G04 Aperture macros list end*
%TA.AperFunction,HeatsinkPad*%
%ADD10C,0.500000*%
%TD*%
%TA.AperFunction,HeatsinkPad*%
%ADD11R,1.900000X2.900000*%
%TD*%
%TA.AperFunction,ComponentPad*%
%ADD12RoundRect,0.250000X0.600000X0.725000X-0.600000X0.725000X-0.600000X-0.725000X0.600000X-0.725000X0*%
%TD*%
%TA.AperFunction,ComponentPad*%
%ADD13O,1.700000X1.950000*%
%TD*%
%TA.AperFunction,ComponentPad*%
%ADD14RoundRect,0.250000X-0.350000X-0.625000X0.350000X-0.625000X0.350000X0.625000X-0.350000X0.625000X0*%
%TD*%
%TA.AperFunction,ComponentPad*%
%ADD15O,1.200000X1.750000*%
%TD*%
%TA.AperFunction,HeatsinkPad*%
%ADD16C,0.600000*%
%TD*%
%TA.AperFunction,ComponentPad*%
%ADD17C,1.600000*%
%TD*%
%TA.AperFunction,ComponentPad*%
%ADD18R,1.500000X1.500000*%
%TD*%
%TA.AperFunction,HeatsinkPad*%
%ADD19O,1.000000X2.100000*%
%TD*%
%TA.AperFunction,HeatsinkPad*%
%ADD20O,1.000000X1.800000*%
%TD*%
%TA.AperFunction,ComponentPad*%
%ADD21RoundRect,0.250000X-0.600000X-0.725000X0.600000X-0.725000X0.600000X0.725000X-0.600000X0.725000X0*%
%TD*%
%TA.AperFunction,ViaPad*%
%ADD22C,0.850000*%
%TD*%
%TA.AperFunction,ViaPad*%
%ADD23C,0.550000*%
%TD*%
%TA.AperFunction,ViaPad*%
%ADD24C,0.600000*%
%TD*%
%TA.AperFunction,Conductor*%
%ADD25C,0.800000*%
%TD*%
%TA.AperFunction,Conductor*%
%ADD26C,0.600000*%
%TD*%
G04 APERTURE END LIST*
D10*
%TO.P,U1,9,EPAD*%
%TO.N,Earth*%
X90850000Y-38500000D03*
X90850000Y-39700000D03*
X90850000Y-40900000D03*
D11*
X91550000Y-39700000D03*
D10*
X92250000Y-38500000D03*
X92250000Y-39700000D03*
X92250000Y-40900000D03*
%TD*%
D12*
%TO.P,J8,1,Pin_1*%
%TO.N,SDA*%
X49300000Y-25320000D03*
D13*
%TO.P,J8,2,Pin_2*%
%TO.N,Earth*%
X46800000Y-25320000D03*
%TO.P,J8,3,Pin_3*%
%TO.N,SCL*%
X44300000Y-25320000D03*
%TO.P,J8,4,Pin_4*%
%TO.N,+3.3V*%
X41800000Y-25320000D03*
%TD*%
D14*
%TO.P,J2,1,Pin_1*%
%TO.N,+BATT*%
X91700000Y-46430000D03*
D15*
%TO.P,J2,2,Pin_2*%
%TO.N,Earth*%
X93700000Y-46430000D03*
%TD*%
D16*
%TO.P,U2,19,GND*%
%TO.N,Earth*%
X67490000Y-56400000D03*
X67490000Y-55300000D03*
X66940000Y-56950000D03*
X66940000Y-55850000D03*
X66940000Y-54750000D03*
X66390000Y-56400000D03*
X66390000Y-55300000D03*
X65840000Y-56950000D03*
X65840000Y-55850000D03*
X65840000Y-54750000D03*
X65290000Y-56400000D03*
X65290000Y-55300000D03*
%TD*%
D17*
%TO.P,SW1,1,A*%
%TO.N,Net-(D4-K)*%
X88460000Y-24475000D03*
D18*
%TO.P,SW1,2,B*%
%TO.N,Net-(SW1-B)*%
X91000000Y-24475000D03*
D17*
%TO.P,SW1,3,C*%
%TO.N,unconnected-(SW1-C-Pad3)*%
X93540000Y-24475000D03*
%TD*%
D19*
%TO.P,J1,S1,SHIELD*%
%TO.N,Earth*%
X79720000Y-25305000D03*
D20*
X79720000Y-21125000D03*
D19*
X71080000Y-25305000D03*
D20*
X71080000Y-21125000D03*
%TD*%
D21*
%TO.P,J7,1,Pin_1*%
%TO.N,+3.3V*%
X84600000Y-64155000D03*
D13*
%TO.P,J7,2,Pin_2*%
%TO.N,SCL*%
X87100000Y-64155000D03*
%TO.P,J7,3,Pin_3*%
%TO.N,Earth*%
X89600000Y-64155000D03*
%TO.P,J7,4,Pin_4*%
%TO.N,SDA*%
X92100000Y-64155000D03*
%TD*%
D22*
%TO.N,+3.3V*%
X74350000Y-62100000D03*
D23*
%TO.N,Earth*%
X79500000Y-59350000D03*
X58800000Y-29100000D03*
X60900000Y-29100000D03*
X70100000Y-58150000D03*
X67100000Y-58150000D03*
X68400000Y-52250000D03*
X61100000Y-52150000D03*
X62700000Y-56650000D03*
X58000000Y-37200000D03*
X42050000Y-29320000D03*
X85700000Y-32400000D03*
X74300000Y-55400000D03*
X68600000Y-61150000D03*
X92300000Y-23050000D03*
X87750000Y-60250000D03*
X78200000Y-34050000D03*
X77225000Y-45775000D03*
X43950000Y-41320000D03*
X65900000Y-49450000D03*
X60500000Y-47900000D03*
X39900000Y-37570000D03*
X85800000Y-26000000D03*
X64100000Y-59650000D03*
X65900000Y-52150000D03*
X67100000Y-59650000D03*
X82700000Y-36400000D03*
X91050000Y-60350000D03*
X61100000Y-59650000D03*
X62600000Y-61150000D03*
X65600000Y-61150000D03*
X70400000Y-51400000D03*
X51250000Y-35120000D03*
X71800000Y-36500000D03*
X47300000Y-32670000D03*
X62400000Y-41900000D03*
X70100000Y-61150000D03*
X72750000Y-56675000D03*
X65600000Y-58150000D03*
X69100000Y-42575000D03*
X70400000Y-48900000D03*
X80300000Y-31500000D03*
X88400000Y-42550000D03*
X58250000Y-45750000D03*
X68600000Y-56650000D03*
X51925000Y-43170000D03*
X57350000Y-31050000D03*
X43000000Y-45270000D03*
X39850000Y-26220000D03*
X78150000Y-29850000D03*
X74550000Y-60050000D03*
X60225000Y-55700000D03*
X61200000Y-58150000D03*
X82800000Y-47400000D03*
X64100000Y-58150000D03*
X51300000Y-38520000D03*
X87500000Y-56000000D03*
X94300000Y-34850000D03*
X62600000Y-59650000D03*
X62600000Y-58150000D03*
X77350000Y-59500000D03*
X70030000Y-28390000D03*
X65900000Y-50650000D03*
X85950000Y-62850000D03*
X84700000Y-51650000D03*
X62600000Y-52150000D03*
X70100000Y-59650000D03*
X61000000Y-49450000D03*
X68600000Y-59650000D03*
X95300000Y-60600000D03*
X67400000Y-43900000D03*
X79000000Y-49000000D03*
X64100000Y-61150000D03*
X53810975Y-20831585D03*
X81812500Y-54482602D03*
X75200000Y-32850000D03*
X64800000Y-24050000D03*
X86100000Y-35050000D03*
X51100000Y-28220000D03*
X73150000Y-51650000D03*
X68375000Y-50275000D03*
X65750000Y-38500000D03*
X68600000Y-58150000D03*
X68400000Y-47050000D03*
X90200000Y-46000000D03*
X77100000Y-42700000D03*
X70325000Y-54250000D03*
X74500000Y-58200000D03*
X77600000Y-50600000D03*
X64100000Y-56650000D03*
X61100000Y-61150000D03*
X67100000Y-61150000D03*
X81900000Y-68700000D03*
X83193183Y-30411820D03*
X72975000Y-40500000D03*
X80550000Y-62875000D03*
X62500000Y-49450000D03*
X78600000Y-40400000D03*
X86200000Y-47250000D03*
X57600000Y-20700000D03*
X42150000Y-33470000D03*
X88600000Y-50300000D03*
X36935975Y-20806585D03*
X89600000Y-32500000D03*
X61100000Y-50650000D03*
X91500000Y-43800000D03*
X37550000Y-45170000D03*
X65600000Y-59650000D03*
X62600000Y-50650000D03*
X82712500Y-55682602D03*
X95400000Y-68400000D03*
X65900000Y-53650000D03*
X94100000Y-42900000D03*
X71100000Y-44350000D03*
X78612500Y-57682602D03*
X90300000Y-29500000D03*
X70000000Y-34250000D03*
X64300000Y-43800000D03*
X91100000Y-48600000D03*
X95775000Y-41100000D03*
X95500000Y-20700000D03*
X46850000Y-29320000D03*
X73200000Y-48900000D03*
X46050000Y-38420000D03*
X67400000Y-40700000D03*
X73100000Y-30900000D03*
X61100000Y-53650000D03*
X64200000Y-55150000D03*
D22*
%TO.N,Net-(U1-~{CHRG})*%
X94350000Y-36100000D03*
X83850000Y-35950000D03*
%TO.N,Net-(U1-~{STDBY})*%
X95425000Y-39975000D03*
X84450000Y-32757000D03*
%TO.N,Net-(D3-A)*%
X65410000Y-24830000D03*
X74225000Y-51875000D03*
%TO.N,+3.3V*%
X81112500Y-55170102D03*
X38000000Y-43770000D03*
X71500000Y-50500000D03*
X59100000Y-36500000D03*
X53400000Y-24620000D03*
%TO.N,Net-(SW1-B)*%
X78900000Y-41600000D03*
X83512500Y-55100000D03*
D24*
%TO.N,Net-(U2-IO9)*%
X58200000Y-31400000D03*
D22*
X73050000Y-50250000D03*
%TD*%
D25*
%TO.N,+3.3V*%
X74350000Y-62100000D02*
X77200000Y-62100000D01*
X82750000Y-60250000D02*
X84600000Y-62100000D01*
X84600000Y-62100000D02*
X84600000Y-64155000D01*
X81750000Y-60250000D02*
X82750000Y-60250000D01*
X77200000Y-62100000D02*
X79100000Y-62100000D01*
X80262500Y-59687500D02*
X80250000Y-59700000D01*
X80262500Y-56882602D02*
X80262500Y-59687500D01*
D26*
%TO.N,Net-(D3-A)*%
X65420000Y-24840000D02*
X65410000Y-24830000D01*
X65420000Y-26470000D02*
X65420000Y-24840000D01*
X67050000Y-28100000D02*
X65420000Y-26470000D01*
X67050000Y-38725000D02*
X67050000Y-28100000D01*
X74225000Y-51875000D02*
X74225000Y-45900000D01*
X74225000Y-45900000D02*
X67050000Y-38725000D01*
%TO.N,Net-(U1-~{CHRG})*%
X94350000Y-36100000D02*
X84000000Y-36100000D01*
X84000000Y-36100000D02*
X83850000Y-35950000D01*
%TO.N,Net-(U1-~{STDBY})*%
X95700000Y-39700000D02*
X95425000Y-39975000D01*
X84450000Y-32757000D02*
X85143000Y-33450000D01*
X94800000Y-33450000D02*
X95700000Y-34350000D01*
X85143000Y-33450000D02*
X94800000Y-33450000D01*
X95700000Y-34350000D02*
X95700000Y-39700000D01*
D25*
%TO.N,+3.3V*%
X80800000Y-60250000D02*
X81750000Y-60250000D01*
X81112500Y-55170102D02*
X81112500Y-56032602D01*
X66000000Y-43400000D02*
X59100000Y-36500000D01*
X70800000Y-49900000D02*
X69650000Y-49900000D01*
X79100000Y-62100000D02*
X80950000Y-60250000D01*
D26*
X38000000Y-43770000D02*
X38000000Y-31670000D01*
X52400000Y-23020000D02*
X42400000Y-23020000D01*
X53400000Y-24020000D02*
X52400000Y-23020000D01*
D25*
X71500000Y-61000000D02*
X72600000Y-62100000D01*
X71400000Y-50500000D02*
X70800000Y-49900000D01*
D26*
X41800000Y-23620000D02*
X41800000Y-25320000D01*
D25*
X72600000Y-62100000D02*
X74350000Y-62100000D01*
X81112500Y-56032602D02*
X80262500Y-56882602D01*
D26*
X41800000Y-27870000D02*
X41800000Y-25320000D01*
D25*
X80950000Y-60250000D02*
X81750000Y-60250000D01*
D26*
X42400000Y-23020000D02*
X41800000Y-23620000D01*
D25*
X69650000Y-49900000D02*
X66000000Y-46250000D01*
X71500000Y-50500000D02*
X71500000Y-61000000D01*
X80250000Y-59700000D02*
X80800000Y-60250000D01*
X66000000Y-46250000D02*
X66000000Y-43400000D01*
D26*
X38000000Y-31670000D02*
X41800000Y-27870000D01*
D25*
X71500000Y-50500000D02*
X71400000Y-50500000D01*
D26*
X53400000Y-24620000D02*
X53400000Y-24020000D01*
D25*
%TO.N,Net-(SW1-B)*%
X83500000Y-53000000D02*
X81444000Y-50944000D01*
X81444000Y-28306000D02*
X87300000Y-22450000D01*
D26*
X81444000Y-39256000D02*
X81444000Y-39200000D01*
X78900000Y-41600000D02*
X79100000Y-41600000D01*
D25*
X90200000Y-22450000D02*
X91000000Y-23250000D01*
X87300000Y-22450000D02*
X90200000Y-22450000D01*
X81444000Y-39200000D02*
X81444000Y-28306000D01*
X81444000Y-50944000D02*
X81444000Y-39200000D01*
X91000000Y-23250000D02*
X91000000Y-24475000D01*
D26*
X79100000Y-41600000D02*
X81444000Y-39256000D01*
D25*
X83500000Y-54367398D02*
X83500000Y-53000000D01*
D26*
%TO.N,Net-(U2-IO9)*%
X58200000Y-33100000D02*
X58200000Y-31400000D01*
X58200000Y-33100000D02*
X72125000Y-47025000D01*
X72125000Y-47025000D02*
X72125000Y-49325000D01*
X72125000Y-49325000D02*
X73050000Y-50250000D01*
%TD*%
%TA.AperFunction,Conductor*%
%TO.N,Earth*%
G36*
X95556922Y-20201280D02*
G01*
X95647266Y-20211459D01*
X95674331Y-20217636D01*
X95753540Y-20245352D01*
X95778553Y-20257398D01*
X95849606Y-20302043D01*
X95871313Y-20319355D01*
X95930644Y-20378686D01*
X95947957Y-20400395D01*
X95992600Y-20471444D01*
X96004648Y-20496462D01*
X96032362Y-20575666D01*
X96038540Y-20602735D01*
X96048720Y-20693076D01*
X96049500Y-20706961D01*
X96049500Y-33621613D01*
X96029815Y-33688652D01*
X95977011Y-33734407D01*
X95907853Y-33744351D01*
X95844297Y-33715326D01*
X95837819Y-33709294D01*
X95138016Y-33009491D01*
X95138015Y-33009490D01*
X95012485Y-32937016D01*
X95012482Y-32937015D01*
X94989609Y-32930885D01*
X94989609Y-32930886D01*
X94905294Y-32908294D01*
X94872475Y-32899500D01*
X94872474Y-32899500D01*
X85422387Y-32899500D01*
X85355348Y-32879815D01*
X85334706Y-32863181D01*
X85143035Y-32671510D01*
X85109550Y-32610187D01*
X85109121Y-32608130D01*
X85099540Y-32559964D01*
X85048620Y-32437031D01*
X85036469Y-32418846D01*
X84974698Y-32326398D01*
X84974692Y-32326390D01*
X84880609Y-32232307D01*
X84880601Y-32232301D01*
X84769979Y-32158386D01*
X84769972Y-32158382D01*
X84769969Y-32158380D01*
X84769965Y-32158378D01*
X84769961Y-32158376D01*
X84647040Y-32107461D01*
X84647030Y-32107458D01*
X84516533Y-32081500D01*
X84516531Y-32081500D01*
X84383469Y-32081500D01*
X84383467Y-32081500D01*
X84252969Y-32107458D01*
X84252959Y-32107461D01*
X84130038Y-32158376D01*
X84130020Y-32158386D01*
X84019398Y-32232301D01*
X84019390Y-32232307D01*
X83925307Y-32326390D01*
X83925301Y-32326398D01*
X83851386Y-32437020D01*
X83851376Y-32437038D01*
X83800461Y-32559959D01*
X83800458Y-32559969D01*
X83774500Y-32690466D01*
X83774500Y-32690469D01*
X83774500Y-32823531D01*
X83774500Y-32823533D01*
X83774499Y-32823533D01*
X83800458Y-32954030D01*
X83800461Y-32954040D01*
X83851376Y-33076961D01*
X83851386Y-33076979D01*
X83925301Y-33187601D01*
X83925307Y-33187609D01*
X84019390Y-33281692D01*
X84019398Y-33281698D01*
X84130020Y-33355613D01*
X84130023Y-33355614D01*
X84130031Y-33355620D01*
X84130037Y-33355622D01*
X84130038Y-33355623D01*
X84252959Y-33406538D01*
X84252964Y-33406540D01*
X84301022Y-33416099D01*
X84362931Y-33448483D01*
X84364510Y-33450035D01*
X84804985Y-33890510D01*
X84930515Y-33962984D01*
X85070525Y-34000500D01*
X85070526Y-34000500D01*
X85215474Y-34000500D01*
X94520613Y-34000500D01*
X94587652Y-34020185D01*
X94608294Y-34036819D01*
X95113181Y-34541706D01*
X95146666Y-34603029D01*
X95149500Y-34629387D01*
X95149500Y-35671895D01*
X95129815Y-35738934D01*
X95077011Y-35784689D01*
X95007853Y-35794633D01*
X94944297Y-35765608D01*
X94922398Y-35740786D01*
X94874695Y-35669394D01*
X94874692Y-35669390D01*
X94780609Y-35575307D01*
X94780601Y-35575301D01*
X94669979Y-35501386D01*
X94669972Y-35501382D01*
X94669969Y-35501380D01*
X94669965Y-35501378D01*
X94669961Y-35501376D01*
X94547040Y-35450461D01*
X94547030Y-35450458D01*
X94416533Y-35424500D01*
X94416531Y-35424500D01*
X94283469Y-35424500D01*
X94283467Y-35424500D01*
X94152969Y-35450458D01*
X94152959Y-35450461D01*
X94030038Y-35501376D01*
X94030026Y-35501383D01*
X94030022Y-35501386D01*
X93989289Y-35528602D01*
X93922614Y-35549480D01*
X93920400Y-35549500D01*
X84456164Y-35549500D01*
X84389125Y-35529815D01*
X84368483Y-35513181D01*
X84280609Y-35425307D01*
X84280601Y-35425301D01*
X84169979Y-35351386D01*
X84169972Y-35351382D01*
X84169969Y-35351380D01*
X84169965Y-35351378D01*
X84169961Y-35351376D01*
X84047040Y-35300461D01*
X84047030Y-35300458D01*
X83916533Y-35274500D01*
X83916531Y-35274500D01*
X83783469Y-35274500D01*
X83783467Y-35274500D01*
X83652969Y-35300458D01*
X83652959Y-35300461D01*
X83530038Y-35351376D01*
X83530020Y-35351386D01*
X83419398Y-35425301D01*
X83419390Y-35425307D01*
X83325307Y-35519390D01*
X83325301Y-35519398D01*
X83251386Y-35630020D01*
X83251376Y-35630038D01*
X83200461Y-35752959D01*
X83200458Y-35752969D01*
X83174500Y-35883466D01*
X83174500Y-35883469D01*
X83174500Y-36016531D01*
X83174500Y-36016533D01*
X83174499Y-36016533D01*
X83200458Y-36147030D01*
X83200461Y-36147040D01*
X83251376Y-36269961D01*
X83251386Y-36269979D01*
X83325301Y-36380601D01*
X83325307Y-36380609D01*
X83419390Y-36474692D01*
X83419398Y-36474698D01*
X83530020Y-36548613D01*
X83530023Y-36548614D01*
X83530031Y-36548620D01*
X83652964Y-36599540D01*
X83652968Y-36599540D01*
X83652969Y-36599541D01*
X83783466Y-36625500D01*
X83783469Y-36625500D01*
X83817899Y-36625500D01*
X83849992Y-36629725D01*
X83862237Y-36633006D01*
X83927525Y-36650500D01*
X83927526Y-36650500D01*
X84072474Y-36650500D01*
X93920400Y-36650500D01*
X93987439Y-36670185D01*
X93989251Y-36671371D01*
X94030031Y-36698620D01*
X94152964Y-36749540D01*
X94152968Y-36749540D01*
X94152969Y-36749541D01*
X94283466Y-36775500D01*
X94283469Y-36775500D01*
X94416533Y-36775500D01*
X94512057Y-36756498D01*
X94547036Y-36749540D01*
X94669969Y-36698620D01*
X94780606Y-36624695D01*
X94874695Y-36530606D01*
X94922397Y-36459213D01*
X94976009Y-36414408D01*
X95045334Y-36405701D01*
X95108362Y-36435855D01*
X95145082Y-36495298D01*
X95149500Y-36528104D01*
X95149500Y-39280386D01*
X95129815Y-39347425D01*
X95094391Y-39383488D01*
X94994394Y-39450304D01*
X94994390Y-39450307D01*
X94900307Y-39544390D01*
X94900301Y-39544398D01*
X94826386Y-39655020D01*
X94826376Y-39655038D01*
X94775461Y-39777959D01*
X94775458Y-39777969D01*
X94749500Y-39908466D01*
X94749500Y-39908469D01*
X94749500Y-40041531D01*
X94749500Y-40041533D01*
X94749499Y-40041533D01*
X94775458Y-40172030D01*
X94775461Y-40172040D01*
X94826376Y-40294961D01*
X94826386Y-40294979D01*
X94900301Y-40405601D01*
X94900307Y-40405609D01*
X94994390Y-40499692D01*
X94994398Y-40499698D01*
X95105020Y-40573613D01*
X95105023Y-40573614D01*
X95105031Y-40573620D01*
X95105037Y-40573622D01*
X95105038Y-40573623D01*
X95227959Y-40624538D01*
X95227964Y-40624540D01*
X95227968Y-40624540D01*
X95227969Y-40624541D01*
X95358466Y-40650500D01*
X95358469Y-40650500D01*
X95491533Y-40650500D01*
X95579325Y-40633035D01*
X95622036Y-40624540D01*
X95744969Y-40573620D01*
X95782398Y-40548611D01*
X95856610Y-40499025D01*
X95923287Y-40478147D01*
X95990667Y-40496632D01*
X96037357Y-40548611D01*
X96049500Y-40602127D01*
X96049500Y-47954586D01*
X96049028Y-47965394D01*
X96035260Y-48122753D01*
X96031507Y-48144038D01*
X95992030Y-48291369D01*
X95984637Y-48311681D01*
X95920177Y-48449915D01*
X95909370Y-48468633D01*
X95821880Y-48593582D01*
X95807986Y-48610140D01*
X95700140Y-48717986D01*
X95683582Y-48731880D01*
X95558633Y-48819370D01*
X95539915Y-48830177D01*
X95401681Y-48894637D01*
X95381369Y-48902030D01*
X95234038Y-48941507D01*
X95212753Y-48945260D01*
X95055395Y-48959028D01*
X95044587Y-48959500D01*
X90668872Y-48959500D01*
X90437772Y-48989926D01*
X90408884Y-48993730D01*
X90215253Y-49045613D01*
X90155581Y-49061602D01*
X90155571Y-49061605D01*
X89913309Y-49161953D01*
X89913299Y-49161958D01*
X89686196Y-49293075D01*
X89478148Y-49452718D01*
X89292718Y-49638148D01*
X89133075Y-49846196D01*
X89001958Y-50073299D01*
X89001953Y-50073309D01*
X88901605Y-50315571D01*
X88901602Y-50315581D01*
X88834361Y-50566531D01*
X88833730Y-50568885D01*
X88799500Y-50828872D01*
X88799500Y-58181127D01*
X88826123Y-58383339D01*
X88833730Y-58441116D01*
X88901079Y-58692466D01*
X88901602Y-58694418D01*
X88901605Y-58694428D01*
X89001953Y-58936690D01*
X89001958Y-58936700D01*
X89133075Y-59163803D01*
X89292718Y-59371851D01*
X89292726Y-59371860D01*
X89478140Y-59557274D01*
X89478148Y-59557281D01*
X89478149Y-59557282D01*
X89513401Y-59584332D01*
X89686196Y-59716924D01*
X89913299Y-59848041D01*
X89913309Y-59848046D01*
X90126125Y-59936197D01*
X90155581Y-59948398D01*
X90408884Y-60016270D01*
X90668880Y-60050500D01*
X90734108Y-60050500D01*
X94984108Y-60050500D01*
X95044587Y-60050500D01*
X95055394Y-60050972D01*
X95085721Y-60053625D01*
X95212755Y-60064739D01*
X95234035Y-60068491D01*
X95351188Y-60099882D01*
X95381369Y-60107969D01*
X95401681Y-60115362D01*
X95539915Y-60179822D01*
X95558633Y-60190629D01*
X95683582Y-60278119D01*
X95700140Y-60292013D01*
X95807986Y-60399859D01*
X95821880Y-60416417D01*
X95909370Y-60541366D01*
X95920177Y-60560084D01*
X95984637Y-60698318D01*
X95992030Y-60718630D01*
X96031507Y-60865961D01*
X96035260Y-60887246D01*
X96049028Y-61044605D01*
X96049500Y-61055413D01*
X96049500Y-68194586D01*
X96049028Y-68205394D01*
X96035260Y-68362753D01*
X96031507Y-68384038D01*
X95992030Y-68531369D01*
X95984637Y-68551681D01*
X95920177Y-68689915D01*
X95909370Y-68708633D01*
X95821880Y-68833582D01*
X95807986Y-68850140D01*
X95700140Y-68957986D01*
X95683582Y-68971880D01*
X95558633Y-69059370D01*
X95539915Y-69070177D01*
X95401681Y-69134637D01*
X95381369Y-69142030D01*
X95234038Y-69181507D01*
X95212753Y-69185260D01*
X95055395Y-69199028D01*
X95044587Y-69199500D01*
X81474000Y-69199500D01*
X81406961Y-69179815D01*
X81361206Y-69127011D01*
X81350000Y-69075500D01*
X81350000Y-63150000D01*
X76573433Y-63150000D01*
X76506394Y-63130315D01*
X76497946Y-63124375D01*
X76313802Y-62983075D01*
X76311746Y-62981888D01*
X76311254Y-62981372D01*
X76310426Y-62980819D01*
X76310549Y-62980633D01*
X76263530Y-62931322D01*
X76250305Y-62862716D01*
X76276272Y-62797850D01*
X76333185Y-62757321D01*
X76373744Y-62750500D01*
X79164071Y-62750500D01*
X79248615Y-62733682D01*
X79289744Y-62725501D01*
X79408127Y-62676465D01*
X79514669Y-62605277D01*
X81183127Y-60936819D01*
X81244450Y-60903334D01*
X81270808Y-60900500D01*
X81685931Y-60900500D01*
X82429192Y-60900500D01*
X82496231Y-60920185D01*
X82516873Y-60936819D01*
X83913181Y-62333127D01*
X83946666Y-62394450D01*
X83949500Y-62420808D01*
X83949500Y-62828560D01*
X83929815Y-62895599D01*
X83877011Y-62941354D01*
X83868833Y-62944742D01*
X83757671Y-62986202D01*
X83757664Y-62986206D01*
X83642455Y-63072452D01*
X83642452Y-63072455D01*
X83556206Y-63187664D01*
X83556202Y-63187671D01*
X83505908Y-63322517D01*
X83499501Y-63382116D01*
X83499501Y-63382123D01*
X83499500Y-63382135D01*
X83499500Y-64927870D01*
X83499501Y-64927876D01*
X83505908Y-64987483D01*
X83556202Y-65122328D01*
X83556206Y-65122335D01*
X83642452Y-65237544D01*
X83642455Y-65237547D01*
X83757664Y-65323793D01*
X83757671Y-65323797D01*
X83892517Y-65374091D01*
X83892516Y-65374091D01*
X83899444Y-65374835D01*
X83952127Y-65380500D01*
X85247872Y-65380499D01*
X85307483Y-65374091D01*
X85442331Y-65323796D01*
X85557546Y-65237546D01*
X85643796Y-65122331D01*
X85694091Y-64987483D01*
X85700500Y-64927873D01*
X85700499Y-63943389D01*
X85999500Y-63943389D01*
X85999500Y-64366611D01*
X86026598Y-64537701D01*
X86080127Y-64702445D01*
X86158768Y-64856788D01*
X86260586Y-64996928D01*
X86383072Y-65119414D01*
X86523212Y-65221232D01*
X86677555Y-65299873D01*
X86842299Y-65353402D01*
X87013389Y-65380500D01*
X87013390Y-65380500D01*
X87186610Y-65380500D01*
X87186611Y-65380500D01*
X87357701Y-65353402D01*
X87522445Y-65299873D01*
X87676788Y-65221232D01*
X87816928Y-65119414D01*
X87939414Y-64996928D01*
X88041232Y-64856788D01*
X88119873Y-64702445D01*
X88173402Y-64537701D01*
X88200500Y-64366611D01*
X88200500Y-63943389D01*
X90999500Y-63943389D01*
X90999500Y-64366611D01*
X91026598Y-64537701D01*
X91080127Y-64702445D01*
X91158768Y-64856788D01*
X91260586Y-64996928D01*
X91383072Y-65119414D01*
X91523212Y-65221232D01*
X91677555Y-65299873D01*
X91842299Y-65353402D01*
X92013389Y-65380500D01*
X92013390Y-65380500D01*
X92186610Y-65380500D01*
X92186611Y-65380500D01*
X92357701Y-65353402D01*
X92522445Y-65299873D01*
X92676788Y-65221232D01*
X92816928Y-65119414D01*
X92939414Y-64996928D01*
X93041232Y-64856788D01*
X93119873Y-64702445D01*
X93173402Y-64537701D01*
X93200500Y-64366611D01*
X93200500Y-63943389D01*
X93173402Y-63772299D01*
X93119873Y-63607555D01*
X93041232Y-63453212D01*
X92939414Y-63313072D01*
X92816928Y-63190586D01*
X92676788Y-63088768D01*
X92522445Y-63010127D01*
X92357701Y-62956598D01*
X92357699Y-62956597D01*
X92357698Y-62956597D01*
X92226271Y-62935781D01*
X92186611Y-62929500D01*
X92013389Y-62929500D01*
X91973728Y-62935781D01*
X91842302Y-62956597D01*
X91677552Y-63010128D01*
X91523211Y-63088768D01*
X91448956Y-63142718D01*
X91383072Y-63190586D01*
X91383070Y-63190588D01*
X91383069Y-63190588D01*
X91260588Y-63313069D01*
X91260588Y-63313070D01*
X91260586Y-63313072D01*
X91253725Y-63322516D01*
X91158768Y-63453211D01*
X91080128Y-63607552D01*
X91026597Y-63772302D01*
X90999500Y-63943389D01*
X88200500Y-63943389D01*
X88173402Y-63772299D01*
X88119873Y-63607555D01*
X88041232Y-63453212D01*
X87939414Y-63313072D01*
X87816928Y-63190586D01*
X87676788Y-63088768D01*
X87522445Y-63010127D01*
X87357701Y-62956598D01*
X87357699Y-62956597D01*
X87357698Y-62956597D01*
X87226271Y-62935781D01*
X87186611Y-62929500D01*
X87013389Y-62929500D01*
X86973728Y-62935781D01*
X86842302Y-62956597D01*
X86677552Y-63010128D01*
X86523211Y-63088768D01*
X86448956Y-63142718D01*
X86383072Y-63190586D01*
X86383070Y-63190588D01*
X86383069Y-63190588D01*
X86260588Y-63313069D01*
X86260588Y-63313070D01*
X86260586Y-63313072D01*
X86253725Y-63322516D01*
X86158768Y-63453211D01*
X86080128Y-63607552D01*
X86026597Y-63772302D01*
X85999500Y-63943389D01*
X85700499Y-63943389D01*
X85700499Y-63382128D01*
X85694091Y-63322517D01*
X85690568Y-63313072D01*
X85643797Y-63187671D01*
X85643793Y-63187664D01*
X85557547Y-63072455D01*
X85557544Y-63072452D01*
X85442335Y-62986206D01*
X85442329Y-62986203D01*
X85331166Y-62944741D01*
X85275233Y-62902869D01*
X85250816Y-62837405D01*
X85250500Y-62828559D01*
X85250500Y-62035928D01*
X85225502Y-61910261D01*
X85225501Y-61910260D01*
X85225501Y-61910256D01*
X85176465Y-61791873D01*
X85169280Y-61781120D01*
X85105277Y-61685331D01*
X85105275Y-61685329D01*
X85105273Y-61685326D01*
X83164673Y-59744726D01*
X83164669Y-59744723D01*
X83058127Y-59673535D01*
X82967344Y-59635931D01*
X82939742Y-59624498D01*
X82939739Y-59624497D01*
X82934381Y-59623432D01*
X82934375Y-59623431D01*
X82814071Y-59599500D01*
X82814069Y-59599500D01*
X81814069Y-59599500D01*
X81120808Y-59599500D01*
X81091367Y-59590855D01*
X81061381Y-59584332D01*
X81056365Y-59580577D01*
X81053769Y-59579815D01*
X81033127Y-59563181D01*
X80949319Y-59479373D01*
X80915834Y-59418050D01*
X80913000Y-59391692D01*
X80913000Y-57203410D01*
X80932685Y-57136371D01*
X80949319Y-57115729D01*
X81617772Y-56447276D01*
X81617777Y-56447271D01*
X81688966Y-56340728D01*
X81738001Y-56222345D01*
X81763000Y-56096670D01*
X81763000Y-55968533D01*
X81763000Y-55374523D01*
X81765383Y-55350330D01*
X81788000Y-55236634D01*
X81788000Y-55103568D01*
X81762041Y-54973071D01*
X81762040Y-54973070D01*
X81762040Y-54973066D01*
X81711120Y-54850133D01*
X81664284Y-54780038D01*
X81637198Y-54739500D01*
X81637192Y-54739492D01*
X81543109Y-54645409D01*
X81543101Y-54645403D01*
X81432479Y-54571488D01*
X81432472Y-54571484D01*
X81432469Y-54571482D01*
X81432465Y-54571480D01*
X81432461Y-54571478D01*
X81309540Y-54520563D01*
X81309530Y-54520560D01*
X81179033Y-54494602D01*
X81179031Y-54494602D01*
X81045969Y-54494602D01*
X81045967Y-54494602D01*
X80915469Y-54520560D01*
X80915459Y-54520563D01*
X80792538Y-54571478D01*
X80792520Y-54571488D01*
X80681898Y-54645403D01*
X80681890Y-54645409D01*
X80587807Y-54739492D01*
X80587801Y-54739500D01*
X80513886Y-54850122D01*
X80513876Y-54850140D01*
X80462961Y-54973061D01*
X80462958Y-54973071D01*
X80437000Y-55103568D01*
X80437000Y-55236634D01*
X80459617Y-55350330D01*
X80462000Y-55374523D01*
X80462000Y-55711793D01*
X80442315Y-55778832D01*
X80425681Y-55799474D01*
X79757227Y-56467927D01*
X79757224Y-56467930D01*
X79710487Y-56537877D01*
X79710488Y-56537878D01*
X79686034Y-56574476D01*
X79636999Y-56692857D01*
X79636997Y-56692863D01*
X79612000Y-56818530D01*
X79612000Y-59560881D01*
X79609617Y-59585072D01*
X79599501Y-59635927D01*
X79599501Y-59764073D01*
X79624497Y-59889736D01*
X79624499Y-59889744D01*
X79643740Y-59936197D01*
X79673535Y-60008127D01*
X79744723Y-60114669D01*
X79744726Y-60114673D01*
X79867372Y-60237319D01*
X79900857Y-60298642D01*
X79895873Y-60368334D01*
X79867372Y-60412681D01*
X78866873Y-61413181D01*
X78805550Y-61446666D01*
X78779192Y-61449500D01*
X74554422Y-61449500D01*
X74530231Y-61447117D01*
X74466449Y-61434429D01*
X74416532Y-61424500D01*
X74416531Y-61424500D01*
X74283469Y-61424500D01*
X74283468Y-61424500D01*
X74233550Y-61434429D01*
X74169768Y-61447117D01*
X74145578Y-61449500D01*
X72920808Y-61449500D01*
X72853769Y-61429815D01*
X72833127Y-61413181D01*
X72186819Y-60766873D01*
X72153334Y-60705550D01*
X72150500Y-60679192D01*
X72150500Y-50704421D01*
X72151717Y-50687088D01*
X72152201Y-50683654D01*
X72175500Y-50566531D01*
X72175500Y-50518612D01*
X72176717Y-50509991D01*
X72187698Y-50485781D01*
X72195185Y-50460285D01*
X72201904Y-50454462D01*
X72205579Y-50446362D01*
X72227903Y-50431933D01*
X72247989Y-50414530D01*
X72256791Y-50413264D01*
X72264261Y-50408437D01*
X72290837Y-50408368D01*
X72317147Y-50404586D01*
X72325237Y-50408280D01*
X72334130Y-50408258D01*
X72356523Y-50422568D01*
X72380703Y-50433611D01*
X72386599Y-50441788D01*
X72393005Y-50445882D01*
X72399081Y-50459098D01*
X72414061Y-50479872D01*
X72451376Y-50569961D01*
X72451386Y-50569979D01*
X72525301Y-50680601D01*
X72525307Y-50680609D01*
X72619390Y-50774692D01*
X72619398Y-50774698D01*
X72730020Y-50848613D01*
X72730023Y-50848614D01*
X72730031Y-50848620D01*
X72730037Y-50848622D01*
X72730038Y-50848623D01*
X72839850Y-50894108D01*
X72852964Y-50899540D01*
X72852968Y-50899540D01*
X72852969Y-50899541D01*
X72983466Y-50925500D01*
X72983469Y-50925500D01*
X73116533Y-50925500D01*
X73204325Y-50908035D01*
X73247036Y-50899540D01*
X73369969Y-50848620D01*
X73407398Y-50823611D01*
X73481610Y-50774025D01*
X73548287Y-50753147D01*
X73615667Y-50771632D01*
X73662357Y-50823611D01*
X73674500Y-50877127D01*
X73674500Y-51445399D01*
X73654815Y-51512438D01*
X73653603Y-51514289D01*
X73626382Y-51555027D01*
X73626376Y-51555038D01*
X73575461Y-51677959D01*
X73575458Y-51677969D01*
X73549500Y-51808466D01*
X73549500Y-51808469D01*
X73549500Y-51941531D01*
X73549500Y-51941533D01*
X73549499Y-51941533D01*
X73575458Y-52072030D01*
X73575461Y-52072040D01*
X73626376Y-52194961D01*
X73626386Y-52194979D01*
X73700301Y-52305601D01*
X73700307Y-52305609D01*
X73794390Y-52399692D01*
X73794398Y-52399698D01*
X73905020Y-52473613D01*
X73905023Y-52473614D01*
X73905031Y-52473620D01*
X74027964Y-52524540D01*
X74027968Y-52524540D01*
X74027969Y-52524541D01*
X74158466Y-52550500D01*
X74158469Y-52550500D01*
X74291533Y-52550500D01*
X74379325Y-52533035D01*
X74422036Y-52524540D01*
X74544969Y-52473620D01*
X74655606Y-52399695D01*
X74749695Y-52305606D01*
X74823620Y-52194969D01*
X74874540Y-52072036D01*
X74900500Y-51941531D01*
X74900500Y-51808469D01*
X74900500Y-51808466D01*
X74874541Y-51677969D01*
X74874540Y-51677968D01*
X74874540Y-51677964D01*
X74823620Y-51555031D01*
X74796396Y-51514288D01*
X74775520Y-51447612D01*
X74775500Y-51445399D01*
X74775500Y-45827527D01*
X74775500Y-45827525D01*
X74737984Y-45687515D01*
X74701602Y-45624499D01*
X74665510Y-45561985D01*
X70770058Y-41666533D01*
X78224499Y-41666533D01*
X78250458Y-41797030D01*
X78250461Y-41797040D01*
X78301376Y-41919961D01*
X78301386Y-41919979D01*
X78375301Y-42030601D01*
X78375307Y-42030609D01*
X78469390Y-42124692D01*
X78469398Y-42124698D01*
X78580020Y-42198613D01*
X78580023Y-42198614D01*
X78580031Y-42198620D01*
X78702964Y-42249540D01*
X78702968Y-42249540D01*
X78702969Y-42249541D01*
X78833466Y-42275500D01*
X78833469Y-42275500D01*
X78966533Y-42275500D01*
X79054325Y-42258035D01*
X79097036Y-42249540D01*
X79219969Y-42198620D01*
X79330606Y-42124695D01*
X79371522Y-42083777D01*
X79397206Y-42064070D01*
X79438015Y-42040510D01*
X80581819Y-40896704D01*
X80643142Y-40863220D01*
X80712833Y-40868204D01*
X80768767Y-40910075D01*
X80793184Y-40975540D01*
X80793500Y-40984386D01*
X80793500Y-51008069D01*
X80793500Y-51008071D01*
X80793499Y-51008071D01*
X80811512Y-51098620D01*
X80811512Y-51098621D01*
X80818496Y-51133737D01*
X80818498Y-51133742D01*
X80867534Y-51252125D01*
X80938726Y-51358673D01*
X80938727Y-51358674D01*
X82813181Y-53233127D01*
X82846666Y-53294450D01*
X82849500Y-53320808D01*
X82849500Y-54431467D01*
X82849500Y-54431469D01*
X82849499Y-54431469D01*
X82874497Y-54557136D01*
X82874500Y-54557146D01*
X82921264Y-54670044D01*
X82928733Y-54739513D01*
X82916065Y-54775942D01*
X82913880Y-54780030D01*
X82862961Y-54902959D01*
X82862958Y-54902969D01*
X82837000Y-55033466D01*
X82837000Y-55033469D01*
X82837000Y-55166531D01*
X82837000Y-55166533D01*
X82836999Y-55166533D01*
X82862958Y-55297030D01*
X82862961Y-55297040D01*
X82913876Y-55419961D01*
X82913886Y-55419979D01*
X82987801Y-55530601D01*
X82987807Y-55530609D01*
X83081890Y-55624692D01*
X83081898Y-55624698D01*
X83192520Y-55698613D01*
X83192523Y-55698614D01*
X83192531Y-55698620D01*
X83315464Y-55749540D01*
X83315468Y-55749540D01*
X83315469Y-55749541D01*
X83445966Y-55775500D01*
X83445969Y-55775500D01*
X83579033Y-55775500D01*
X83666825Y-55758035D01*
X83709536Y-55749540D01*
X83832469Y-55698620D01*
X83943106Y-55624695D01*
X84037195Y-55530606D01*
X84111120Y-55419969D01*
X84162040Y-55297036D01*
X84188000Y-55166531D01*
X84188000Y-55033469D01*
X84188000Y-55033466D01*
X84162041Y-54902969D01*
X84162040Y-54902968D01*
X84162040Y-54902964D01*
X84111120Y-54780031D01*
X84099826Y-54763129D01*
X84078949Y-54696453D01*
X84088366Y-54646791D01*
X84125501Y-54557142D01*
X84150500Y-54431467D01*
X84150500Y-52935931D01*
X84150500Y-52935928D01*
X84125502Y-52810261D01*
X84125501Y-52810260D01*
X84125501Y-52810256D01*
X84076465Y-52691873D01*
X84005277Y-52585331D01*
X84005275Y-52585329D01*
X84005273Y-52585326D01*
X82130819Y-50710872D01*
X82097334Y-50649549D01*
X82094500Y-50623191D01*
X82094500Y-45757135D01*
X90849500Y-45757135D01*
X90849500Y-47102870D01*
X90849501Y-47102876D01*
X90855908Y-47162483D01*
X90906202Y-47297328D01*
X90906206Y-47297335D01*
X90992452Y-47412544D01*
X90992455Y-47412547D01*
X91107664Y-47498793D01*
X91107671Y-47498797D01*
X91242517Y-47549091D01*
X91242516Y-47549091D01*
X91249444Y-47549835D01*
X91302127Y-47555500D01*
X92097872Y-47555499D01*
X92157483Y-47549091D01*
X92292331Y-47498796D01*
X92407546Y-47412546D01*
X92493796Y-47297331D01*
X92544091Y-47162483D01*
X92550500Y-47102873D01*
X92550499Y-45757128D01*
X92544091Y-45697517D01*
X92540360Y-45687515D01*
X92493797Y-45562671D01*
X92493793Y-45562664D01*
X92407547Y-45447455D01*
X92407544Y-45447452D01*
X92292335Y-45361206D01*
X92292328Y-45361202D01*
X92157482Y-45310908D01*
X92157483Y-45310908D01*
X92097883Y-45304501D01*
X92097881Y-45304500D01*
X92097873Y-45304500D01*
X92097864Y-45304500D01*
X91302129Y-45304500D01*
X91302123Y-45304501D01*
X91242516Y-45310908D01*
X91107671Y-45361202D01*
X91107664Y-45361206D01*
X90992455Y-45447452D01*
X90992452Y-45447455D01*
X90906206Y-45562664D01*
X90906202Y-45562671D01*
X90855908Y-45697517D01*
X90849501Y-45757116D01*
X90849501Y-45757123D01*
X90849500Y-45757135D01*
X82094500Y-45757135D01*
X82094500Y-28626808D01*
X82114185Y-28559769D01*
X82130819Y-28539127D01*
X86298416Y-24371530D01*
X87409500Y-24371530D01*
X87409500Y-24578469D01*
X87449868Y-24781412D01*
X87449870Y-24781420D01*
X87529058Y-24972596D01*
X87644024Y-25144657D01*
X87790342Y-25290975D01*
X87790345Y-25290977D01*
X87962402Y-25405941D01*
X88153580Y-25485130D01*
X88356530Y-25525499D01*
X88356534Y-25525500D01*
X88356535Y-25525500D01*
X88563466Y-25525500D01*
X88563467Y-25525499D01*
X88766420Y-25485130D01*
X88957598Y-25405941D01*
X89129655Y-25290977D01*
X89275977Y-25144655D01*
X89390941Y-24972598D01*
X89470130Y-24781420D01*
X89510500Y-24578465D01*
X89510500Y-24371535D01*
X89470130Y-24168580D01*
X89390941Y-23977402D01*
X89275977Y-23805345D01*
X89275975Y-23805342D01*
X89129657Y-23659024D01*
X89043626Y-23601541D01*
X88957598Y-23544059D01*
X88788227Y-23473903D01*
X88766420Y-23464870D01*
X88766412Y-23464868D01*
X88563469Y-23424500D01*
X88563465Y-23424500D01*
X88356535Y-23424500D01*
X88356530Y-23424500D01*
X88153587Y-23464868D01*
X88153579Y-23464870D01*
X87962403Y-23544058D01*
X87790342Y-23659024D01*
X87644024Y-23805342D01*
X87529058Y-23977403D01*
X87449870Y-24168579D01*
X87449868Y-24168587D01*
X87409500Y-24371530D01*
X86298416Y-24371530D01*
X87533127Y-23136819D01*
X87594450Y-23103334D01*
X87620808Y-23100500D01*
X89879192Y-23100500D01*
X89946231Y-23120185D01*
X89966873Y-23136819D01*
X90145426Y-23315372D01*
X90178911Y-23376695D01*
X90173927Y-23446387D01*
X90132055Y-23502320D01*
X90126635Y-23506155D01*
X90069400Y-23544397D01*
X90014033Y-23627260D01*
X90014032Y-23627264D01*
X89999500Y-23700321D01*
X89999500Y-25249678D01*
X90014032Y-25322735D01*
X90014033Y-25322739D01*
X90014034Y-25322740D01*
X90069399Y-25405601D01*
X90127940Y-25444716D01*
X90152260Y-25460966D01*
X90152264Y-25460967D01*
X90225321Y-25475499D01*
X90225324Y-25475500D01*
X90225326Y-25475500D01*
X91774676Y-25475500D01*
X91774677Y-25475499D01*
X91847740Y-25460966D01*
X91930601Y-25405601D01*
X91985966Y-25322740D01*
X92000500Y-25249674D01*
X92000500Y-24371530D01*
X92489500Y-24371530D01*
X92489500Y-24578469D01*
X92529868Y-24781412D01*
X92529870Y-24781420D01*
X92609058Y-24972596D01*
X92724024Y-25144657D01*
X92870342Y-25290975D01*
X92870345Y-25290977D01*
X93042402Y-25405941D01*
X93233580Y-25485130D01*
X93436530Y-25525499D01*
X93436534Y-25525500D01*
X93436535Y-25525500D01*
X93643466Y-25525500D01*
X93643467Y-25525499D01*
X93846420Y-25485130D01*
X94037598Y-25405941D01*
X94209655Y-25290977D01*
X94355977Y-25144655D01*
X94470941Y-24972598D01*
X94550130Y-24781420D01*
X94590500Y-24578465D01*
X94590500Y-24371535D01*
X94550130Y-24168580D01*
X94470941Y-23977402D01*
X94355977Y-23805345D01*
X94355975Y-23805342D01*
X94209657Y-23659024D01*
X94123626Y-23601541D01*
X94037598Y-23544059D01*
X93868227Y-23473903D01*
X93846420Y-23464870D01*
X93846412Y-23464868D01*
X93643469Y-23424500D01*
X93643465Y-23424500D01*
X93436535Y-23424500D01*
X93436530Y-23424500D01*
X93233587Y-23464868D01*
X93233579Y-23464870D01*
X93042403Y-23544058D01*
X92870342Y-23659024D01*
X92724024Y-23805342D01*
X92609058Y-23977403D01*
X92529870Y-24168579D01*
X92529868Y-24168587D01*
X92489500Y-24371530D01*
X92000500Y-24371530D01*
X92000500Y-23700326D01*
X92000500Y-23700323D01*
X92000499Y-23700321D01*
X91985967Y-23627264D01*
X91985966Y-23627260D01*
X91930601Y-23544399D01*
X91847740Y-23489034D01*
X91847739Y-23489033D01*
X91847735Y-23489032D01*
X91774677Y-23474500D01*
X91774674Y-23474500D01*
X91774500Y-23474500D01*
X91774410Y-23474473D01*
X91768614Y-23473903D01*
X91768722Y-23472803D01*
X91707461Y-23454815D01*
X91661706Y-23402011D01*
X91650500Y-23350500D01*
X91650500Y-23185928D01*
X91625502Y-23060261D01*
X91625501Y-23060260D01*
X91625501Y-23060256D01*
X91576465Y-22941873D01*
X91568127Y-22929394D01*
X91556177Y-22911510D01*
X91505275Y-22835328D01*
X90614673Y-21944726D01*
X90508134Y-21873540D01*
X90508127Y-21873535D01*
X90389744Y-21824499D01*
X90389738Y-21824497D01*
X90264071Y-21799500D01*
X90264069Y-21799500D01*
X87235931Y-21799500D01*
X87235929Y-21799500D01*
X87110261Y-21824497D01*
X87110251Y-21824500D01*
X87061220Y-21844810D01*
X86991881Y-21873530D01*
X86991863Y-21873540D01*
X86885332Y-21944721D01*
X86885325Y-21944727D01*
X80938726Y-27891326D01*
X80892437Y-27960605D01*
X80892435Y-27960607D01*
X80867539Y-27997864D01*
X80867533Y-27997875D01*
X80818499Y-28116255D01*
X80818497Y-28116261D01*
X80793500Y-28241928D01*
X80793500Y-39076612D01*
X80773815Y-39143651D01*
X80757181Y-39164293D01*
X79033293Y-40888181D01*
X78971970Y-40921666D01*
X78945612Y-40924500D01*
X78833467Y-40924500D01*
X78702969Y-40950458D01*
X78702959Y-40950461D01*
X78580038Y-41001376D01*
X78580020Y-41001386D01*
X78469398Y-41075301D01*
X78469390Y-41075307D01*
X78375307Y-41169390D01*
X78375301Y-41169398D01*
X78301386Y-41280020D01*
X78301376Y-41280038D01*
X78250461Y-41402959D01*
X78250458Y-41402969D01*
X78224500Y-41533466D01*
X78224500Y-41533469D01*
X78224500Y-41666531D01*
X78224500Y-41666533D01*
X78224499Y-41666533D01*
X70770058Y-41666533D01*
X67636819Y-38533294D01*
X67603334Y-38471971D01*
X67600500Y-38445613D01*
X67600500Y-28027527D01*
X67600500Y-28027525D01*
X67562984Y-27887515D01*
X67534883Y-27838842D01*
X67490510Y-27761985D01*
X66006819Y-26278294D01*
X65973334Y-26216971D01*
X65970500Y-26190613D01*
X65970500Y-25244633D01*
X65990185Y-25177594D01*
X65991373Y-25175780D01*
X66008620Y-25149969D01*
X66059540Y-25027036D01*
X66085500Y-24896531D01*
X66085500Y-24763469D01*
X66085500Y-24763466D01*
X66081886Y-24745299D01*
X66078690Y-24729234D01*
X71934500Y-24729234D01*
X71934500Y-24880766D01*
X71938724Y-24896531D01*
X71973719Y-25027136D01*
X71986254Y-25048846D01*
X72049485Y-25158365D01*
X72156635Y-25265515D01*
X72287865Y-25341281D01*
X72434234Y-25380500D01*
X72434236Y-25380500D01*
X72585764Y-25380500D01*
X72585766Y-25380500D01*
X72732135Y-25341281D01*
X72863365Y-25265515D01*
X72970515Y-25158365D01*
X73046281Y-25027135D01*
X73085500Y-24880766D01*
X73085500Y-24729234D01*
X77714500Y-24729234D01*
X77714500Y-24880766D01*
X77718724Y-24896531D01*
X77753719Y-25027136D01*
X77766254Y-25048846D01*
X77829485Y-25158365D01*
X77936635Y-25265515D01*
X78067865Y-25341281D01*
X78214234Y-25380500D01*
X78214236Y-25380500D01*
X78365764Y-25380500D01*
X78365766Y-25380500D01*
X78512135Y-25341281D01*
X78643365Y-25265515D01*
X78750515Y-25158365D01*
X78826281Y-25027135D01*
X78865500Y-24880766D01*
X78865500Y-24729234D01*
X78826281Y-24582865D01*
X78750515Y-24451635D01*
X78643365Y-24344485D01*
X78563698Y-24298489D01*
X78512136Y-24268719D01*
X78438950Y-24249109D01*
X78365766Y-24229500D01*
X78214234Y-24229500D01*
X78067863Y-24268719D01*
X77936635Y-24344485D01*
X77936632Y-24344487D01*
X77829487Y-24451632D01*
X77829485Y-24451635D01*
X77753719Y-24582863D01*
X77714500Y-24729234D01*
X73085500Y-24729234D01*
X73046281Y-24582865D01*
X72970515Y-24451635D01*
X72863365Y-24344485D01*
X72783698Y-24298489D01*
X72732136Y-24268719D01*
X72658950Y-24249109D01*
X72585766Y-24229500D01*
X72434234Y-24229500D01*
X72287863Y-24268719D01*
X72156635Y-24344485D01*
X72156632Y-24344487D01*
X72049487Y-24451632D01*
X72049485Y-24451635D01*
X71973719Y-24582863D01*
X71934500Y-24729234D01*
X66078690Y-24729234D01*
X66059541Y-24632969D01*
X66059540Y-24632968D01*
X66059540Y-24632964D01*
X66059538Y-24632959D01*
X66008623Y-24510038D01*
X66008622Y-24510037D01*
X66008620Y-24510031D01*
X65969601Y-24451635D01*
X65934698Y-24399398D01*
X65934692Y-24399390D01*
X65840609Y-24305307D01*
X65840601Y-24305301D01*
X65729979Y-24231386D01*
X65729972Y-24231382D01*
X65729969Y-24231380D01*
X65729965Y-24231378D01*
X65729961Y-24231376D01*
X65607040Y-24180461D01*
X65607030Y-24180458D01*
X65476533Y-24154500D01*
X65476531Y-24154500D01*
X65343469Y-24154500D01*
X65343467Y-24154500D01*
X65212969Y-24180458D01*
X65212959Y-24180461D01*
X65090038Y-24231376D01*
X65090020Y-24231386D01*
X64979398Y-24305301D01*
X64979390Y-24305307D01*
X64885307Y-24399390D01*
X64885301Y-24399398D01*
X64811386Y-24510020D01*
X64811376Y-24510038D01*
X64760461Y-24632959D01*
X64760458Y-24632969D01*
X64734500Y-24763466D01*
X64734500Y-24763469D01*
X64734500Y-24896531D01*
X64734500Y-24896533D01*
X64734499Y-24896533D01*
X64760458Y-25027030D01*
X64760461Y-25027040D01*
X64811376Y-25149961D01*
X64811378Y-25149964D01*
X64811380Y-25149969D01*
X64848602Y-25205676D01*
X64869480Y-25272352D01*
X64869500Y-25274566D01*
X64869500Y-26542474D01*
X64891449Y-26624393D01*
X64907013Y-26682478D01*
X64907016Y-26682485D01*
X64979489Y-26808013D01*
X64979491Y-26808016D01*
X66463181Y-28291706D01*
X66496666Y-28353029D01*
X66499500Y-28379387D01*
X66499500Y-38652526D01*
X66499500Y-38797474D01*
X66530682Y-38913846D01*
X66537016Y-38937485D01*
X66609489Y-39063013D01*
X66609491Y-39063016D01*
X73638181Y-46091706D01*
X73671666Y-46153029D01*
X73674500Y-46179387D01*
X73674500Y-49622872D01*
X73654815Y-49689911D01*
X73602011Y-49735666D01*
X73532853Y-49745610D01*
X73481610Y-49725975D01*
X73369972Y-49651382D01*
X73369971Y-49651381D01*
X73369969Y-49651380D01*
X73369966Y-49651378D01*
X73369961Y-49651376D01*
X73247038Y-49600460D01*
X73247031Y-49600458D01*
X73198976Y-49590899D01*
X73137065Y-49558513D01*
X73135488Y-49556963D01*
X72711819Y-49133294D01*
X72678334Y-49071971D01*
X72675500Y-49045613D01*
X72675500Y-46952527D01*
X72675500Y-46952525D01*
X72637984Y-46812515D01*
X72588200Y-46726286D01*
X72565510Y-46686985D01*
X58786819Y-32908294D01*
X58753334Y-32846971D01*
X58750500Y-32820613D01*
X58750500Y-31327527D01*
X58750500Y-31327525D01*
X58712984Y-31187515D01*
X58640509Y-31061985D01*
X58538015Y-30959491D01*
X58538013Y-30959490D01*
X58538011Y-30959488D01*
X58412488Y-30887017D01*
X58412489Y-30887017D01*
X58401006Y-30883940D01*
X58272475Y-30849500D01*
X58127525Y-30849500D01*
X57998993Y-30883940D01*
X57987511Y-30887017D01*
X57861988Y-30959488D01*
X57861982Y-30959493D01*
X57759493Y-31061982D01*
X57759488Y-31061988D01*
X57687017Y-31187511D01*
X57687016Y-31187515D01*
X57649500Y-31327525D01*
X57649500Y-31327527D01*
X57649500Y-33172476D01*
X57658884Y-33207499D01*
X57658885Y-33207499D01*
X57658885Y-33207500D01*
X57687016Y-33312485D01*
X57751074Y-33423438D01*
X57759489Y-33438013D01*
X57759491Y-33438016D01*
X71538181Y-47216706D01*
X71571666Y-47278029D01*
X71574500Y-47304387D01*
X71574500Y-49397477D01*
X71585425Y-49438250D01*
X71583762Y-49508100D01*
X71544598Y-49565962D01*
X71480369Y-49593465D01*
X71411467Y-49581878D01*
X71377970Y-49558024D01*
X71214669Y-49394723D01*
X71108127Y-49323535D01*
X70989744Y-49274499D01*
X70989738Y-49274497D01*
X70864071Y-49249500D01*
X70864069Y-49249500D01*
X69970808Y-49249500D01*
X69903769Y-49229815D01*
X69883127Y-49213181D01*
X66686819Y-46016873D01*
X66653334Y-45955550D01*
X66650500Y-45929192D01*
X66650500Y-43335928D01*
X66625502Y-43210261D01*
X66625501Y-43210260D01*
X66625501Y-43210256D01*
X66592999Y-43131789D01*
X66576466Y-43091874D01*
X66536056Y-43031396D01*
X66505278Y-42985332D01*
X66505272Y-42985325D01*
X59704522Y-36184576D01*
X59689105Y-36165791D01*
X59624695Y-36069394D01*
X59624693Y-36069391D01*
X59530609Y-35975307D01*
X59530601Y-35975301D01*
X59419979Y-35901386D01*
X59419972Y-35901382D01*
X59419969Y-35901380D01*
X59419965Y-35901378D01*
X59419961Y-35901376D01*
X59297040Y-35850461D01*
X59297030Y-35850458D01*
X59166533Y-35824500D01*
X59166531Y-35824500D01*
X59033469Y-35824500D01*
X59033467Y-35824500D01*
X58902969Y-35850458D01*
X58902959Y-35850461D01*
X58780038Y-35901376D01*
X58780020Y-35901386D01*
X58669398Y-35975301D01*
X58669390Y-35975307D01*
X58575307Y-36069390D01*
X58575301Y-36069398D01*
X58501386Y-36180020D01*
X58501376Y-36180038D01*
X58450461Y-36302959D01*
X58450458Y-36302969D01*
X58424500Y-36433466D01*
X58424500Y-36433469D01*
X58424500Y-36566531D01*
X58424500Y-36566533D01*
X58424499Y-36566533D01*
X58450458Y-36697030D01*
X58450461Y-36697040D01*
X58501376Y-36819961D01*
X58501386Y-36819979D01*
X58575301Y-36930601D01*
X58575307Y-36930609D01*
X58669391Y-37024693D01*
X58669394Y-37024695D01*
X58765791Y-37089105D01*
X58784576Y-37104522D01*
X65313181Y-43633127D01*
X65346666Y-43694450D01*
X65349500Y-43720808D01*
X65349500Y-46314069D01*
X65369176Y-46412984D01*
X65374499Y-46439744D01*
X65423534Y-46558125D01*
X65494726Y-46664673D01*
X69235325Y-50405272D01*
X69235332Y-50405278D01*
X69297828Y-50447036D01*
X69341874Y-50476466D01*
X69411221Y-50505189D01*
X69460256Y-50525501D01*
X69460259Y-50525501D01*
X69460260Y-50525502D01*
X69585928Y-50550500D01*
X69585931Y-50550500D01*
X69585932Y-50550500D01*
X69714069Y-50550500D01*
X70479192Y-50550500D01*
X70546231Y-50570185D01*
X70566873Y-50586819D01*
X70813181Y-50833126D01*
X70846666Y-50894449D01*
X70849500Y-50920807D01*
X70849500Y-61064069D01*
X70859809Y-61115891D01*
X70859809Y-61115894D01*
X70874497Y-61189736D01*
X70874499Y-61189744D01*
X70923534Y-61308125D01*
X70994726Y-61414673D01*
X72017872Y-62437819D01*
X72051357Y-62499142D01*
X72046373Y-62568834D01*
X72004501Y-62624767D01*
X71939037Y-62649184D01*
X71930191Y-62649500D01*
X58005413Y-62649500D01*
X57994605Y-62649028D01*
X57837246Y-62635260D01*
X57815961Y-62631507D01*
X57668630Y-62592030D01*
X57648318Y-62584637D01*
X57510084Y-62520177D01*
X57491366Y-62509370D01*
X57366417Y-62421880D01*
X57349859Y-62407986D01*
X57242013Y-62300140D01*
X57228119Y-62283582D01*
X57140629Y-62158633D01*
X57129822Y-62139915D01*
X57065362Y-62001681D01*
X57057969Y-61981369D01*
X57038916Y-61910261D01*
X57018491Y-61834035D01*
X57014739Y-61812753D01*
X57012912Y-61791875D01*
X57000979Y-61655491D01*
X57000508Y-61644501D01*
X57000600Y-61584108D01*
X57025400Y-45186252D01*
X57025503Y-45185869D01*
X57025500Y-45120314D01*
X57025599Y-45054865D01*
X57025597Y-45054861D01*
X57025598Y-45054858D01*
X57025534Y-45054367D01*
X57025533Y-45054358D01*
X57025497Y-45054085D01*
X57008622Y-44991118D01*
X57008626Y-44990918D01*
X57008573Y-44990933D01*
X56991686Y-44927525D01*
X56991631Y-44927392D01*
X56991630Y-44927390D01*
X56991624Y-44927374D01*
X56991388Y-44926801D01*
X56991383Y-44926792D01*
X56958592Y-44870003D01*
X56925964Y-44813292D01*
X56925693Y-44813020D01*
X56925499Y-44812684D01*
X56925486Y-44812666D01*
X56879103Y-44766288D01*
X56879117Y-44766273D01*
X56878965Y-44766151D01*
X56844999Y-44732082D01*
X56811607Y-44670709D01*
X56816697Y-44601025D01*
X56818239Y-44597113D01*
X56819737Y-44593497D01*
X56850500Y-44438842D01*
X56850500Y-44281158D01*
X56850500Y-44281155D01*
X56850499Y-44281153D01*
X56819738Y-44126510D01*
X56819737Y-44126503D01*
X56759394Y-43980821D01*
X56743068Y-43956388D01*
X56722191Y-43889716D01*
X56740674Y-43822336D01*
X56743032Y-43818665D01*
X56759394Y-43794179D01*
X56819737Y-43648497D01*
X56850500Y-43493842D01*
X56850500Y-43336158D01*
X56850500Y-43336155D01*
X56850499Y-43336153D01*
X56819738Y-43181510D01*
X56819737Y-43181503D01*
X56782612Y-43091874D01*
X56759397Y-43035827D01*
X56759395Y-43035824D01*
X56759394Y-43035821D01*
X56756434Y-43031392D01*
X56735555Y-42964719D01*
X56754037Y-42897338D01*
X56756403Y-42893653D01*
X56759394Y-42889179D01*
X56819737Y-42743497D01*
X56850500Y-42588842D01*
X56850500Y-42431158D01*
X56850500Y-42431155D01*
X56850499Y-42431153D01*
X56819738Y-42276510D01*
X56819737Y-42276503D01*
X56808568Y-42249538D01*
X56759397Y-42130827D01*
X56759389Y-42130812D01*
X56751424Y-42118892D01*
X56730545Y-42052215D01*
X56749029Y-41984834D01*
X56751424Y-41981108D01*
X56759389Y-41969187D01*
X56759390Y-41969184D01*
X56759394Y-41969179D01*
X56819737Y-41823497D01*
X56850500Y-41668842D01*
X56850500Y-41511158D01*
X56850500Y-41511155D01*
X56850499Y-41511153D01*
X56819737Y-41356503D01*
X56819735Y-41356498D01*
X56759396Y-41210825D01*
X56759395Y-41210823D01*
X56759394Y-41210821D01*
X56749752Y-41196390D01*
X56728873Y-41129717D01*
X56747356Y-41062336D01*
X56749726Y-41058647D01*
X56759394Y-41044179D01*
X56819737Y-40898497D01*
X56850500Y-40743842D01*
X56850500Y-40586158D01*
X56850500Y-40586155D01*
X56850499Y-40586153D01*
X56819738Y-40431510D01*
X56819737Y-40431503D01*
X56819735Y-40431498D01*
X56759397Y-40285827D01*
X56759389Y-40285812D01*
X56751424Y-40273892D01*
X56730545Y-40207215D01*
X56749029Y-40139834D01*
X56751424Y-40136108D01*
X56759389Y-40124187D01*
X56759390Y-40124184D01*
X56759394Y-40124179D01*
X56819737Y-39978497D01*
X56850500Y-39823842D01*
X56850500Y-39666158D01*
X56850500Y-39666155D01*
X56850499Y-39666153D01*
X56826279Y-39544394D01*
X56819737Y-39511503D01*
X56759394Y-39365821D01*
X56754763Y-39358891D01*
X56733885Y-39292215D01*
X56752369Y-39224834D01*
X56754764Y-39221108D01*
X56759394Y-39214179D01*
X56819737Y-39068497D01*
X56850500Y-38913842D01*
X56850500Y-38756158D01*
X56850500Y-38756155D01*
X56850499Y-38756153D01*
X56819738Y-38601510D01*
X56819737Y-38601503D01*
X56791484Y-38533294D01*
X56759397Y-38455827D01*
X56759389Y-38455812D01*
X56751424Y-38443892D01*
X56730545Y-38377215D01*
X56749029Y-38309834D01*
X56751424Y-38306108D01*
X56759389Y-38294187D01*
X56759390Y-38294184D01*
X56759394Y-38294179D01*
X56819737Y-38148497D01*
X56850500Y-37993842D01*
X56850500Y-37836158D01*
X56850500Y-37836155D01*
X56850499Y-37836153D01*
X56819738Y-37681510D01*
X56819737Y-37681503D01*
X56759394Y-37535821D01*
X56749752Y-37521390D01*
X56728873Y-37454717D01*
X56747356Y-37387336D01*
X56749726Y-37383647D01*
X56759394Y-37369179D01*
X56819737Y-37223497D01*
X56850500Y-37068842D01*
X56850500Y-36911158D01*
X56850500Y-36911155D01*
X56850499Y-36911153D01*
X56832361Y-36819969D01*
X56819737Y-36756503D01*
X56759394Y-36610821D01*
X56743068Y-36586388D01*
X56722191Y-36519716D01*
X56740674Y-36452336D01*
X56743032Y-36448665D01*
X56759394Y-36424179D01*
X56819737Y-36278497D01*
X56850500Y-36123842D01*
X56850500Y-35966158D01*
X56850500Y-35966155D01*
X56850499Y-35966153D01*
X56827486Y-35850460D01*
X56819737Y-35811503D01*
X56795490Y-35752964D01*
X56759396Y-35665825D01*
X56759395Y-35665823D01*
X56759394Y-35665821D01*
X56753093Y-35656391D01*
X56732214Y-35589718D01*
X56750696Y-35522337D01*
X56753068Y-35518645D01*
X56759394Y-35509179D01*
X56819737Y-35363497D01*
X56850500Y-35208842D01*
X56850500Y-35051158D01*
X56850500Y-35051155D01*
X56850499Y-35051153D01*
X56819738Y-34896510D01*
X56819737Y-34896503D01*
X56819735Y-34896498D01*
X56759397Y-34750827D01*
X56759389Y-34750812D01*
X56751424Y-34738892D01*
X56730545Y-34672215D01*
X56749029Y-34604834D01*
X56751424Y-34601108D01*
X56759389Y-34589187D01*
X56759390Y-34589184D01*
X56759394Y-34589179D01*
X56819737Y-34443497D01*
X56850500Y-34288842D01*
X56850500Y-34131158D01*
X56850500Y-34131155D01*
X56850499Y-34131153D01*
X56819737Y-33976503D01*
X56759394Y-33830821D01*
X56749752Y-33816390D01*
X56728873Y-33749717D01*
X56747356Y-33682336D01*
X56749726Y-33678647D01*
X56759394Y-33664179D01*
X56819737Y-33518497D01*
X56850500Y-33363842D01*
X56850500Y-33206158D01*
X56850500Y-33206155D01*
X56850499Y-33206153D01*
X56843800Y-33172475D01*
X56819737Y-33051503D01*
X56759394Y-32905821D01*
X56743068Y-32881388D01*
X56722191Y-32814716D01*
X56740674Y-32747336D01*
X56743032Y-32743665D01*
X56759394Y-32719179D01*
X56819737Y-32573497D01*
X56850500Y-32418842D01*
X56850500Y-32261158D01*
X56850500Y-32261155D01*
X56850499Y-32261153D01*
X56830055Y-32158376D01*
X56819737Y-32106503D01*
X56819735Y-32106498D01*
X56759397Y-31960827D01*
X56759395Y-31960824D01*
X56759394Y-31960821D01*
X56756434Y-31956392D01*
X56735555Y-31889719D01*
X56754037Y-31822338D01*
X56756403Y-31818653D01*
X56759394Y-31814179D01*
X56819737Y-31668497D01*
X56850500Y-31513842D01*
X56850500Y-31356158D01*
X56850500Y-31356155D01*
X56850499Y-31356153D01*
X56844805Y-31327527D01*
X56819737Y-31201503D01*
X56813941Y-31187511D01*
X56759397Y-31055827D01*
X56759389Y-31055812D01*
X56751424Y-31043892D01*
X56730545Y-30977215D01*
X56749029Y-30909834D01*
X56751424Y-30906108D01*
X56759389Y-30894187D01*
X56759390Y-30894184D01*
X56759394Y-30894179D01*
X56819737Y-30748497D01*
X56850500Y-30593842D01*
X56850500Y-30436158D01*
X56850500Y-30436155D01*
X56850499Y-30436153D01*
X56819738Y-30281510D01*
X56819737Y-30281503D01*
X56759394Y-30135821D01*
X56749752Y-30121390D01*
X56728873Y-30054717D01*
X56747356Y-29987336D01*
X56749726Y-29983647D01*
X56759394Y-29969179D01*
X56819737Y-29823497D01*
X56850500Y-29668842D01*
X56850500Y-29511158D01*
X56850500Y-29511155D01*
X56850499Y-29511153D01*
X56819738Y-29356510D01*
X56819737Y-29356503D01*
X56819735Y-29356498D01*
X56759397Y-29210827D01*
X56759389Y-29210812D01*
X56751424Y-29198892D01*
X56730545Y-29132215D01*
X56749029Y-29064834D01*
X56751424Y-29061108D01*
X56759389Y-29049187D01*
X56759390Y-29049184D01*
X56759394Y-29049179D01*
X56819737Y-28903497D01*
X56850500Y-28748842D01*
X56850500Y-28591158D01*
X56850500Y-28591155D01*
X56850499Y-28591153D01*
X56819738Y-28436510D01*
X56819737Y-28436503D01*
X56785161Y-28353029D01*
X56759396Y-28290825D01*
X56759394Y-28290822D01*
X56759394Y-28290821D01*
X56754763Y-28283891D01*
X56733885Y-28217215D01*
X56752369Y-28149834D01*
X56754764Y-28146108D01*
X56759394Y-28139179D01*
X56819737Y-27993497D01*
X56850500Y-27838842D01*
X56850500Y-27681158D01*
X56850500Y-27681155D01*
X56850499Y-27681153D01*
X56819738Y-27526510D01*
X56819737Y-27526503D01*
X56819735Y-27526498D01*
X56759397Y-27380827D01*
X56759389Y-27380812D01*
X56751424Y-27368892D01*
X56730545Y-27302215D01*
X56749029Y-27234834D01*
X56751424Y-27231108D01*
X56759389Y-27219187D01*
X56759390Y-27219184D01*
X56759394Y-27219179D01*
X56819737Y-27073497D01*
X56850500Y-26918842D01*
X56850500Y-26761158D01*
X56850500Y-26761155D01*
X56850499Y-26761153D01*
X56834849Y-26682478D01*
X56819737Y-26606503D01*
X56759394Y-26460821D01*
X56749752Y-26446390D01*
X56728873Y-26379717D01*
X56747356Y-26312336D01*
X56749726Y-26308647D01*
X56759394Y-26294179D01*
X56819737Y-26148497D01*
X56850500Y-25993842D01*
X56850500Y-25836158D01*
X56850500Y-25836155D01*
X56850499Y-25836153D01*
X56819738Y-25681510D01*
X56819737Y-25681503D01*
X56759394Y-25535821D01*
X56743068Y-25511388D01*
X56722191Y-25444716D01*
X56740674Y-25377336D01*
X56743032Y-25373665D01*
X56759394Y-25349179D01*
X56819737Y-25203497D01*
X56850500Y-25048842D01*
X56850500Y-24891158D01*
X56850500Y-24891155D01*
X56850499Y-24891153D01*
X56848432Y-24880764D01*
X56819737Y-24736503D01*
X56816726Y-24729234D01*
X56759397Y-24590827D01*
X56759395Y-24590824D01*
X56759394Y-24590821D01*
X56756434Y-24586392D01*
X56735555Y-24519719D01*
X56754037Y-24452338D01*
X56756403Y-24448653D01*
X56759394Y-24444179D01*
X56819737Y-24298497D01*
X56850500Y-24143842D01*
X56850500Y-23986158D01*
X56850500Y-23986155D01*
X56850499Y-23986153D01*
X56819737Y-23831503D01*
X56808901Y-23805342D01*
X56759397Y-23685827D01*
X56759389Y-23685812D01*
X56751424Y-23673892D01*
X56730545Y-23607215D01*
X56749029Y-23539834D01*
X56751424Y-23536108D01*
X56759389Y-23524187D01*
X56759390Y-23524184D01*
X56759394Y-23524179D01*
X56819737Y-23378497D01*
X56850500Y-23223842D01*
X56850500Y-23066158D01*
X56850500Y-23066155D01*
X56850499Y-23066153D01*
X56825778Y-22941873D01*
X56819737Y-22911503D01*
X56759394Y-22765821D01*
X56749752Y-22751390D01*
X56728873Y-22684717D01*
X56747356Y-22617336D01*
X56749726Y-22613647D01*
X56759394Y-22599179D01*
X56819737Y-22453497D01*
X56850500Y-22298842D01*
X56850500Y-22141158D01*
X56850500Y-22141155D01*
X56850499Y-22141153D01*
X56819738Y-21986510D01*
X56819737Y-21986503D01*
X56802431Y-21944723D01*
X56759397Y-21840827D01*
X56759389Y-21840812D01*
X56751424Y-21828892D01*
X56730545Y-21762215D01*
X56749029Y-21694834D01*
X56751424Y-21691108D01*
X56759389Y-21679187D01*
X56759390Y-21679184D01*
X56759394Y-21679179D01*
X56819737Y-21533497D01*
X56850500Y-21378842D01*
X56850500Y-21221158D01*
X56844542Y-21191207D01*
X56850768Y-21121619D01*
X56878474Y-21079339D01*
X56950500Y-21007314D01*
X57016392Y-20893186D01*
X57050500Y-20765892D01*
X57050500Y-20707027D01*
X57051294Y-20693018D01*
X57061659Y-20601863D01*
X57067950Y-20574559D01*
X57070020Y-20568699D01*
X57096159Y-20494728D01*
X57108415Y-20469541D01*
X57153837Y-20398066D01*
X57171434Y-20376277D01*
X57231739Y-20316830D01*
X57253781Y-20299546D01*
X57325887Y-20255161D01*
X57351247Y-20243265D01*
X57431491Y-20216198D01*
X57458868Y-20210303D01*
X57550176Y-20201243D01*
X57562172Y-20200639D01*
X57563112Y-20200637D01*
X57623046Y-20201496D01*
X57626900Y-20200521D01*
X57638558Y-20200500D01*
X57638595Y-20200511D01*
X57638784Y-20200500D01*
X95543038Y-20200500D01*
X95556922Y-20201280D01*
G37*
%TD.AperFunction*%
%TD*%
%TA.AperFunction,Conductor*%
%TO.N,Earth*%
G36*
X54556922Y-20201280D02*
G01*
X54647266Y-20211459D01*
X54674331Y-20217636D01*
X54753540Y-20245352D01*
X54778553Y-20257398D01*
X54849606Y-20302043D01*
X54871313Y-20319355D01*
X54930644Y-20378686D01*
X54947957Y-20400395D01*
X54992600Y-20471444D01*
X55004648Y-20496462D01*
X55032362Y-20575666D01*
X55038540Y-20602735D01*
X55048720Y-20693076D01*
X55049500Y-20706961D01*
X55049500Y-20765891D01*
X55083608Y-20893187D01*
X55116554Y-20950250D01*
X55149500Y-21007314D01*
X55149502Y-21007316D01*
X55221521Y-21079335D01*
X55255006Y-21140658D01*
X55255457Y-21191207D01*
X55249500Y-21221153D01*
X55249500Y-21378846D01*
X55280261Y-21533489D01*
X55280264Y-21533501D01*
X55340602Y-21679171D01*
X55340604Y-21679175D01*
X55340606Y-21679179D01*
X55340609Y-21679183D01*
X55340611Y-21679187D01*
X55348578Y-21691111D01*
X55369455Y-21757789D01*
X55350969Y-21825168D01*
X55348578Y-21828889D01*
X55340611Y-21840812D01*
X55340602Y-21840828D01*
X55280264Y-21986498D01*
X55280261Y-21986510D01*
X55249500Y-22141153D01*
X55249500Y-22298846D01*
X55280261Y-22453489D01*
X55280264Y-22453501D01*
X55340602Y-22599171D01*
X55340604Y-22599175D01*
X55340606Y-22599179D01*
X55340609Y-22599184D01*
X55340610Y-22599185D01*
X55350249Y-22613612D01*
X55371125Y-22680290D01*
X55352639Y-22747670D01*
X55350249Y-22751388D01*
X55340610Y-22765814D01*
X55340602Y-22765828D01*
X55280264Y-22911498D01*
X55280261Y-22911510D01*
X55249500Y-23066153D01*
X55249500Y-23223846D01*
X55280261Y-23378489D01*
X55280264Y-23378501D01*
X55340602Y-23524171D01*
X55340604Y-23524175D01*
X55340606Y-23524179D01*
X55340609Y-23524183D01*
X55340611Y-23524187D01*
X55348578Y-23536111D01*
X55369455Y-23602789D01*
X55350969Y-23670168D01*
X55348578Y-23673889D01*
X55340611Y-23685812D01*
X55340602Y-23685828D01*
X55280264Y-23831498D01*
X55280261Y-23831510D01*
X55249500Y-23986153D01*
X55249500Y-24143846D01*
X55280261Y-24298489D01*
X55280264Y-24298501D01*
X55340602Y-24444171D01*
X55340604Y-24444175D01*
X55340606Y-24444179D01*
X55340610Y-24444186D01*
X55340613Y-24444190D01*
X55343570Y-24448617D01*
X55364443Y-24515296D01*
X55345954Y-24582675D01*
X55343570Y-24586383D01*
X55340613Y-24590809D01*
X55340602Y-24590828D01*
X55280264Y-24736498D01*
X55280261Y-24736510D01*
X55249500Y-24891153D01*
X55249500Y-25048846D01*
X55280261Y-25203489D01*
X55280264Y-25203501D01*
X55340604Y-25349177D01*
X55340605Y-25349179D01*
X55356930Y-25373611D01*
X55377807Y-25440288D01*
X55359321Y-25507668D01*
X55356930Y-25511389D01*
X55340605Y-25535820D01*
X55340604Y-25535822D01*
X55280264Y-25681498D01*
X55280261Y-25681510D01*
X55249500Y-25836153D01*
X55249500Y-25993846D01*
X55280261Y-26148489D01*
X55280264Y-26148501D01*
X55340602Y-26294171D01*
X55340604Y-26294175D01*
X55340606Y-26294179D01*
X55340609Y-26294184D01*
X55340610Y-26294185D01*
X55350249Y-26308612D01*
X55371125Y-26375290D01*
X55352639Y-26442670D01*
X55350249Y-26446388D01*
X55340610Y-26460814D01*
X55340602Y-26460828D01*
X55280264Y-26606498D01*
X55280261Y-26606510D01*
X55249500Y-26761153D01*
X55249500Y-26918846D01*
X55280261Y-27073489D01*
X55280264Y-27073501D01*
X55340602Y-27219171D01*
X55340604Y-27219175D01*
X55340606Y-27219179D01*
X55340609Y-27219183D01*
X55340611Y-27219187D01*
X55348578Y-27231111D01*
X55369455Y-27297789D01*
X55350969Y-27365168D01*
X55348578Y-27368889D01*
X55340611Y-27380812D01*
X55340602Y-27380828D01*
X55280264Y-27526498D01*
X55280261Y-27526510D01*
X55249500Y-27681153D01*
X55249500Y-27838846D01*
X55280261Y-27993489D01*
X55280264Y-27993501D01*
X55340602Y-28139172D01*
X55340612Y-28139190D01*
X55345238Y-28146114D01*
X55366113Y-28212792D01*
X55347625Y-28280172D01*
X55345238Y-28283886D01*
X55340612Y-28290809D01*
X55340602Y-28290827D01*
X55280264Y-28436498D01*
X55280261Y-28436510D01*
X55249500Y-28591153D01*
X55249500Y-28748846D01*
X55280261Y-28903489D01*
X55280264Y-28903501D01*
X55340602Y-29049171D01*
X55340604Y-29049175D01*
X55340606Y-29049179D01*
X55340609Y-29049183D01*
X55340611Y-29049187D01*
X55348578Y-29061111D01*
X55369455Y-29127789D01*
X55350969Y-29195168D01*
X55348578Y-29198889D01*
X55340611Y-29210812D01*
X55340602Y-29210828D01*
X55280264Y-29356498D01*
X55280261Y-29356510D01*
X55249500Y-29511153D01*
X55249500Y-29668846D01*
X55280261Y-29823489D01*
X55280264Y-29823501D01*
X55340602Y-29969171D01*
X55340604Y-29969175D01*
X55340606Y-29969179D01*
X55340609Y-29969184D01*
X55340610Y-29969185D01*
X55350249Y-29983612D01*
X55371125Y-30050290D01*
X55352639Y-30117670D01*
X55350249Y-30121388D01*
X55340610Y-30135814D01*
X55340602Y-30135828D01*
X55280264Y-30281498D01*
X55280261Y-30281510D01*
X55249500Y-30436153D01*
X55249500Y-30593846D01*
X55280261Y-30748489D01*
X55280264Y-30748501D01*
X55340602Y-30894171D01*
X55340604Y-30894175D01*
X55340606Y-30894179D01*
X55340609Y-30894183D01*
X55340611Y-30894187D01*
X55348578Y-30906111D01*
X55369455Y-30972789D01*
X55350969Y-31040168D01*
X55348578Y-31043889D01*
X55340611Y-31055812D01*
X55340602Y-31055828D01*
X55280264Y-31201498D01*
X55280261Y-31201510D01*
X55249500Y-31356153D01*
X55249500Y-31513846D01*
X55280261Y-31668489D01*
X55280264Y-31668501D01*
X55340602Y-31814171D01*
X55340604Y-31814175D01*
X55340606Y-31814179D01*
X55340610Y-31814186D01*
X55340613Y-31814190D01*
X55343570Y-31818617D01*
X55364443Y-31885296D01*
X55345954Y-31952675D01*
X55343570Y-31956383D01*
X55340613Y-31960809D01*
X55340602Y-31960828D01*
X55280264Y-32106498D01*
X55280261Y-32106510D01*
X55249500Y-32261153D01*
X55249500Y-32418846D01*
X55280261Y-32573489D01*
X55280264Y-32573501D01*
X55340604Y-32719177D01*
X55340605Y-32719179D01*
X55356930Y-32743611D01*
X55377807Y-32810288D01*
X55359321Y-32877668D01*
X55356930Y-32881389D01*
X55340605Y-32905820D01*
X55340604Y-32905822D01*
X55280264Y-33051498D01*
X55280261Y-33051510D01*
X55249500Y-33206153D01*
X55249500Y-33363846D01*
X55280261Y-33518489D01*
X55280264Y-33518501D01*
X55340602Y-33664171D01*
X55340604Y-33664175D01*
X55340606Y-33664179D01*
X55340609Y-33664184D01*
X55340610Y-33664185D01*
X55350249Y-33678612D01*
X55371125Y-33745290D01*
X55352639Y-33812670D01*
X55350249Y-33816388D01*
X55340610Y-33830814D01*
X55340602Y-33830828D01*
X55280264Y-33976498D01*
X55280261Y-33976510D01*
X55249500Y-34131153D01*
X55249500Y-34288846D01*
X55280261Y-34443489D01*
X55280264Y-34443501D01*
X55340602Y-34589171D01*
X55340604Y-34589175D01*
X55340606Y-34589179D01*
X55340609Y-34589183D01*
X55340611Y-34589187D01*
X55348578Y-34601111D01*
X55369455Y-34667789D01*
X55350969Y-34735168D01*
X55348578Y-34738889D01*
X55340611Y-34750812D01*
X55340602Y-34750828D01*
X55280264Y-34896498D01*
X55280261Y-34896510D01*
X55249500Y-35051153D01*
X55249500Y-35208846D01*
X55280261Y-35363489D01*
X55280264Y-35363501D01*
X55340602Y-35509171D01*
X55340612Y-35509189D01*
X55346909Y-35518614D01*
X55367784Y-35585292D01*
X55349297Y-35652671D01*
X55346909Y-35656386D01*
X55340612Y-35665810D01*
X55340602Y-35665828D01*
X55280264Y-35811498D01*
X55280261Y-35811510D01*
X55249500Y-35966153D01*
X55249500Y-36123846D01*
X55280261Y-36278489D01*
X55280264Y-36278501D01*
X55340604Y-36424177D01*
X55340605Y-36424179D01*
X55356930Y-36448611D01*
X55377807Y-36515288D01*
X55359321Y-36582668D01*
X55356930Y-36586389D01*
X55340605Y-36610820D01*
X55340604Y-36610822D01*
X55280264Y-36756498D01*
X55280261Y-36756510D01*
X55249500Y-36911153D01*
X55249500Y-37068846D01*
X55280261Y-37223489D01*
X55280264Y-37223501D01*
X55340602Y-37369171D01*
X55340604Y-37369175D01*
X55340606Y-37369179D01*
X55340609Y-37369184D01*
X55340610Y-37369185D01*
X55350249Y-37383612D01*
X55371125Y-37450290D01*
X55352639Y-37517670D01*
X55350249Y-37521388D01*
X55340610Y-37535814D01*
X55340602Y-37535828D01*
X55280264Y-37681498D01*
X55280261Y-37681510D01*
X55249500Y-37836153D01*
X55249500Y-37993846D01*
X55280261Y-38148489D01*
X55280264Y-38148501D01*
X55340602Y-38294171D01*
X55340604Y-38294175D01*
X55340606Y-38294179D01*
X55340609Y-38294183D01*
X55340611Y-38294187D01*
X55348578Y-38306111D01*
X55369455Y-38372789D01*
X55350969Y-38440168D01*
X55348578Y-38443889D01*
X55340611Y-38455812D01*
X55340602Y-38455828D01*
X55280264Y-38601498D01*
X55280261Y-38601510D01*
X55249500Y-38756153D01*
X55249500Y-38913846D01*
X55280261Y-39068489D01*
X55280264Y-39068501D01*
X55340602Y-39214172D01*
X55340612Y-39214190D01*
X55345238Y-39221114D01*
X55366113Y-39287792D01*
X55347625Y-39355172D01*
X55345238Y-39358886D01*
X55340612Y-39365809D01*
X55340602Y-39365827D01*
X55280264Y-39511498D01*
X55280261Y-39511510D01*
X55249500Y-39666153D01*
X55249500Y-39823846D01*
X55280261Y-39978489D01*
X55280264Y-39978501D01*
X55340602Y-40124171D01*
X55340604Y-40124175D01*
X55340606Y-40124179D01*
X55340609Y-40124183D01*
X55340611Y-40124187D01*
X55348578Y-40136111D01*
X55369455Y-40202789D01*
X55350969Y-40270168D01*
X55348578Y-40273889D01*
X55340611Y-40285812D01*
X55340602Y-40285828D01*
X55280264Y-40431498D01*
X55280261Y-40431510D01*
X55249500Y-40586153D01*
X55249500Y-40743846D01*
X55280261Y-40898489D01*
X55280264Y-40898501D01*
X55340602Y-41044171D01*
X55340604Y-41044175D01*
X55340606Y-41044179D01*
X55340609Y-41044184D01*
X55340610Y-41044185D01*
X55350249Y-41058612D01*
X55371125Y-41125290D01*
X55352639Y-41192670D01*
X55350249Y-41196388D01*
X55340610Y-41210814D01*
X55340602Y-41210828D01*
X55280264Y-41356498D01*
X55280261Y-41356510D01*
X55249500Y-41511153D01*
X55249500Y-41668846D01*
X55280261Y-41823489D01*
X55280264Y-41823501D01*
X55340602Y-41969171D01*
X55340604Y-41969175D01*
X55340606Y-41969179D01*
X55340609Y-41969183D01*
X55340611Y-41969187D01*
X55348578Y-41981111D01*
X55369455Y-42047789D01*
X55350969Y-42115168D01*
X55348578Y-42118889D01*
X55340611Y-42130812D01*
X55340602Y-42130828D01*
X55280264Y-42276498D01*
X55280261Y-42276510D01*
X55249500Y-42431153D01*
X55249500Y-42588846D01*
X55280261Y-42743489D01*
X55280264Y-42743501D01*
X55340602Y-42889171D01*
X55340604Y-42889175D01*
X55340606Y-42889179D01*
X55340610Y-42889186D01*
X55340613Y-42889190D01*
X55343570Y-42893617D01*
X55364443Y-42960296D01*
X55345954Y-43027675D01*
X55343570Y-43031383D01*
X55340613Y-43035809D01*
X55340602Y-43035828D01*
X55280264Y-43181498D01*
X55280261Y-43181510D01*
X55249500Y-43336153D01*
X55249500Y-43493846D01*
X55280261Y-43648489D01*
X55280264Y-43648501D01*
X55340604Y-43794177D01*
X55340605Y-43794179D01*
X55356930Y-43818611D01*
X55377807Y-43885288D01*
X55359321Y-43952668D01*
X55356930Y-43956389D01*
X55340605Y-43980820D01*
X55340604Y-43980822D01*
X55280264Y-44126498D01*
X55280261Y-44126510D01*
X55249500Y-44281153D01*
X55249500Y-44438846D01*
X55276194Y-44573045D01*
X55274275Y-44594484D01*
X55277177Y-44615815D01*
X55271223Y-44628593D01*
X55269967Y-44642636D01*
X55256760Y-44659636D01*
X55247670Y-44679149D01*
X55231554Y-44692085D01*
X55227104Y-44697814D01*
X55220822Y-44702058D01*
X55217665Y-44704052D01*
X55200576Y-44713468D01*
X55196591Y-44717296D01*
X55192667Y-44719562D01*
X55191881Y-44720347D01*
X55191879Y-44720349D01*
X55155406Y-44756824D01*
X55153630Y-44758565D01*
X55105543Y-44804763D01*
X55105541Y-44804765D01*
X55104077Y-44807186D01*
X55102589Y-44809648D01*
X55099486Y-44812753D01*
X55073362Y-44858004D01*
X55072698Y-44859103D01*
X55072682Y-44859132D01*
X55037374Y-44917550D01*
X55037374Y-44917551D01*
X55035750Y-44923156D01*
X55033599Y-44926884D01*
X55020337Y-44976387D01*
X55000720Y-45044135D01*
X55000720Y-45044137D01*
X55000710Y-45044198D01*
X55000584Y-45050117D01*
X54999497Y-45054179D01*
X54999498Y-45101346D01*
X54999470Y-45102708D01*
X54999249Y-45103405D01*
X54998119Y-45118521D01*
X54982648Y-45221390D01*
X54973861Y-45252119D01*
X54935592Y-45340715D01*
X54919244Y-45368176D01*
X54859599Y-45444053D01*
X54836775Y-45466424D01*
X54759717Y-45524536D01*
X54731935Y-45540329D01*
X54642584Y-45576816D01*
X54611689Y-45584984D01*
X54507949Y-45598466D01*
X54491968Y-45599500D01*
X36556484Y-45599500D01*
X36540505Y-45598466D01*
X36515382Y-45595201D01*
X36438257Y-45585178D01*
X36407358Y-45577009D01*
X36317959Y-45540501D01*
X36290175Y-45524705D01*
X36213073Y-45466557D01*
X36190253Y-45444189D01*
X36130572Y-45368263D01*
X36114227Y-45340804D01*
X36075938Y-45252150D01*
X36067153Y-45221421D01*
X36051878Y-45119822D01*
X36050500Y-45101386D01*
X36050500Y-43861156D01*
X37074499Y-43861156D01*
X37110065Y-44039952D01*
X37110068Y-44039962D01*
X37179831Y-44208387D01*
X37179833Y-44208391D01*
X37281113Y-44359967D01*
X37281119Y-44359975D01*
X37410024Y-44488880D01*
X37410032Y-44488886D01*
X37561608Y-44590166D01*
X37561612Y-44590168D01*
X37688283Y-44642636D01*
X37730042Y-44659933D01*
X37730046Y-44659933D01*
X37730047Y-44659934D01*
X37908843Y-44695500D01*
X37908846Y-44695500D01*
X38091156Y-44695500D01*
X38211445Y-44671572D01*
X38269958Y-44659933D01*
X38438389Y-44590167D01*
X38438391Y-44590166D01*
X38513672Y-44539864D01*
X38589972Y-44488883D01*
X38718883Y-44359972D01*
X38820167Y-44208389D01*
X38889933Y-44039958D01*
X38907296Y-43952668D01*
X38925500Y-43861156D01*
X38925500Y-43678843D01*
X38889934Y-43500047D01*
X38889933Y-43500046D01*
X38889933Y-43500042D01*
X38820167Y-43331611D01*
X38820163Y-43331606D01*
X38817294Y-43326237D01*
X38818873Y-43325392D01*
X38800520Y-43266770D01*
X38800500Y-43264562D01*
X38800500Y-32052940D01*
X38820185Y-31985901D01*
X38836819Y-31965259D01*
X42421786Y-28380292D01*
X42421789Y-28380289D01*
X42509394Y-28249179D01*
X42569738Y-28103497D01*
X42600500Y-27948842D01*
X42600500Y-27791157D01*
X42600500Y-26595893D01*
X42620185Y-26528854D01*
X42651614Y-26495576D01*
X42679792Y-26475104D01*
X42830104Y-26324792D01*
X42949683Y-26160204D01*
X43005011Y-26117540D01*
X43074624Y-26111561D01*
X43136420Y-26144166D01*
X43150313Y-26160199D01*
X43247649Y-26294171D01*
X43269896Y-26324792D01*
X43420213Y-26475109D01*
X43592179Y-26600048D01*
X43592181Y-26600049D01*
X43592184Y-26600051D01*
X43781588Y-26696557D01*
X43983757Y-26762246D01*
X44193713Y-26795500D01*
X44193714Y-26795500D01*
X44406286Y-26795500D01*
X44406287Y-26795500D01*
X44616243Y-26762246D01*
X44818412Y-26696557D01*
X45007816Y-26600051D01*
X45029789Y-26584086D01*
X45179786Y-26475109D01*
X45179788Y-26475106D01*
X45179792Y-26475104D01*
X45330104Y-26324792D01*
X45330106Y-26324788D01*
X45330109Y-26324786D01*
X45455048Y-26152820D01*
X45455047Y-26152820D01*
X45455051Y-26152816D01*
X45551557Y-25963412D01*
X45617246Y-25761243D01*
X45650500Y-25551287D01*
X45650500Y-25088713D01*
X45617246Y-24878757D01*
X45551557Y-24676588D01*
X45455051Y-24487184D01*
X45455049Y-24487181D01*
X45455048Y-24487179D01*
X45330109Y-24315213D01*
X45179790Y-24164894D01*
X45179785Y-24164890D01*
X45014519Y-24044818D01*
X44971853Y-23989489D01*
X44965874Y-23919875D01*
X44998479Y-23858080D01*
X45059318Y-23823723D01*
X45087404Y-23820500D01*
X48113770Y-23820500D01*
X48180809Y-23840185D01*
X48226564Y-23892989D01*
X48236508Y-23962147D01*
X48207483Y-24025703D01*
X48201451Y-24032181D01*
X48107289Y-24126342D01*
X48015187Y-24275663D01*
X48015185Y-24275668D01*
X47987349Y-24359670D01*
X47960001Y-24442203D01*
X47960001Y-24442204D01*
X47960000Y-24442204D01*
X47949500Y-24544983D01*
X47949500Y-26095001D01*
X47949501Y-26095018D01*
X47960000Y-26197796D01*
X47960001Y-26197799D01*
X48015185Y-26364331D01*
X48015187Y-26364336D01*
X48023307Y-26377500D01*
X48107288Y-26513656D01*
X48231344Y-26637712D01*
X48380666Y-26729814D01*
X48547203Y-26784999D01*
X48649991Y-26795500D01*
X49950008Y-26795499D01*
X50052797Y-26784999D01*
X50219334Y-26729814D01*
X50368656Y-26637712D01*
X50492712Y-26513656D01*
X50584814Y-26364334D01*
X50639999Y-26197797D01*
X50650500Y-26095009D01*
X50650499Y-24544992D01*
X50639999Y-24442203D01*
X50584814Y-24275666D01*
X50492712Y-24126344D01*
X50398549Y-24032181D01*
X50365064Y-23970858D01*
X50370048Y-23901166D01*
X50411920Y-23845233D01*
X50477384Y-23820816D01*
X50486230Y-23820500D01*
X52017060Y-23820500D01*
X52084099Y-23840185D01*
X52104741Y-23856819D01*
X52477970Y-24230048D01*
X52511455Y-24291371D01*
X52509355Y-24343690D01*
X52511255Y-24344068D01*
X52474500Y-24528843D01*
X52474500Y-24528846D01*
X52474500Y-24711154D01*
X52474500Y-24711156D01*
X52474499Y-24711156D01*
X52510065Y-24889952D01*
X52510068Y-24889962D01*
X52579831Y-25058387D01*
X52579833Y-25058391D01*
X52681113Y-25209967D01*
X52681119Y-25209975D01*
X52810024Y-25338880D01*
X52810032Y-25338886D01*
X52961608Y-25440166D01*
X52961612Y-25440168D01*
X53124574Y-25507668D01*
X53130042Y-25509933D01*
X53130046Y-25509933D01*
X53130047Y-25509934D01*
X53308843Y-25545500D01*
X53308846Y-25545500D01*
X53491156Y-25545500D01*
X53611445Y-25521572D01*
X53669958Y-25509933D01*
X53838389Y-25440167D01*
X53838391Y-25440166D01*
X53913672Y-25389864D01*
X53989972Y-25338883D01*
X54118883Y-25209972D01*
X54220167Y-25058389D01*
X54224122Y-25048842D01*
X54289931Y-24889962D01*
X54289933Y-24889958D01*
X54301572Y-24831445D01*
X54325500Y-24711156D01*
X54325500Y-24528843D01*
X54289934Y-24350047D01*
X54289933Y-24350046D01*
X54289933Y-24350042D01*
X54220167Y-24181611D01*
X54220163Y-24181606D01*
X54217294Y-24176237D01*
X54218799Y-24175432D01*
X54216104Y-24167111D01*
X54206911Y-24153917D01*
X54201930Y-24123341D01*
X54200587Y-24119194D01*
X54200500Y-24116866D01*
X54200500Y-23941158D01*
X54194339Y-23910186D01*
X54190918Y-23892989D01*
X54183724Y-23856819D01*
X54169738Y-23786503D01*
X54109394Y-23640821D01*
X54109392Y-23640818D01*
X54109390Y-23640814D01*
X54021789Y-23509711D01*
X54021786Y-23509707D01*
X52910292Y-22398213D01*
X52910288Y-22398210D01*
X52779185Y-22310609D01*
X52779172Y-22310602D01*
X52633501Y-22250264D01*
X52633489Y-22250261D01*
X52478845Y-22219500D01*
X52478842Y-22219500D01*
X42478842Y-22219500D01*
X42321157Y-22219500D01*
X42321155Y-22219500D01*
X42166508Y-22250261D01*
X42166498Y-22250264D01*
X42020827Y-22310602D01*
X42020814Y-22310609D01*
X41924055Y-22375263D01*
X41924054Y-22375264D01*
X41889708Y-22398212D01*
X41889707Y-22398213D01*
X41376424Y-22911498D01*
X41289711Y-22998211D01*
X41233960Y-23053962D01*
X41178209Y-23109712D01*
X41090609Y-23240814D01*
X41090602Y-23240827D01*
X41030264Y-23386498D01*
X41030261Y-23386510D01*
X40999500Y-23541153D01*
X40999500Y-24044106D01*
X40979815Y-24111145D01*
X40948387Y-24144422D01*
X40920208Y-24164896D01*
X40920206Y-24164898D01*
X40920205Y-24164898D01*
X40769890Y-24315213D01*
X40644951Y-24487179D01*
X40548444Y-24676585D01*
X40482753Y-24878760D01*
X40449500Y-25088713D01*
X40449500Y-25551286D01*
X40470123Y-25681498D01*
X40482754Y-25761243D01*
X40507095Y-25836158D01*
X40548444Y-25963414D01*
X40644951Y-26152820D01*
X40769890Y-26324786D01*
X40769896Y-26324792D01*
X40920208Y-26475104D01*
X40948384Y-26495575D01*
X40991050Y-26550902D01*
X40999500Y-26595893D01*
X40999500Y-27487060D01*
X40979815Y-27554099D01*
X40963181Y-27574741D01*
X37489711Y-31048211D01*
X37433960Y-31103962D01*
X37378209Y-31159712D01*
X37290609Y-31290814D01*
X37290602Y-31290827D01*
X37230264Y-31436498D01*
X37230261Y-31436510D01*
X37199500Y-31591153D01*
X37199500Y-43264562D01*
X37181568Y-43325629D01*
X37182706Y-43326237D01*
X37179831Y-43331614D01*
X37110067Y-43500041D01*
X37110065Y-43500047D01*
X37074500Y-43678843D01*
X37074500Y-43678846D01*
X37074500Y-43861154D01*
X37074500Y-43861156D01*
X37074499Y-43861156D01*
X36050500Y-43861156D01*
X36050500Y-20706961D01*
X36051280Y-20693077D01*
X36051280Y-20693076D01*
X36061460Y-20602729D01*
X36067635Y-20575670D01*
X36095353Y-20496456D01*
X36107396Y-20471450D01*
X36152046Y-20400389D01*
X36169351Y-20378690D01*
X36228690Y-20319351D01*
X36250389Y-20302046D01*
X36321450Y-20257396D01*
X36346456Y-20245353D01*
X36425670Y-20217635D01*
X36452733Y-20211459D01*
X36515419Y-20204396D01*
X36543079Y-20201280D01*
X36556962Y-20200500D01*
X36615892Y-20200500D01*
X54484108Y-20200500D01*
X54543038Y-20200500D01*
X54556922Y-20201280D01*
G37*
%TD.AperFunction*%
%TD*%
M02*
