M48
; DRILL file {KiCad 9.0.2} date 2025-09-13T20:57:38+0200
; FORMAT={-:-/ absolute / inch / decimal}
; #@! TF.CreationDate,2025-09-13T20:57:38+02:00
; #@! TF.GenerationSoftware,Kicad,Pcbnew,9.0.2
; #@! TF.FileFunction,Plated,1,2,PTH
FMAT,2
INCH
; #@! TA.AperFunction,Plated,PTH,ViaDrill
T1C0.0118
; #@! TA.AperFunction,Plated,PTH,ComponentDrill
T2C0.0118
; #@! TA.AperFunction,Plated,PTH,ViaDrill
T3C0.0157
; #@! TA.AperFunction,Plated,PTH,ComponentDrill
T4C0.0236
; #@! TA.AperFunction,Plated,PTH,ComponentDrill
T5C0.0295
; #@! TA.AperFunction,Plated,PTH,ComponentDrill
T6C0.0315
; #@! TA.AperFunction,Plated,PTH,ComponentDrill
T7C0.0374
%
G90
G05
T1
X1.4542Y-0.8192
X1.4783Y-1.7783
X1.5689Y-1.0323
X1.5709Y-1.4791
X1.6555Y-1.1543
X1.6594Y-1.3177
X1.6929Y-1.7823
X1.7303Y-1.6268
X1.813Y-1.5126
X1.8445Y-1.1543
X1.8622Y-1.2862
X2.0118Y-1.111
X2.0177Y-1.3827
X2.0197Y-1.5165
X2.0443Y-1.6996
X2.1185Y-0.8201
X2.2677Y-0.815
X2.2756Y-1.0472
X2.2835Y-1.4646
X2.2933Y-1.8012
X2.3711Y-2.1929
X2.3819Y-1.8858
X2.4016Y-1.9469
X2.4055Y-1.9941
X2.4055Y-2.0531
X2.4055Y-2.1122
X2.4055Y-2.3484
X2.4055Y-2.4075
X2.4094Y-2.2894
X2.4567Y-1.6496
X2.4606Y-1.9469
X2.4646Y-1.9941
X2.4646Y-2.0531
X2.4646Y-2.2894
X2.4646Y-2.3484
X2.4646Y-2.4075
X2.4685Y-2.2303
X2.5236Y-2.2303
X2.5236Y-2.2894
X2.5236Y-2.3484
X2.5236Y-2.4075
X2.5276Y-2.1713
X2.5315Y-1.0984
X2.5315Y-1.7244
X2.5406Y-0.9492
X2.5827Y-2.2894
X2.5827Y-2.3484
X2.5827Y-2.4075
X2.5886Y-1.5157
X2.5945Y-1.9469
X2.5945Y-1.9941
X2.5945Y-2.0531
X2.5945Y-2.1122
X2.6417Y-2.2894
X2.6417Y-2.3484
X2.6417Y-2.4075
X2.6535Y-1.6024
X2.6535Y-1.7283
X2.6919Y-1.9793
X2.6929Y-1.8524
X2.6929Y-2.0571
X2.7008Y-2.2303
X2.7008Y-2.2894
X2.7008Y-2.3484
X2.7008Y-2.4075
X2.7185Y-1.7894
X2.7205Y-1.6762
X2.7559Y-1.3484
X2.7571Y-1.1177
X2.7598Y-2.2894
X2.7598Y-2.3484
X2.7598Y-2.4075
X2.7687Y-2.1358
X2.7717Y-1.9252
X2.7717Y-2.0236
X2.7992Y-1.7461
X2.8268Y-1.437
X2.8642Y-2.2313
X2.8701Y-2.3898
X2.873Y-1.5945
X2.878Y-1.2165
X2.8799Y-2.0335
X2.8819Y-1.9252
X2.9134Y-2.2815
X2.9252Y-2.1811
X2.9606Y-1.2933
X3.0354Y-1.6811
X3.0404Y-1.8022
X3.0551Y-1.9921
X3.0551Y-2.1535
X3.0768Y-1.1752
X3.0787Y-1.3406
X3.0945Y-1.5906
X3.0984Y-2.1535
X3.1102Y-1.9291
X3.1486Y-2.4744
X3.1614Y-1.2402
X3.2047Y-2.4213
X3.2165Y-2.1772
X3.2244Y-2.7047
X3.2362Y-2.5236
X3.2402Y-2.1575
X3.2559Y-1.4331
X3.2598Y-1.8661
X3.2753Y-1.1973
X3.2992Y-2.0
X3.3031Y-2.3071
X3.3258Y-2.4075
X3.374Y-1.2756
X3.3839Y-2.4744
X3.3898Y-1.0965
X3.3937Y-1.8602
X3.4252Y-2.0472
X3.4331Y-1.1457
X3.4449Y-2.2047
X3.4547Y-2.372
X3.4882Y-1.9803
X3.4921Y-1.685
X3.5157Y-1.2717
X3.5512Y-1.811
X3.5551Y-1.1614
X3.5866Y-1.9134
X3.6024Y-1.7244
X3.6063Y-2.378
X3.6673Y-1.2362
X3.7047Y-1.689
X3.7126Y-1.372
X3.752Y-2.3858
X3.7559Y-2.6929
X3.7598Y-0.815
X3.7677Y-1.065
X3.7707Y-1.6181
T2
X2.5705Y-2.1772
X2.5705Y-2.2205
X2.5921Y-2.1555
X2.5921Y-2.1988
X2.5921Y-2.2421
X2.6138Y-2.1772
X2.6138Y-2.2205
X2.6354Y-2.1555
X2.6354Y-2.1988
X2.6354Y-2.2421
X2.6571Y-2.1772
X2.6571Y-2.2205
X3.5768Y-1.5157
X3.5768Y-1.563
X3.5768Y-1.6102
X3.6319Y-1.5157
X3.6319Y-1.563
X3.6319Y-1.6102
T3
X1.4961Y-1.7232
X2.1024Y-0.9693
X2.2913Y-1.0945
X2.3268Y-1.437
X2.5752Y-0.9776
X2.7067Y-1.3317
X2.815Y-1.9882
X2.876Y-1.9783
X2.9213Y-2.3839
X2.9281Y-2.0482
X3.1063Y-1.6378
X3.1929Y-2.1142
X3.2185Y-2.372
X3.2874Y-2.1693
X3.3012Y-1.4154
X3.3248Y-1.2896
X3.4311Y-1.0689
X3.7146Y-1.4213
X3.7264Y-1.0945
X3.7569Y-1.5738
T5
X3.6102Y-1.828
X3.689Y-1.828
T6
X3.4827Y-0.9636
X3.5827Y-0.9636
X3.6827Y-0.9636
T7
X1.6457Y-0.9969
X1.7441Y-0.9969
X1.8425Y-0.9969
X1.9409Y-0.9969
X3.3307Y-2.5258
X3.4291Y-2.5258
X3.5276Y-2.5258
X3.626Y-2.5258
T4
G00X2.7984Y-0.8474
M15
G01X2.7984Y-0.8159
M16
G05
G00X2.7984Y-1.0179
M15
G01X2.7984Y-0.9746
M16
G05
G00X3.1386Y-0.8474
M15
G01X3.1386Y-0.8159
M16
G05
G00X3.1386Y-1.0179
M15
G01X3.1386Y-0.9746
M16
G05
M30
