M48
; DRILL file {KiCad 9.0.2} date 2025-09-08T22:40:21+0200
; FORMAT={-:-/ absolute / inch / decimal}
; #@! TF.CreationDate,2025-09-08T22:40:21+02:00
; #@! TF.GenerationSoftware,Kicad,Pcbnew,9.0.2
; #@! TF.FileFunction,Plated,1,2,PTH
FMAT,2
INCH
; #@! TA.AperFunction,Plated,PTH,ViaDrill
T1C0.0118
; #@! TA.AperFunction,Plated,PTH,ComponentDrill
T2C0.0118
; #@! TA.AperFunction,Plated,PTH,ViaDrill
T3C0.0157
; #@! TA.AperFunction,Plated,PTH,ComponentDrill
T4C0.0236
; #@! TA.AperFunction,Plated,PTH,ComponentDrill
T5C0.0295
; #@! TA.AperFunction,Plated,PTH,ComponentDrill
T6C0.0315
; #@! TA.AperFunction,Plated,PTH,ComponentDrill
T7C0.0374
%
G90
G05
T1
X1.4542Y-0.8203
X1.4783Y-1.7795
X1.5689Y-1.0335
X1.5709Y-1.4803
X1.6555Y-1.1555
X1.6594Y-1.3189
X1.6929Y-1.7835
X1.7303Y-1.628
X1.813Y-1.5138
X1.8445Y-1.1555
X1.8622Y-1.2874
X2.0118Y-1.1122
X2.0177Y-1.3839
X2.0197Y-1.5177
X2.0443Y-1.7008
X2.1185Y-0.8213
X2.2913Y-1.7421
X2.3035Y-0.9626
X2.3197Y-1.3339
X2.4016Y-1.8858
X2.4016Y-1.9469
X2.4055Y-1.9941
X2.4055Y-2.0531
X2.4055Y-2.1122
X2.4055Y-2.3484
X2.4055Y-2.4075
X2.4094Y-2.2894
X2.4606Y-1.9469
X2.4646Y-1.9941
X2.4646Y-2.0531
X2.4646Y-2.2894
X2.4646Y-2.3484
X2.4646Y-2.4075
X2.4665Y-1.6378
X2.4685Y-2.2303
X2.4843Y-1.5187
X2.5236Y-2.2303
X2.5236Y-2.2894
X2.5236Y-2.3484
X2.5236Y-2.4075
X2.5276Y-2.1713
X2.5295Y-1.1811
X2.5406Y-0.9492
X2.5413Y-1.7126
X2.5465Y-1.0339
X2.5795Y-1.5189
X2.5827Y-2.2894
X2.5827Y-2.3484
X2.5827Y-2.4075
X2.5945Y-1.9469
X2.5945Y-1.9941
X2.5945Y-2.0531
X2.5945Y-2.1122
X2.6417Y-2.2894
X2.6417Y-2.3484
X2.6417Y-2.4075
X2.6535Y-1.7224
X2.6587Y-1.6071
X2.6929Y-1.8524
X2.6929Y-2.0571
X2.7008Y-2.2303
X2.7008Y-2.2894
X2.7008Y-2.3484
X2.7008Y-2.4075
X2.7429Y-1.3252
X2.7571Y-1.1177
X2.7598Y-2.2894
X2.7598Y-2.3484
X2.7598Y-2.4075
X2.7726Y-1.9429
X2.7992Y-1.7461
X2.8189Y-2.3484
X2.8189Y-2.4075
X2.8307Y-2.0098
X2.8661Y-2.2343
X2.878Y-1.2165
X2.878Y-2.4075
X2.8783Y-1.4421
X2.8799Y-2.0335
X2.9606Y-1.2933
X2.9636Y-1.9429
X3.0404Y-1.8022
X3.0551Y-1.998
X3.0571Y-2.1547
X3.0768Y-1.1752
X3.1624Y-2.0246
X3.1634Y-1.2303
X3.2244Y-1.9272
X3.2411Y-1.4134
X3.247Y-2.2215
X3.248Y-2.5118
X3.3701Y-2.0728
X3.374Y-1.2756
X3.3839Y-2.4626
X3.3898Y-1.0965
X3.3937Y-1.8602
X3.4035Y-2.2933
X3.4646Y-2.1594
X3.5118Y-1.2776
X3.5827Y-1.6791
X3.622Y-2.3996
X3.6673Y-1.2362
X3.6874Y-1.7563
X3.7126Y-1.372
X3.7677Y-1.065
X3.7697Y-1.6205
T2
X2.5705Y-2.1772
X2.5705Y-2.2205
X2.5921Y-2.1555
X2.5921Y-2.1988
X2.5921Y-2.2421
X2.6138Y-2.1772
X2.6138Y-2.2205
X2.6354Y-2.1555
X2.6354Y-2.1988
X2.6354Y-2.2421
X2.6571Y-2.1772
X2.6571Y-2.2205
X3.5768Y-1.5157
X3.5768Y-1.563
X3.5768Y-1.6102
X3.6319Y-1.5157
X3.6319Y-1.563
X3.6319Y-1.6102
T3
X1.4961Y-1.7244
X2.1024Y-0.9705
X2.3287Y-1.5098
X2.5055Y-1.0728
X2.5472Y-1.2461
X2.5752Y-0.9776
X2.6083Y-1.7244
X2.7008Y-1.3437
X2.8024Y-1.9757
X2.876Y-1.9783
X2.9213Y-2.3839
X2.9281Y-2.0482
X3.063Y-2.2087
X3.3012Y-1.4154
X3.3248Y-1.2896
X3.4311Y-1.0689
X3.7146Y-1.4213
X3.7264Y-1.0945
X3.7569Y-1.5738
T5
X3.6224Y-1.828
X3.7012Y-1.828
T6
X3.4827Y-0.9636
X3.5827Y-0.9636
X3.6827Y-0.9636
T7
X1.6457Y-0.998
X1.7441Y-0.998
X1.8425Y-0.998
X1.9409Y-0.998
X3.3307Y-2.5258
X3.4291Y-2.5258
X3.5276Y-2.5258
X3.626Y-2.5258
T4
G00X2.7984Y-0.8474
M15
G01X2.7984Y-0.8159
M16
G05
G00X2.7984Y-1.0179
M15
G01X2.7984Y-0.9746
M16
G05
G00X3.1386Y-0.8474
M15
G01X3.1386Y-0.8159
M16
G05
G00X3.1386Y-1.0179
M15
G01X3.1386Y-0.9746
M16
G05
M30
