%TF.GenerationSoftware,KiCad,Pcbnew,9.0.2*%
%TF.CreationDate,2025-12-27T16:29:42+01:00*%
%TF.ProjectId,SlimeVR_board,536c696d-6556-4525-9f62-6f6172642e6b,3W*%
%TF.SameCoordinates,Original*%
%TF.FileFunction,Soldermask,Top*%
%TF.FilePolarity,Negative*%
%FSLAX46Y46*%
G04 Gerber Fmt 4.6, Leading zero omitted, Abs format (unit mm)*
G04 Created by KiCad (PCBNEW 9.0.2) date 2025-12-27 16:29:42*
%MOMM*%
%LPD*%
G01*
G04 APERTURE LIST*
G04 Aperture macros list*
%AMRoundRect*
0 Rectangle with rounded corners*
0 $1 Rounding radius*
0 $2 $3 $4 $5 $6 $7 $8 $9 X,Y pos of 4 corners*
0 Add a 4 corners polygon primitive as box body*
4,1,4,$2,$3,$4,$5,$6,$7,$8,$9,$2,$3,0*
0 Add four circle primitives for the rounded corners*
1,1,$1+$1,$2,$3*
1,1,$1+$1,$4,$5*
1,1,$1+$1,$6,$7*
1,1,$1+$1,$8,$9*
0 Add four rect primitives between the rounded corners*
20,1,$1+$1,$2,$3,$4,$5,0*
20,1,$1+$1,$4,$5,$6,$7,0*
20,1,$1+$1,$6,$7,$8,$9,0*
20,1,$1+$1,$8,$9,$2,$3,0*%
G04 Aperture macros list end*
%ADD10RoundRect,0.150000X-0.825000X-0.150000X0.825000X-0.150000X0.825000X0.150000X-0.825000X0.150000X0*%
%ADD11R,2.410000X3.300000*%
%ADD12RoundRect,0.250000X-0.350000X-0.450000X0.350000X-0.450000X0.350000X0.450000X-0.350000X0.450000X0*%
%ADD13R,1.000000X1.000000*%
%ADD14RoundRect,0.250000X-0.350000X-0.625000X0.350000X-0.625000X0.350000X0.625000X-0.350000X0.625000X0*%
%ADD15O,1.200000X1.750000*%
%ADD16RoundRect,0.250000X0.450000X-0.350000X0.450000X0.350000X-0.450000X0.350000X-0.450000X-0.350000X0*%
%ADD17RoundRect,0.250001X0.624999X-0.462499X0.624999X0.462499X-0.624999X0.462499X-0.624999X-0.462499X0*%
%ADD18RoundRect,0.250000X-0.450000X0.350000X-0.450000X-0.350000X0.450000X-0.350000X0.450000X0.350000X0*%
%ADD19R,1.700000X1.700000*%
%ADD20RoundRect,0.237500X0.237500X-0.300000X0.237500X0.300000X-0.237500X0.300000X-0.237500X-0.300000X0*%
%ADD21RoundRect,0.250000X0.350000X0.450000X-0.350000X0.450000X-0.350000X-0.450000X0.350000X-0.450000X0*%
%ADD22RoundRect,0.237500X-0.300000X-0.237500X0.300000X-0.237500X0.300000X0.237500X-0.300000X0.237500X0*%
%ADD23R,1.000000X0.750000*%
%ADD24RoundRect,0.112500X-0.187500X-0.112500X0.187500X-0.112500X0.187500X0.112500X-0.187500X0.112500X0*%
%ADD25R,1.500000X0.900000*%
%ADD26C,0.600000*%
%ADD27R,2.900000X2.900000*%
%ADD28RoundRect,0.150000X0.512500X0.150000X-0.512500X0.150000X-0.512500X-0.150000X0.512500X-0.150000X0*%
%ADD29C,1.600000*%
%ADD30R,1.500000X1.500000*%
%ADD31RoundRect,0.237500X0.300000X0.237500X-0.300000X0.237500X-0.300000X-0.237500X0.300000X-0.237500X0*%
%ADD32C,0.650000*%
%ADD33RoundRect,0.150000X0.150000X0.425000X-0.150000X0.425000X-0.150000X-0.425000X0.150000X-0.425000X0*%
%ADD34RoundRect,0.075000X0.075000X0.500000X-0.075000X0.500000X-0.075000X-0.500000X0.075000X-0.500000X0*%
%ADD35O,1.000000X2.100000*%
%ADD36O,1.000000X1.800000*%
%ADD37RoundRect,0.150000X-0.587500X-0.150000X0.587500X-0.150000X0.587500X0.150000X-0.587500X0.150000X0*%
%ADD38RoundRect,0.250000X-0.600000X-0.725000X0.600000X-0.725000X0.600000X0.725000X-0.600000X0.725000X0*%
%ADD39O,1.700000X1.950000*%
G04 APERTURE END LIST*
D10*
%TO.C,U1*%
X89075000Y-37795000D03*
X89075000Y-39065000D03*
X89075000Y-40335000D03*
X89075000Y-41605000D03*
X94025000Y-41605000D03*
X94025000Y-40335000D03*
X94025000Y-39065000D03*
X94025000Y-37795000D03*
D11*
X91550000Y-39700000D03*
%TD*%
D12*
%TO.C,R4*%
X71510000Y-28650000D03*
X73510000Y-28650000D03*
%TD*%
D13*
%TO.C,5V*%
X77700000Y-30800000D03*
%TD*%
D14*
%TO.C,J2*%
X91700000Y-46430000D03*
D15*
X93700000Y-46430000D03*
%TD*%
D16*
%TO.C,R1*%
X63050000Y-47950000D03*
X63050000Y-45950000D03*
%TD*%
D17*
%TO.C,D2*%
X84450000Y-27437500D03*
X84450000Y-24462500D03*
%TD*%
D18*
%TO.C,R5*%
X81950000Y-29450000D03*
X81950000Y-31450000D03*
%TD*%
D19*
%TO.C,J3*%
X71765000Y-47384950D03*
X74305000Y-47384950D03*
X76845000Y-47384950D03*
X79385000Y-47384950D03*
%TD*%
D17*
%TO.C,D3*%
X66990000Y-27440000D03*
X66990000Y-24465000D03*
%TD*%
D20*
%TO.C,C4*%
X78112500Y-54932602D03*
X78112500Y-53207602D03*
%TD*%
D16*
%TO.C,R8*%
X67000000Y-31450000D03*
X67000000Y-29450000D03*
%TD*%
D21*
%TO.C,R11*%
X93450000Y-30800000D03*
X91450000Y-30800000D03*
%TD*%
D18*
%TO.C,R6*%
X84450000Y-29450000D03*
X84450000Y-31450000D03*
%TD*%
D22*
%TO.C,C8*%
X91350000Y-34105000D03*
X93075000Y-34105000D03*
%TD*%
D13*
%TO.C,GND*%
X72500000Y-30800000D03*
%TD*%
D23*
%TO.C,SW2*%
X57900000Y-24450000D03*
X63900000Y-24450000D03*
X57900000Y-28200000D03*
X63900000Y-28200000D03*
%TD*%
D22*
%TO.C,C5*%
X78075000Y-60500000D03*
X79800000Y-60500000D03*
%TD*%
D18*
%TO.C,R2*%
X64950000Y-45950000D03*
X64950000Y-47950000D03*
%TD*%
D24*
%TO.C,D4*%
X89350000Y-28800000D03*
X91450000Y-28800000D03*
%TD*%
D12*
%TO.C,R7*%
X88550000Y-35950000D03*
X90550000Y-35950000D03*
%TD*%
D17*
%TO.C,D1*%
X81950000Y-27425000D03*
X81950000Y-24450000D03*
%TD*%
D20*
%TO.C,C7*%
X79812500Y-54932602D03*
X79812500Y-53207602D03*
%TD*%
D25*
%TO.C,U2*%
X76100000Y-62050000D03*
X76100000Y-60550000D03*
X76100000Y-59050000D03*
X76100000Y-57550000D03*
X76100000Y-56050000D03*
X76100000Y-54550000D03*
X76100000Y-53050000D03*
X76100000Y-51550000D03*
X76100000Y-50050000D03*
X58600000Y-50050000D03*
X58600000Y-51550000D03*
X58600000Y-53050000D03*
X58600000Y-54550000D03*
X58600000Y-56050000D03*
X58600000Y-57550000D03*
X58600000Y-59050000D03*
X58600000Y-60550000D03*
X58600000Y-62050000D03*
D26*
X67490000Y-56400000D03*
X67490000Y-55300000D03*
X66940000Y-56950000D03*
X66940000Y-55850000D03*
X66940000Y-54750000D03*
X66390000Y-56400000D03*
D27*
X66390000Y-55850000D03*
D26*
X66390000Y-55300000D03*
X65840000Y-56950000D03*
X65840000Y-55850000D03*
X65840000Y-54750000D03*
X65290000Y-56400000D03*
X65290000Y-55300000D03*
%TD*%
D13*
%TO.C,GND*%
X63900000Y-33800000D03*
%TD*%
%TO.C,BAT*%
X88200000Y-46700000D03*
%TD*%
D21*
%TO.C,R10*%
X61900000Y-30150000D03*
X59900000Y-30150000D03*
%TD*%
D28*
%TO.C,U3*%
X80662500Y-58632602D03*
X80662500Y-57682602D03*
X80662500Y-56732602D03*
X78387500Y-56732602D03*
X78387500Y-58632602D03*
%TD*%
D29*
%TO.C,SW1*%
X88460000Y-24475000D03*
D30*
X91000000Y-24475000D03*
D29*
X93540000Y-24475000D03*
%TD*%
D31*
%TO.C,C2*%
X84375000Y-56800000D03*
X82650000Y-56800000D03*
%TD*%
D12*
%TO.C,R3*%
X76760000Y-28650000D03*
X78760000Y-28650000D03*
%TD*%
D13*
%TO.C,3V3*%
X60000000Y-33800000D03*
%TD*%
D22*
%TO.C,C3*%
X78075000Y-62050000D03*
X79800000Y-62050000D03*
%TD*%
D32*
%TO.C,J1*%
X78290000Y-24805000D03*
X72510000Y-24805000D03*
D33*
X78600000Y-25880000D03*
X77800000Y-25880000D03*
D34*
X76650000Y-25880000D03*
X75650000Y-25880000D03*
X75150000Y-25880000D03*
X74150000Y-25880000D03*
D33*
X73000000Y-25880000D03*
X72200000Y-25880000D03*
X72200000Y-25880000D03*
X73000000Y-25880000D03*
D34*
X73650000Y-25880000D03*
X74650000Y-25880000D03*
X76150000Y-25880000D03*
X77150000Y-25880000D03*
D33*
X77800000Y-25880000D03*
X78600000Y-25880000D03*
D35*
X79720000Y-25305000D03*
D36*
X79720000Y-21125000D03*
D35*
X71080000Y-25305000D03*
D36*
X71080000Y-21125000D03*
%TD*%
D37*
%TO.C,Q1*%
X87100000Y-43000000D03*
X87100000Y-44900000D03*
X88975000Y-43950000D03*
%TD*%
D22*
%TO.C,C6*%
X82650000Y-58550000D03*
X84375000Y-58550000D03*
%TD*%
%TO.C,C1*%
X91375000Y-32605000D03*
X93100000Y-32605000D03*
%TD*%
D38*
%TO.C,J7*%
X84600000Y-64155000D03*
D39*
X87100000Y-64155000D03*
X89600000Y-64155000D03*
X92100000Y-64155000D03*
%TD*%
D30*
%TO.C,BMI160
#2 GND*%
X84500000Y-47950000D03*
%TD*%
M02*
