%TF.GenerationSoftware,KiCad,Pcbnew,9.0.2*%
%TF.CreationDate,2025-09-08T22:40:17+02:00*%
%TF.ProjectId,SlimeVR_board,536c696d-6556-4525-9f62-6f6172642e6b,2.5W*%
%TF.SameCoordinates,Original*%
%TF.FileFunction,Soldermask,Top*%
%TF.FilePolarity,Negative*%
%FSLAX46Y46*%
G04 Gerber Fmt 4.6, Leading zero omitted, Abs format (unit mm)*
G04 Created by KiCad (PCBNEW 9.0.2) date 2025-09-08 22:40:17*
%MOMM*%
%LPD*%
G01*
G04 APERTURE LIST*
G04 Aperture macros list*
%AMRoundRect*
0 Rectangle with rounded corners*
0 $1 Rounding radius*
0 $2 $3 $4 $5 $6 $7 $8 $9 X,Y pos of 4 corners*
0 Add a 4 corners polygon primitive as box body*
4,1,4,$2,$3,$4,$5,$6,$7,$8,$9,$2,$3,0*
0 Add four circle primitives for the rounded corners*
1,1,$1+$1,$2,$3*
1,1,$1+$1,$4,$5*
1,1,$1+$1,$6,$7*
1,1,$1+$1,$8,$9*
0 Add four rect primitives between the rounded corners*
20,1,$1+$1,$2,$3,$4,$5,0*
20,1,$1+$1,$4,$5,$6,$7,0*
20,1,$1+$1,$6,$7,$8,$9,0*
20,1,$1+$1,$8,$9,$2,$3,0*%
%AMFreePoly0*
4,1,9,5.362500,-0.866500,1.237500,-0.866500,1.237500,-0.450000,-1.237500,-0.450000,-1.237500,0.450000,1.237500,0.450000,1.237500,0.866500,5.362500,0.866500,5.362500,-0.866500,5.362500,-0.866500,$1*%
G04 Aperture macros list end*
%ADD10RoundRect,0.150000X-0.825000X-0.150000X0.825000X-0.150000X0.825000X0.150000X-0.825000X0.150000X0*%
%ADD11R,2.410000X3.300000*%
%ADD12RoundRect,0.250000X-0.350000X-0.450000X0.350000X-0.450000X0.350000X0.450000X-0.350000X0.450000X0*%
%ADD13R,1.000000X1.000000*%
%ADD14RoundRect,0.250000X-0.350000X-0.625000X0.350000X-0.625000X0.350000X0.625000X-0.350000X0.625000X0*%
%ADD15O,1.200000X1.750000*%
%ADD16RoundRect,0.250000X0.450000X-0.350000X0.450000X0.350000X-0.450000X0.350000X-0.450000X-0.350000X0*%
%ADD17RoundRect,0.250001X0.624999X-0.462499X0.624999X0.462499X-0.624999X0.462499X-0.624999X-0.462499X0*%
%ADD18RoundRect,0.250000X-0.450000X0.350000X-0.450000X-0.350000X0.450000X-0.350000X0.450000X0.350000X0*%
%ADD19R,1.700000X1.700000*%
%ADD20RoundRect,0.237500X0.300000X0.237500X-0.300000X0.237500X-0.300000X-0.237500X0.300000X-0.237500X0*%
%ADD21RoundRect,0.237500X-0.300000X-0.237500X0.300000X-0.237500X0.300000X0.237500X-0.300000X0.237500X0*%
%ADD22R,1.500000X1.500000*%
%ADD23RoundRect,0.112500X-0.187500X-0.112500X0.187500X-0.112500X0.187500X0.112500X-0.187500X0.112500X0*%
%ADD24R,1.500000X0.900000*%
%ADD25C,0.600000*%
%ADD26R,2.900000X2.900000*%
%ADD27RoundRect,0.250000X0.600000X0.725000X-0.600000X0.725000X-0.600000X-0.725000X0.600000X-0.725000X0*%
%ADD28O,1.700000X1.950000*%
%ADD29C,1.600000*%
%ADD30RoundRect,0.225000X0.225000X-0.925000X0.225000X0.925000X-0.225000X0.925000X-0.225000X-0.925000X0*%
%ADD31FreePoly0,90.000000*%
%ADD32C,0.650000*%
%ADD33RoundRect,0.150000X0.150000X0.425000X-0.150000X0.425000X-0.150000X-0.425000X0.150000X-0.425000X0*%
%ADD34RoundRect,0.075000X0.075000X0.500000X-0.075000X0.500000X-0.075000X-0.500000X0.075000X-0.500000X0*%
%ADD35O,1.000000X2.100000*%
%ADD36O,1.000000X1.800000*%
%ADD37RoundRect,0.150000X-0.587500X-0.150000X0.587500X-0.150000X0.587500X0.150000X-0.587500X0.150000X0*%
%ADD38RoundRect,0.250000X-0.600000X-0.725000X0.600000X-0.725000X0.600000X0.725000X-0.600000X0.725000X0*%
G04 APERTURE END LIST*
D10*
%TO.C,U1*%
X89075000Y-37795000D03*
X89075000Y-39065000D03*
X89075000Y-40335000D03*
X89075000Y-41605000D03*
X94025000Y-41605000D03*
X94025000Y-40335000D03*
X94025000Y-39065000D03*
X94025000Y-37795000D03*
D11*
X91550000Y-39700000D03*
%TD*%
D12*
%TO.C,R4*%
X71510000Y-28650000D03*
X73510000Y-28650000D03*
%TD*%
D13*
%TO.C,5V*%
X78850000Y-31300000D03*
%TD*%
D14*
%TO.C,J2*%
X92010000Y-46430000D03*
D15*
X94010000Y-46430000D03*
%TD*%
D16*
%TO.C,R1*%
X63050000Y-47950000D03*
X63050000Y-45950000D03*
%TD*%
D17*
%TO.C,D2*%
X84450000Y-27437500D03*
X84450000Y-24462500D03*
%TD*%
D18*
%TO.C,R5*%
X81950000Y-29450000D03*
X81950000Y-31450000D03*
%TD*%
D19*
%TO.C,J3*%
X71765000Y-47384950D03*
X74305000Y-47384950D03*
X76845000Y-47384950D03*
X79385000Y-47384950D03*
%TD*%
D17*
%TO.C,D3*%
X66990000Y-27440000D03*
X66990000Y-24465000D03*
%TD*%
D20*
%TO.C,C4*%
X60100000Y-32600000D03*
X58375000Y-32600000D03*
%TD*%
D12*
%TO.C,R8*%
X65490000Y-29440000D03*
X67490000Y-29440000D03*
%TD*%
%TO.C,R11*%
X89500000Y-30850000D03*
X91500000Y-30850000D03*
%TD*%
D20*
%TO.C,C9*%
X81375000Y-58755000D03*
X79650000Y-58755000D03*
%TD*%
D18*
%TO.C,R6*%
X84450000Y-29450000D03*
X84450000Y-31450000D03*
%TD*%
D21*
%TO.C,C8*%
X91350000Y-34105000D03*
X93075000Y-34105000D03*
%TD*%
D13*
%TO.C,GND*%
X37600000Y-26350000D03*
%TD*%
%TO.C,GND*%
X70500000Y-31350000D03*
%TD*%
D22*
%TO.C,BMI160
#2 GND*%
X53250000Y-44600000D03*
%TD*%
D21*
%TO.C,C5*%
X78075000Y-60300000D03*
X79800000Y-60300000D03*
%TD*%
D13*
%TO.C,3V3*%
X53400000Y-26350000D03*
%TD*%
D18*
%TO.C,R2*%
X64950000Y-45950000D03*
X64950000Y-47950000D03*
%TD*%
D23*
%TO.C,D4*%
X89350000Y-28800000D03*
X91450000Y-28800000D03*
%TD*%
D12*
%TO.C,R7*%
X88550000Y-35950000D03*
X90550000Y-35950000D03*
%TD*%
D17*
%TO.C,D1*%
X81950000Y-27425000D03*
X81950000Y-24450000D03*
%TD*%
D21*
%TO.C,C7*%
X61687500Y-32600000D03*
X63412500Y-32600000D03*
%TD*%
D24*
%TO.C,U2*%
X76100000Y-62050000D03*
X76100000Y-60550000D03*
X76100000Y-59050000D03*
X76100000Y-57550000D03*
X76100000Y-56050000D03*
X76100000Y-54550000D03*
X76100000Y-53050000D03*
X76100000Y-51550000D03*
X76100000Y-50050000D03*
X58600000Y-50050000D03*
X58600000Y-51550000D03*
X58600000Y-53050000D03*
X58600000Y-54550000D03*
X58600000Y-56050000D03*
X58600000Y-57550000D03*
X58600000Y-59050000D03*
X58600000Y-60550000D03*
X58600000Y-62050000D03*
D25*
X67490000Y-56400000D03*
X67490000Y-55300000D03*
X66940000Y-56950000D03*
X66940000Y-55850000D03*
X66940000Y-54750000D03*
X66390000Y-56400000D03*
D26*
X66390000Y-55850000D03*
D25*
X66390000Y-55300000D03*
X65840000Y-56950000D03*
X65840000Y-55850000D03*
X65840000Y-54750000D03*
X65290000Y-56400000D03*
X65290000Y-55300000D03*
%TD*%
D13*
%TO.C,BAT*%
X95250000Y-43300000D03*
%TD*%
D27*
%TO.C,J8*%
X49300000Y-25350000D03*
D28*
X46800000Y-25350000D03*
X44300000Y-25350000D03*
X41800000Y-25350000D03*
%TD*%
D12*
%TO.C,R10*%
X61350000Y-34800000D03*
X63350000Y-34800000D03*
%TD*%
D22*
%TO.C,SW1*%
X91000000Y-24475000D03*
D29*
X93540000Y-24475000D03*
X88460000Y-24475000D03*
%TD*%
D20*
%TO.C,C2*%
X64162500Y-22912500D03*
X62437500Y-22912500D03*
%TD*%
D30*
%TO.C,IC1*%
X58825000Y-29350000D03*
D31*
X60325000Y-29262500D03*
D30*
X61825000Y-29350000D03*
%TD*%
D12*
%TO.C,R3*%
X76760000Y-28650000D03*
X78760000Y-28650000D03*
%TD*%
D13*
%TO.C,3V3*%
X59150000Y-35350000D03*
%TD*%
D21*
%TO.C,C3*%
X78075000Y-62050000D03*
X79800000Y-62050000D03*
%TD*%
D22*
%TO.C,J6*%
X65450000Y-34150000D03*
%TD*%
D20*
%TO.C,C10*%
X81350000Y-57200000D03*
X79625000Y-57200000D03*
%TD*%
D32*
%TO.C,J1*%
X78290000Y-24805000D03*
X72510000Y-24805000D03*
D33*
X78600000Y-25880000D03*
X77800000Y-25880000D03*
D34*
X76650000Y-25880000D03*
X75650000Y-25880000D03*
X75150000Y-25880000D03*
X74150000Y-25880000D03*
D33*
X73000000Y-25880000D03*
X72200000Y-25880000D03*
X72200000Y-25880000D03*
X73000000Y-25880000D03*
D34*
X73650000Y-25880000D03*
X74650000Y-25880000D03*
X76150000Y-25880000D03*
X77150000Y-25880000D03*
D33*
X77800000Y-25880000D03*
X78600000Y-25880000D03*
D35*
X79720000Y-25305000D03*
D36*
X79720000Y-21125000D03*
D35*
X71080000Y-25305000D03*
D36*
X71080000Y-21125000D03*
%TD*%
D12*
%TO.C,R9*%
X61350000Y-36900000D03*
X63350000Y-36900000D03*
%TD*%
D22*
%TO.C,J5*%
X65450000Y-36650000D03*
%TD*%
D37*
%TO.C,Q1*%
X87400000Y-43000000D03*
X87400000Y-44900000D03*
X89275000Y-43950000D03*
%TD*%
D19*
%TO.C,J4*%
X40500000Y-43875000D03*
X43040000Y-43875000D03*
X45580000Y-43875000D03*
X48120000Y-43875000D03*
%TD*%
D20*
%TO.C,C6*%
X60602500Y-22920000D03*
X58877500Y-22920000D03*
%TD*%
D21*
%TO.C,C1*%
X91375000Y-32605000D03*
X93100000Y-32605000D03*
%TD*%
D38*
%TO.C,J7*%
X84600000Y-64155000D03*
D28*
X87100000Y-64155000D03*
X89600000Y-64155000D03*
X92100000Y-64155000D03*
%TD*%
D22*
%TO.C,BMI160
#2 GND*%
X84440000Y-47959950D03*
%TD*%
M02*
