%TF.GenerationSoftware,KiCad,Pcbnew,9.0.2*%
%TF.CreationDate,2025-12-27T16:29:42+01:00*%
%TF.ProjectId,SlimeVR_board,536c696d-6556-4525-9f62-6f6172642e6b,3W*%
%TF.SameCoordinates,Original*%
%TF.FileFunction,Profile,NP*%
%FSLAX46Y46*%
G04 Gerber Fmt 4.6, Leading zero omitted, Abs format (unit mm)*
G04 Created by KiCad (PCBNEW 9.0.2) date 2025-12-27 16:29:42*
%MOMM*%
%LPD*%
G01*
G04 APERTURE LIST*
%TA.AperFunction,Profile*%
%ADD10C,0.050000*%
%TD*%
G04 APERTURE END LIST*
D10*
X96550000Y-47960000D02*
G75*
G02*
X95050000Y-49460000I-1500000J0D01*
G01*
X56550000Y-20700000D02*
G75*
G02*
X57564335Y-19700103I1000000J0D01*
G01*
X95550000Y-19700000D02*
G75*
G02*
X96550000Y-20700000I0J-1000000D01*
G01*
X95050000Y-49460000D02*
X90800000Y-49460000D01*
X75200000Y-63150000D02*
X58000000Y-63150000D01*
X96550000Y-61050000D02*
X96550000Y-68200000D01*
X89300000Y-50960000D02*
X89300000Y-58050000D01*
X76700000Y-68200000D02*
X76700000Y-64650000D01*
X56500000Y-61650000D02*
X56550000Y-20700000D01*
X90800000Y-59550000D02*
G75*
G02*
X89300000Y-58050000I0J1500000D01*
G01*
X78200000Y-69700000D02*
G75*
G02*
X76700000Y-68200000I0J1500000D01*
G01*
X95050000Y-69700000D02*
X78200000Y-69700000D01*
X57564336Y-19700001D02*
X95550000Y-19700000D01*
X95050000Y-59550000D02*
G75*
G02*
X96550000Y-61050000I0J-1500000D01*
G01*
X96550000Y-68200000D02*
G75*
G02*
X95050000Y-69700000I-1500000J0D01*
G01*
X96550000Y-20700000D02*
X96550000Y-47960000D01*
X89300000Y-50960000D02*
G75*
G02*
X90800000Y-49460000I1500000J0D01*
G01*
X58000000Y-63150000D02*
G75*
G02*
X56500000Y-61650000I0J1500000D01*
G01*
X75200000Y-63150000D02*
G75*
G02*
X76700000Y-64650000I0J-1500000D01*
G01*
X90800000Y-59550000D02*
X95050000Y-59550000D01*
M02*
