%TF.GenerationSoftware,KiCad,Pcbnew,9.0.2*%
%TF.CreationDate,2025-09-13T20:57:44+02:00*%
%TF.ProjectId,SlimeVR_board,536c696d-6556-4525-9f62-6f6172642e6b,2.5W*%
%TF.SameCoordinates,Original*%
%TF.FileFunction,Copper,L1,Top*%
%TF.FilePolarity,Positive*%
%FSLAX46Y46*%
G04 Gerber Fmt 4.6, Leading zero omitted, Abs format (unit mm)*
G04 Created by KiCad (PCBNEW 9.0.2) date 2025-09-13 20:57:44*
%MOMM*%
%LPD*%
G01*
G04 APERTURE LIST*
G04 Aperture macros list*
%AMRoundRect*
0 Rectangle with rounded corners*
0 $1 Rounding radius*
0 $2 $3 $4 $5 $6 $7 $8 $9 X,Y pos of 4 corners*
0 Add a 4 corners polygon primitive as box body*
4,1,4,$2,$3,$4,$5,$6,$7,$8,$9,$2,$3,0*
0 Add four circle primitives for the rounded corners*
1,1,$1+$1,$2,$3*
1,1,$1+$1,$4,$5*
1,1,$1+$1,$6,$7*
1,1,$1+$1,$8,$9*
0 Add four rect primitives between the rounded corners*
20,1,$1+$1,$2,$3,$4,$5,0*
20,1,$1+$1,$4,$5,$6,$7,0*
20,1,$1+$1,$6,$7,$8,$9,0*
20,1,$1+$1,$8,$9,$2,$3,0*%
%AMFreePoly0*
4,1,9,5.362500,-0.866500,1.237500,-0.866500,1.237500,-0.450000,-1.237500,-0.450000,-1.237500,0.450000,1.237500,0.450000,1.237500,0.866500,5.362500,0.866500,5.362500,-0.866500,5.362500,-0.866500,$1*%
G04 Aperture macros list end*
%TA.AperFunction,SMDPad,CuDef*%
%ADD10RoundRect,0.150000X-0.825000X-0.150000X0.825000X-0.150000X0.825000X0.150000X-0.825000X0.150000X0*%
%TD*%
%TA.AperFunction,HeatsinkPad*%
%ADD11C,0.500000*%
%TD*%
%TA.AperFunction,HeatsinkPad*%
%ADD12R,2.410000X3.300000*%
%TD*%
%TA.AperFunction,SMDPad,CuDef*%
%ADD13RoundRect,0.250000X-0.350000X-0.450000X0.350000X-0.450000X0.350000X0.450000X-0.350000X0.450000X0*%
%TD*%
%TA.AperFunction,SMDPad,CuDef*%
%ADD14R,1.000000X1.000000*%
%TD*%
%TA.AperFunction,ComponentPad*%
%ADD15RoundRect,0.250000X0.600000X0.725000X-0.600000X0.725000X-0.600000X-0.725000X0.600000X-0.725000X0*%
%TD*%
%TA.AperFunction,ComponentPad*%
%ADD16O,1.700000X1.950000*%
%TD*%
%TA.AperFunction,ComponentPad*%
%ADD17RoundRect,0.250000X-0.350000X-0.625000X0.350000X-0.625000X0.350000X0.625000X-0.350000X0.625000X0*%
%TD*%
%TA.AperFunction,ComponentPad*%
%ADD18O,1.200000X1.750000*%
%TD*%
%TA.AperFunction,SMDPad,CuDef*%
%ADD19RoundRect,0.250000X0.450000X-0.350000X0.450000X0.350000X-0.450000X0.350000X-0.450000X-0.350000X0*%
%TD*%
%TA.AperFunction,SMDPad,CuDef*%
%ADD20RoundRect,0.250001X0.624999X-0.462499X0.624999X0.462499X-0.624999X0.462499X-0.624999X-0.462499X0*%
%TD*%
%TA.AperFunction,SMDPad,CuDef*%
%ADD21RoundRect,0.250000X-0.450000X0.350000X-0.450000X-0.350000X0.450000X-0.350000X0.450000X0.350000X0*%
%TD*%
%TA.AperFunction,SMDPad,CuDef*%
%ADD22R,1.700000X1.700000*%
%TD*%
%TA.AperFunction,SMDPad,CuDef*%
%ADD23RoundRect,0.237500X0.237500X-0.300000X0.237500X0.300000X-0.237500X0.300000X-0.237500X-0.300000X0*%
%TD*%
%TA.AperFunction,SMDPad,CuDef*%
%ADD24RoundRect,0.237500X-0.300000X-0.237500X0.300000X-0.237500X0.300000X0.237500X-0.300000X0.237500X0*%
%TD*%
%TA.AperFunction,SMDPad,CuDef*%
%ADD25RoundRect,0.112500X-0.187500X-0.112500X0.187500X-0.112500X0.187500X0.112500X-0.187500X0.112500X0*%
%TD*%
%TA.AperFunction,SMDPad,CuDef*%
%ADD26R,1.500000X0.900000*%
%TD*%
%TA.AperFunction,HeatsinkPad*%
%ADD27C,0.600000*%
%TD*%
%TA.AperFunction,HeatsinkPad*%
%ADD28R,2.900000X2.900000*%
%TD*%
%TA.AperFunction,SMDPad,CuDef*%
%ADD29R,1.500000X1.500000*%
%TD*%
%TA.AperFunction,ComponentPad*%
%ADD30R,1.500000X1.500000*%
%TD*%
%TA.AperFunction,ComponentPad*%
%ADD31C,1.600000*%
%TD*%
%TA.AperFunction,SMDPad,CuDef*%
%ADD32RoundRect,0.225000X-0.925000X-0.225000X0.925000X-0.225000X0.925000X0.225000X-0.925000X0.225000X0*%
%TD*%
%TA.AperFunction,SMDPad,CuDef*%
%ADD33FreePoly0,0.000000*%
%TD*%
%TA.AperFunction,SMDPad,CuDef*%
%ADD34RoundRect,0.150000X0.150000X0.425000X-0.150000X0.425000X-0.150000X-0.425000X0.150000X-0.425000X0*%
%TD*%
%TA.AperFunction,SMDPad,CuDef*%
%ADD35RoundRect,0.075000X0.075000X0.500000X-0.075000X0.500000X-0.075000X-0.500000X0.075000X-0.500000X0*%
%TD*%
%TA.AperFunction,HeatsinkPad*%
%ADD36O,1.000000X2.100000*%
%TD*%
%TA.AperFunction,HeatsinkPad*%
%ADD37O,1.000000X1.800000*%
%TD*%
%TA.AperFunction,SMDPad,CuDef*%
%ADD38RoundRect,0.150000X-0.587500X-0.150000X0.587500X-0.150000X0.587500X0.150000X-0.587500X0.150000X0*%
%TD*%
%TA.AperFunction,SMDPad,CuDef*%
%ADD39RoundRect,0.237500X-0.237500X0.300000X-0.237500X-0.300000X0.237500X-0.300000X0.237500X0.300000X0*%
%TD*%
%TA.AperFunction,ComponentPad*%
%ADD40RoundRect,0.250000X-0.600000X-0.725000X0.600000X-0.725000X0.600000X0.725000X-0.600000X0.725000X0*%
%TD*%
%TA.AperFunction,ViaPad*%
%ADD41C,0.550000*%
%TD*%
%TA.AperFunction,ViaPad*%
%ADD42C,0.850000*%
%TD*%
%TA.AperFunction,Conductor*%
%ADD43C,0.600000*%
%TD*%
%TA.AperFunction,Conductor*%
%ADD44C,0.800000*%
%TD*%
%TA.AperFunction,Conductor*%
%ADD45C,0.300000*%
%TD*%
G04 APERTURE END LIST*
D10*
%TO.P,U1,1,TEMP*%
%TO.N,Earth*%
X89075000Y-37795000D03*
%TO.P,U1,2,PROG*%
%TO.N,Net-(U1-PROG)*%
X89075000Y-39065000D03*
%TO.P,U1,3,GND*%
%TO.N,Earth*%
X89075000Y-40335000D03*
%TO.P,U1,4,V_{CC}*%
%TO.N,+5V*%
X89075000Y-41605000D03*
%TO.P,U1,5,BAT*%
%TO.N,+BATT*%
X94025000Y-41605000D03*
%TO.P,U1,6,~{STDBY}*%
%TO.N,Net-(U1-~{STDBY})*%
X94025000Y-40335000D03*
%TO.P,U1,7,~{CHRG}*%
%TO.N,Net-(U1-~{CHRG})*%
X94025000Y-39065000D03*
%TO.P,U1,8,CE*%
%TO.N,+5V*%
X94025000Y-37795000D03*
D11*
%TO.P,U1,9,EPAD*%
%TO.N,Earth*%
X90850000Y-38500000D03*
X90850000Y-39700000D03*
X90850000Y-40900000D03*
D12*
X91550000Y-39700000D03*
D11*
X92250000Y-38500000D03*
X92250000Y-39700000D03*
X92250000Y-40900000D03*
%TD*%
D13*
%TO.P,R4,1*%
%TO.N,Earth*%
X71510000Y-28650000D03*
%TO.P,R4,2*%
%TO.N,Net-(J1-CC2)*%
X73510000Y-28650000D03*
%TD*%
D14*
%TO.P,5V,1*%
%TO.N,+5V*%
X78200000Y-31300000D03*
%TD*%
D15*
%TO.P,J8,1,Pin_1*%
%TO.N,SDA*%
X49300000Y-25320000D03*
D16*
%TO.P,J8,2,Pin_2*%
%TO.N,Earth*%
X46800000Y-25320000D03*
%TO.P,J8,3,Pin_3*%
%TO.N,SCL*%
X44300000Y-25320000D03*
%TO.P,J8,4,Pin_4*%
%TO.N,+3.3V*%
X41800000Y-25320000D03*
%TD*%
D17*
%TO.P,J2,1,Pin_1*%
%TO.N,+BATT*%
X91700000Y-46430000D03*
D18*
%TO.P,J2,2,Pin_2*%
%TO.N,Earth*%
X93700000Y-46430000D03*
%TD*%
D19*
%TO.P,R1,1*%
%TO.N,Battery_sence*%
X63050000Y-47950000D03*
%TO.P,R1,2*%
%TO.N,Earth*%
X63050000Y-45950000D03*
%TD*%
D20*
%TO.P,D2,1,K*%
%TO.N,Net-(D2-K)*%
X84450000Y-27437500D03*
%TO.P,D2,2,A*%
%TO.N,+5V*%
X84450000Y-24462500D03*
%TD*%
D21*
%TO.P,R5,1*%
%TO.N,Net-(D1-K)*%
X81950000Y-29450000D03*
%TO.P,R5,2*%
%TO.N,Net-(U1-~{CHRG})*%
X81950000Y-31450000D03*
%TD*%
D22*
%TO.P,J3,1,Pin_1*%
%TO.N,+3.3V*%
X71765000Y-47384950D03*
%TO.P,J3,2,Pin_2*%
%TO.N,Earth*%
X74305000Y-47384950D03*
%TO.P,J3,3,Pin_3*%
%TO.N,SCL*%
X76845000Y-47384950D03*
%TO.P,J3,4,Pin_4*%
%TO.N,SDA*%
X79385000Y-47384950D03*
%TD*%
D20*
%TO.P,D3,1,K*%
%TO.N,Net-(D3-K)*%
X66990000Y-27440000D03*
%TO.P,D3,2,A*%
%TO.N,Net-(D3-A)*%
X66990000Y-24465000D03*
%TD*%
D23*
%TO.P,C4,1*%
%TO.N,+3.3V*%
X78100000Y-53462500D03*
%TO.P,C4,2*%
%TO.N,Earth*%
X78100000Y-51737500D03*
%TD*%
D13*
%TO.P,R8,1*%
%TO.N,Earth*%
X65490000Y-29440000D03*
%TO.P,R8,2*%
%TO.N,Net-(D3-K)*%
X67490000Y-29440000D03*
%TD*%
%TO.P,R11,1*%
%TO.N,Earth*%
X89500000Y-30850000D03*
%TO.P,R11,2*%
%TO.N,+5V*%
X91500000Y-30850000D03*
%TD*%
D21*
%TO.P,R6,1*%
%TO.N,Net-(D2-K)*%
X84450000Y-29450000D03*
%TO.P,R6,2*%
%TO.N,Net-(U1-~{STDBY})*%
X84450000Y-31450000D03*
%TD*%
D24*
%TO.P,C8,1*%
%TO.N,+5V*%
X91350000Y-34105000D03*
%TO.P,C8,2*%
%TO.N,Earth*%
X93075000Y-34105000D03*
%TD*%
D14*
%TO.P,GND,1*%
%TO.N,Earth*%
X70500000Y-31300000D03*
%TD*%
%TO.P,3V3,1*%
%TO.N,+3.3V*%
X53400000Y-26320000D03*
%TD*%
D22*
%TO.P,J4,1,Pin_1*%
%TO.N,+3.3V*%
X40480000Y-43850000D03*
%TO.P,J4,2,Pin_2*%
%TO.N,Earth*%
X43020000Y-43850000D03*
%TO.P,J4,3,Pin_3*%
%TO.N,SCL*%
X45560000Y-43850000D03*
%TO.P,J4,4,Pin_4*%
%TO.N,SDA*%
X48100000Y-43850000D03*
%TD*%
D24*
%TO.P,C5,1*%
%TO.N,+3.3V*%
X78075000Y-60300000D03*
%TO.P,C5,2*%
%TO.N,Earth*%
X79800000Y-60300000D03*
%TD*%
D21*
%TO.P,R2,1*%
%TO.N,Net-(SW1-C)*%
X64950000Y-45950000D03*
%TO.P,R2,2*%
%TO.N,Battery_sence*%
X64950000Y-47950000D03*
%TD*%
D25*
%TO.P,D4,1,K*%
%TO.N,Net-(D4-K)*%
X89350000Y-28800000D03*
%TO.P,D4,2,A*%
%TO.N,+5V*%
X91450000Y-28800000D03*
%TD*%
D13*
%TO.P,R7,1*%
%TO.N,Net-(U1-PROG)*%
X88550000Y-35950000D03*
%TO.P,R7,2*%
%TO.N,Earth*%
X90550000Y-35950000D03*
%TD*%
D20*
%TO.P,D1,1,K*%
%TO.N,Net-(D1-K)*%
X81950000Y-27425000D03*
%TO.P,D1,2,A*%
%TO.N,+5V*%
X81950000Y-24450000D03*
%TD*%
D23*
%TO.P,C7,1*%
%TO.N,+3.3V*%
X79800000Y-53462500D03*
%TO.P,C7,2*%
%TO.N,Earth*%
X79800000Y-51737500D03*
%TD*%
D26*
%TO.P,U2,1,3V3*%
%TO.N,+3.3V*%
X76100000Y-62050000D03*
%TO.P,U2,2,EN*%
%TO.N,Net-(J5-Pin_1)*%
X76100000Y-60550000D03*
%TO.P,U2,3,IO4*%
%TO.N,SDA*%
X76100000Y-59050000D03*
%TO.P,U2,4,IO5*%
%TO.N,SCL*%
X76100000Y-57550000D03*
%TO.P,U2,5,IO6*%
%TO.N,unconnected-(U2-IO6-Pad5)*%
X76100000Y-56050000D03*
%TO.P,U2,6,IO7*%
%TO.N,Net-(D3-A)*%
X76100000Y-54550000D03*
%TO.P,U2,7,IO8*%
%TO.N,unconnected-(U2-IO8-Pad7)*%
X76100000Y-53050000D03*
%TO.P,U2,8,IO9*%
%TO.N,Net-(J6-Pin_1)*%
X76100000Y-51550000D03*
%TO.P,U2,9,GND*%
%TO.N,Earth*%
X76100000Y-50050000D03*
%TO.P,U2,10,IO10*%
%TO.N,unconnected-(U2-IO10-Pad10)*%
X58600000Y-50050000D03*
%TO.P,U2,11,IO20/RXD*%
%TO.N,unconnected-(U2-IO20{slash}RXD-Pad11)*%
X58600000Y-51550000D03*
%TO.P,U2,12,IO21/TXD*%
%TO.N,unconnected-(U2-IO21{slash}TXD-Pad12)*%
X58600000Y-53050000D03*
%TO.P,U2,13,IO18*%
%TO.N,D-*%
X58600000Y-54550000D03*
%TO.P,U2,14,IO19*%
%TO.N,D+*%
X58600000Y-56050000D03*
%TO.P,U2,15,IO3*%
%TO.N,Battery_sence*%
X58600000Y-57550000D03*
%TO.P,U2,16,IO2*%
%TO.N,unconnected-(U2-IO2-Pad16)*%
X58600000Y-59050000D03*
%TO.P,U2,17,IO1*%
%TO.N,unconnected-(U2-IO1-Pad17)*%
X58600000Y-60550000D03*
%TO.P,U2,18,IO0*%
%TO.N,unconnected-(U2-IO0-Pad18)*%
X58600000Y-62050000D03*
D27*
%TO.P,U2,19,GND*%
%TO.N,Earth*%
X67490000Y-56400000D03*
X67490000Y-55300000D03*
X66940000Y-56950000D03*
X66940000Y-55850000D03*
X66940000Y-54750000D03*
X66390000Y-56400000D03*
D28*
X66390000Y-55850000D03*
D27*
X66390000Y-55300000D03*
X65840000Y-56950000D03*
X65840000Y-55850000D03*
X65840000Y-54750000D03*
X65290000Y-56400000D03*
X65290000Y-55300000D03*
%TD*%
D14*
%TO.P,GND,1*%
%TO.N,Earth*%
X60600000Y-32000000D03*
%TD*%
D29*
%TO.P,BMI160
#2 GND,1*%
%TO.N,Earth*%
X53250000Y-44570000D03*
%TD*%
D14*
%TO.P,BAT,1*%
%TO.N,+BATT*%
X88200000Y-46700000D03*
%TD*%
D19*
%TO.P,R10,1*%
%TO.N,+3.3V*%
X58400000Y-33800000D03*
%TO.P,R10,2*%
%TO.N,Net-(J6-Pin_1)*%
X58400000Y-31800000D03*
%TD*%
D30*
%TO.P,SW1,1,A*%
%TO.N,Net-(D4-K)*%
X91000000Y-24475000D03*
D31*
%TO.P,SW1,2,B*%
%TO.N,unconnected-(SW1-B-Pad2)*%
X93540000Y-24475000D03*
%TO.P,SW1,3,C*%
%TO.N,Net-(SW1-C)*%
X88460000Y-24475000D03*
%TD*%
D23*
%TO.P,C2,1*%
%TO.N,Net-(SW1-C)*%
X85000000Y-55562500D03*
%TO.P,C2,2*%
%TO.N,Earth*%
X85000000Y-53837500D03*
%TD*%
D32*
%TO.P,IC1,1,GND*%
%TO.N,Earth*%
X78550000Y-55500000D03*
D33*
%TO.P,IC1,2,VIN*%
%TO.N,Net-(SW1-C)*%
X78637500Y-57000000D03*
D32*
%TO.P,IC1,3,VOUT*%
%TO.N,+3.3V*%
X78550000Y-58500000D03*
%TD*%
D13*
%TO.P,R3,1*%
%TO.N,Net-(J1-CC1)*%
X76760000Y-28650000D03*
%TO.P,R3,2*%
%TO.N,Earth*%
X78760000Y-28650000D03*
%TD*%
D14*
%TO.P,3V3,1*%
%TO.N,+3.3V*%
X66000000Y-33700000D03*
%TD*%
D24*
%TO.P,C3,1*%
%TO.N,+3.3V*%
X78075000Y-62050000D03*
%TO.P,C3,2*%
%TO.N,Earth*%
X79800000Y-62050000D03*
%TD*%
D29*
%TO.P,J6,1,Pin_1*%
%TO.N,Net-(J6-Pin_1)*%
X58800000Y-29600000D03*
%TD*%
D34*
%TO.P,J1,A1,GND*%
%TO.N,Earth*%
X78600000Y-25880000D03*
%TO.P,J1,A4,VBUS*%
%TO.N,+5V*%
X77800000Y-25880000D03*
D35*
%TO.P,J1,A5,CC1*%
%TO.N,Net-(J1-CC1)*%
X76650000Y-25880000D03*
%TO.P,J1,A6,D+*%
%TO.N,D+*%
X75650000Y-25880000D03*
%TO.P,J1,A7,D-*%
%TO.N,D-*%
X75150000Y-25880000D03*
%TO.P,J1,A8,SBU1*%
%TO.N,unconnected-(J1-SBU1-PadA8)*%
X74150000Y-25880000D03*
D34*
%TO.P,J1,A9,VBUS*%
%TO.N,+5V*%
X73000000Y-25880000D03*
%TO.P,J1,A12,GND*%
%TO.N,Earth*%
X72200000Y-25880000D03*
%TO.P,J1,B1,GND*%
X72200000Y-25880000D03*
%TO.P,J1,B4,VBUS*%
%TO.N,+5V*%
X73000000Y-25880000D03*
D35*
%TO.P,J1,B5,CC2*%
%TO.N,Net-(J1-CC2)*%
X73650000Y-25880000D03*
%TO.P,J1,B6,D+*%
%TO.N,D+*%
X74650000Y-25880000D03*
%TO.P,J1,B7,D-*%
%TO.N,D-*%
X76150000Y-25880000D03*
%TO.P,J1,B8,SBU2*%
%TO.N,unconnected-(J1-SBU2-PadB8)*%
X77150000Y-25880000D03*
D34*
%TO.P,J1,B9,VBUS*%
%TO.N,+5V*%
X77800000Y-25880000D03*
%TO.P,J1,B12,GND*%
%TO.N,Earth*%
X78600000Y-25880000D03*
D36*
%TO.P,J1,S1,SHIELD*%
X79720000Y-25305000D03*
D37*
X79720000Y-21125000D03*
D36*
X71080000Y-25305000D03*
D37*
X71080000Y-21125000D03*
%TD*%
D19*
%TO.P,R9,1*%
%TO.N,+3.3V*%
X62800000Y-33800000D03*
%TO.P,R9,2*%
%TO.N,Net-(J5-Pin_1)*%
X62800000Y-31800000D03*
%TD*%
D29*
%TO.P,J5,1,Pin_1*%
%TO.N,Net-(J5-Pin_1)*%
X62400000Y-29600000D03*
%TD*%
D38*
%TO.P,Q1,1,G*%
%TO.N,+5V*%
X87100000Y-43000000D03*
%TO.P,Q1,2,S*%
%TO.N,Net-(D4-K)*%
X87100000Y-44900000D03*
%TO.P,Q1,3,D*%
%TO.N,+BATT*%
X88975000Y-43950000D03*
%TD*%
D14*
%TO.P,GND,1*%
%TO.N,Earth*%
X37600000Y-26320000D03*
%TD*%
D39*
%TO.P,C6,1*%
%TO.N,Net-(SW1-C)*%
X85007500Y-57197500D03*
%TO.P,C6,2*%
%TO.N,Earth*%
X85007500Y-58922500D03*
%TD*%
D24*
%TO.P,C1,1*%
%TO.N,+5V*%
X91375000Y-32605000D03*
%TO.P,C1,2*%
%TO.N,Earth*%
X93100000Y-32605000D03*
%TD*%
D40*
%TO.P,J7,1,Pin_1*%
%TO.N,+3.3V*%
X84600000Y-64155000D03*
D16*
%TO.P,J7,2,Pin_2*%
%TO.N,SCL*%
X87100000Y-64155000D03*
%TO.P,J7,3,Pin_3*%
%TO.N,Earth*%
X89600000Y-64155000D03*
%TO.P,J7,4,Pin_4*%
%TO.N,SDA*%
X92100000Y-64155000D03*
%TD*%
D29*
%TO.P,BMI160
#2 GND,1*%
%TO.N,Earth*%
X84500000Y-47950000D03*
%TD*%
D41*
%TO.N,Earth*%
X60225000Y-55700000D03*
X69050000Y-45450000D03*
X68375000Y-50275000D03*
X70325000Y-54250000D03*
X72750000Y-56675000D03*
X79975000Y-62850000D03*
X84475000Y-61150000D03*
X72975000Y-40500000D03*
X78200000Y-34050000D03*
D42*
%TO.N,+5V*%
X94650000Y-27800000D03*
X87150000Y-27150000D03*
D41*
%TO.N,Earth*%
X70100000Y-58150000D03*
X67100000Y-58150000D03*
X68400000Y-52250000D03*
X61100000Y-52150000D03*
X93150000Y-31400000D03*
X62700000Y-56650000D03*
X58000000Y-37200000D03*
X42050000Y-29320000D03*
X85700000Y-32400000D03*
X74300000Y-55400000D03*
X68600000Y-61150000D03*
X86100000Y-27850000D03*
X87750000Y-60250000D03*
X77225000Y-45775000D03*
X43950000Y-41320000D03*
X65900000Y-49450000D03*
X60500000Y-47900000D03*
X39900000Y-37570000D03*
X87200000Y-29100000D03*
X64100000Y-59650000D03*
X65900000Y-52150000D03*
X67100000Y-59650000D03*
X82700000Y-36400000D03*
X91600000Y-60400000D03*
X61100000Y-59650000D03*
X62600000Y-61150000D03*
X65600000Y-61150000D03*
X70400000Y-51400000D03*
X51250000Y-35120000D03*
X71800000Y-36500000D03*
X47300000Y-32670000D03*
X62400000Y-41900000D03*
X70100000Y-61150000D03*
X87000000Y-52000000D03*
X65600000Y-58150000D03*
X69100000Y-42575000D03*
X70400000Y-48900000D03*
X80300000Y-31500000D03*
X88700000Y-42800000D03*
X58250000Y-45750000D03*
X68600000Y-56650000D03*
X51925000Y-43170000D03*
X43000000Y-45270000D03*
X39850000Y-26220000D03*
X78150000Y-29850000D03*
X72900000Y-60700000D03*
X61200000Y-58150000D03*
X81700000Y-55300000D03*
X82800000Y-47400000D03*
X64100000Y-58150000D03*
X77600000Y-54700000D03*
X57800000Y-26600000D03*
X83900000Y-58600000D03*
X51300000Y-38520000D03*
X87500000Y-56000000D03*
X64530000Y-24110000D03*
X95700000Y-27050000D03*
X94300000Y-34850000D03*
X62600000Y-59650000D03*
X62600000Y-58150000D03*
X70030000Y-28390000D03*
X65900000Y-50650000D03*
X85950000Y-62850000D03*
X83800000Y-50800000D03*
X62600000Y-52150000D03*
X70100000Y-59650000D03*
X61000000Y-49450000D03*
X68600000Y-59650000D03*
X95300000Y-60600000D03*
X67400000Y-43900000D03*
X79000000Y-49000000D03*
X64100000Y-61150000D03*
X53810975Y-20831585D03*
X75200000Y-32850000D03*
X64300000Y-27900000D03*
X51100000Y-28220000D03*
X73150000Y-51650000D03*
X65750000Y-38500000D03*
X68600000Y-58150000D03*
X68400000Y-47050000D03*
X90200000Y-46000000D03*
X77100000Y-42700000D03*
X74000000Y-57950000D03*
X77600000Y-50600000D03*
X64100000Y-56650000D03*
X61100000Y-61150000D03*
X67100000Y-61150000D03*
X81900000Y-68700000D03*
X83193183Y-30411820D03*
X62500000Y-49450000D03*
X78600000Y-40400000D03*
X86200000Y-47250000D03*
X57600000Y-20700000D03*
X42150000Y-33470000D03*
X88600000Y-50300000D03*
X36935975Y-20806585D03*
X89300000Y-32300000D03*
X61100000Y-50650000D03*
X91500000Y-43800000D03*
X37550000Y-45170000D03*
X81400000Y-61500000D03*
X65600000Y-59650000D03*
X82200000Y-64100000D03*
X62600000Y-50650000D03*
X82300000Y-54800000D03*
X95400000Y-68400000D03*
X65900000Y-53650000D03*
X94100000Y-42900000D03*
X71100000Y-44350000D03*
X78700000Y-54700000D03*
X90300000Y-29500000D03*
X70000000Y-34250000D03*
X64300000Y-43800000D03*
X91100000Y-48600000D03*
X95775000Y-41100000D03*
X95500000Y-20700000D03*
X46850000Y-29320000D03*
X73200000Y-48900000D03*
X46050000Y-38420000D03*
X67400000Y-40700000D03*
X73100000Y-30900000D03*
X61100000Y-53650000D03*
X64200000Y-55150000D03*
D42*
%TO.N,Net-(J5-Pin_1)*%
X68750000Y-33825000D03*
X74200000Y-60550000D03*
%TO.N,Net-(J6-Pin_1)*%
X73050000Y-50250000D03*
X58200000Y-27800000D03*
%TO.N,Net-(U1-~{CHRG})*%
X94350000Y-36100000D03*
X83850000Y-35950000D03*
%TO.N,Net-(U1-~{STDBY})*%
X95425000Y-39975000D03*
X84450000Y-32757000D03*
%TO.N,Net-(D3-A)*%
X65410000Y-24830000D03*
X74375000Y-52025000D03*
%TO.N,+3.3V*%
X81100000Y-53700000D03*
X81750000Y-60250000D03*
X38000000Y-43770000D03*
X71500000Y-50500000D03*
X59100000Y-36500000D03*
X53400000Y-24620000D03*
%TO.N,Net-(SW1-C)*%
X78900000Y-41600000D03*
X83500000Y-55100000D03*
%TD*%
D43*
%TO.N,Net-(J5-Pin_1)*%
X62850000Y-29600000D02*
X62400000Y-29600000D01*
X68750000Y-32850000D02*
X68075000Y-32175000D01*
X65425000Y-32175000D02*
X62850000Y-29600000D01*
X68750000Y-33825000D02*
X68750000Y-32850000D01*
X68075000Y-32175000D02*
X65425000Y-32175000D01*
%TO.N,Net-(J6-Pin_1)*%
X59250000Y-29150000D02*
X58800000Y-29600000D01*
X59250000Y-27650000D02*
X59250000Y-29150000D01*
X59100000Y-27500000D02*
X59250000Y-27650000D01*
X58500000Y-27500000D02*
X59100000Y-27500000D01*
X58200000Y-27800000D02*
X58500000Y-27500000D01*
D44*
%TO.N,+5V*%
X86480000Y-36009576D02*
X86480000Y-39781232D01*
X87150000Y-27150000D02*
X86262500Y-26262500D01*
D43*
X73000000Y-27000000D02*
X72700000Y-27300000D01*
X70700000Y-23300000D02*
X81400000Y-23300000D01*
D44*
X91375000Y-32605000D02*
X91375000Y-34080000D01*
D43*
X80721000Y-26454000D02*
X80050000Y-27125000D01*
X80975000Y-26200000D02*
X81700000Y-26200000D01*
X88445190Y-41605000D02*
X89075000Y-41605000D01*
D44*
X88384576Y-34105000D02*
X86480000Y-36009576D01*
X91375000Y-34080000D02*
X91350000Y-34105000D01*
D43*
X81950000Y-25950000D02*
X81950000Y-24450000D01*
X79875000Y-27300000D02*
X78050000Y-27300000D01*
X73000000Y-25930000D02*
X73000000Y-27000000D01*
D44*
X86480000Y-39781232D02*
X86480000Y-42380000D01*
X86480000Y-39781232D02*
X88303768Y-41605000D01*
D43*
X80721000Y-26454000D02*
X79875000Y-27300000D01*
X77800000Y-27050000D02*
X77800000Y-25930000D01*
D44*
X84437500Y-24450000D02*
X84450000Y-24462500D01*
X81950000Y-24450000D02*
X84437500Y-24450000D01*
D43*
X81950000Y-23850000D02*
X81950000Y-24450000D01*
X70300000Y-27300000D02*
X69600000Y-26600000D01*
D44*
X86250000Y-26262500D02*
X84450000Y-24462500D01*
D43*
X72700000Y-27300000D02*
X70300000Y-27300000D01*
X81400000Y-23300000D02*
X81950000Y-23850000D01*
D44*
X93650000Y-28800000D02*
X91450000Y-28800000D01*
D43*
X78500000Y-31300000D02*
X78200000Y-31300000D01*
D44*
X91900000Y-35670000D02*
X94025000Y-37795000D01*
X94650000Y-27800000D02*
X93650000Y-28800000D01*
D43*
X69600000Y-26600000D02*
X69600000Y-24400000D01*
X91500000Y-30550000D02*
X91500000Y-30850000D01*
D44*
X86262500Y-26262500D02*
X86250000Y-26262500D01*
D43*
X80721000Y-26454000D02*
X80975000Y-26200000D01*
D44*
X91350000Y-34105000D02*
X88384576Y-34105000D01*
D43*
X69600000Y-24400000D02*
X70700000Y-23300000D01*
X81700000Y-26200000D02*
X81950000Y-25950000D01*
D44*
X89075000Y-41605000D02*
X89505000Y-41605000D01*
X91450000Y-30800000D02*
X91500000Y-30850000D01*
D43*
X80050000Y-27125000D02*
X80050000Y-29750000D01*
D44*
X86480000Y-42380000D02*
X87100000Y-43000000D01*
X91900000Y-34655000D02*
X91900000Y-35670000D01*
D43*
X78050000Y-27300000D02*
X77800000Y-27050000D01*
D44*
X91500000Y-32480000D02*
X91375000Y-32605000D01*
X91500000Y-30850000D02*
X91500000Y-32480000D01*
X88303768Y-41605000D02*
X89075000Y-41605000D01*
D43*
X80050000Y-29750000D02*
X78500000Y-31300000D01*
D44*
X91450000Y-28800000D02*
X91450000Y-30800000D01*
X91350000Y-34105000D02*
X91900000Y-34655000D01*
D45*
%TO.N,D+*%
X58200000Y-56050000D02*
X57501000Y-55351000D01*
X75400000Y-26950000D02*
X75150000Y-26950000D01*
X74650000Y-25880000D02*
X74650000Y-26800000D01*
X74870000Y-30910000D02*
X74870000Y-27230000D01*
X57290000Y-55140000D02*
X57290000Y-48490000D01*
X57290000Y-48490000D02*
X74870000Y-30910000D01*
X75150000Y-26950000D02*
X74800000Y-26950000D01*
X58600000Y-56050000D02*
X58200000Y-56050000D01*
X74650000Y-26800000D02*
X74800000Y-26950000D01*
X75650000Y-25880000D02*
X75650000Y-26700000D01*
X57501000Y-55351000D02*
X57499000Y-55351000D01*
X75650000Y-26700000D02*
X75400000Y-26950000D01*
X74870000Y-27230000D02*
X75150000Y-26950000D01*
X57499000Y-55349000D02*
X57290000Y-55140000D01*
X57499000Y-55351000D02*
X57499000Y-55349000D01*
%TO.N,D-*%
X75950000Y-24900000D02*
X75350000Y-24900000D01*
X76150000Y-25100000D02*
X75950000Y-24900000D01*
X76150000Y-25880000D02*
X76150000Y-27050000D01*
X59290000Y-54550000D02*
X58600000Y-54550000D01*
X58980000Y-47630000D02*
X58980000Y-48180000D01*
X58980000Y-48180000D02*
X60060000Y-49260000D01*
X75350000Y-24900000D02*
X75150000Y-25100000D01*
X75150000Y-25100000D02*
X75150000Y-25880000D01*
X60060000Y-49260000D02*
X60060000Y-53780000D01*
X75470000Y-27730000D02*
X75470000Y-31140000D01*
X76150000Y-27050000D02*
X75470000Y-27730000D01*
X76150000Y-25880000D02*
X76150000Y-25100000D01*
X75470000Y-31140000D02*
X58980000Y-47630000D01*
X60060000Y-53780000D02*
X59290000Y-54550000D01*
%TO.N,Net-(J1-CC1)*%
X76650000Y-28590000D02*
X76760000Y-28700000D01*
X76650000Y-25930000D02*
X76650000Y-28590000D01*
%TO.N,Net-(J1-CC2)*%
X73650000Y-25980000D02*
X73650000Y-28560000D01*
X73650000Y-28560000D02*
X73510000Y-28700000D01*
D44*
%TO.N,+BATT*%
X88975000Y-43950000D02*
X88975000Y-45925000D01*
X94705000Y-41605000D02*
X94025000Y-41605000D01*
X95400000Y-47400000D02*
X95400000Y-42300000D01*
X91700000Y-47400000D02*
X92600000Y-48300000D01*
X88975000Y-43950000D02*
X89900000Y-43950000D01*
X91700000Y-45750000D02*
X91700000Y-46430000D01*
X95400000Y-42300000D02*
X94705000Y-41605000D01*
X88975000Y-45925000D02*
X88200000Y-46700000D01*
X94500000Y-48300000D02*
X95400000Y-47400000D01*
X91700000Y-46430000D02*
X91700000Y-47400000D01*
X92600000Y-48300000D02*
X94500000Y-48300000D01*
X89900000Y-43950000D02*
X91700000Y-45750000D01*
D43*
%TO.N,Net-(J5-Pin_1)*%
X76100000Y-60550000D02*
X74200000Y-60550000D01*
X62400000Y-31400000D02*
X62800000Y-31800000D01*
X62400000Y-29600000D02*
X62400000Y-31400000D01*
%TO.N,Net-(J6-Pin_1)*%
X75398000Y-51550000D02*
X76100000Y-51550000D01*
X58800000Y-31400000D02*
X58400000Y-31800000D01*
X58800000Y-29600000D02*
X58800000Y-31400000D01*
X74098000Y-50250000D02*
X75398000Y-51550000D01*
X73050000Y-50250000D02*
X74098000Y-50250000D01*
D44*
%TO.N,Battery_sence*%
X64950000Y-47950000D02*
X63050000Y-47950000D01*
X60150000Y-57550000D02*
X58600000Y-57550000D01*
X64300000Y-48600000D02*
X64300000Y-53400000D01*
X64300000Y-53400000D02*
X60150000Y-57550000D01*
X64950000Y-47950000D02*
X64300000Y-48600000D01*
D43*
%TO.N,Net-(U1-~{CHRG})*%
X81950000Y-34050000D02*
X81950000Y-31450000D01*
X95250000Y-36100000D02*
X94350000Y-36100000D01*
X94875000Y-39065000D02*
X95700000Y-38240000D01*
X83850000Y-35950000D02*
X81950000Y-34050000D01*
X95700000Y-38240000D02*
X95700000Y-36550000D01*
X94025000Y-39065000D02*
X94875000Y-39065000D01*
X95700000Y-36550000D02*
X95250000Y-36100000D01*
D44*
%TO.N,Net-(D1-K)*%
X81950000Y-27425000D02*
X81950000Y-29450000D01*
%TO.N,Net-(D2-K)*%
X84450000Y-27437500D02*
X84450000Y-29450000D01*
D43*
%TO.N,Net-(U1-~{STDBY})*%
X95425000Y-39975000D02*
X95065000Y-40335000D01*
X84450000Y-32757000D02*
X84450000Y-31450000D01*
X95065000Y-40335000D02*
X94025000Y-40335000D01*
%TO.N,Net-(U1-PROG)*%
X87599000Y-38563999D02*
X88100001Y-39065000D01*
X87599000Y-36901000D02*
X87599000Y-38563999D01*
X88550000Y-35950000D02*
X87599000Y-36901000D01*
X88100001Y-39065000D02*
X89075000Y-39065000D01*
D44*
%TO.N,Net-(D3-K)*%
X66990000Y-27440000D02*
X66990000Y-28940000D01*
X66990000Y-28940000D02*
X67490000Y-29440000D01*
D43*
%TO.N,Net-(D3-A)*%
X74375000Y-52025000D02*
X74650000Y-52300000D01*
X74650000Y-54200000D02*
X75000000Y-54550000D01*
D44*
X65775000Y-24465000D02*
X66990000Y-24465000D01*
D43*
X75000000Y-54550000D02*
X76100000Y-54550000D01*
D44*
X65410000Y-24830000D02*
X65775000Y-24465000D01*
D43*
X74650000Y-52300000D02*
X74650000Y-54200000D01*
%TO.N,+3.3V*%
X53400000Y-26320000D02*
X53400000Y-24620000D01*
D44*
X59100000Y-36500000D02*
X58400000Y-35800000D01*
X58400000Y-33800000D02*
X62800000Y-33800000D01*
D43*
X38000000Y-43770000D02*
X38000000Y-44070000D01*
D44*
X81100000Y-53700000D02*
X80900000Y-53500000D01*
X82375000Y-59625000D02*
X81750000Y-60250000D01*
X71750000Y-47399950D02*
X71765000Y-47384950D01*
X78550000Y-58500000D02*
X82000000Y-58500000D01*
X82000000Y-58500000D02*
X82375000Y-58875000D01*
X83250000Y-59750000D02*
X83250000Y-62805000D01*
X82375000Y-58875000D02*
X82375000Y-59625000D01*
X71600000Y-47750000D02*
X71750000Y-47600000D01*
X78000000Y-60225000D02*
X78075000Y-60300000D01*
D43*
X38000000Y-44070000D02*
X38325000Y-44395000D01*
D44*
X83250000Y-62805000D02*
X84600000Y-64155000D01*
X71750000Y-47600000D02*
X71750000Y-47399950D01*
X71500000Y-50500000D02*
X71500000Y-47649950D01*
D43*
X40480000Y-43865000D02*
X40480000Y-43850000D01*
D44*
X78075000Y-60300000D02*
X78075000Y-62050000D01*
X79800000Y-53462500D02*
X78100000Y-53462500D01*
D43*
X38325000Y-44395000D02*
X39950000Y-44395000D01*
D44*
X71500000Y-47649950D02*
X71765000Y-47384950D01*
X58400000Y-35800000D02*
X58400000Y-33800000D01*
X82000000Y-58500000D02*
X83250000Y-59750000D01*
X78550000Y-58500000D02*
X78000000Y-59050000D01*
X80900000Y-53500000D02*
X79800000Y-53500000D01*
X78000000Y-59050000D02*
X78000000Y-60225000D01*
X76100000Y-62050000D02*
X78075000Y-62050000D01*
D43*
X39950000Y-44395000D02*
X40480000Y-43865000D01*
D44*
X62800000Y-33800000D02*
X65900000Y-33800000D01*
X65900000Y-33800000D02*
X66000000Y-33700000D01*
%TO.N,Net-(D4-K)*%
X87600000Y-32200000D02*
X85100000Y-34700000D01*
X91020000Y-24485000D02*
X91010000Y-24475000D01*
X87600000Y-30550000D02*
X87600000Y-32200000D01*
X91020000Y-27130000D02*
X91020000Y-24485000D01*
X85100000Y-44000000D02*
X86000000Y-44900000D01*
X86000000Y-44900000D02*
X87100000Y-44900000D01*
X89350000Y-28800000D02*
X91020000Y-27130000D01*
X85100000Y-34700000D02*
X85100000Y-44000000D01*
X89350000Y-28800000D02*
X87600000Y-30550000D01*
D43*
%TO.N,SCL*%
X85250000Y-51750000D02*
X86500000Y-53000000D01*
X70600000Y-45350000D02*
X75400000Y-45350000D01*
X81000000Y-50200000D02*
X82550000Y-51750000D01*
X76100000Y-57550000D02*
X74975000Y-57550000D01*
X45580000Y-41420000D02*
X45580000Y-43830000D01*
X45580000Y-43830000D02*
X45560000Y-43850000D01*
X82550000Y-51750000D02*
X85250000Y-51750000D01*
X44300000Y-25320000D02*
X44300000Y-40140000D01*
X87100000Y-62595499D02*
X87100000Y-64155000D01*
X76845000Y-47384950D02*
X76845000Y-48245000D01*
X44300000Y-40140000D02*
X45580000Y-41420000D01*
X76845000Y-48245000D02*
X78800000Y-50200000D01*
X76845000Y-46795000D02*
X76845000Y-47384950D01*
X78800000Y-50200000D02*
X81000000Y-50200000D01*
X69400000Y-51975000D02*
X69400000Y-46550000D01*
X86500000Y-61995499D02*
X87100000Y-62595499D01*
X69400000Y-46550000D02*
X70600000Y-45350000D01*
X74975000Y-57550000D02*
X69400000Y-51975000D01*
X75400000Y-45350000D02*
X76845000Y-46795000D01*
X86500000Y-53000000D02*
X86500000Y-61995499D01*
%TO.N,SDA*%
X48100000Y-43825000D02*
X48120000Y-43845000D01*
X48100000Y-41420000D02*
X48100000Y-43825000D01*
X76250000Y-43350000D02*
X69800000Y-43350000D01*
X49300000Y-25320000D02*
X49481000Y-25501000D01*
X83550000Y-49750000D02*
X82000000Y-48200000D01*
X67400000Y-45750000D02*
X67400000Y-52750000D01*
X88500000Y-59072656D02*
X88500000Y-52000000D01*
X80200050Y-48200000D02*
X79385000Y-47384950D01*
X49481000Y-25501000D02*
X49481000Y-40039000D01*
X86250000Y-49750000D02*
X83550000Y-49750000D01*
X79385000Y-47384950D02*
X79385000Y-46485000D01*
X82000000Y-48200000D02*
X80200050Y-48200000D01*
X88500000Y-52000000D02*
X86250000Y-49750000D01*
X49481000Y-40039000D02*
X48100000Y-41420000D01*
X73700000Y-59050000D02*
X76100000Y-59050000D01*
X92100000Y-62672656D02*
X88500000Y-59072656D01*
X79385000Y-46485000D02*
X76250000Y-43350000D01*
X69800000Y-43350000D02*
X67400000Y-45750000D01*
X92100000Y-64155000D02*
X92100000Y-62672656D01*
X67400000Y-52750000D02*
X73700000Y-59050000D01*
D44*
%TO.N,Net-(SW1-C)*%
X83500000Y-55100000D02*
X83962500Y-55562500D01*
D43*
X64950000Y-44650000D02*
X64950000Y-45950000D01*
D44*
X78835000Y-57197500D02*
X78637500Y-57000000D01*
X85000000Y-55562500D02*
X85000000Y-57190000D01*
X85000000Y-57190000D02*
X85007500Y-57197500D01*
X85007500Y-57197500D02*
X78835000Y-57197500D01*
D43*
X78900000Y-41600000D02*
X68000000Y-41600000D01*
D44*
X83962500Y-55562500D02*
X85000000Y-55562500D01*
D43*
X68000000Y-41600000D02*
X64950000Y-44650000D01*
%TD*%
%TA.AperFunction,Conductor*%
%TO.N,Earth*%
G36*
X54556922Y-20201280D02*
G01*
X54647266Y-20211459D01*
X54674331Y-20217636D01*
X54753540Y-20245352D01*
X54778553Y-20257398D01*
X54849606Y-20302043D01*
X54871313Y-20319355D01*
X54930644Y-20378686D01*
X54947957Y-20400395D01*
X54992600Y-20471444D01*
X55004648Y-20496462D01*
X55032362Y-20575666D01*
X55038540Y-20602735D01*
X55048720Y-20693076D01*
X55049500Y-20706961D01*
X55049500Y-20765891D01*
X55083608Y-20893187D01*
X55116554Y-20950250D01*
X55149500Y-21007314D01*
X55149502Y-21007316D01*
X55221521Y-21079335D01*
X55255006Y-21140658D01*
X55255457Y-21191207D01*
X55249500Y-21221153D01*
X55249500Y-21378846D01*
X55280261Y-21533489D01*
X55280264Y-21533501D01*
X55340602Y-21679171D01*
X55340604Y-21679175D01*
X55340606Y-21679179D01*
X55340609Y-21679183D01*
X55340611Y-21679187D01*
X55348578Y-21691111D01*
X55369455Y-21757789D01*
X55350969Y-21825168D01*
X55348578Y-21828889D01*
X55340611Y-21840812D01*
X55340602Y-21840828D01*
X55280264Y-21986498D01*
X55280261Y-21986510D01*
X55249500Y-22141153D01*
X55249500Y-22298846D01*
X55280261Y-22453489D01*
X55280264Y-22453501D01*
X55340602Y-22599171D01*
X55340604Y-22599175D01*
X55340606Y-22599179D01*
X55340609Y-22599184D01*
X55340610Y-22599185D01*
X55350249Y-22613612D01*
X55371125Y-22680290D01*
X55352639Y-22747670D01*
X55350249Y-22751388D01*
X55340610Y-22765814D01*
X55340602Y-22765828D01*
X55280264Y-22911498D01*
X55280261Y-22911510D01*
X55249500Y-23066153D01*
X55249500Y-23223846D01*
X55280261Y-23378489D01*
X55280264Y-23378501D01*
X55340602Y-23524171D01*
X55340604Y-23524175D01*
X55340606Y-23524179D01*
X55340609Y-23524183D01*
X55340611Y-23524187D01*
X55348578Y-23536111D01*
X55369455Y-23602789D01*
X55350969Y-23670168D01*
X55348578Y-23673889D01*
X55340611Y-23685812D01*
X55340602Y-23685828D01*
X55280264Y-23831498D01*
X55280261Y-23831510D01*
X55249500Y-23986153D01*
X55249500Y-24143846D01*
X55280261Y-24298489D01*
X55280264Y-24298501D01*
X55340602Y-24444171D01*
X55340604Y-24444175D01*
X55340606Y-24444179D01*
X55340610Y-24444186D01*
X55340613Y-24444190D01*
X55343570Y-24448617D01*
X55364443Y-24515296D01*
X55345954Y-24582675D01*
X55343570Y-24586383D01*
X55340613Y-24590809D01*
X55340602Y-24590828D01*
X55280264Y-24736498D01*
X55280261Y-24736510D01*
X55249500Y-24891153D01*
X55249500Y-25048846D01*
X55280261Y-25203489D01*
X55280264Y-25203501D01*
X55340604Y-25349177D01*
X55340605Y-25349179D01*
X55356930Y-25373611D01*
X55377807Y-25440288D01*
X55359321Y-25507668D01*
X55356930Y-25511389D01*
X55340605Y-25535820D01*
X55340604Y-25535822D01*
X55280264Y-25681498D01*
X55280261Y-25681510D01*
X55249500Y-25836153D01*
X55249500Y-25993846D01*
X55280261Y-26148489D01*
X55280264Y-26148501D01*
X55340602Y-26294171D01*
X55340604Y-26294175D01*
X55340606Y-26294179D01*
X55340609Y-26294184D01*
X55340610Y-26294185D01*
X55350249Y-26308612D01*
X55371125Y-26375290D01*
X55352639Y-26442670D01*
X55350249Y-26446388D01*
X55340610Y-26460814D01*
X55340602Y-26460828D01*
X55280264Y-26606498D01*
X55280261Y-26606510D01*
X55249500Y-26761153D01*
X55249500Y-26918846D01*
X55280261Y-27073489D01*
X55280264Y-27073501D01*
X55340602Y-27219171D01*
X55340604Y-27219175D01*
X55340606Y-27219179D01*
X55340609Y-27219183D01*
X55340611Y-27219187D01*
X55348578Y-27231111D01*
X55369455Y-27297789D01*
X55350969Y-27365168D01*
X55348578Y-27368889D01*
X55340611Y-27380812D01*
X55340602Y-27380828D01*
X55280264Y-27526498D01*
X55280261Y-27526510D01*
X55249500Y-27681153D01*
X55249500Y-27838846D01*
X55280261Y-27993489D01*
X55280264Y-27993501D01*
X55340602Y-28139172D01*
X55340612Y-28139190D01*
X55345238Y-28146114D01*
X55366113Y-28212792D01*
X55347625Y-28280172D01*
X55345238Y-28283886D01*
X55340612Y-28290809D01*
X55340602Y-28290827D01*
X55280264Y-28436498D01*
X55280261Y-28436510D01*
X55249500Y-28591153D01*
X55249500Y-28748846D01*
X55280261Y-28903489D01*
X55280264Y-28903501D01*
X55340602Y-29049171D01*
X55340604Y-29049175D01*
X55340606Y-29049179D01*
X55340609Y-29049183D01*
X55340611Y-29049187D01*
X55348578Y-29061111D01*
X55369455Y-29127789D01*
X55350969Y-29195168D01*
X55348578Y-29198889D01*
X55340611Y-29210812D01*
X55340602Y-29210828D01*
X55280264Y-29356498D01*
X55280261Y-29356510D01*
X55249500Y-29511153D01*
X55249500Y-29668846D01*
X55280261Y-29823489D01*
X55280264Y-29823501D01*
X55340602Y-29969171D01*
X55340604Y-29969175D01*
X55340606Y-29969179D01*
X55340609Y-29969184D01*
X55340610Y-29969185D01*
X55350249Y-29983612D01*
X55371125Y-30050290D01*
X55352639Y-30117670D01*
X55350249Y-30121388D01*
X55340610Y-30135814D01*
X55340602Y-30135828D01*
X55280264Y-30281498D01*
X55280261Y-30281510D01*
X55249500Y-30436153D01*
X55249500Y-30593846D01*
X55280261Y-30748489D01*
X55280264Y-30748501D01*
X55340602Y-30894171D01*
X55340604Y-30894175D01*
X55340606Y-30894179D01*
X55340609Y-30894183D01*
X55340611Y-30894187D01*
X55348578Y-30906111D01*
X55369455Y-30972789D01*
X55350969Y-31040168D01*
X55348578Y-31043889D01*
X55340611Y-31055812D01*
X55340602Y-31055828D01*
X55280264Y-31201498D01*
X55280261Y-31201510D01*
X55249500Y-31356153D01*
X55249500Y-31513846D01*
X55280261Y-31668489D01*
X55280264Y-31668501D01*
X55340602Y-31814171D01*
X55340604Y-31814175D01*
X55340606Y-31814179D01*
X55340610Y-31814186D01*
X55340613Y-31814190D01*
X55343570Y-31818617D01*
X55364443Y-31885296D01*
X55345954Y-31952675D01*
X55343570Y-31956383D01*
X55340613Y-31960809D01*
X55340602Y-31960828D01*
X55280264Y-32106498D01*
X55280261Y-32106510D01*
X55249500Y-32261153D01*
X55249500Y-32418846D01*
X55280261Y-32573489D01*
X55280264Y-32573501D01*
X55340604Y-32719177D01*
X55340605Y-32719179D01*
X55356930Y-32743611D01*
X55377807Y-32810288D01*
X55359321Y-32877668D01*
X55356930Y-32881389D01*
X55340605Y-32905820D01*
X55340604Y-32905822D01*
X55280264Y-33051498D01*
X55280261Y-33051510D01*
X55249500Y-33206153D01*
X55249500Y-33363846D01*
X55280261Y-33518489D01*
X55280264Y-33518501D01*
X55340602Y-33664171D01*
X55340604Y-33664175D01*
X55340606Y-33664179D01*
X55340609Y-33664184D01*
X55340610Y-33664185D01*
X55350249Y-33678612D01*
X55371125Y-33745290D01*
X55352639Y-33812670D01*
X55350249Y-33816388D01*
X55340610Y-33830814D01*
X55340602Y-33830828D01*
X55280264Y-33976498D01*
X55280261Y-33976510D01*
X55249500Y-34131153D01*
X55249500Y-34288846D01*
X55280261Y-34443489D01*
X55280264Y-34443501D01*
X55340602Y-34589171D01*
X55340604Y-34589175D01*
X55340606Y-34589179D01*
X55340609Y-34589183D01*
X55340611Y-34589187D01*
X55348578Y-34601111D01*
X55369455Y-34667789D01*
X55350969Y-34735168D01*
X55348578Y-34738889D01*
X55340611Y-34750812D01*
X55340602Y-34750828D01*
X55280264Y-34896498D01*
X55280261Y-34896510D01*
X55249500Y-35051153D01*
X55249500Y-35208846D01*
X55280261Y-35363489D01*
X55280264Y-35363501D01*
X55340602Y-35509171D01*
X55340612Y-35509189D01*
X55346909Y-35518614D01*
X55367784Y-35585292D01*
X55349297Y-35652671D01*
X55346909Y-35656386D01*
X55340612Y-35665810D01*
X55340602Y-35665828D01*
X55280264Y-35811498D01*
X55280261Y-35811510D01*
X55249500Y-35966153D01*
X55249500Y-36123846D01*
X55280261Y-36278489D01*
X55280264Y-36278501D01*
X55340604Y-36424177D01*
X55340605Y-36424179D01*
X55356930Y-36448611D01*
X55377807Y-36515288D01*
X55359321Y-36582668D01*
X55356930Y-36586389D01*
X55340605Y-36610820D01*
X55340604Y-36610822D01*
X55280264Y-36756498D01*
X55280261Y-36756510D01*
X55249500Y-36911153D01*
X55249500Y-37068846D01*
X55280261Y-37223489D01*
X55280264Y-37223501D01*
X55340602Y-37369171D01*
X55340604Y-37369175D01*
X55340606Y-37369179D01*
X55340609Y-37369184D01*
X55340610Y-37369185D01*
X55350249Y-37383612D01*
X55371125Y-37450290D01*
X55352639Y-37517670D01*
X55350249Y-37521388D01*
X55340610Y-37535814D01*
X55340602Y-37535828D01*
X55280264Y-37681498D01*
X55280261Y-37681510D01*
X55249500Y-37836153D01*
X55249500Y-37993846D01*
X55280261Y-38148489D01*
X55280264Y-38148501D01*
X55340602Y-38294171D01*
X55340604Y-38294175D01*
X55340606Y-38294179D01*
X55340609Y-38294183D01*
X55340611Y-38294187D01*
X55348578Y-38306111D01*
X55369455Y-38372789D01*
X55350969Y-38440168D01*
X55348578Y-38443889D01*
X55340611Y-38455812D01*
X55340602Y-38455828D01*
X55280264Y-38601498D01*
X55280261Y-38601510D01*
X55249500Y-38756153D01*
X55249500Y-38913846D01*
X55280261Y-39068489D01*
X55280264Y-39068501D01*
X55340602Y-39214172D01*
X55340612Y-39214190D01*
X55345238Y-39221114D01*
X55366113Y-39287792D01*
X55347625Y-39355172D01*
X55345238Y-39358886D01*
X55340612Y-39365809D01*
X55340602Y-39365827D01*
X55280264Y-39511498D01*
X55280261Y-39511510D01*
X55249500Y-39666153D01*
X55249500Y-39823846D01*
X55280261Y-39978489D01*
X55280264Y-39978501D01*
X55340602Y-40124171D01*
X55340604Y-40124175D01*
X55340606Y-40124179D01*
X55340609Y-40124183D01*
X55340611Y-40124187D01*
X55348578Y-40136111D01*
X55369455Y-40202789D01*
X55350969Y-40270168D01*
X55348578Y-40273889D01*
X55340611Y-40285812D01*
X55340602Y-40285828D01*
X55280264Y-40431498D01*
X55280261Y-40431510D01*
X55249500Y-40586153D01*
X55249500Y-40743846D01*
X55280261Y-40898489D01*
X55280264Y-40898501D01*
X55340602Y-41044171D01*
X55340604Y-41044175D01*
X55340606Y-41044179D01*
X55340609Y-41044184D01*
X55340610Y-41044185D01*
X55350249Y-41058612D01*
X55371125Y-41125290D01*
X55352639Y-41192670D01*
X55350249Y-41196388D01*
X55340610Y-41210814D01*
X55340602Y-41210828D01*
X55280264Y-41356498D01*
X55280261Y-41356510D01*
X55249500Y-41511153D01*
X55249500Y-41668846D01*
X55280261Y-41823489D01*
X55280264Y-41823501D01*
X55340602Y-41969171D01*
X55340604Y-41969175D01*
X55340606Y-41969179D01*
X55340609Y-41969183D01*
X55340611Y-41969187D01*
X55348578Y-41981111D01*
X55369455Y-42047789D01*
X55350969Y-42115168D01*
X55348578Y-42118889D01*
X55340611Y-42130812D01*
X55340602Y-42130828D01*
X55280264Y-42276498D01*
X55280261Y-42276510D01*
X55249500Y-42431153D01*
X55249500Y-42588846D01*
X55280261Y-42743489D01*
X55280264Y-42743501D01*
X55340602Y-42889171D01*
X55340604Y-42889175D01*
X55340606Y-42889179D01*
X55340610Y-42889186D01*
X55340613Y-42889190D01*
X55343570Y-42893617D01*
X55364443Y-42960296D01*
X55345954Y-43027675D01*
X55343570Y-43031383D01*
X55340613Y-43035809D01*
X55340602Y-43035828D01*
X55280264Y-43181498D01*
X55280261Y-43181510D01*
X55249500Y-43336153D01*
X55249500Y-43493846D01*
X55280261Y-43648489D01*
X55280264Y-43648501D01*
X55340604Y-43794177D01*
X55340605Y-43794179D01*
X55356930Y-43818611D01*
X55377807Y-43885288D01*
X55359321Y-43952668D01*
X55356930Y-43956389D01*
X55340605Y-43980820D01*
X55340604Y-43980822D01*
X55280264Y-44126498D01*
X55280261Y-44126510D01*
X55249500Y-44281153D01*
X55249500Y-44438846D01*
X55276194Y-44573045D01*
X55274275Y-44594484D01*
X55277177Y-44615815D01*
X55271223Y-44628593D01*
X55269967Y-44642636D01*
X55256760Y-44659636D01*
X55247670Y-44679149D01*
X55231554Y-44692085D01*
X55227104Y-44697814D01*
X55220822Y-44702058D01*
X55217665Y-44704052D01*
X55200576Y-44713468D01*
X55196591Y-44717296D01*
X55192667Y-44719562D01*
X55191881Y-44720347D01*
X55191879Y-44720349D01*
X55155406Y-44756824D01*
X55153630Y-44758565D01*
X55105543Y-44804763D01*
X55105541Y-44804765D01*
X55104077Y-44807186D01*
X55102589Y-44809648D01*
X55099486Y-44812753D01*
X55073362Y-44858004D01*
X55072698Y-44859103D01*
X55072682Y-44859132D01*
X55037374Y-44917550D01*
X55037374Y-44917551D01*
X55035750Y-44923156D01*
X55033599Y-44926884D01*
X55020337Y-44976387D01*
X55000720Y-45044135D01*
X55000720Y-45044137D01*
X55000710Y-45044198D01*
X55000584Y-45050117D01*
X54999497Y-45054179D01*
X54999498Y-45101346D01*
X54999470Y-45102708D01*
X54999249Y-45103405D01*
X54998119Y-45118521D01*
X54982648Y-45221390D01*
X54973861Y-45252119D01*
X54935592Y-45340715D01*
X54919244Y-45368176D01*
X54859599Y-45444053D01*
X54836775Y-45466424D01*
X54759717Y-45524536D01*
X54731935Y-45540329D01*
X54642584Y-45576816D01*
X54611689Y-45584984D01*
X54507949Y-45598466D01*
X54491968Y-45599500D01*
X36556484Y-45599500D01*
X36540505Y-45598466D01*
X36515382Y-45595201D01*
X36438257Y-45585178D01*
X36407358Y-45577009D01*
X36317959Y-45540501D01*
X36290175Y-45524705D01*
X36213073Y-45466557D01*
X36190253Y-45444189D01*
X36130572Y-45368263D01*
X36114227Y-45340804D01*
X36075938Y-45252150D01*
X36067153Y-45221421D01*
X36064007Y-45200499D01*
X36051878Y-45119822D01*
X36050500Y-45101386D01*
X36050500Y-43861156D01*
X37074499Y-43861156D01*
X37110065Y-44039952D01*
X37110068Y-44039962D01*
X37179829Y-44208382D01*
X37179836Y-44208394D01*
X37210998Y-44255031D01*
X37229512Y-44299726D01*
X37230260Y-44303486D01*
X37230263Y-44303498D01*
X37290602Y-44449172D01*
X37290609Y-44449185D01*
X37378210Y-44580288D01*
X37378213Y-44580292D01*
X37703211Y-44905289D01*
X37772040Y-44974118D01*
X37814712Y-45016790D01*
X37945817Y-45104392D01*
X37945819Y-45104392D01*
X37945821Y-45104394D01*
X38040940Y-45143793D01*
X38040945Y-45143795D01*
X38040947Y-45143797D01*
X38091497Y-45164735D01*
X38091502Y-45164737D01*
X38197855Y-45185892D01*
X38246152Y-45195499D01*
X38246155Y-45195500D01*
X38246157Y-45195500D01*
X38246158Y-45195500D01*
X39528979Y-45195500D01*
X39542234Y-45196211D01*
X39546915Y-45196714D01*
X39582127Y-45200500D01*
X41377872Y-45200499D01*
X41437483Y-45194091D01*
X41572331Y-45143796D01*
X41687546Y-45057546D01*
X41773796Y-44942331D01*
X41824091Y-44807483D01*
X41830500Y-44747873D01*
X41830499Y-42952128D01*
X41824091Y-42892517D01*
X41819447Y-42880067D01*
X41773797Y-42757671D01*
X41773793Y-42757664D01*
X41687547Y-42642455D01*
X41687544Y-42642452D01*
X41572335Y-42556206D01*
X41572328Y-42556202D01*
X41437482Y-42505908D01*
X41437483Y-42505908D01*
X41377883Y-42499501D01*
X41377881Y-42499500D01*
X41377873Y-42499500D01*
X41377864Y-42499500D01*
X39582129Y-42499500D01*
X39582123Y-42499501D01*
X39522516Y-42505908D01*
X39387671Y-42556202D01*
X39387664Y-42556206D01*
X39272455Y-42642452D01*
X39272452Y-42642455D01*
X39186206Y-42757664D01*
X39186202Y-42757671D01*
X39135908Y-42892517D01*
X39129501Y-42952116D01*
X39129501Y-42952123D01*
X39129500Y-42952135D01*
X39129500Y-43455018D01*
X39109815Y-43522057D01*
X39057011Y-43567812D01*
X38987853Y-43577756D01*
X38924297Y-43548731D01*
X38890939Y-43502470D01*
X38820168Y-43331612D01*
X38820166Y-43331608D01*
X38718886Y-43180032D01*
X38718880Y-43180024D01*
X38589975Y-43051119D01*
X38589967Y-43051113D01*
X38438391Y-42949833D01*
X38438387Y-42949831D01*
X38269962Y-42880068D01*
X38269952Y-42880065D01*
X38091156Y-42844500D01*
X38091154Y-42844500D01*
X37908846Y-42844500D01*
X37908844Y-42844500D01*
X37730047Y-42880065D01*
X37730037Y-42880068D01*
X37561612Y-42949831D01*
X37561608Y-42949833D01*
X37410032Y-43051113D01*
X37410024Y-43051119D01*
X37281119Y-43180024D01*
X37281113Y-43180032D01*
X37179833Y-43331608D01*
X37179831Y-43331612D01*
X37110068Y-43500037D01*
X37110065Y-43500047D01*
X37074500Y-43678843D01*
X37074500Y-43678846D01*
X37074500Y-43861154D01*
X37074500Y-43861156D01*
X37074499Y-43861156D01*
X36050500Y-43861156D01*
X36050500Y-25088713D01*
X40449500Y-25088713D01*
X40449500Y-25551286D01*
X40475036Y-25712517D01*
X40482754Y-25761243D01*
X40507095Y-25836158D01*
X40548444Y-25963414D01*
X40644951Y-26152820D01*
X40769890Y-26324786D01*
X40920213Y-26475109D01*
X41092179Y-26600048D01*
X41092181Y-26600049D01*
X41092184Y-26600051D01*
X41281588Y-26696557D01*
X41483757Y-26762246D01*
X41693713Y-26795500D01*
X41693714Y-26795500D01*
X41906286Y-26795500D01*
X41906287Y-26795500D01*
X42116243Y-26762246D01*
X42318412Y-26696557D01*
X42507816Y-26600051D01*
X42529789Y-26584086D01*
X42679786Y-26475109D01*
X42679788Y-26475106D01*
X42679792Y-26475104D01*
X42830104Y-26324792D01*
X42949683Y-26160204D01*
X43005011Y-26117540D01*
X43074624Y-26111561D01*
X43136420Y-26144166D01*
X43150313Y-26160199D01*
X43269896Y-26324792D01*
X43420208Y-26475104D01*
X43448384Y-26495575D01*
X43491050Y-26550902D01*
X43499500Y-26595893D01*
X43499500Y-40218846D01*
X43530261Y-40373489D01*
X43530264Y-40373501D01*
X43590602Y-40519172D01*
X43590609Y-40519185D01*
X43678210Y-40650288D01*
X43678213Y-40650292D01*
X44743181Y-41715259D01*
X44776666Y-41776582D01*
X44779500Y-41802940D01*
X44779500Y-42375678D01*
X44759815Y-42442717D01*
X44707011Y-42488472D01*
X44665381Y-42498702D01*
X44665429Y-42499146D01*
X44662134Y-42499500D01*
X44662131Y-42499500D01*
X44662128Y-42499501D01*
X44662122Y-42499501D01*
X44602516Y-42505908D01*
X44467671Y-42556202D01*
X44467664Y-42556206D01*
X44352455Y-42642452D01*
X44352452Y-42642455D01*
X44266206Y-42757664D01*
X44266202Y-42757671D01*
X44215908Y-42892517D01*
X44209501Y-42952116D01*
X44209501Y-42952123D01*
X44209500Y-42952135D01*
X44209500Y-44747870D01*
X44209501Y-44747876D01*
X44215908Y-44807483D01*
X44266202Y-44942328D01*
X44266206Y-44942335D01*
X44352452Y-45057544D01*
X44352455Y-45057547D01*
X44467664Y-45143793D01*
X44467671Y-45143797D01*
X44602517Y-45194091D01*
X44602516Y-45194091D01*
X44609444Y-45194835D01*
X44662127Y-45200500D01*
X46457872Y-45200499D01*
X46517483Y-45194091D01*
X46652331Y-45143796D01*
X46755690Y-45066421D01*
X46821152Y-45042004D01*
X46889425Y-45056855D01*
X46904303Y-45066416D01*
X46982573Y-45125009D01*
X47007668Y-45143795D01*
X47007671Y-45143797D01*
X47142517Y-45194091D01*
X47142516Y-45194091D01*
X47149444Y-45194835D01*
X47202127Y-45200500D01*
X48997872Y-45200499D01*
X49057483Y-45194091D01*
X49192331Y-45143796D01*
X49307546Y-45057546D01*
X49393796Y-44942331D01*
X49444091Y-44807483D01*
X49450500Y-44747873D01*
X49450499Y-42952128D01*
X49444091Y-42892517D01*
X49439447Y-42880067D01*
X49393797Y-42757671D01*
X49393793Y-42757664D01*
X49307547Y-42642455D01*
X49307544Y-42642452D01*
X49192335Y-42556206D01*
X49192328Y-42556202D01*
X49057483Y-42505908D01*
X49011243Y-42500937D01*
X48946693Y-42474199D01*
X48906845Y-42416806D01*
X48900500Y-42377648D01*
X48900500Y-41802940D01*
X48920185Y-41735901D01*
X48936819Y-41715259D01*
X50102786Y-40549292D01*
X50102789Y-40549289D01*
X50190394Y-40418179D01*
X50250737Y-40272497D01*
X50281500Y-40117842D01*
X50281500Y-39960158D01*
X50281500Y-26760676D01*
X50301185Y-26693637D01*
X50340405Y-26655136D01*
X50368656Y-26637712D01*
X50492712Y-26513656D01*
X50584814Y-26364334D01*
X50639999Y-26197797D01*
X50650500Y-26095009D01*
X50650500Y-25772135D01*
X52399500Y-25772135D01*
X52399500Y-26867870D01*
X52399501Y-26867876D01*
X52405908Y-26927483D01*
X52456202Y-27062328D01*
X52456206Y-27062335D01*
X52542452Y-27177544D01*
X52542455Y-27177547D01*
X52657664Y-27263793D01*
X52657671Y-27263797D01*
X52792517Y-27314091D01*
X52792516Y-27314091D01*
X52799444Y-27314835D01*
X52852127Y-27320500D01*
X53947872Y-27320499D01*
X54007483Y-27314091D01*
X54142331Y-27263796D01*
X54257546Y-27177546D01*
X54343796Y-27062331D01*
X54394091Y-26927483D01*
X54400500Y-26867873D01*
X54400499Y-25772128D01*
X54394091Y-25712517D01*
X54343796Y-25577669D01*
X54343795Y-25577668D01*
X54343793Y-25577664D01*
X54257548Y-25462457D01*
X54257546Y-25462454D01*
X54257542Y-25462451D01*
X54257540Y-25462449D01*
X54250187Y-25456944D01*
X54247451Y-25453289D01*
X54243297Y-25451392D01*
X54226704Y-25425572D01*
X54208317Y-25401009D01*
X54207301Y-25395381D01*
X54205523Y-25392614D01*
X54200500Y-25357679D01*
X54200500Y-25125438D01*
X54218431Y-25064369D01*
X54217295Y-25063762D01*
X54220163Y-25058394D01*
X54220167Y-25058389D01*
X54289933Y-24889958D01*
X54301572Y-24831445D01*
X54325500Y-24711156D01*
X54325500Y-24528843D01*
X54289934Y-24350047D01*
X54289933Y-24350046D01*
X54289933Y-24350042D01*
X54275507Y-24315214D01*
X54220168Y-24181612D01*
X54220166Y-24181608D01*
X54118886Y-24030032D01*
X54118880Y-24030024D01*
X53989975Y-23901119D01*
X53989967Y-23901113D01*
X53838391Y-23799833D01*
X53838387Y-23799831D01*
X53669962Y-23730068D01*
X53669952Y-23730065D01*
X53491156Y-23694500D01*
X53491154Y-23694500D01*
X53308846Y-23694500D01*
X53308844Y-23694500D01*
X53130047Y-23730065D01*
X53130037Y-23730068D01*
X52961612Y-23799831D01*
X52961608Y-23799833D01*
X52810032Y-23901113D01*
X52810024Y-23901119D01*
X52681119Y-24030024D01*
X52681113Y-24030032D01*
X52579833Y-24181608D01*
X52579831Y-24181612D01*
X52510068Y-24350037D01*
X52510065Y-24350047D01*
X52474500Y-24528843D01*
X52474500Y-24528846D01*
X52474500Y-24711154D01*
X52474500Y-24711156D01*
X52474499Y-24711156D01*
X52510065Y-24889952D01*
X52510068Y-24889962D01*
X52579830Y-25058384D01*
X52582705Y-25063762D01*
X52581124Y-25064606D01*
X52584251Y-25074592D01*
X52594477Y-25090503D01*
X52598927Y-25121457D01*
X52599480Y-25123221D01*
X52599500Y-25125438D01*
X52599500Y-25357679D01*
X52579815Y-25424718D01*
X52549813Y-25456944D01*
X52542459Y-25462449D01*
X52542451Y-25462457D01*
X52456206Y-25577664D01*
X52456202Y-25577671D01*
X52405908Y-25712517D01*
X52400670Y-25761243D01*
X52399501Y-25772123D01*
X52399500Y-25772135D01*
X50650500Y-25772135D01*
X50650499Y-25203501D01*
X50650499Y-24544998D01*
X50650498Y-24544981D01*
X50639999Y-24442203D01*
X50639998Y-24442200D01*
X50609461Y-24350047D01*
X50584814Y-24275666D01*
X50492712Y-24126344D01*
X50368656Y-24002288D01*
X50219334Y-23910186D01*
X50052797Y-23855001D01*
X50052795Y-23855000D01*
X49950010Y-23844500D01*
X48649998Y-23844500D01*
X48649981Y-23844501D01*
X48547203Y-23855000D01*
X48547200Y-23855001D01*
X48380668Y-23910185D01*
X48380663Y-23910187D01*
X48231342Y-24002289D01*
X48107289Y-24126342D01*
X48015187Y-24275663D01*
X48015185Y-24275668D01*
X47987349Y-24359670D01*
X47960001Y-24442203D01*
X47960001Y-24442204D01*
X47960000Y-24442204D01*
X47949500Y-24544983D01*
X47949500Y-26095001D01*
X47949501Y-26095018D01*
X47960000Y-26197796D01*
X47960001Y-26197799D01*
X48015185Y-26364331D01*
X48015187Y-26364336D01*
X48023307Y-26377500D01*
X48107288Y-26513656D01*
X48231344Y-26637712D01*
X48380666Y-26729814D01*
X48547203Y-26784999D01*
X48569101Y-26787236D01*
X48633793Y-26813631D01*
X48673945Y-26870812D01*
X48680500Y-26910594D01*
X48680500Y-39656060D01*
X48660815Y-39723099D01*
X48644181Y-39743741D01*
X47589711Y-40798211D01*
X47533960Y-40853962D01*
X47478209Y-40909712D01*
X47390609Y-41040814D01*
X47390602Y-41040827D01*
X47330264Y-41186498D01*
X47330261Y-41186510D01*
X47299500Y-41341153D01*
X47299500Y-42377648D01*
X47279815Y-42444687D01*
X47227011Y-42490442D01*
X47188755Y-42500938D01*
X47142516Y-42505909D01*
X47007671Y-42556202D01*
X47007669Y-42556203D01*
X46904311Y-42633578D01*
X46838847Y-42657995D01*
X46770574Y-42643144D01*
X46755689Y-42633578D01*
X46652330Y-42556203D01*
X46652328Y-42556202D01*
X46517483Y-42505908D01*
X46491242Y-42503087D01*
X46426691Y-42476348D01*
X46386845Y-42418954D01*
X46380500Y-42379798D01*
X46380500Y-41341155D01*
X46380499Y-41341153D01*
X46349737Y-41186503D01*
X46349735Y-41186498D01*
X46289397Y-41040827D01*
X46289390Y-41040814D01*
X46201790Y-40909712D01*
X46190567Y-40898489D01*
X46090289Y-40798211D01*
X45136819Y-39844741D01*
X45103334Y-39783418D01*
X45100500Y-39757060D01*
X45100500Y-26595893D01*
X45120185Y-26528854D01*
X45151614Y-26495576D01*
X45179792Y-26475104D01*
X45330104Y-26324792D01*
X45330106Y-26324788D01*
X45330109Y-26324786D01*
X45455048Y-26152820D01*
X45455047Y-26152820D01*
X45455051Y-26152816D01*
X45551557Y-25963412D01*
X45617246Y-25761243D01*
X45650500Y-25551287D01*
X45650500Y-25088713D01*
X45617246Y-24878757D01*
X45551557Y-24676588D01*
X45455051Y-24487184D01*
X45455049Y-24487181D01*
X45455048Y-24487179D01*
X45330109Y-24315213D01*
X45179786Y-24164890D01*
X45007820Y-24039951D01*
X44818414Y-23943444D01*
X44818413Y-23943443D01*
X44818412Y-23943443D01*
X44616243Y-23877754D01*
X44616241Y-23877753D01*
X44616240Y-23877753D01*
X44454957Y-23852208D01*
X44406287Y-23844500D01*
X44193713Y-23844500D01*
X44145042Y-23852208D01*
X43983760Y-23877753D01*
X43781585Y-23943444D01*
X43592179Y-24039951D01*
X43420213Y-24164890D01*
X43269894Y-24315209D01*
X43269890Y-24315214D01*
X43150318Y-24479793D01*
X43094989Y-24522459D01*
X43025375Y-24528438D01*
X42963580Y-24495833D01*
X42949682Y-24479793D01*
X42830109Y-24315214D01*
X42830105Y-24315209D01*
X42679786Y-24164890D01*
X42507820Y-24039951D01*
X42318414Y-23943444D01*
X42318413Y-23943443D01*
X42318412Y-23943443D01*
X42116243Y-23877754D01*
X42116241Y-23877753D01*
X42116240Y-23877753D01*
X41954957Y-23852208D01*
X41906287Y-23844500D01*
X41693713Y-23844500D01*
X41645042Y-23852208D01*
X41483760Y-23877753D01*
X41281585Y-23943444D01*
X41092179Y-24039951D01*
X40920213Y-24164890D01*
X40769890Y-24315213D01*
X40644951Y-24487179D01*
X40548444Y-24676585D01*
X40482753Y-24878760D01*
X40449500Y-25088713D01*
X36050500Y-25088713D01*
X36050500Y-20706961D01*
X36051280Y-20693077D01*
X36051280Y-20693076D01*
X36061460Y-20602729D01*
X36067635Y-20575670D01*
X36095353Y-20496456D01*
X36107396Y-20471450D01*
X36152046Y-20400389D01*
X36169351Y-20378690D01*
X36228690Y-20319351D01*
X36250389Y-20302046D01*
X36321450Y-20257396D01*
X36346456Y-20245353D01*
X36425670Y-20217635D01*
X36452733Y-20211459D01*
X36515419Y-20204396D01*
X36543079Y-20201280D01*
X36556962Y-20200500D01*
X36615892Y-20200500D01*
X54484108Y-20200500D01*
X54543038Y-20200500D01*
X54556922Y-20201280D01*
G37*
%TD.AperFunction*%
%TD*%
%TA.AperFunction,Conductor*%
%TO.N,Earth*%
G36*
X79619097Y-48755134D02*
G01*
X79639739Y-48771768D01*
X79689757Y-48821786D01*
X79689761Y-48821789D01*
X79820864Y-48909390D01*
X79820868Y-48909392D01*
X79820871Y-48909394D01*
X79966553Y-48969738D01*
X80087172Y-48993730D01*
X80121203Y-49000499D01*
X80121207Y-49000500D01*
X80121208Y-49000500D01*
X81617060Y-49000500D01*
X81684099Y-49020185D01*
X81704741Y-49036819D01*
X82928211Y-50260289D01*
X82985456Y-50317534D01*
X83039712Y-50371790D01*
X83170814Y-50459390D01*
X83170827Y-50459397D01*
X83316498Y-50519735D01*
X83316503Y-50519737D01*
X83471153Y-50550499D01*
X83471156Y-50550500D01*
X83471158Y-50550500D01*
X85867060Y-50550500D01*
X85934099Y-50570185D01*
X85954741Y-50586819D01*
X87663181Y-52295259D01*
X87696666Y-52356582D01*
X87699500Y-52382940D01*
X87699500Y-59151502D01*
X87730261Y-59306145D01*
X87730264Y-59306157D01*
X87790602Y-59451828D01*
X87790609Y-59451841D01*
X87878210Y-59582944D01*
X87878213Y-59582948D01*
X91170003Y-62874737D01*
X91203488Y-62936060D01*
X91198504Y-63005752D01*
X91170004Y-63050098D01*
X91069894Y-63150209D01*
X91069890Y-63150213D01*
X90944951Y-63322179D01*
X90848444Y-63511585D01*
X90782753Y-63713760D01*
X90749500Y-63923713D01*
X90749500Y-64386286D01*
X90782753Y-64596239D01*
X90848444Y-64798414D01*
X90944951Y-64987820D01*
X91069890Y-65159786D01*
X91220213Y-65310109D01*
X91392179Y-65435048D01*
X91392181Y-65435049D01*
X91392184Y-65435051D01*
X91581588Y-65531557D01*
X91783757Y-65597246D01*
X91993713Y-65630500D01*
X91993714Y-65630500D01*
X92206286Y-65630500D01*
X92206287Y-65630500D01*
X92416243Y-65597246D01*
X92618412Y-65531557D01*
X92807816Y-65435051D01*
X92829789Y-65419086D01*
X92979786Y-65310109D01*
X92979788Y-65310106D01*
X92979792Y-65310104D01*
X93130104Y-65159792D01*
X93130106Y-65159788D01*
X93130109Y-65159786D01*
X93255048Y-64987820D01*
X93255047Y-64987820D01*
X93255051Y-64987816D01*
X93351557Y-64798412D01*
X93417246Y-64596243D01*
X93450500Y-64386287D01*
X93450500Y-63923713D01*
X93417246Y-63713757D01*
X93351557Y-63511588D01*
X93255051Y-63322184D01*
X93255049Y-63322181D01*
X93255048Y-63322179D01*
X93130109Y-63150213D01*
X92979794Y-62999898D01*
X92979792Y-62999896D01*
X92951613Y-62979422D01*
X92908949Y-62924094D01*
X92900500Y-62879106D01*
X92900500Y-62593811D01*
X92900499Y-62593809D01*
X92891362Y-62547873D01*
X92869737Y-62439159D01*
X92843031Y-62374684D01*
X92809397Y-62293483D01*
X92809390Y-62293470D01*
X92721790Y-62162368D01*
X92678149Y-62118727D01*
X92610289Y-62050867D01*
X90821603Y-60262181D01*
X90788118Y-60200858D01*
X90793102Y-60131166D01*
X90834974Y-60075233D01*
X90900438Y-60050816D01*
X90909284Y-60050500D01*
X94984108Y-60050500D01*
X95044587Y-60050500D01*
X95055394Y-60050972D01*
X95085721Y-60053625D01*
X95212755Y-60064739D01*
X95234035Y-60068491D01*
X95351188Y-60099882D01*
X95381369Y-60107969D01*
X95401681Y-60115362D01*
X95539915Y-60179822D01*
X95558633Y-60190629D01*
X95683582Y-60278119D01*
X95700140Y-60292013D01*
X95807986Y-60399859D01*
X95821880Y-60416417D01*
X95909370Y-60541366D01*
X95920177Y-60560084D01*
X95984637Y-60698318D01*
X95992030Y-60718630D01*
X96031507Y-60865961D01*
X96035260Y-60887246D01*
X96049028Y-61044605D01*
X96049500Y-61055413D01*
X96049500Y-68194586D01*
X96049028Y-68205394D01*
X96035260Y-68362753D01*
X96031507Y-68384038D01*
X95992030Y-68531369D01*
X95984637Y-68551681D01*
X95920177Y-68689915D01*
X95909370Y-68708633D01*
X95821880Y-68833582D01*
X95807986Y-68850140D01*
X95700140Y-68957986D01*
X95683582Y-68971880D01*
X95558633Y-69059370D01*
X95539915Y-69070177D01*
X95401681Y-69134637D01*
X95381369Y-69142030D01*
X95234038Y-69181507D01*
X95212753Y-69185260D01*
X95055395Y-69199028D01*
X95044587Y-69199500D01*
X81474000Y-69199500D01*
X81406961Y-69179815D01*
X81361206Y-69127011D01*
X81350000Y-69075500D01*
X81350000Y-63150000D01*
X78819687Y-63150000D01*
X78752648Y-63130315D01*
X78706893Y-63077511D01*
X78696949Y-63008353D01*
X78725974Y-62944797D01*
X78754587Y-62920463D01*
X78835850Y-62870340D01*
X78957840Y-62748350D01*
X79048408Y-62601516D01*
X79102674Y-62437753D01*
X79113000Y-62336677D01*
X79112999Y-61763324D01*
X79108114Y-61715506D01*
X79102674Y-61662247D01*
X79098508Y-61649675D01*
X79048408Y-61498484D01*
X79041791Y-61487756D01*
X78993961Y-61410210D01*
X78975500Y-61345114D01*
X78975500Y-61004883D01*
X78993961Y-60939787D01*
X79048408Y-60851516D01*
X79102674Y-60687753D01*
X79113000Y-60586677D01*
X79112999Y-60013324D01*
X79105120Y-59936197D01*
X79102674Y-59912247D01*
X79101002Y-59907201D01*
X79048408Y-59748484D01*
X78981244Y-59639595D01*
X78962805Y-59572203D01*
X78983728Y-59505540D01*
X79037370Y-59460770D01*
X79086784Y-59450499D01*
X79523338Y-59450499D01*
X79523344Y-59450499D01*
X79523352Y-59450498D01*
X79523355Y-59450498D01*
X79577760Y-59444940D01*
X79622708Y-59440349D01*
X79723971Y-59406794D01*
X79762975Y-59400500D01*
X80991282Y-59400500D01*
X81058321Y-59420185D01*
X81104076Y-59472989D01*
X81114020Y-59542147D01*
X81084995Y-59605703D01*
X81078963Y-59612181D01*
X81031119Y-59660024D01*
X81031113Y-59660032D01*
X80929833Y-59811608D01*
X80929831Y-59811612D01*
X80860068Y-59980037D01*
X80860065Y-59980047D01*
X80824500Y-60158843D01*
X80824500Y-60158846D01*
X80824500Y-60341154D01*
X80824500Y-60341156D01*
X80824499Y-60341156D01*
X80860065Y-60519952D01*
X80860068Y-60519962D01*
X80929831Y-60688387D01*
X80929833Y-60688391D01*
X81031113Y-60839967D01*
X81031119Y-60839975D01*
X81160024Y-60968880D01*
X81160032Y-60968886D01*
X81311608Y-61070166D01*
X81311612Y-61070168D01*
X81401695Y-61107481D01*
X81480042Y-61139933D01*
X81480046Y-61139933D01*
X81480047Y-61139934D01*
X81658843Y-61175500D01*
X81658846Y-61175500D01*
X81841156Y-61175500D01*
X81961445Y-61151572D01*
X82019958Y-61139933D01*
X82178049Y-61074449D01*
X82247516Y-61066981D01*
X82309996Y-61098256D01*
X82345648Y-61158345D01*
X82349500Y-61189011D01*
X82349500Y-62893696D01*
X82384103Y-63067660D01*
X82384107Y-63067673D01*
X82390915Y-63084107D01*
X82390917Y-63084111D01*
X82451985Y-63231544D01*
X82511063Y-63319960D01*
X82550537Y-63379038D01*
X82550540Y-63379041D01*
X83213181Y-64041680D01*
X83246666Y-64103003D01*
X83249500Y-64129361D01*
X83249500Y-64930001D01*
X83249501Y-64930019D01*
X83260000Y-65032796D01*
X83260001Y-65032799D01*
X83305894Y-65171294D01*
X83315186Y-65199334D01*
X83407288Y-65348656D01*
X83531344Y-65472712D01*
X83680666Y-65564814D01*
X83847203Y-65619999D01*
X83949991Y-65630500D01*
X85250008Y-65630499D01*
X85352797Y-65619999D01*
X85519334Y-65564814D01*
X85668656Y-65472712D01*
X85792712Y-65348656D01*
X85884814Y-65199334D01*
X85884814Y-65199331D01*
X85888178Y-65193879D01*
X85940126Y-65147154D01*
X86009088Y-65135931D01*
X86073170Y-65163774D01*
X86081398Y-65171294D01*
X86220213Y-65310109D01*
X86392179Y-65435048D01*
X86392181Y-65435049D01*
X86392184Y-65435051D01*
X86581588Y-65531557D01*
X86783757Y-65597246D01*
X86993713Y-65630500D01*
X86993714Y-65630500D01*
X87206286Y-65630500D01*
X87206287Y-65630500D01*
X87416243Y-65597246D01*
X87618412Y-65531557D01*
X87807816Y-65435051D01*
X87829789Y-65419086D01*
X87979786Y-65310109D01*
X87979788Y-65310106D01*
X87979792Y-65310104D01*
X88130104Y-65159792D01*
X88130106Y-65159788D01*
X88130109Y-65159786D01*
X88255048Y-64987820D01*
X88255047Y-64987820D01*
X88255051Y-64987816D01*
X88351557Y-64798412D01*
X88417246Y-64596243D01*
X88450500Y-64386287D01*
X88450500Y-63923713D01*
X88417246Y-63713757D01*
X88351557Y-63511588D01*
X88255051Y-63322184D01*
X88255049Y-63322181D01*
X88255048Y-63322179D01*
X88130109Y-63150213D01*
X87979794Y-62999898D01*
X87979792Y-62999896D01*
X87951613Y-62979422D01*
X87908949Y-62924094D01*
X87900500Y-62879106D01*
X87900500Y-62516654D01*
X87900499Y-62516652D01*
X87885086Y-62439166D01*
X87869737Y-62362002D01*
X87859247Y-62336677D01*
X87809397Y-62216326D01*
X87809390Y-62216313D01*
X87721790Y-62085211D01*
X87677695Y-62041116D01*
X87610289Y-61973710D01*
X87336819Y-61700240D01*
X87303334Y-61638917D01*
X87300500Y-61612559D01*
X87300500Y-52921155D01*
X87300499Y-52921153D01*
X87277145Y-52803746D01*
X87269737Y-52766503D01*
X87260368Y-52743883D01*
X87209397Y-52620827D01*
X87209390Y-52620814D01*
X87121790Y-52489712D01*
X87066903Y-52434825D01*
X87010289Y-52378211D01*
X86387115Y-51755037D01*
X85760292Y-51128213D01*
X85760288Y-51128210D01*
X85629185Y-51040609D01*
X85629172Y-51040602D01*
X85483501Y-50980264D01*
X85483489Y-50980261D01*
X85328845Y-50949500D01*
X85328842Y-50949500D01*
X82932940Y-50949500D01*
X82865901Y-50929815D01*
X82845259Y-50913181D01*
X81510292Y-49578213D01*
X81510288Y-49578210D01*
X81379185Y-49490609D01*
X81379172Y-49490602D01*
X81233501Y-49430264D01*
X81233489Y-49430261D01*
X81078845Y-49399500D01*
X81078842Y-49399500D01*
X79182940Y-49399500D01*
X79115901Y-49379815D01*
X79095259Y-49363181D01*
X78679208Y-48947130D01*
X78645723Y-48885807D01*
X78650707Y-48816115D01*
X78692579Y-48760182D01*
X78758043Y-48735765D01*
X78766868Y-48735449D01*
X79552058Y-48735449D01*
X79619097Y-48755134D01*
G37*
%TD.AperFunction*%
%TA.AperFunction,Conductor*%
G36*
X85666366Y-58211699D02*
G01*
X85697559Y-58274220D01*
X85699500Y-58296076D01*
X85699500Y-62074345D01*
X85730261Y-62228988D01*
X85730264Y-62229000D01*
X85790602Y-62374671D01*
X85790609Y-62374684D01*
X85878210Y-62505787D01*
X85878213Y-62505791D01*
X86208582Y-62836159D01*
X86212920Y-62844104D01*
X86220168Y-62849530D01*
X86229402Y-62874289D01*
X86242067Y-62897482D01*
X86241421Y-62906511D01*
X86244585Y-62914994D01*
X86238968Y-62940814D01*
X86237083Y-62967173D01*
X86231264Y-62976226D01*
X86229733Y-62983267D01*
X86208582Y-63011521D01*
X86081398Y-63138705D01*
X86020075Y-63172190D01*
X85950383Y-63167206D01*
X85894450Y-63125334D01*
X85888178Y-63116120D01*
X85832283Y-63025500D01*
X85792712Y-62961344D01*
X85668656Y-62837288D01*
X85549517Y-62763803D01*
X85519336Y-62745187D01*
X85519331Y-62745185D01*
X85517862Y-62744698D01*
X85352797Y-62690001D01*
X85352795Y-62690000D01*
X85250016Y-62679500D01*
X85250009Y-62679500D01*
X84449362Y-62679500D01*
X84419921Y-62670855D01*
X84389935Y-62664332D01*
X84384919Y-62660577D01*
X84382323Y-62659815D01*
X84361681Y-62643181D01*
X84186819Y-62468319D01*
X84153334Y-62406996D01*
X84150500Y-62380638D01*
X84150500Y-59661309D01*
X84150244Y-59660024D01*
X84144118Y-59629225D01*
X84139793Y-59607483D01*
X84115896Y-59487341D01*
X84115895Y-59487334D01*
X84072709Y-59383076D01*
X84048013Y-59323453D01*
X83964491Y-59198454D01*
X83949464Y-59175964D01*
X83949462Y-59175961D01*
X83949459Y-59175958D01*
X83357181Y-58583681D01*
X83323696Y-58522358D01*
X83328680Y-58452667D01*
X83370551Y-58396733D01*
X83436016Y-58372316D01*
X83444862Y-58372000D01*
X84000000Y-58372000D01*
X84071940Y-58366855D01*
X84209992Y-58326319D01*
X84331032Y-58248531D01*
X84356984Y-58218580D01*
X84415757Y-58180809D01*
X84485626Y-58180807D01*
X84489657Y-58182066D01*
X84619747Y-58225174D01*
X84720823Y-58235500D01*
X85294176Y-58235499D01*
X85294184Y-58235498D01*
X85294187Y-58235498D01*
X85349820Y-58229815D01*
X85395253Y-58225174D01*
X85536497Y-58178369D01*
X85606324Y-58175968D01*
X85666366Y-58211699D01*
G37*
%TD.AperFunction*%
%TA.AperFunction,Conductor*%
G36*
X69444136Y-42420185D02*
G01*
X69489891Y-42472989D01*
X69499835Y-42542147D01*
X69470810Y-42605703D01*
X69424552Y-42639060D01*
X69420826Y-42640603D01*
X69420814Y-42640609D01*
X69289711Y-42728210D01*
X69289707Y-42728213D01*
X67468422Y-44549500D01*
X66889711Y-45128211D01*
X66833960Y-45183962D01*
X66778209Y-45239712D01*
X66690609Y-45370814D01*
X66690602Y-45370827D01*
X66630264Y-45516498D01*
X66630261Y-45516510D01*
X66599500Y-45671153D01*
X66599500Y-52828846D01*
X66630261Y-52983489D01*
X66630264Y-52983501D01*
X66690602Y-53129172D01*
X66690609Y-53129185D01*
X66778210Y-53260288D01*
X66778213Y-53260292D01*
X73078211Y-59560289D01*
X73147145Y-59629223D01*
X73189712Y-59671790D01*
X73304493Y-59748484D01*
X73320821Y-59759394D01*
X73411776Y-59797068D01*
X73466177Y-59840907D01*
X73488243Y-59907201D01*
X73470964Y-59974900D01*
X73467425Y-59980518D01*
X73379831Y-60111614D01*
X73310068Y-60280037D01*
X73310065Y-60280047D01*
X73274500Y-60458843D01*
X73274500Y-60458846D01*
X73274500Y-60641154D01*
X73274500Y-60641156D01*
X73274499Y-60641156D01*
X73310065Y-60819952D01*
X73310068Y-60819962D01*
X73379831Y-60988387D01*
X73379833Y-60988391D01*
X73481113Y-61139967D01*
X73481119Y-61139975D01*
X73610024Y-61268880D01*
X73610032Y-61268886D01*
X73761608Y-61370166D01*
X73761612Y-61370168D01*
X73889135Y-61422989D01*
X73930042Y-61439933D01*
X73930046Y-61439933D01*
X73930047Y-61439934D01*
X74108843Y-61475500D01*
X74108846Y-61475500D01*
X74291156Y-61475500D01*
X74411445Y-61451572D01*
X74469958Y-61439933D01*
X74638389Y-61370167D01*
X74638397Y-61370161D01*
X74643763Y-61367294D01*
X74644607Y-61368873D01*
X74654595Y-61365746D01*
X74670503Y-61355523D01*
X74701472Y-61351070D01*
X74703230Y-61350520D01*
X74705438Y-61350500D01*
X74733132Y-61350500D01*
X74800171Y-61370185D01*
X74845926Y-61422989D01*
X74856421Y-61487756D01*
X74849500Y-61552118D01*
X74849500Y-61552123D01*
X74849500Y-61552127D01*
X74849500Y-62041116D01*
X74849501Y-62525500D01*
X74829817Y-62592539D01*
X74777013Y-62638294D01*
X74725501Y-62649500D01*
X59974500Y-62649500D01*
X59907461Y-62629815D01*
X59861706Y-62577011D01*
X59850500Y-62525500D01*
X59850499Y-61552129D01*
X59850498Y-61552123D01*
X59850497Y-61552118D01*
X59844091Y-61492517D01*
X59793796Y-61357669D01*
X59793794Y-61357666D01*
X59790696Y-61349360D01*
X59792426Y-61348714D01*
X59779902Y-61291163D01*
X59791691Y-61251011D01*
X59790696Y-61250640D01*
X59793794Y-61242333D01*
X59793796Y-61242331D01*
X59844091Y-61107483D01*
X59850500Y-61047873D01*
X59850499Y-60052128D01*
X59844091Y-59992517D01*
X59793796Y-59857669D01*
X59793794Y-59857666D01*
X59790696Y-59849360D01*
X59792426Y-59848714D01*
X59779902Y-59791163D01*
X59791691Y-59751011D01*
X59790696Y-59750640D01*
X59793794Y-59742333D01*
X59793796Y-59742331D01*
X59844091Y-59607483D01*
X59850500Y-59547873D01*
X59850499Y-58574499D01*
X59870183Y-58507461D01*
X59922987Y-58461706D01*
X59974499Y-58450500D01*
X60238693Y-58450500D01*
X60238694Y-58450499D01*
X60412666Y-58415895D01*
X60494606Y-58381953D01*
X60576547Y-58348013D01*
X60664959Y-58288936D01*
X60724036Y-58249464D01*
X64999463Y-53974036D01*
X65002331Y-53969744D01*
X65098013Y-53826547D01*
X65165894Y-53662666D01*
X65180297Y-53590257D01*
X65200500Y-53488692D01*
X65200500Y-53311309D01*
X65200500Y-49174499D01*
X65220185Y-49107460D01*
X65272989Y-49061705D01*
X65324500Y-49050499D01*
X65450002Y-49050499D01*
X65450008Y-49050499D01*
X65552797Y-49039999D01*
X65719334Y-48984814D01*
X65868656Y-48892712D01*
X65992712Y-48768656D01*
X66084814Y-48619334D01*
X66139999Y-48452797D01*
X66150500Y-48350009D01*
X66150499Y-47549992D01*
X66150264Y-47547695D01*
X66139999Y-47447203D01*
X66139998Y-47447200D01*
X66124192Y-47399500D01*
X66084814Y-47280666D01*
X65992712Y-47131344D01*
X65899049Y-47037681D01*
X65865564Y-46976358D01*
X65870548Y-46906666D01*
X65899049Y-46862319D01*
X65927815Y-46833553D01*
X65992712Y-46768656D01*
X66084814Y-46619334D01*
X66139999Y-46452797D01*
X66150500Y-46350009D01*
X66150499Y-45549992D01*
X66139999Y-45447203D01*
X66084814Y-45280666D01*
X65992712Y-45131344D01*
X65884403Y-45023035D01*
X65850918Y-44961712D01*
X65855902Y-44892020D01*
X65884401Y-44847675D01*
X68295259Y-42436819D01*
X68356582Y-42403334D01*
X68382940Y-42400500D01*
X69377097Y-42400500D01*
X69444136Y-42420185D01*
G37*
%TD.AperFunction*%
%TA.AperFunction,Conductor*%
G36*
X75934099Y-44170185D02*
G01*
X75954741Y-44186819D01*
X77590691Y-45822769D01*
X77601303Y-45842205D01*
X77615804Y-45858939D01*
X77617720Y-45872270D01*
X77624176Y-45884092D01*
X77622596Y-45906178D01*
X77625748Y-45928097D01*
X77620152Y-45940348D01*
X77619192Y-45953784D01*
X77605921Y-45971510D01*
X77596723Y-45991653D01*
X77585391Y-45998935D01*
X77577320Y-46009717D01*
X77556574Y-46017454D01*
X77537945Y-46029427D01*
X77516026Y-46032578D01*
X77511856Y-46034134D01*
X77503010Y-46034450D01*
X77267890Y-46034450D01*
X77200851Y-46014765D01*
X77180209Y-45998131D01*
X75910292Y-44728213D01*
X75910288Y-44728210D01*
X75779185Y-44640609D01*
X75779172Y-44640602D01*
X75633501Y-44580264D01*
X75633489Y-44580261D01*
X75478845Y-44549500D01*
X75478842Y-44549500D01*
X70678842Y-44549500D01*
X70521157Y-44549500D01*
X70521155Y-44549500D01*
X70412276Y-44571158D01*
X70397813Y-44574035D01*
X70374276Y-44578716D01*
X70366502Y-44580263D01*
X70366498Y-44580264D01*
X70220827Y-44640602D01*
X70220814Y-44640609D01*
X70089712Y-44728209D01*
X70051771Y-44766151D01*
X69978211Y-44839711D01*
X69978209Y-44839713D01*
X69432355Y-45385567D01*
X68872270Y-45945651D01*
X68778213Y-46039707D01*
X68778210Y-46039711D01*
X68690609Y-46170814D01*
X68690602Y-46170827D01*
X68630264Y-46316498D01*
X68630261Y-46316510D01*
X68599500Y-46471153D01*
X68599500Y-52053846D01*
X68630261Y-52208489D01*
X68630264Y-52208501D01*
X68690602Y-52354172D01*
X68690609Y-52354185D01*
X68778210Y-52485288D01*
X68778213Y-52485292D01*
X74330740Y-58037819D01*
X74341352Y-58057255D01*
X74355853Y-58073989D01*
X74357769Y-58087320D01*
X74364225Y-58099142D01*
X74362645Y-58121228D01*
X74365797Y-58143147D01*
X74360201Y-58155398D01*
X74359241Y-58168834D01*
X74345970Y-58186560D01*
X74336772Y-58206703D01*
X74325440Y-58213985D01*
X74317369Y-58224767D01*
X74296623Y-58232504D01*
X74277994Y-58244477D01*
X74256075Y-58247628D01*
X74251905Y-58249184D01*
X74243059Y-58249500D01*
X74082940Y-58249500D01*
X74015901Y-58229815D01*
X73995259Y-58213181D01*
X68236819Y-52454741D01*
X68203334Y-52393418D01*
X68200500Y-52367060D01*
X68200500Y-46132940D01*
X68220185Y-46065901D01*
X68236819Y-46045259D01*
X70095259Y-44186819D01*
X70156582Y-44153334D01*
X70182940Y-44150500D01*
X75867060Y-44150500D01*
X75934099Y-44170185D01*
G37*
%TD.AperFunction*%
%TA.AperFunction,Conductor*%
G36*
X79192539Y-28120185D02*
G01*
X79238294Y-28172989D01*
X79249500Y-28224500D01*
X79249500Y-29367059D01*
X79229815Y-29434098D01*
X79213181Y-29454740D01*
X78404739Y-30263181D01*
X78343416Y-30296666D01*
X78317058Y-30299500D01*
X77652129Y-30299500D01*
X77652123Y-30299501D01*
X77592516Y-30305908D01*
X77457671Y-30356202D01*
X77457664Y-30356206D01*
X77342455Y-30442452D01*
X77342452Y-30442455D01*
X77256206Y-30557664D01*
X77256202Y-30557671D01*
X77205908Y-30692517D01*
X77199501Y-30752116D01*
X77199500Y-30752135D01*
X77199500Y-31847870D01*
X77199501Y-31847876D01*
X77205908Y-31907483D01*
X77256202Y-32042328D01*
X77256206Y-32042335D01*
X77342452Y-32157544D01*
X77342455Y-32157547D01*
X77457664Y-32243793D01*
X77457671Y-32243797D01*
X77592517Y-32294091D01*
X77592516Y-32294091D01*
X77599444Y-32294835D01*
X77652127Y-32300500D01*
X78747872Y-32300499D01*
X78807483Y-32294091D01*
X78942331Y-32243796D01*
X79057546Y-32157546D01*
X79143796Y-32042331D01*
X79194091Y-31907483D01*
X79196001Y-31889719D01*
X79200499Y-31847886D01*
X79200499Y-31847882D01*
X79200500Y-31847873D01*
X79200499Y-31782939D01*
X79220183Y-31715901D01*
X79236813Y-31695263D01*
X80671789Y-30260289D01*
X80684287Y-30241583D01*
X80737897Y-30196779D01*
X80807222Y-30188069D01*
X80870250Y-30218222D01*
X80879458Y-30227410D01*
X80887011Y-30235782D01*
X80907288Y-30268656D01*
X81003207Y-30364575D01*
X81005338Y-30366937D01*
X81019160Y-30395667D01*
X81034436Y-30423642D01*
X81034200Y-30426928D01*
X81035630Y-30429899D01*
X81031726Y-30461534D01*
X81029452Y-30493334D01*
X81027409Y-30496511D01*
X81027073Y-30499242D01*
X81020842Y-30506730D01*
X81000951Y-30537681D01*
X80907289Y-30631342D01*
X80815187Y-30780663D01*
X80815185Y-30780668D01*
X80810836Y-30793793D01*
X80760001Y-30947203D01*
X80760001Y-30947204D01*
X80760000Y-30947204D01*
X80749500Y-31049983D01*
X80749500Y-31850001D01*
X80749501Y-31850019D01*
X80760000Y-31952796D01*
X80760001Y-31952799D01*
X80812526Y-32111308D01*
X80815186Y-32119334D01*
X80907288Y-32268656D01*
X81031344Y-32392712D01*
X81090596Y-32429258D01*
X81137321Y-32481204D01*
X81149500Y-32534797D01*
X81149500Y-34128846D01*
X81180261Y-34283489D01*
X81180264Y-34283501D01*
X81240602Y-34429172D01*
X81240609Y-34429185D01*
X81328210Y-34560288D01*
X81328213Y-34560292D01*
X82926563Y-36158641D01*
X82957067Y-36214505D01*
X82958300Y-36214132D01*
X82960068Y-36219962D01*
X83029831Y-36388387D01*
X83029833Y-36388391D01*
X83131113Y-36539967D01*
X83131119Y-36539975D01*
X83260024Y-36668880D01*
X83260032Y-36668886D01*
X83411608Y-36770166D01*
X83411612Y-36770168D01*
X83580037Y-36839931D01*
X83580042Y-36839933D01*
X83580046Y-36839933D01*
X83580047Y-36839934D01*
X83758843Y-36875500D01*
X83758846Y-36875500D01*
X83941155Y-36875500D01*
X83975560Y-36868656D01*
X84051309Y-36853588D01*
X84120899Y-36859815D01*
X84176077Y-36902677D01*
X84199322Y-36968566D01*
X84199500Y-36975205D01*
X84199500Y-44088696D01*
X84219018Y-44186819D01*
X84234105Y-44262666D01*
X84260325Y-44325965D01*
X84301987Y-44426547D01*
X84352313Y-44501865D01*
X84355973Y-44507344D01*
X84355975Y-44507346D01*
X84400535Y-44574035D01*
X84400538Y-44574039D01*
X85425961Y-45599462D01*
X85474640Y-45631988D01*
X85533262Y-45671158D01*
X85573453Y-45698013D01*
X85648695Y-45729179D01*
X85737334Y-45765895D01*
X85911303Y-45800499D01*
X85911307Y-45800500D01*
X87136231Y-45800500D01*
X87203270Y-45820185D01*
X87249025Y-45872989D01*
X87258969Y-45942147D01*
X87252413Y-45967833D01*
X87205908Y-46092517D01*
X87199501Y-46152116D01*
X87199500Y-46152135D01*
X87199500Y-47247870D01*
X87199501Y-47247876D01*
X87205908Y-47307483D01*
X87256202Y-47442328D01*
X87256206Y-47442335D01*
X87342452Y-47557544D01*
X87342455Y-47557547D01*
X87457664Y-47643793D01*
X87457671Y-47643797D01*
X87592517Y-47694091D01*
X87592516Y-47694091D01*
X87599444Y-47694835D01*
X87652127Y-47700500D01*
X88747872Y-47700499D01*
X88807483Y-47694091D01*
X88942331Y-47643796D01*
X89057546Y-47557546D01*
X89143796Y-47442331D01*
X89194091Y-47307483D01*
X89200500Y-47247873D01*
X89200499Y-47024360D01*
X89220183Y-46957321D01*
X89236809Y-46936688D01*
X89674464Y-46499035D01*
X89707587Y-46449463D01*
X89773013Y-46351547D01*
X89800697Y-46284711D01*
X89840895Y-46187666D01*
X89875500Y-46013691D01*
X89875500Y-45836308D01*
X89875500Y-45498361D01*
X89895185Y-45431322D01*
X89947989Y-45385567D01*
X90017147Y-45375623D01*
X90080703Y-45404648D01*
X90087181Y-45410680D01*
X90563181Y-45886680D01*
X90596666Y-45948003D01*
X90599500Y-45974361D01*
X90599500Y-47105001D01*
X90599501Y-47105018D01*
X90610000Y-47207796D01*
X90610001Y-47207799D01*
X90665185Y-47374331D01*
X90665187Y-47374336D01*
X90757289Y-47523657D01*
X90792064Y-47558432D01*
X90799048Y-47569827D01*
X90806733Y-47576110D01*
X90815118Y-47596048D01*
X90822309Y-47607781D01*
X90824572Y-47614746D01*
X90834105Y-47662666D01*
X90860325Y-47725965D01*
X90862181Y-47730446D01*
X90862185Y-47730458D01*
X90901984Y-47826542D01*
X90901985Y-47826544D01*
X90933325Y-47873448D01*
X90933326Y-47873449D01*
X90933329Y-47873453D01*
X90958119Y-47910554D01*
X91000537Y-47974038D01*
X91000538Y-47974039D01*
X91774319Y-48747819D01*
X91807804Y-48809142D01*
X91802820Y-48878833D01*
X91760948Y-48934767D01*
X91695484Y-48959184D01*
X91686638Y-48959500D01*
X90668872Y-48959500D01*
X90437772Y-48989926D01*
X90408884Y-48993730D01*
X90155581Y-49061602D01*
X90155571Y-49061605D01*
X89913309Y-49161953D01*
X89913299Y-49161958D01*
X89686196Y-49293075D01*
X89478148Y-49452718D01*
X89292718Y-49638148D01*
X89133075Y-49846196D01*
X89001958Y-50073299D01*
X89001953Y-50073309D01*
X88901605Y-50315571D01*
X88901602Y-50315581D01*
X88846900Y-50519735D01*
X88833730Y-50568885D01*
X88799500Y-50828872D01*
X88799500Y-50868059D01*
X88779815Y-50935098D01*
X88727011Y-50980853D01*
X88657853Y-50990797D01*
X88594297Y-50961772D01*
X88587819Y-50955740D01*
X86760292Y-49128213D01*
X86760288Y-49128210D01*
X86629185Y-49040609D01*
X86629172Y-49040602D01*
X86483501Y-48980264D01*
X86483489Y-48980261D01*
X86328845Y-48949500D01*
X86328842Y-48949500D01*
X83932940Y-48949500D01*
X83865901Y-48929815D01*
X83845259Y-48913181D01*
X82510292Y-47578213D01*
X82510288Y-47578210D01*
X82379185Y-47490609D01*
X82379172Y-47490602D01*
X82233501Y-47430264D01*
X82233489Y-47430261D01*
X82078845Y-47399500D01*
X82078842Y-47399500D01*
X80859500Y-47399500D01*
X80792461Y-47379815D01*
X80746706Y-47327011D01*
X80735500Y-47275500D01*
X80735499Y-46487079D01*
X80735498Y-46487073D01*
X80733787Y-46471158D01*
X80729091Y-46427467D01*
X80687702Y-46316498D01*
X80678797Y-46292621D01*
X80678793Y-46292614D01*
X80592547Y-46177405D01*
X80592544Y-46177402D01*
X80477335Y-46091156D01*
X80477328Y-46091152D01*
X80342482Y-46040858D01*
X80342483Y-46040858D01*
X80282883Y-46034451D01*
X80282881Y-46034450D01*
X80282873Y-46034450D01*
X80282865Y-46034450D01*
X80112985Y-46034450D01*
X80045946Y-46014765D01*
X80009883Y-45979341D01*
X80006789Y-45974711D01*
X80006786Y-45974707D01*
X76760292Y-42728213D01*
X76760288Y-42728210D01*
X76629185Y-42640609D01*
X76629178Y-42640605D01*
X76625451Y-42639062D01*
X76571047Y-42595222D01*
X76548981Y-42528928D01*
X76566259Y-42461229D01*
X76617395Y-42413617D01*
X76672902Y-42400500D01*
X78394562Y-42400500D01*
X78455629Y-42418431D01*
X78456237Y-42417294D01*
X78461606Y-42420163D01*
X78461611Y-42420167D01*
X78630042Y-42489933D01*
X78630046Y-42489933D01*
X78630047Y-42489934D01*
X78808843Y-42525500D01*
X78808846Y-42525500D01*
X78991156Y-42525500D01*
X79111445Y-42501572D01*
X79169958Y-42489933D01*
X79311854Y-42431158D01*
X79338387Y-42420168D01*
X79338391Y-42420166D01*
X79433309Y-42356744D01*
X79489972Y-42318883D01*
X79618883Y-42189972D01*
X79720167Y-42038389D01*
X79789933Y-41869958D01*
X79825500Y-41691154D01*
X79825500Y-41508846D01*
X79825500Y-41508843D01*
X79789934Y-41330047D01*
X79789933Y-41330046D01*
X79789933Y-41330042D01*
X79740552Y-41210825D01*
X79720168Y-41161612D01*
X79720166Y-41161608D01*
X79618886Y-41010032D01*
X79618880Y-41010024D01*
X79489975Y-40881119D01*
X79489967Y-40881113D01*
X79338391Y-40779833D01*
X79338387Y-40779831D01*
X79169962Y-40710068D01*
X79169952Y-40710065D01*
X78991156Y-40674500D01*
X78991154Y-40674500D01*
X78808846Y-40674500D01*
X78808844Y-40674500D01*
X78630047Y-40710065D01*
X78630041Y-40710067D01*
X78461614Y-40779831D01*
X78456237Y-40782706D01*
X78455392Y-40781126D01*
X78396770Y-40799480D01*
X78394562Y-40799500D01*
X67921154Y-40799500D01*
X67766508Y-40830261D01*
X67766498Y-40830264D01*
X67730226Y-40845289D01*
X67620817Y-40890607D01*
X67489712Y-40978209D01*
X67489711Y-40978211D01*
X67489710Y-40978212D01*
X64439711Y-44028211D01*
X64383960Y-44083962D01*
X64328209Y-44139712D01*
X64240609Y-44270814D01*
X64240602Y-44270827D01*
X64180264Y-44416498D01*
X64180261Y-44416510D01*
X64149500Y-44571153D01*
X64149500Y-44865201D01*
X64129815Y-44932240D01*
X64090598Y-44970739D01*
X64031344Y-45007287D01*
X63907289Y-45131342D01*
X63815187Y-45280663D01*
X63815186Y-45280666D01*
X63760001Y-45447203D01*
X63760001Y-45447204D01*
X63760000Y-45447204D01*
X63749500Y-45549983D01*
X63749500Y-46350001D01*
X63749501Y-46350019D01*
X63760000Y-46452796D01*
X63760001Y-46452799D01*
X63815185Y-46619331D01*
X63815189Y-46619340D01*
X63864630Y-46699497D01*
X63883070Y-46766889D01*
X63862147Y-46833553D01*
X63808505Y-46878322D01*
X63739174Y-46886983D01*
X63720090Y-46882299D01*
X63652797Y-46860001D01*
X63652795Y-46860000D01*
X63550010Y-46849500D01*
X62549998Y-46849500D01*
X62549980Y-46849501D01*
X62447203Y-46860000D01*
X62447200Y-46860001D01*
X62280668Y-46915185D01*
X62280663Y-46915187D01*
X62131342Y-47007289D01*
X62007289Y-47131342D01*
X61915187Y-47280663D01*
X61915185Y-47280668D01*
X61899829Y-47327011D01*
X61860001Y-47447203D01*
X61860001Y-47447204D01*
X61860000Y-47447204D01*
X61849500Y-47549983D01*
X61849500Y-48350001D01*
X61849501Y-48350019D01*
X61860000Y-48452796D01*
X61860001Y-48452799D01*
X61906292Y-48592494D01*
X61915186Y-48619334D01*
X62007288Y-48768656D01*
X62131344Y-48892712D01*
X62280666Y-48984814D01*
X62447203Y-49039999D01*
X62549991Y-49050500D01*
X63275500Y-49050499D01*
X63342539Y-49070183D01*
X63388294Y-49122987D01*
X63399500Y-49174499D01*
X63399500Y-52975637D01*
X63379815Y-53042676D01*
X63363181Y-53063318D01*
X60062180Y-56364318D01*
X60000857Y-56397803D01*
X59931165Y-56392819D01*
X59875232Y-56350947D01*
X59850815Y-56285483D01*
X59850499Y-56276657D01*
X59850499Y-55552128D01*
X59844091Y-55492517D01*
X59793796Y-55357669D01*
X59793794Y-55357666D01*
X59790696Y-55349360D01*
X59792426Y-55348714D01*
X59779902Y-55291163D01*
X59791691Y-55251011D01*
X59790696Y-55250640D01*
X59793794Y-55242333D01*
X59793796Y-55242331D01*
X59844091Y-55107483D01*
X59850500Y-55047873D01*
X59850499Y-54960806D01*
X59870183Y-54893769D01*
X59886813Y-54873131D01*
X60565276Y-54194670D01*
X60636465Y-54088127D01*
X60685501Y-53969744D01*
X60686909Y-53962666D01*
X60710500Y-53844069D01*
X60710500Y-49195931D01*
X60710500Y-49195928D01*
X60685502Y-49070261D01*
X60685501Y-49070260D01*
X60685501Y-49070256D01*
X60643865Y-48969737D01*
X60636466Y-48951874D01*
X60633296Y-48947130D01*
X60565278Y-48845332D01*
X60565272Y-48845325D01*
X59712627Y-47992680D01*
X59679142Y-47931357D01*
X59684126Y-47861665D01*
X59712625Y-47817320D01*
X75975277Y-31554669D01*
X76046466Y-31448126D01*
X76087934Y-31348012D01*
X76095501Y-31329744D01*
X76120500Y-31204069D01*
X76120500Y-29963346D01*
X76140185Y-29896307D01*
X76192989Y-29850552D01*
X76257103Y-29839988D01*
X76257199Y-29839997D01*
X76257203Y-29839999D01*
X76359991Y-29850500D01*
X77160008Y-29850499D01*
X77160016Y-29850498D01*
X77160019Y-29850498D01*
X77216302Y-29844748D01*
X77262797Y-29839999D01*
X77429334Y-29784814D01*
X77578656Y-29692712D01*
X77702712Y-29568656D01*
X77794814Y-29419334D01*
X77849999Y-29252797D01*
X77860500Y-29150009D01*
X77860499Y-28224499D01*
X77880183Y-28157461D01*
X77932987Y-28111706D01*
X77984499Y-28100500D01*
X79125500Y-28100500D01*
X79192539Y-28120185D01*
G37*
%TD.AperFunction*%
%TA.AperFunction,Conductor*%
G36*
X70405703Y-48345068D02*
G01*
X70440682Y-48395448D01*
X70471202Y-48477278D01*
X70471203Y-48477279D01*
X70471204Y-48477281D01*
X70536135Y-48564018D01*
X70557456Y-48592499D01*
X70563181Y-48598224D01*
X70596666Y-48659547D01*
X70599500Y-48685905D01*
X70599500Y-50270952D01*
X70597117Y-50295144D01*
X70574500Y-50408843D01*
X70574500Y-50408846D01*
X70574500Y-50591154D01*
X70574500Y-50591156D01*
X70574499Y-50591156D01*
X70610065Y-50769952D01*
X70610068Y-50769962D01*
X70679831Y-50938387D01*
X70679833Y-50938391D01*
X70781113Y-51089967D01*
X70781119Y-51089975D01*
X70910024Y-51218880D01*
X70910032Y-51218886D01*
X71061608Y-51320166D01*
X71061612Y-51320168D01*
X71230037Y-51389931D01*
X71230042Y-51389933D01*
X71230046Y-51389933D01*
X71230047Y-51389934D01*
X71408843Y-51425500D01*
X71408846Y-51425500D01*
X71591156Y-51425500D01*
X71711445Y-51401572D01*
X71769958Y-51389933D01*
X71938389Y-51320167D01*
X71938391Y-51320166D01*
X72065315Y-51235358D01*
X72089972Y-51218883D01*
X72218883Y-51089972D01*
X72280531Y-50997707D01*
X72334142Y-50952904D01*
X72403467Y-50944196D01*
X72453966Y-50966988D01*
X72454962Y-50965499D01*
X72611608Y-51070166D01*
X72611612Y-51070168D01*
X72751740Y-51128210D01*
X72780042Y-51139933D01*
X72780046Y-51139933D01*
X72780047Y-51139934D01*
X72958843Y-51175500D01*
X72958846Y-51175500D01*
X73141156Y-51175500D01*
X73261445Y-51151572D01*
X73319958Y-51139933D01*
X73488389Y-51070167D01*
X73488397Y-51070161D01*
X73493763Y-51067294D01*
X73494607Y-51068873D01*
X73504595Y-51065746D01*
X73520503Y-51055523D01*
X73551472Y-51051070D01*
X73553230Y-51050520D01*
X73555438Y-51050500D01*
X73715060Y-51050500D01*
X73782099Y-51070185D01*
X73802741Y-51086819D01*
X73820265Y-51104343D01*
X73853750Y-51165666D01*
X73848766Y-51235358D01*
X73806894Y-51291291D01*
X73801478Y-51295124D01*
X73785029Y-51306115D01*
X73785024Y-51306119D01*
X73656119Y-51435024D01*
X73656113Y-51435032D01*
X73554833Y-51586608D01*
X73554831Y-51586612D01*
X73485068Y-51755037D01*
X73485065Y-51755047D01*
X73449500Y-51933843D01*
X73449500Y-51933846D01*
X73449500Y-52116154D01*
X73449500Y-52116156D01*
X73449499Y-52116156D01*
X73485065Y-52294952D01*
X73485068Y-52294962D01*
X73554831Y-52463387D01*
X73554833Y-52463391D01*
X73656113Y-52614967D01*
X73656119Y-52614975D01*
X73785022Y-52743878D01*
X73785025Y-52743880D01*
X73785028Y-52743883D01*
X73794389Y-52750138D01*
X73839194Y-52803746D01*
X73849500Y-52853240D01*
X73849500Y-54278846D01*
X73880261Y-54433489D01*
X73880264Y-54433501D01*
X73940602Y-54579172D01*
X73940609Y-54579185D01*
X74028210Y-54710288D01*
X74028213Y-54710292D01*
X74489707Y-55171786D01*
X74489711Y-55171789D01*
X74620814Y-55259390D01*
X74620818Y-55259392D01*
X74620821Y-55259394D01*
X74766503Y-55319738D01*
X74766811Y-55319799D01*
X74766956Y-55319875D01*
X74772333Y-55321506D01*
X74772023Y-55322525D01*
X74828723Y-55352183D01*
X74863299Y-55412897D01*
X74859561Y-55482667D01*
X74858807Y-55484745D01*
X74855908Y-55492516D01*
X74852307Y-55526017D01*
X74849501Y-55552123D01*
X74849500Y-55552135D01*
X74849500Y-55993060D01*
X74829815Y-56060099D01*
X74777011Y-56105854D01*
X74707853Y-56115798D01*
X74644297Y-56086773D01*
X74637819Y-56080741D01*
X70236819Y-51679741D01*
X70203334Y-51618418D01*
X70200500Y-51592060D01*
X70200500Y-48438781D01*
X70220185Y-48371742D01*
X70272989Y-48325987D01*
X70342147Y-48316043D01*
X70405703Y-48345068D01*
G37*
%TD.AperFunction*%
%TA.AperFunction,Conductor*%
G36*
X75084099Y-46170185D02*
G01*
X75104741Y-46186819D01*
X75458181Y-46540259D01*
X75491666Y-46601582D01*
X75494500Y-46627940D01*
X75494500Y-48282820D01*
X75494501Y-48282826D01*
X75500908Y-48342433D01*
X75551202Y-48477278D01*
X75551206Y-48477285D01*
X75637452Y-48592494D01*
X75637455Y-48592497D01*
X75752664Y-48678743D01*
X75752671Y-48678747D01*
X75771863Y-48685905D01*
X75887517Y-48729041D01*
X75947127Y-48735450D01*
X76152008Y-48735449D01*
X76219048Y-48755133D01*
X76239690Y-48771768D01*
X78289707Y-50821786D01*
X78289711Y-50821789D01*
X78420814Y-50909390D01*
X78420818Y-50909392D01*
X78420821Y-50909394D01*
X78566503Y-50969738D01*
X78721153Y-51000499D01*
X78721157Y-51000500D01*
X78721158Y-51000500D01*
X80617060Y-51000500D01*
X80684099Y-51020185D01*
X80704741Y-51036819D01*
X81928211Y-52260289D01*
X81985400Y-52317478D01*
X82039712Y-52371790D01*
X82170814Y-52459390D01*
X82170827Y-52459397D01*
X82316498Y-52519735D01*
X82316503Y-52519737D01*
X82436163Y-52543539D01*
X82471153Y-52550499D01*
X82471156Y-52550500D01*
X82471158Y-52550500D01*
X84867060Y-52550500D01*
X84934099Y-52570185D01*
X84954741Y-52586819D01*
X85663181Y-53295259D01*
X85696666Y-53356582D01*
X85699500Y-53382940D01*
X85699500Y-54466409D01*
X85679815Y-54533448D01*
X85627011Y-54579203D01*
X85557853Y-54589147D01*
X85536496Y-54584115D01*
X85521673Y-54579203D01*
X85387753Y-54534826D01*
X85387751Y-54534825D01*
X85286678Y-54524500D01*
X84713330Y-54524500D01*
X84713312Y-54524501D01*
X84612247Y-54534825D01*
X84448484Y-54589092D01*
X84448474Y-54589097D01*
X84425069Y-54603533D01*
X84357676Y-54621972D01*
X84291013Y-54601048D01*
X84256873Y-54566884D01*
X84218881Y-54510025D01*
X84089975Y-54381119D01*
X84089967Y-54381113D01*
X83938391Y-54279833D01*
X83938387Y-54279831D01*
X83769962Y-54210068D01*
X83769952Y-54210065D01*
X83591156Y-54174500D01*
X83591154Y-54174500D01*
X83408846Y-54174500D01*
X83408844Y-54174500D01*
X83230047Y-54210065D01*
X83230037Y-54210068D01*
X83061612Y-54279831D01*
X83061608Y-54279833D01*
X82910032Y-54381113D01*
X82910024Y-54381119D01*
X82781119Y-54510024D01*
X82781113Y-54510032D01*
X82679833Y-54661608D01*
X82679831Y-54661612D01*
X82610068Y-54830037D01*
X82610065Y-54830047D01*
X82574500Y-55008843D01*
X82574500Y-55008846D01*
X82574500Y-55191154D01*
X82574500Y-55191156D01*
X82574499Y-55191156D01*
X82610065Y-55369952D01*
X82610068Y-55369962D01*
X82645933Y-55456548D01*
X82653402Y-55526017D01*
X82622127Y-55588496D01*
X82562037Y-55624148D01*
X82531372Y-55628000D01*
X79874997Y-55628000D01*
X79803059Y-55633144D01*
X79665005Y-55673682D01*
X79543969Y-55751467D01*
X79543965Y-55751471D01*
X79449750Y-55860200D01*
X79449743Y-55860210D01*
X79398685Y-55972012D01*
X79352930Y-56024816D01*
X79285891Y-56044500D01*
X77474499Y-56044500D01*
X77407460Y-56024815D01*
X77361705Y-55972011D01*
X77350499Y-55920500D01*
X77350499Y-55552129D01*
X77350498Y-55552123D01*
X77350497Y-55552116D01*
X77344091Y-55492517D01*
X77293796Y-55357669D01*
X77293794Y-55357666D01*
X77290696Y-55349360D01*
X77292426Y-55348714D01*
X77279902Y-55291163D01*
X77291691Y-55251011D01*
X77290696Y-55250640D01*
X77293794Y-55242333D01*
X77293796Y-55242331D01*
X77344091Y-55107483D01*
X77350500Y-55047873D01*
X77350499Y-54535962D01*
X77370183Y-54468925D01*
X77422987Y-54423170D01*
X77492146Y-54413226D01*
X77539595Y-54430425D01*
X77548484Y-54435908D01*
X77712247Y-54490174D01*
X77813323Y-54500500D01*
X78386676Y-54500499D01*
X78386684Y-54500498D01*
X78386687Y-54500498D01*
X78442030Y-54494844D01*
X78487753Y-54490174D01*
X78651516Y-54435908D01*
X78686605Y-54414265D01*
X78739790Y-54381461D01*
X78804886Y-54363000D01*
X79095114Y-54363000D01*
X79160210Y-54381461D01*
X79248477Y-54435904D01*
X79248478Y-54435904D01*
X79248484Y-54435908D01*
X79412247Y-54490174D01*
X79513323Y-54500500D01*
X80086676Y-54500499D01*
X80086684Y-54500498D01*
X80086687Y-54500498D01*
X80142030Y-54494844D01*
X80187753Y-54490174D01*
X80351516Y-54435908D01*
X80378990Y-54418961D01*
X80395547Y-54414265D01*
X80409152Y-54405523D01*
X80444087Y-54400500D01*
X80444901Y-54400500D01*
X80511940Y-54420185D01*
X80513791Y-54421398D01*
X80661609Y-54520166D01*
X80661612Y-54520168D01*
X80828024Y-54589097D01*
X80830042Y-54589933D01*
X80830046Y-54589933D01*
X80830047Y-54589934D01*
X81008843Y-54625500D01*
X81008846Y-54625500D01*
X81191156Y-54625500D01*
X81314080Y-54601048D01*
X81369958Y-54589933D01*
X81482245Y-54543422D01*
X81538387Y-54520168D01*
X81538391Y-54520166D01*
X81664492Y-54435908D01*
X81689972Y-54418883D01*
X81818883Y-54289972D01*
X81882558Y-54194675D01*
X81920166Y-54138391D01*
X81920168Y-54138387D01*
X81943422Y-54082245D01*
X81989933Y-53969958D01*
X82014974Y-53844071D01*
X82025500Y-53791156D01*
X82025500Y-53608843D01*
X81989934Y-53430047D01*
X81989933Y-53430046D01*
X81989933Y-53430042D01*
X81949148Y-53331578D01*
X81920168Y-53261612D01*
X81920166Y-53261608D01*
X81818886Y-53110032D01*
X81818880Y-53110024D01*
X81689974Y-52981118D01*
X81593578Y-52916709D01*
X81574787Y-52901288D01*
X81474036Y-52800536D01*
X81361736Y-52725500D01*
X81326547Y-52701987D01*
X81236013Y-52664487D01*
X81232294Y-52662946D01*
X81232291Y-52662945D01*
X81162666Y-52634105D01*
X81162658Y-52634103D01*
X80988696Y-52599500D01*
X80988692Y-52599500D01*
X80988691Y-52599500D01*
X80565682Y-52599500D01*
X80500585Y-52581039D01*
X80498351Y-52579661D01*
X80498350Y-52579660D01*
X80386180Y-52510473D01*
X80351518Y-52489093D01*
X80351513Y-52489091D01*
X80331831Y-52482569D01*
X80187753Y-52434826D01*
X80187751Y-52434825D01*
X80086678Y-52424500D01*
X79513330Y-52424500D01*
X79513312Y-52424501D01*
X79412247Y-52434825D01*
X79248484Y-52489092D01*
X79248477Y-52489095D01*
X79160210Y-52543539D01*
X79095114Y-52562000D01*
X78804886Y-52562000D01*
X78739790Y-52543539D01*
X78651522Y-52489095D01*
X78651517Y-52489093D01*
X78651516Y-52489092D01*
X78487753Y-52434826D01*
X78487751Y-52434825D01*
X78386678Y-52424500D01*
X77813330Y-52424500D01*
X77813312Y-52424501D01*
X77712247Y-52434825D01*
X77548484Y-52489092D01*
X77548479Y-52489094D01*
X77509790Y-52512958D01*
X77490002Y-52518372D01*
X77472082Y-52528356D01*
X77456987Y-52527405D01*
X77442398Y-52531397D01*
X77422825Y-52525253D01*
X77402350Y-52523964D01*
X77390164Y-52515002D01*
X77375734Y-52510473D01*
X77362589Y-52494723D01*
X77346063Y-52482569D01*
X77333621Y-52460013D01*
X77330966Y-52456831D01*
X77328886Y-52451737D01*
X77328691Y-52451228D01*
X77293796Y-52357669D01*
X77291936Y-52355184D01*
X77287778Y-52344319D01*
X77285628Y-52317478D01*
X77279902Y-52291163D01*
X77282745Y-52281477D01*
X77282201Y-52274673D01*
X77287836Y-52264140D01*
X77291691Y-52251011D01*
X77290696Y-52250640D01*
X77293794Y-52242333D01*
X77293796Y-52242331D01*
X77344091Y-52107483D01*
X77350500Y-52047873D01*
X77350499Y-51052128D01*
X77344091Y-50992517D01*
X77343449Y-50990797D01*
X77293797Y-50857671D01*
X77293793Y-50857664D01*
X77207547Y-50742455D01*
X77207544Y-50742452D01*
X77092335Y-50656206D01*
X77092328Y-50656202D01*
X76957482Y-50605908D01*
X76957483Y-50605908D01*
X76897883Y-50599501D01*
X76897881Y-50599500D01*
X76897873Y-50599500D01*
X76897865Y-50599500D01*
X75630940Y-50599500D01*
X75563901Y-50579815D01*
X75543259Y-50563181D01*
X74608292Y-49628213D01*
X74608288Y-49628210D01*
X74477185Y-49540609D01*
X74477172Y-49540602D01*
X74331501Y-49480264D01*
X74331489Y-49480261D01*
X74176845Y-49449500D01*
X74176842Y-49449500D01*
X73555438Y-49449500D01*
X73494370Y-49431568D01*
X73493763Y-49432706D01*
X73488385Y-49429831D01*
X73319958Y-49360067D01*
X73319952Y-49360065D01*
X73141156Y-49324500D01*
X73141154Y-49324500D01*
X72958846Y-49324500D01*
X72958844Y-49324500D01*
X72780047Y-49360065D01*
X72780037Y-49360068D01*
X72611614Y-49429831D01*
X72593390Y-49442008D01*
X72526713Y-49462885D01*
X72459332Y-49444400D01*
X72412643Y-49392421D01*
X72400500Y-49338905D01*
X72400500Y-48859449D01*
X72420185Y-48792410D01*
X72472989Y-48746655D01*
X72524500Y-48735449D01*
X72662871Y-48735449D01*
X72662872Y-48735449D01*
X72722483Y-48729041D01*
X72857331Y-48678746D01*
X72972546Y-48592496D01*
X73058796Y-48477281D01*
X73109091Y-48342433D01*
X73115500Y-48282823D01*
X73115499Y-46487078D01*
X73109091Y-46427467D01*
X73080204Y-46350016D01*
X73068201Y-46317833D01*
X73063217Y-46248141D01*
X73096703Y-46186818D01*
X73158026Y-46153334D01*
X73184383Y-46150500D01*
X75017060Y-46150500D01*
X75084099Y-46170185D01*
G37*
%TD.AperFunction*%
%TA.AperFunction,Conductor*%
G36*
X95556922Y-20201280D02*
G01*
X95647266Y-20211459D01*
X95674331Y-20217636D01*
X95753540Y-20245352D01*
X95778553Y-20257398D01*
X95849606Y-20302043D01*
X95871313Y-20319355D01*
X95930644Y-20378686D01*
X95947957Y-20400395D01*
X95992600Y-20471444D01*
X96004648Y-20496462D01*
X96032362Y-20575666D01*
X96038540Y-20602735D01*
X96048720Y-20693076D01*
X96049500Y-20706961D01*
X96049500Y-35468059D01*
X96029815Y-35535098D01*
X95977011Y-35580853D01*
X95907853Y-35590797D01*
X95844297Y-35561772D01*
X95837819Y-35555740D01*
X95760292Y-35478213D01*
X95760288Y-35478210D01*
X95629185Y-35390609D01*
X95629172Y-35390602D01*
X95483501Y-35330264D01*
X95483489Y-35330261D01*
X95328845Y-35299500D01*
X95328842Y-35299500D01*
X94855438Y-35299500D01*
X94794370Y-35281568D01*
X94793763Y-35282706D01*
X94788385Y-35279831D01*
X94619958Y-35210067D01*
X94619952Y-35210065D01*
X94441156Y-35174500D01*
X94441154Y-35174500D01*
X94258846Y-35174500D01*
X94258844Y-35174500D01*
X94080047Y-35210065D01*
X94080037Y-35210068D01*
X93911612Y-35279831D01*
X93911608Y-35279833D01*
X93760032Y-35381113D01*
X93760024Y-35381119D01*
X93631119Y-35510024D01*
X93631113Y-35510032D01*
X93529833Y-35661608D01*
X93529833Y-35661609D01*
X93494026Y-35748056D01*
X93450185Y-35802459D01*
X93383891Y-35824524D01*
X93316191Y-35807245D01*
X93291784Y-35788284D01*
X92836819Y-35333319D01*
X92803334Y-35271996D01*
X92800500Y-35245638D01*
X92800500Y-34566306D01*
X92800499Y-34566304D01*
X92765896Y-34392341D01*
X92765893Y-34392332D01*
X92698016Y-34228459D01*
X92698009Y-34228446D01*
X92599465Y-34080966D01*
X92599464Y-34080965D01*
X92474035Y-33955536D01*
X92474032Y-33955533D01*
X92424316Y-33905815D01*
X92390832Y-33844492D01*
X92390832Y-33844487D01*
X92388356Y-33821462D01*
X92388159Y-33821473D01*
X92387998Y-33818313D01*
X92377674Y-33717247D01*
X92366160Y-33682500D01*
X92323408Y-33553484D01*
X92293961Y-33505742D01*
X92289265Y-33489184D01*
X92280523Y-33475581D01*
X92275500Y-33440646D01*
X92275500Y-33309883D01*
X92293961Y-33244787D01*
X92348408Y-33156516D01*
X92402674Y-32992753D01*
X92413000Y-32891677D01*
X92412999Y-32318324D01*
X92407925Y-32268656D01*
X92401986Y-32210512D01*
X92402247Y-32210485D01*
X92400500Y-32193967D01*
X92400500Y-31862230D01*
X92420185Y-31795191D01*
X92436819Y-31774549D01*
X92442712Y-31768656D01*
X92534814Y-31619334D01*
X92589999Y-31452797D01*
X92600500Y-31350009D01*
X92600499Y-30349992D01*
X92594098Y-30287334D01*
X92589999Y-30247203D01*
X92589998Y-30247200D01*
X92570404Y-30188069D01*
X92534814Y-30080666D01*
X92442712Y-29931344D01*
X92423549Y-29912181D01*
X92390064Y-29850858D01*
X92395048Y-29781166D01*
X92436920Y-29725233D01*
X92502384Y-29700816D01*
X92511230Y-29700500D01*
X93738693Y-29700500D01*
X93738694Y-29700499D01*
X93912666Y-29665895D01*
X93994606Y-29631953D01*
X94076547Y-29598013D01*
X94202227Y-29514036D01*
X94224036Y-29499464D01*
X95124788Y-28598709D01*
X95143568Y-28583296D01*
X95239972Y-28518883D01*
X95368883Y-28389972D01*
X95470167Y-28238389D01*
X95477024Y-28221836D01*
X95519128Y-28120185D01*
X95539933Y-28069958D01*
X95559783Y-27970166D01*
X95575500Y-27891156D01*
X95575500Y-27708843D01*
X95539934Y-27530047D01*
X95539933Y-27530046D01*
X95539933Y-27530042D01*
X95494335Y-27419958D01*
X95470168Y-27361612D01*
X95470166Y-27361608D01*
X95368886Y-27210032D01*
X95368880Y-27210024D01*
X95239975Y-27081119D01*
X95239967Y-27081113D01*
X95088391Y-26979833D01*
X95088387Y-26979831D01*
X94919962Y-26910068D01*
X94919952Y-26910065D01*
X94741156Y-26874500D01*
X94741154Y-26874500D01*
X94558846Y-26874500D01*
X94558844Y-26874500D01*
X94380047Y-26910065D01*
X94380037Y-26910068D01*
X94211612Y-26979831D01*
X94211608Y-26979833D01*
X94060032Y-27081113D01*
X94060024Y-27081119D01*
X93931119Y-27210024D01*
X93931116Y-27210028D01*
X93866707Y-27306423D01*
X93851286Y-27325213D01*
X93313319Y-27863181D01*
X93251996Y-27896666D01*
X93225638Y-27899500D01*
X91820846Y-27899500D01*
X91811094Y-27896636D01*
X91801011Y-27897903D01*
X91778134Y-27886958D01*
X91753807Y-27879815D01*
X91747153Y-27872136D01*
X91737983Y-27867749D01*
X91724653Y-27846170D01*
X91708052Y-27827011D01*
X91706605Y-27816952D01*
X91701264Y-27808305D01*
X91701716Y-27782949D01*
X91698108Y-27757853D01*
X91702362Y-27746749D01*
X91702511Y-27738447D01*
X91717744Y-27706609D01*
X91782472Y-27609737D01*
X91796735Y-27588391D01*
X91818013Y-27556547D01*
X91839704Y-27504179D01*
X91885895Y-27392666D01*
X91920500Y-27218691D01*
X91920500Y-27041308D01*
X91920500Y-25781591D01*
X91940185Y-25714552D01*
X91985076Y-25672757D01*
X91992323Y-25668798D01*
X91992331Y-25668796D01*
X92107546Y-25582546D01*
X92193796Y-25467331D01*
X92244091Y-25332483D01*
X92249823Y-25279162D01*
X92276560Y-25214615D01*
X92333952Y-25174767D01*
X92403777Y-25172273D01*
X92463866Y-25207925D01*
X92473430Y-25219536D01*
X92548028Y-25322212D01*
X92548032Y-25322217D01*
X92692786Y-25466971D01*
X92830756Y-25567210D01*
X92858390Y-25587287D01*
X92971609Y-25644975D01*
X93040776Y-25680218D01*
X93040778Y-25680218D01*
X93040781Y-25680220D01*
X93086839Y-25695185D01*
X93235465Y-25743477D01*
X93311375Y-25755500D01*
X93437648Y-25775500D01*
X93437649Y-25775500D01*
X93642351Y-25775500D01*
X93642352Y-25775500D01*
X93844534Y-25743477D01*
X94039219Y-25680220D01*
X94221610Y-25587287D01*
X94354677Y-25490609D01*
X94387213Y-25466971D01*
X94387215Y-25466968D01*
X94387219Y-25466966D01*
X94531966Y-25322219D01*
X94531968Y-25322215D01*
X94531971Y-25322213D01*
X94610144Y-25214615D01*
X94652287Y-25156610D01*
X94745220Y-24974219D01*
X94808477Y-24779534D01*
X94840500Y-24577352D01*
X94840500Y-24372648D01*
X94829897Y-24305703D01*
X94808477Y-24170465D01*
X94779127Y-24080137D01*
X94745220Y-23975781D01*
X94745218Y-23975778D01*
X94745218Y-23975776D01*
X94711503Y-23909607D01*
X94652287Y-23793390D01*
X94618221Y-23746502D01*
X94531971Y-23627786D01*
X94387213Y-23483028D01*
X94221613Y-23362715D01*
X94221612Y-23362714D01*
X94221610Y-23362713D01*
X94133240Y-23317686D01*
X94039223Y-23269781D01*
X93844534Y-23206522D01*
X93669995Y-23178878D01*
X93642352Y-23174500D01*
X93437648Y-23174500D01*
X93413329Y-23178351D01*
X93235465Y-23206522D01*
X93040776Y-23269781D01*
X92858386Y-23362715D01*
X92692786Y-23483028D01*
X92548032Y-23627782D01*
X92548028Y-23627787D01*
X92473430Y-23730463D01*
X92418100Y-23773129D01*
X92348487Y-23779108D01*
X92286692Y-23746502D01*
X92252334Y-23685664D01*
X92249822Y-23670831D01*
X92244091Y-23617516D01*
X92193797Y-23482671D01*
X92193793Y-23482664D01*
X92107547Y-23367455D01*
X92107544Y-23367452D01*
X91992335Y-23281206D01*
X91992328Y-23281202D01*
X91857482Y-23230908D01*
X91857483Y-23230908D01*
X91797883Y-23224501D01*
X91797881Y-23224500D01*
X91797873Y-23224500D01*
X91797864Y-23224500D01*
X90202129Y-23224500D01*
X90202123Y-23224501D01*
X90142516Y-23230908D01*
X90007671Y-23281202D01*
X90007664Y-23281206D01*
X89892455Y-23367452D01*
X89892452Y-23367455D01*
X89806206Y-23482664D01*
X89806202Y-23482671D01*
X89755908Y-23617516D01*
X89750176Y-23670834D01*
X89723438Y-23735385D01*
X89666045Y-23775233D01*
X89596220Y-23777726D01*
X89536131Y-23742073D01*
X89526569Y-23730463D01*
X89451971Y-23627786D01*
X89307213Y-23483028D01*
X89141613Y-23362715D01*
X89141612Y-23362714D01*
X89141610Y-23362713D01*
X89053240Y-23317686D01*
X88959223Y-23269781D01*
X88764534Y-23206522D01*
X88589995Y-23178878D01*
X88562352Y-23174500D01*
X88357648Y-23174500D01*
X88333329Y-23178351D01*
X88155465Y-23206522D01*
X87960776Y-23269781D01*
X87778386Y-23362715D01*
X87612786Y-23483028D01*
X87468028Y-23627786D01*
X87347715Y-23793386D01*
X87254781Y-23975776D01*
X87191522Y-24170465D01*
X87159500Y-24372648D01*
X87159500Y-24577351D01*
X87191522Y-24779534D01*
X87254781Y-24974223D01*
X87347715Y-25156613D01*
X87468028Y-25322213D01*
X87612786Y-25466971D01*
X87750756Y-25567210D01*
X87778390Y-25587287D01*
X87891609Y-25644975D01*
X87960776Y-25680218D01*
X87960778Y-25680218D01*
X87960781Y-25680220D01*
X88006839Y-25695185D01*
X88155465Y-25743477D01*
X88231375Y-25755500D01*
X88357648Y-25775500D01*
X88357649Y-25775500D01*
X88562351Y-25775500D01*
X88562352Y-25775500D01*
X88764534Y-25743477D01*
X88959219Y-25680220D01*
X89141610Y-25587287D01*
X89274677Y-25490609D01*
X89307213Y-25466971D01*
X89307215Y-25466968D01*
X89307219Y-25466966D01*
X89451966Y-25322219D01*
X89526568Y-25219536D01*
X89581898Y-25176870D01*
X89651511Y-25170891D01*
X89713306Y-25203496D01*
X89747664Y-25264334D01*
X89750177Y-25279166D01*
X89755909Y-25332483D01*
X89806202Y-25467328D01*
X89806206Y-25467335D01*
X89892452Y-25582544D01*
X89892455Y-25582547D01*
X90007664Y-25668793D01*
X90007669Y-25668796D01*
X90038832Y-25680419D01*
X90094765Y-25722288D01*
X90119184Y-25787752D01*
X90119500Y-25796601D01*
X90119500Y-26705638D01*
X90099815Y-26772677D01*
X90083181Y-26793319D01*
X88650534Y-28225966D01*
X86900538Y-29975960D01*
X86900537Y-29975961D01*
X86892937Y-29987336D01*
X86868416Y-30024035D01*
X86801987Y-30123453D01*
X86782367Y-30170821D01*
X86779219Y-30178420D01*
X86779216Y-30178426D01*
X86734105Y-30287333D01*
X86734103Y-30287341D01*
X86700260Y-30457479D01*
X86700261Y-30457480D01*
X86699500Y-30461305D01*
X86699500Y-31775637D01*
X86679815Y-31842676D01*
X86663181Y-31863318D01*
X85587181Y-32939318D01*
X85525858Y-32972803D01*
X85456166Y-32967819D01*
X85400233Y-32925947D01*
X85375816Y-32860483D01*
X85375500Y-32851637D01*
X85375500Y-32665843D01*
X85341979Y-32497326D01*
X85348206Y-32427734D01*
X85375915Y-32385453D01*
X85421657Y-32339711D01*
X85492712Y-32268656D01*
X85584814Y-32119334D01*
X85639999Y-31952797D01*
X85650500Y-31850009D01*
X85650499Y-31049992D01*
X85642838Y-30975000D01*
X85639999Y-30947203D01*
X85639998Y-30947200D01*
X85638471Y-30942592D01*
X85584814Y-30780666D01*
X85492712Y-30631344D01*
X85399049Y-30537681D01*
X85365564Y-30476358D01*
X85370548Y-30406666D01*
X85399049Y-30362319D01*
X85411388Y-30349980D01*
X85492712Y-30268656D01*
X85584814Y-30119334D01*
X85639999Y-29952797D01*
X85650500Y-29850009D01*
X85650499Y-29049992D01*
X85639999Y-28947203D01*
X85584814Y-28780666D01*
X85509864Y-28659152D01*
X85491425Y-28591762D01*
X85512348Y-28525099D01*
X85538496Y-28496789D01*
X85543643Y-28492718D01*
X85543655Y-28492711D01*
X85667711Y-28368655D01*
X85759814Y-28219334D01*
X85814999Y-28052797D01*
X85825500Y-27950008D01*
X85825500Y-27398361D01*
X85845185Y-27331322D01*
X85897989Y-27285567D01*
X85967147Y-27275623D01*
X86030703Y-27304648D01*
X86037181Y-27310680D01*
X86351287Y-27624786D01*
X86366705Y-27643572D01*
X86391816Y-27681153D01*
X86431118Y-27739974D01*
X86560024Y-27868880D01*
X86560032Y-27868886D01*
X86711608Y-27970166D01*
X86711612Y-27970168D01*
X86880037Y-28039931D01*
X86880042Y-28039933D01*
X86880046Y-28039933D01*
X86880047Y-28039934D01*
X87058843Y-28075500D01*
X87058846Y-28075500D01*
X87241156Y-28075500D01*
X87361445Y-28051572D01*
X87419958Y-28039933D01*
X87588389Y-27970167D01*
X87588391Y-27970166D01*
X87696540Y-27897903D01*
X87739972Y-27868883D01*
X87868883Y-27739972D01*
X87940077Y-27633422D01*
X87970166Y-27588391D01*
X87970168Y-27588387D01*
X88039931Y-27419962D01*
X88039933Y-27419958D01*
X88075500Y-27241154D01*
X88075500Y-27058846D01*
X88075500Y-27058843D01*
X88039934Y-26880047D01*
X88039933Y-26880046D01*
X88039933Y-26880042D01*
X88039174Y-26878209D01*
X87970168Y-26711612D01*
X87970166Y-26711608D01*
X87868886Y-26560032D01*
X87868880Y-26560024D01*
X87739974Y-26431118D01*
X87708299Y-26409954D01*
X87643572Y-26366705D01*
X87624786Y-26351287D01*
X86836541Y-25563040D01*
X86836537Y-25563037D01*
X86836536Y-25563036D01*
X86809011Y-25544644D01*
X86790225Y-25529226D01*
X85861819Y-24600819D01*
X85828334Y-24539496D01*
X85825500Y-24513138D01*
X85825500Y-23949997D01*
X85825499Y-23949984D01*
X85815254Y-23849704D01*
X85814999Y-23847203D01*
X85759814Y-23680666D01*
X85757631Y-23677127D01*
X85667713Y-23531348D01*
X85667710Y-23531344D01*
X85543655Y-23407289D01*
X85543651Y-23407286D01*
X85394337Y-23315187D01*
X85394335Y-23315186D01*
X85291777Y-23281202D01*
X85227797Y-23260001D01*
X85227795Y-23260000D01*
X85125015Y-23249500D01*
X85125008Y-23249500D01*
X83774992Y-23249500D01*
X83774984Y-23249500D01*
X83672204Y-23260000D01*
X83672203Y-23260001D01*
X83505664Y-23315186D01*
X83505662Y-23315187D01*
X83356348Y-23407286D01*
X83356344Y-23407289D01*
X83293931Y-23469703D01*
X83232608Y-23503188D01*
X83162916Y-23498204D01*
X83118569Y-23469703D01*
X83043655Y-23394789D01*
X83043651Y-23394786D01*
X82894337Y-23302687D01*
X82894335Y-23302686D01*
X82795030Y-23269780D01*
X82727797Y-23247501D01*
X82727795Y-23247500D01*
X82625015Y-23237000D01*
X82625008Y-23237000D01*
X82520440Y-23237000D01*
X82453401Y-23217315D01*
X82432759Y-23200681D01*
X81910292Y-22678213D01*
X81910288Y-22678210D01*
X81779185Y-22590609D01*
X81779172Y-22590602D01*
X81633501Y-22530264D01*
X81633489Y-22530261D01*
X81478845Y-22499500D01*
X81478842Y-22499500D01*
X70778842Y-22499500D01*
X70621158Y-22499500D01*
X70621155Y-22499500D01*
X70466510Y-22530261D01*
X70466498Y-22530264D01*
X70320827Y-22590602D01*
X70320814Y-22590609D01*
X70189711Y-22678210D01*
X70189707Y-22678213D01*
X69349077Y-23518845D01*
X69089711Y-23778211D01*
X69036424Y-23831498D01*
X68978209Y-23889712D01*
X68890609Y-24020814D01*
X68890602Y-24020827D01*
X68830264Y-24166498D01*
X68830261Y-24166510D01*
X68799500Y-24321153D01*
X68799500Y-26678846D01*
X68830261Y-26833489D01*
X68830264Y-26833501D01*
X68890602Y-26979172D01*
X68890609Y-26979185D01*
X68978210Y-27110288D01*
X68978213Y-27110292D01*
X69678211Y-27810289D01*
X69735671Y-27867749D01*
X69789712Y-27921790D01*
X69897029Y-27993497D01*
X69920821Y-28009394D01*
X70023833Y-28052062D01*
X70066502Y-28069737D01*
X70221152Y-28100499D01*
X70221155Y-28100500D01*
X70221157Y-28100500D01*
X70221158Y-28100500D01*
X72285500Y-28100500D01*
X72352539Y-28120185D01*
X72398294Y-28172989D01*
X72409500Y-28224500D01*
X72409500Y-29150001D01*
X72409501Y-29150019D01*
X72420000Y-29252796D01*
X72420001Y-29252799D01*
X72475185Y-29419331D01*
X72475187Y-29419336D01*
X72491038Y-29445035D01*
X72567288Y-29568656D01*
X72691344Y-29692712D01*
X72840666Y-29784814D01*
X73007203Y-29839999D01*
X73109991Y-29850500D01*
X73910008Y-29850499D01*
X73910016Y-29850498D01*
X73910019Y-29850498D01*
X73966302Y-29844748D01*
X74012797Y-29839999D01*
X74056494Y-29825518D01*
X74126323Y-29823116D01*
X74186365Y-29858847D01*
X74217558Y-29921366D01*
X74219500Y-29943224D01*
X74219500Y-30589191D01*
X74199815Y-30656230D01*
X74183181Y-30676872D01*
X57233522Y-47626530D01*
X57172199Y-47660015D01*
X57102507Y-47655031D01*
X57046574Y-47613159D01*
X57022157Y-47547695D01*
X57021841Y-47538682D01*
X57025400Y-45186252D01*
X57025503Y-45185869D01*
X57025500Y-45120186D01*
X57025599Y-45054865D01*
X57025597Y-45054861D01*
X57025598Y-45054858D01*
X57025529Y-45054329D01*
X57025528Y-45054320D01*
X57025497Y-45054085D01*
X57024546Y-45050536D01*
X57008622Y-44991118D01*
X57008626Y-44990918D01*
X57008573Y-44990933D01*
X56991686Y-44927525D01*
X56991631Y-44927392D01*
X56991630Y-44927390D01*
X56991624Y-44927374D01*
X56991388Y-44926801D01*
X56991383Y-44926792D01*
X56958592Y-44870003D01*
X56925964Y-44813292D01*
X56925693Y-44813020D01*
X56925499Y-44812684D01*
X56925486Y-44812666D01*
X56879103Y-44766288D01*
X56879117Y-44766273D01*
X56878965Y-44766151D01*
X56844999Y-44732082D01*
X56811607Y-44670709D01*
X56816697Y-44601025D01*
X56818239Y-44597113D01*
X56819737Y-44593497D01*
X56850500Y-44438842D01*
X56850500Y-44281158D01*
X56850500Y-44281155D01*
X56850499Y-44281153D01*
X56846820Y-44262658D01*
X56819737Y-44126503D01*
X56759394Y-43980821D01*
X56743068Y-43956388D01*
X56722191Y-43889716D01*
X56740674Y-43822336D01*
X56743032Y-43818665D01*
X56759394Y-43794179D01*
X56819737Y-43648497D01*
X56850500Y-43493842D01*
X56850500Y-43336158D01*
X56850500Y-43336155D01*
X56850499Y-43336153D01*
X56833469Y-43250537D01*
X56819737Y-43181503D01*
X56806481Y-43149500D01*
X56759397Y-43035827D01*
X56759395Y-43035824D01*
X56759394Y-43035821D01*
X56756434Y-43031392D01*
X56735555Y-42964719D01*
X56754037Y-42897338D01*
X56756403Y-42893653D01*
X56759394Y-42889179D01*
X56819737Y-42743497D01*
X56850500Y-42588842D01*
X56850500Y-42431158D01*
X56850500Y-42431155D01*
X56850499Y-42431153D01*
X56835698Y-42356744D01*
X56819737Y-42276503D01*
X56787842Y-42199500D01*
X56759397Y-42130827D01*
X56759389Y-42130812D01*
X56751424Y-42118892D01*
X56730545Y-42052215D01*
X56749029Y-41984834D01*
X56751424Y-41981108D01*
X56759389Y-41969187D01*
X56759390Y-41969184D01*
X56759394Y-41969179D01*
X56819737Y-41823497D01*
X56850500Y-41668842D01*
X56850500Y-41511158D01*
X56850500Y-41511155D01*
X56850499Y-41511153D01*
X56819738Y-41356510D01*
X56819737Y-41356503D01*
X56759394Y-41210821D01*
X56749752Y-41196390D01*
X56728873Y-41129717D01*
X56747356Y-41062336D01*
X56749726Y-41058647D01*
X56759394Y-41044179D01*
X56819737Y-40898497D01*
X56850500Y-40743842D01*
X56850500Y-40586158D01*
X56850500Y-40586155D01*
X56850499Y-40586153D01*
X56819738Y-40431510D01*
X56819737Y-40431503D01*
X56819735Y-40431498D01*
X56759397Y-40285827D01*
X56759389Y-40285812D01*
X56751424Y-40273892D01*
X56730545Y-40207215D01*
X56749029Y-40139834D01*
X56751424Y-40136108D01*
X56759389Y-40124187D01*
X56759390Y-40124184D01*
X56759394Y-40124179D01*
X56761413Y-40119306D01*
X56778861Y-40077181D01*
X56819737Y-39978497D01*
X56850500Y-39823842D01*
X56850500Y-39666158D01*
X56850500Y-39666155D01*
X56850499Y-39666153D01*
X56819737Y-39511503D01*
X56759394Y-39365821D01*
X56754763Y-39358891D01*
X56733885Y-39292215D01*
X56752369Y-39224834D01*
X56754764Y-39221108D01*
X56759394Y-39214179D01*
X56819737Y-39068497D01*
X56850500Y-38913842D01*
X56850500Y-38756158D01*
X56850500Y-38756155D01*
X56850499Y-38756153D01*
X56819738Y-38601510D01*
X56819737Y-38601503D01*
X56780056Y-38505703D01*
X56759397Y-38455827D01*
X56759389Y-38455812D01*
X56751424Y-38443892D01*
X56730545Y-38377215D01*
X56749029Y-38309834D01*
X56751424Y-38306108D01*
X56759389Y-38294187D01*
X56759390Y-38294184D01*
X56759394Y-38294179D01*
X56819737Y-38148497D01*
X56850500Y-37993842D01*
X56850500Y-37836158D01*
X56850500Y-37836155D01*
X56850499Y-37836153D01*
X56819738Y-37681510D01*
X56819737Y-37681503D01*
X56783078Y-37593000D01*
X56759396Y-37535825D01*
X56759395Y-37535823D01*
X56759394Y-37535821D01*
X56749752Y-37521390D01*
X56728873Y-37454717D01*
X56747356Y-37387336D01*
X56749726Y-37383647D01*
X56759394Y-37369179D01*
X56819737Y-37223497D01*
X56850500Y-37068842D01*
X56850500Y-36911158D01*
X56850500Y-36911155D01*
X56850499Y-36911153D01*
X56840287Y-36859815D01*
X56819737Y-36756503D01*
X56759394Y-36610821D01*
X56743068Y-36586388D01*
X56722191Y-36519716D01*
X56740674Y-36452336D01*
X56743032Y-36448665D01*
X56759394Y-36424179D01*
X56819737Y-36278497D01*
X56850500Y-36123842D01*
X56850500Y-35966158D01*
X56850500Y-35966155D01*
X56850499Y-35966153D01*
X56835091Y-35888692D01*
X56819737Y-35811503D01*
X56815991Y-35802459D01*
X56759396Y-35665825D01*
X56759395Y-35665823D01*
X56759394Y-35665821D01*
X56753093Y-35656391D01*
X56732214Y-35589718D01*
X56750696Y-35522337D01*
X56753068Y-35518645D01*
X56759394Y-35509179D01*
X56819737Y-35363497D01*
X56850500Y-35208842D01*
X56850500Y-35051158D01*
X56850500Y-35051155D01*
X56850499Y-35051153D01*
X56841418Y-35005500D01*
X56819737Y-34896503D01*
X56789913Y-34824500D01*
X56759397Y-34750827D01*
X56759389Y-34750812D01*
X56751424Y-34738892D01*
X56730545Y-34672215D01*
X56749029Y-34604834D01*
X56751424Y-34601108D01*
X56759389Y-34589187D01*
X56759390Y-34589184D01*
X56759394Y-34589179D01*
X56819737Y-34443497D01*
X56850500Y-34288842D01*
X56850500Y-34131158D01*
X56850500Y-34131155D01*
X56850499Y-34131153D01*
X56819738Y-33976510D01*
X56819737Y-33976503D01*
X56811052Y-33955536D01*
X56759396Y-33830825D01*
X56759395Y-33830823D01*
X56759394Y-33830821D01*
X56749752Y-33816390D01*
X56728873Y-33749717D01*
X56747356Y-33682336D01*
X56749726Y-33678647D01*
X56759394Y-33664179D01*
X56819737Y-33518497D01*
X56850500Y-33363842D01*
X56850500Y-33206158D01*
X56850500Y-33206155D01*
X56850499Y-33206153D01*
X56848358Y-33195389D01*
X56819737Y-33051503D01*
X56803299Y-33011819D01*
X56759396Y-32905826D01*
X56759394Y-32905821D01*
X56743068Y-32881388D01*
X56722191Y-32814716D01*
X56740674Y-32747336D01*
X56743032Y-32743665D01*
X56759394Y-32719179D01*
X56819737Y-32573497D01*
X56850500Y-32418842D01*
X56850500Y-32261158D01*
X56850500Y-32261155D01*
X56850499Y-32261153D01*
X56841766Y-32217248D01*
X56819737Y-32106503D01*
X56793158Y-32042335D01*
X56759397Y-31960827D01*
X56759395Y-31960824D01*
X56759394Y-31960821D01*
X56756434Y-31956392D01*
X56735555Y-31889719D01*
X56754037Y-31822338D01*
X56756403Y-31818653D01*
X56759394Y-31814179D01*
X56760766Y-31810868D01*
X56819735Y-31668501D01*
X56819737Y-31668497D01*
X56850500Y-31513842D01*
X56850500Y-31399983D01*
X57199500Y-31399983D01*
X57199500Y-32200001D01*
X57199501Y-32200019D01*
X57210000Y-32302796D01*
X57210001Y-32302799D01*
X57265185Y-32469331D01*
X57265187Y-32469336D01*
X57289893Y-32509390D01*
X57329436Y-32573501D01*
X57357289Y-32618657D01*
X57450951Y-32712319D01*
X57484436Y-32773642D01*
X57479452Y-32843334D01*
X57450951Y-32887681D01*
X57357289Y-32981342D01*
X57265187Y-33130663D01*
X57265185Y-33130668D01*
X57243739Y-33195389D01*
X57210001Y-33297203D01*
X57210001Y-33297204D01*
X57210000Y-33297204D01*
X57199500Y-33399983D01*
X57199500Y-34200001D01*
X57199501Y-34200019D01*
X57210000Y-34302796D01*
X57210001Y-34302799D01*
X57256237Y-34442328D01*
X57265186Y-34469334D01*
X57352756Y-34611309D01*
X57357289Y-34618657D01*
X57463181Y-34724549D01*
X57496666Y-34785872D01*
X57499500Y-34812230D01*
X57499500Y-35888696D01*
X57534103Y-36062658D01*
X57534105Y-36062666D01*
X57565780Y-36139137D01*
X57565782Y-36139142D01*
X57568046Y-36144606D01*
X57601987Y-36226547D01*
X57648175Y-36295672D01*
X57651655Y-36300880D01*
X57700537Y-36374038D01*
X57700538Y-36374039D01*
X58301287Y-36974786D01*
X58316705Y-36993572D01*
X58359954Y-37058299D01*
X58381118Y-37089974D01*
X58510024Y-37218880D01*
X58510032Y-37218886D01*
X58661608Y-37320166D01*
X58661612Y-37320168D01*
X58779925Y-37369174D01*
X58830042Y-37389933D01*
X58830046Y-37389933D01*
X58830047Y-37389934D01*
X59008843Y-37425500D01*
X59008846Y-37425500D01*
X59191156Y-37425500D01*
X59311445Y-37401572D01*
X59369958Y-37389933D01*
X59538389Y-37320167D01*
X59538391Y-37320166D01*
X59613672Y-37269864D01*
X59689972Y-37218883D01*
X59818883Y-37089972D01*
X59890077Y-36983422D01*
X59920166Y-36938391D01*
X59920168Y-36938387D01*
X59952713Y-36859815D01*
X59989933Y-36769958D01*
X60010038Y-36668886D01*
X60025500Y-36591156D01*
X60025500Y-36408843D01*
X59989934Y-36230047D01*
X59989933Y-36230046D01*
X59989933Y-36230042D01*
X59985756Y-36219958D01*
X59920168Y-36061612D01*
X59920166Y-36061608D01*
X59818886Y-35910032D01*
X59818880Y-35910024D01*
X59689974Y-35781118D01*
X59640492Y-35748056D01*
X59593572Y-35716705D01*
X59574786Y-35701287D01*
X59336819Y-35463319D01*
X59303334Y-35401996D01*
X59300500Y-35375638D01*
X59300500Y-34824500D01*
X59320185Y-34757461D01*
X59372989Y-34711706D01*
X59424500Y-34700500D01*
X61787770Y-34700500D01*
X61854809Y-34720185D01*
X61875451Y-34736819D01*
X61881344Y-34742712D01*
X62030666Y-34834814D01*
X62197203Y-34889999D01*
X62299991Y-34900500D01*
X63300008Y-34900499D01*
X63300016Y-34900498D01*
X63300019Y-34900498D01*
X63356302Y-34894748D01*
X63402797Y-34889999D01*
X63569334Y-34834814D01*
X63718656Y-34742712D01*
X63724549Y-34736819D01*
X63785872Y-34703334D01*
X63812230Y-34700500D01*
X66003126Y-34700500D01*
X66003134Y-34700499D01*
X66547871Y-34700499D01*
X66547872Y-34700499D01*
X66607483Y-34694091D01*
X66742331Y-34643796D01*
X66857546Y-34557546D01*
X66943796Y-34442331D01*
X66994091Y-34307483D01*
X67000500Y-34247873D01*
X67000499Y-33152128D01*
X66996266Y-33112753D01*
X67008672Y-33043995D01*
X67056283Y-32992858D01*
X67119556Y-32975500D01*
X67692060Y-32975500D01*
X67721500Y-32984144D01*
X67751487Y-32990668D01*
X67756502Y-32994422D01*
X67759099Y-32995185D01*
X67779741Y-33011819D01*
X67913181Y-33145259D01*
X67946666Y-33206582D01*
X67949500Y-33232940D01*
X67949500Y-33319562D01*
X67931568Y-33380629D01*
X67932706Y-33381237D01*
X67929831Y-33386614D01*
X67860067Y-33555041D01*
X67860065Y-33555047D01*
X67824500Y-33733843D01*
X67824500Y-33733846D01*
X67824500Y-33916154D01*
X67824500Y-33916156D01*
X67824499Y-33916156D01*
X67860065Y-34094952D01*
X67860068Y-34094962D01*
X67929831Y-34263387D01*
X67929833Y-34263391D01*
X68031113Y-34414967D01*
X68031119Y-34414975D01*
X68160024Y-34543880D01*
X68160032Y-34543886D01*
X68311608Y-34645166D01*
X68311612Y-34645168D01*
X68445195Y-34700499D01*
X68480042Y-34714933D01*
X68480046Y-34714933D01*
X68480047Y-34714934D01*
X68658843Y-34750500D01*
X68658846Y-34750500D01*
X68841156Y-34750500D01*
X68971616Y-34724549D01*
X69019958Y-34714933D01*
X69188389Y-34645167D01*
X69188391Y-34645166D01*
X69315414Y-34560292D01*
X69339972Y-34543883D01*
X69468883Y-34414972D01*
X69519864Y-34338672D01*
X69570166Y-34263391D01*
X69570168Y-34263387D01*
X69602620Y-34185039D01*
X69639933Y-34094958D01*
X69667666Y-33955537D01*
X69675500Y-33916156D01*
X69675500Y-33733843D01*
X69639934Y-33555047D01*
X69639933Y-33555046D01*
X69639933Y-33555042D01*
X69570167Y-33386611D01*
X69570163Y-33386606D01*
X69567294Y-33381237D01*
X69568873Y-33380392D01*
X69550520Y-33321770D01*
X69550500Y-33319562D01*
X69550500Y-32771161D01*
X69550500Y-32771158D01*
X69547525Y-32756204D01*
X69519737Y-32616503D01*
X69500366Y-32569737D01*
X69475372Y-32509395D01*
X69459397Y-32470827D01*
X69459390Y-32470814D01*
X69371790Y-32339712D01*
X69320770Y-32288692D01*
X69260289Y-32228211D01*
X68938728Y-31906650D01*
X68585292Y-31553213D01*
X68585288Y-31553210D01*
X68454185Y-31465609D01*
X68454172Y-31465602D01*
X68308501Y-31405264D01*
X68308489Y-31405261D01*
X68153845Y-31374500D01*
X68153842Y-31374500D01*
X65807940Y-31374500D01*
X65740901Y-31354815D01*
X65720259Y-31338181D01*
X63686818Y-29304740D01*
X63653333Y-29243417D01*
X63650499Y-29217059D01*
X63650499Y-28802129D01*
X63650498Y-28802123D01*
X63650497Y-28802116D01*
X63644091Y-28742517D01*
X63636965Y-28723412D01*
X63593797Y-28607671D01*
X63593793Y-28607664D01*
X63507547Y-28492455D01*
X63507544Y-28492452D01*
X63392335Y-28406206D01*
X63392328Y-28406202D01*
X63257482Y-28355908D01*
X63257483Y-28355908D01*
X63197883Y-28349501D01*
X63197881Y-28349500D01*
X63197873Y-28349500D01*
X63197864Y-28349500D01*
X61602129Y-28349500D01*
X61602123Y-28349501D01*
X61542516Y-28355908D01*
X61407671Y-28406202D01*
X61407664Y-28406206D01*
X61292455Y-28492452D01*
X61292452Y-28492455D01*
X61206206Y-28607664D01*
X61206202Y-28607671D01*
X61155908Y-28742517D01*
X61151807Y-28780666D01*
X61149501Y-28802123D01*
X61149500Y-28802135D01*
X61149500Y-30397870D01*
X61149501Y-30397876D01*
X61155908Y-30457483D01*
X61206202Y-30592328D01*
X61206206Y-30592335D01*
X61292452Y-30707544D01*
X61292455Y-30707547D01*
X61407664Y-30793793D01*
X61407673Y-30793798D01*
X61518832Y-30835257D01*
X61574766Y-30877127D01*
X61599184Y-30942592D01*
X61599500Y-30951439D01*
X61599500Y-32200001D01*
X61599501Y-32200019D01*
X61610000Y-32302796D01*
X61610001Y-32302799D01*
X61665185Y-32469331D01*
X61665187Y-32469336D01*
X61689893Y-32509390D01*
X61729436Y-32573501D01*
X61757289Y-32618657D01*
X61826451Y-32687819D01*
X61859936Y-32749142D01*
X61854952Y-32818834D01*
X61813080Y-32874767D01*
X61747616Y-32899184D01*
X61738770Y-32899500D01*
X59461230Y-32899500D01*
X59394191Y-32879815D01*
X59348436Y-32827011D01*
X59338492Y-32757853D01*
X59367517Y-32694297D01*
X59373549Y-32687819D01*
X59395525Y-32665843D01*
X59442712Y-32618656D01*
X59534814Y-32469334D01*
X59589999Y-32302797D01*
X59600500Y-32200009D01*
X59600499Y-31486454D01*
X59600500Y-31486438D01*
X59600500Y-30951439D01*
X59620185Y-30884400D01*
X59672989Y-30838645D01*
X59681168Y-30835257D01*
X59792326Y-30793798D01*
X59792326Y-30793797D01*
X59792331Y-30793796D01*
X59907546Y-30707546D01*
X59993796Y-30592331D01*
X60044091Y-30457483D01*
X60044091Y-30457482D01*
X60044092Y-30457480D01*
X60047729Y-30423642D01*
X60050500Y-30397873D01*
X60050499Y-29238843D01*
X60050500Y-29238831D01*
X60050500Y-27571155D01*
X60050499Y-27571153D01*
X60041619Y-27526510D01*
X60019737Y-27416503D01*
X60019735Y-27416498D01*
X59959397Y-27270827D01*
X59959390Y-27270814D01*
X59871790Y-27139712D01*
X59831077Y-27098999D01*
X59760289Y-27028211D01*
X59659562Y-26927484D01*
X65614500Y-26927484D01*
X65614500Y-27952515D01*
X65625000Y-28055295D01*
X65625001Y-28055297D01*
X65639980Y-28100500D01*
X65680186Y-28221835D01*
X65680187Y-28221837D01*
X65772286Y-28371151D01*
X65772289Y-28371155D01*
X65896345Y-28495211D01*
X66030599Y-28578020D01*
X66077321Y-28629966D01*
X66089500Y-28683557D01*
X66089500Y-29028696D01*
X66123354Y-29198892D01*
X66124105Y-29202666D01*
X66154674Y-29276465D01*
X66191987Y-29366547D01*
X66240891Y-29439737D01*
X66244426Y-29445027D01*
X66244430Y-29445035D01*
X66290532Y-29514031D01*
X66290533Y-29514033D01*
X66290535Y-29514035D01*
X66290536Y-29514036D01*
X66353182Y-29576682D01*
X66386666Y-29638003D01*
X66389500Y-29664362D01*
X66389500Y-29940000D01*
X66389501Y-29940019D01*
X66400000Y-30042796D01*
X66400001Y-30042799D01*
X66428625Y-30129179D01*
X66455186Y-30209334D01*
X66547288Y-30358656D01*
X66671344Y-30482712D01*
X66820666Y-30574814D01*
X66987203Y-30629999D01*
X67089991Y-30640500D01*
X67890008Y-30640499D01*
X67890016Y-30640498D01*
X67890019Y-30640498D01*
X67979630Y-30631344D01*
X67992797Y-30629999D01*
X68159334Y-30574814D01*
X68308656Y-30482712D01*
X68432712Y-30358656D01*
X68524814Y-30209334D01*
X68579999Y-30042797D01*
X68590500Y-29940009D01*
X68590499Y-28939992D01*
X68586771Y-28903501D01*
X68579999Y-28837203D01*
X68579998Y-28837200D01*
X68524814Y-28670666D01*
X68432712Y-28521344D01*
X68308656Y-28397288D01*
X68305581Y-28394213D01*
X68272096Y-28332890D01*
X68277080Y-28263198D01*
X68287722Y-28241436D01*
X68299814Y-28221834D01*
X68354999Y-28055297D01*
X68365500Y-27952508D01*
X68365500Y-26927492D01*
X68354999Y-26824703D01*
X68299814Y-26658166D01*
X68239281Y-26560028D01*
X68207713Y-26508848D01*
X68207710Y-26508844D01*
X68083655Y-26384789D01*
X68083651Y-26384786D01*
X67934337Y-26292687D01*
X67934335Y-26292686D01*
X67851065Y-26265093D01*
X67767797Y-26237501D01*
X67767795Y-26237500D01*
X67665015Y-26227000D01*
X67665008Y-26227000D01*
X66314992Y-26227000D01*
X66314984Y-26227000D01*
X66212204Y-26237500D01*
X66212203Y-26237501D01*
X66045664Y-26292686D01*
X66045662Y-26292687D01*
X65896348Y-26384786D01*
X65896344Y-26384789D01*
X65772289Y-26508844D01*
X65772286Y-26508848D01*
X65680187Y-26658162D01*
X65680186Y-26658164D01*
X65625001Y-26824703D01*
X65625000Y-26824704D01*
X65614500Y-26927484D01*
X59659562Y-26927484D01*
X59610289Y-26878211D01*
X59610288Y-26878210D01*
X59610287Y-26878209D01*
X59479185Y-26790609D01*
X59479172Y-26790602D01*
X59333501Y-26730264D01*
X59333489Y-26730261D01*
X59178845Y-26699500D01*
X59178842Y-26699500D01*
X58578842Y-26699500D01*
X58421158Y-26699500D01*
X58421155Y-26699500D01*
X58266510Y-26730261D01*
X58266498Y-26730264D01*
X58120827Y-26790602D01*
X58120815Y-26790609D01*
X57989712Y-26878210D01*
X57985002Y-26882076D01*
X57983848Y-26880670D01*
X57935492Y-26907061D01*
X57935868Y-26908300D01*
X57930037Y-26910068D01*
X57761612Y-26979831D01*
X57761608Y-26979833D01*
X57610032Y-27081113D01*
X57610024Y-27081119D01*
X57481119Y-27210024D01*
X57481113Y-27210032D01*
X57379833Y-27361608D01*
X57379831Y-27361612D01*
X57310068Y-27530037D01*
X57310065Y-27530047D01*
X57274500Y-27708843D01*
X57274500Y-27708846D01*
X57274500Y-27891154D01*
X57274500Y-27891156D01*
X57274499Y-27891156D01*
X57310065Y-28069952D01*
X57310068Y-28069962D01*
X57379831Y-28238387D01*
X57379833Y-28238391D01*
X57481113Y-28389967D01*
X57481114Y-28389968D01*
X57481117Y-28389972D01*
X57575013Y-28483868D01*
X57608497Y-28545189D01*
X57603513Y-28614880D01*
X57555909Y-28742514D01*
X57555908Y-28742516D01*
X57551807Y-28780666D01*
X57549501Y-28802123D01*
X57549500Y-28802135D01*
X57549500Y-30397870D01*
X57549501Y-30397876D01*
X57555908Y-30457483D01*
X57606202Y-30592328D01*
X57606206Y-30592335D01*
X57621142Y-30612287D01*
X57645559Y-30677751D01*
X57630707Y-30746024D01*
X57586972Y-30792135D01*
X57481347Y-30857285D01*
X57481343Y-30857288D01*
X57357289Y-30981342D01*
X57265187Y-31130663D01*
X57265186Y-31130666D01*
X57210001Y-31297203D01*
X57210001Y-31297204D01*
X57210000Y-31297204D01*
X57199500Y-31399983D01*
X56850500Y-31399983D01*
X56850500Y-31356158D01*
X56850500Y-31356155D01*
X56850499Y-31356153D01*
X56838773Y-31297203D01*
X56819737Y-31201503D01*
X56819735Y-31201498D01*
X56759397Y-31055827D01*
X56759389Y-31055812D01*
X56751424Y-31043892D01*
X56730545Y-30977215D01*
X56749029Y-30909834D01*
X56751424Y-30906108D01*
X56759389Y-30894187D01*
X56759390Y-30894184D01*
X56759394Y-30894179D01*
X56819737Y-30748497D01*
X56850500Y-30593842D01*
X56850500Y-30436158D01*
X56850500Y-30436155D01*
X56850499Y-30436153D01*
X56819738Y-30281507D01*
X56819735Y-30281498D01*
X56759396Y-30135825D01*
X56759395Y-30135823D01*
X56759394Y-30135821D01*
X56749752Y-30121390D01*
X56728873Y-30054717D01*
X56747356Y-29987336D01*
X56749726Y-29983647D01*
X56759394Y-29969179D01*
X56819737Y-29823497D01*
X56850500Y-29668842D01*
X56850500Y-29511158D01*
X56850500Y-29511155D01*
X56850499Y-29511153D01*
X56832234Y-29419331D01*
X56819737Y-29356503D01*
X56798296Y-29304740D01*
X56759397Y-29210827D01*
X56759389Y-29210812D01*
X56751424Y-29198892D01*
X56730545Y-29132215D01*
X56749029Y-29064834D01*
X56751424Y-29061108D01*
X56759389Y-29049187D01*
X56759390Y-29049184D01*
X56759394Y-29049179D01*
X56819737Y-28903497D01*
X56850500Y-28748842D01*
X56850500Y-28591158D01*
X56850500Y-28591155D01*
X56850499Y-28591153D01*
X56845304Y-28565034D01*
X56819737Y-28436503D01*
X56800465Y-28389975D01*
X56759396Y-28290825D01*
X56759394Y-28290822D01*
X56759394Y-28290821D01*
X56754763Y-28283891D01*
X56733885Y-28217215D01*
X56752369Y-28149834D01*
X56754764Y-28146108D01*
X56759394Y-28139179D01*
X56819737Y-27993497D01*
X56850500Y-27838842D01*
X56850500Y-27681158D01*
X56850500Y-27681155D01*
X56850499Y-27681153D01*
X56832047Y-27588389D01*
X56819737Y-27526503D01*
X56775605Y-27419958D01*
X56759397Y-27380827D01*
X56759389Y-27380812D01*
X56751424Y-27368892D01*
X56730545Y-27302215D01*
X56749029Y-27234834D01*
X56751424Y-27231108D01*
X56759389Y-27219187D01*
X56759390Y-27219184D01*
X56759394Y-27219179D01*
X56759595Y-27218695D01*
X56816580Y-27081119D01*
X56819737Y-27073497D01*
X56850500Y-26918842D01*
X56850500Y-26761158D01*
X56850500Y-26761155D01*
X56850499Y-26761153D01*
X56844355Y-26730264D01*
X56819737Y-26606503D01*
X56784386Y-26521158D01*
X56759396Y-26460825D01*
X56759395Y-26460823D01*
X56759394Y-26460821D01*
X56749752Y-26446390D01*
X56728873Y-26379717D01*
X56747356Y-26312336D01*
X56749726Y-26308647D01*
X56759394Y-26294179D01*
X56819737Y-26148497D01*
X56850500Y-25993842D01*
X56850500Y-25836158D01*
X56850500Y-25836155D01*
X56850499Y-25836153D01*
X56849715Y-25832211D01*
X56819737Y-25681503D01*
X56817250Y-25675500D01*
X56780712Y-25587287D01*
X56759394Y-25535821D01*
X56743068Y-25511388D01*
X56722191Y-25444716D01*
X56740674Y-25377336D01*
X56743032Y-25373665D01*
X56759394Y-25349179D01*
X56819737Y-25203497D01*
X56850500Y-25048842D01*
X56850500Y-24921156D01*
X64484499Y-24921156D01*
X64520065Y-25099952D01*
X64520068Y-25099962D01*
X64589831Y-25268387D01*
X64589833Y-25268391D01*
X64691113Y-25419967D01*
X64691119Y-25419975D01*
X64820024Y-25548880D01*
X64820032Y-25548886D01*
X64971608Y-25650166D01*
X64971612Y-25650168D01*
X65081265Y-25695587D01*
X65140042Y-25719933D01*
X65140046Y-25719933D01*
X65140047Y-25719934D01*
X65318843Y-25755500D01*
X65318846Y-25755500D01*
X65501156Y-25755500D01*
X65621445Y-25731572D01*
X65679958Y-25719933D01*
X65848389Y-25650167D01*
X65906331Y-25611451D01*
X65973005Y-25590573D01*
X66040322Y-25609018D01*
X66045659Y-25612310D01*
X66045661Y-25612311D01*
X66045666Y-25612314D01*
X66212203Y-25667499D01*
X66314992Y-25678000D01*
X66314997Y-25678000D01*
X67665003Y-25678000D01*
X67665008Y-25678000D01*
X67767797Y-25667499D01*
X67934334Y-25612314D01*
X68083655Y-25520211D01*
X68207711Y-25396155D01*
X68299814Y-25246834D01*
X68354999Y-25080297D01*
X68365500Y-24977508D01*
X68365500Y-23952492D01*
X68354999Y-23849703D01*
X68299814Y-23683166D01*
X68296089Y-23677127D01*
X68207713Y-23533848D01*
X68207710Y-23533844D01*
X68083655Y-23409789D01*
X68083651Y-23409786D01*
X67934337Y-23317687D01*
X67934335Y-23317686D01*
X67824245Y-23281206D01*
X67767797Y-23262501D01*
X67767795Y-23262500D01*
X67665015Y-23252000D01*
X67665008Y-23252000D01*
X66314992Y-23252000D01*
X66314984Y-23252000D01*
X66212204Y-23262500D01*
X66212203Y-23262501D01*
X66045664Y-23317686D01*
X66045662Y-23317687D01*
X65896348Y-23409786D01*
X65896344Y-23409789D01*
X65777953Y-23528181D01*
X65716630Y-23561666D01*
X65690272Y-23564500D01*
X65686303Y-23564500D01*
X65512341Y-23599103D01*
X65512329Y-23599106D01*
X65430392Y-23633045D01*
X65430393Y-23633046D01*
X65348455Y-23666985D01*
X65260040Y-23726063D01*
X65200961Y-23765537D01*
X64935211Y-24031287D01*
X64916421Y-24046708D01*
X64820028Y-24111116D01*
X64820024Y-24111119D01*
X64691119Y-24240024D01*
X64691113Y-24240032D01*
X64589833Y-24391608D01*
X64589831Y-24391612D01*
X64520068Y-24560037D01*
X64520065Y-24560047D01*
X64484500Y-24738843D01*
X64484500Y-24738846D01*
X64484500Y-24921154D01*
X64484500Y-24921156D01*
X64484499Y-24921156D01*
X56850500Y-24921156D01*
X56850500Y-24891158D01*
X56850500Y-24891155D01*
X56850499Y-24891153D01*
X56833840Y-24807402D01*
X56819737Y-24736503D01*
X56759394Y-24590821D01*
X56749191Y-24575551D01*
X56744364Y-24563453D01*
X56742257Y-24541122D01*
X56735555Y-24519719D01*
X56739040Y-24507011D01*
X56737803Y-24493892D01*
X56748104Y-24473966D01*
X56754037Y-24452338D01*
X56756403Y-24448653D01*
X56759394Y-24444179D01*
X56819737Y-24298497D01*
X56850500Y-24143842D01*
X56850500Y-23986158D01*
X56850500Y-23986155D01*
X56850499Y-23986153D01*
X56843304Y-23949984D01*
X56819737Y-23831503D01*
X56803949Y-23793386D01*
X56759397Y-23685827D01*
X56759389Y-23685812D01*
X56751424Y-23673892D01*
X56730545Y-23607215D01*
X56749029Y-23539834D01*
X56751424Y-23536108D01*
X56759389Y-23524187D01*
X56759390Y-23524184D01*
X56759394Y-23524179D01*
X56819737Y-23378497D01*
X56850500Y-23223842D01*
X56850500Y-23066158D01*
X56850500Y-23066155D01*
X56850499Y-23066153D01*
X56819738Y-22911510D01*
X56819737Y-22911503D01*
X56759394Y-22765821D01*
X56749752Y-22751390D01*
X56728873Y-22684717D01*
X56747356Y-22617336D01*
X56749726Y-22613647D01*
X56759394Y-22599179D01*
X56819737Y-22453497D01*
X56850500Y-22298842D01*
X56850500Y-22141158D01*
X56850500Y-22141155D01*
X56850499Y-22141153D01*
X56819738Y-21986510D01*
X56819737Y-21986503D01*
X56819735Y-21986498D01*
X56759397Y-21840827D01*
X56759389Y-21840812D01*
X56751424Y-21828892D01*
X56730545Y-21762215D01*
X56749029Y-21694834D01*
X56751424Y-21691108D01*
X56759389Y-21679187D01*
X56759390Y-21679184D01*
X56759394Y-21679179D01*
X56819737Y-21533497D01*
X56850500Y-21378842D01*
X56850500Y-21221158D01*
X56844542Y-21191207D01*
X56850768Y-21121619D01*
X56878474Y-21079339D01*
X56950500Y-21007314D01*
X57016392Y-20893186D01*
X57050500Y-20765892D01*
X57050500Y-20707027D01*
X57051294Y-20693018D01*
X57061659Y-20601863D01*
X57067950Y-20574559D01*
X57070020Y-20568699D01*
X57096159Y-20494728D01*
X57108415Y-20469541D01*
X57153837Y-20398066D01*
X57171434Y-20376277D01*
X57231739Y-20316830D01*
X57253781Y-20299546D01*
X57325887Y-20255161D01*
X57351247Y-20243265D01*
X57431491Y-20216198D01*
X57458868Y-20210303D01*
X57550176Y-20201243D01*
X57562172Y-20200639D01*
X57563112Y-20200637D01*
X57623046Y-20201496D01*
X57626900Y-20200521D01*
X57638558Y-20200500D01*
X57638595Y-20200511D01*
X57638784Y-20200500D01*
X95543038Y-20200500D01*
X95556922Y-20201280D01*
G37*
%TD.AperFunction*%
%TA.AperFunction,Conductor*%
G36*
X90688464Y-35006007D02*
G01*
X90690175Y-35005565D01*
X90724929Y-35011712D01*
X90734042Y-35014710D01*
X90735984Y-35015908D01*
X90899747Y-35070174D01*
X90903901Y-35070598D01*
X90914255Y-35074005D01*
X90937774Y-35090215D01*
X90962888Y-35103820D01*
X90966173Y-35109788D01*
X90971784Y-35113656D01*
X90982804Y-35140006D01*
X90996578Y-35165031D01*
X90996114Y-35171830D01*
X90998743Y-35178115D01*
X90999500Y-35191793D01*
X90999500Y-35758696D01*
X91034103Y-35932658D01*
X91034105Y-35932666D01*
X91065660Y-36008846D01*
X91101987Y-36096547D01*
X91149857Y-36168189D01*
X91161249Y-36185238D01*
X91200537Y-36244038D01*
X91200538Y-36244039D01*
X92513181Y-37556681D01*
X92546666Y-37618004D01*
X92549500Y-37644362D01*
X92549500Y-38010701D01*
X92552401Y-38047567D01*
X92552402Y-38047573D01*
X92598254Y-38205393D01*
X92598255Y-38205396D01*
X92681917Y-38346862D01*
X92686702Y-38353031D01*
X92684256Y-38354927D01*
X92710857Y-38403642D01*
X92705873Y-38473334D01*
X92685069Y-38505703D01*
X92686702Y-38506969D01*
X92681917Y-38513137D01*
X92598255Y-38654603D01*
X92598254Y-38654606D01*
X92552402Y-38812426D01*
X92552401Y-38812432D01*
X92549500Y-38849298D01*
X92549500Y-39280701D01*
X92552401Y-39317567D01*
X92552402Y-39317573D01*
X92598254Y-39475393D01*
X92598255Y-39475396D01*
X92598256Y-39475398D01*
X92635681Y-39538681D01*
X92681917Y-39616862D01*
X92686702Y-39623031D01*
X92684256Y-39624927D01*
X92710857Y-39673642D01*
X92705873Y-39743334D01*
X92685069Y-39775703D01*
X92686702Y-39776969D01*
X92681917Y-39783137D01*
X92598255Y-39924603D01*
X92598254Y-39924606D01*
X92552402Y-40082426D01*
X92552401Y-40082432D01*
X92549500Y-40119298D01*
X92549500Y-40550701D01*
X92552401Y-40587567D01*
X92552402Y-40587573D01*
X92598254Y-40745393D01*
X92598255Y-40745396D01*
X92598256Y-40745398D01*
X92627689Y-40795167D01*
X92681917Y-40886862D01*
X92686702Y-40893031D01*
X92684256Y-40894927D01*
X92710857Y-40943642D01*
X92705873Y-41013334D01*
X92685069Y-41045703D01*
X92686702Y-41046969D01*
X92681917Y-41053137D01*
X92598255Y-41194603D01*
X92598254Y-41194606D01*
X92552402Y-41352426D01*
X92552401Y-41352432D01*
X92549500Y-41389298D01*
X92549500Y-41820701D01*
X92552401Y-41857567D01*
X92552402Y-41857573D01*
X92598254Y-42015393D01*
X92598255Y-42015396D01*
X92598256Y-42015398D01*
X92620029Y-42052215D01*
X92681917Y-42156862D01*
X92681923Y-42156870D01*
X92798129Y-42273076D01*
X92798133Y-42273079D01*
X92798135Y-42273081D01*
X92939602Y-42356744D01*
X92981224Y-42368836D01*
X93097426Y-42402597D01*
X93097429Y-42402597D01*
X93097431Y-42402598D01*
X93134306Y-42405500D01*
X93579793Y-42405500D01*
X93627245Y-42414939D01*
X93762334Y-42470894D01*
X93762336Y-42470894D01*
X93762341Y-42470896D01*
X93936304Y-42505499D01*
X93936307Y-42505500D01*
X93936309Y-42505500D01*
X94280637Y-42505500D01*
X94310073Y-42514143D01*
X94340063Y-42520667D01*
X94345080Y-42524422D01*
X94347676Y-42525185D01*
X94368318Y-42541818D01*
X94463181Y-42636680D01*
X94496666Y-42698003D01*
X94499500Y-42724362D01*
X94499500Y-46975638D01*
X94479815Y-47042677D01*
X94463181Y-47063319D01*
X94163319Y-47363181D01*
X94101996Y-47396666D01*
X94075638Y-47399500D01*
X93024362Y-47399500D01*
X92994921Y-47390855D01*
X92964935Y-47384332D01*
X92959919Y-47380577D01*
X92957323Y-47379815D01*
X92936681Y-47363181D01*
X92830858Y-47257358D01*
X92797373Y-47196035D01*
X92795181Y-47157074D01*
X92795982Y-47149232D01*
X92800500Y-47105009D01*
X92800499Y-45754992D01*
X92789999Y-45652203D01*
X92734814Y-45485666D01*
X92642712Y-45336344D01*
X92518656Y-45212288D01*
X92369334Y-45120186D01*
X92369332Y-45120185D01*
X92369330Y-45120184D01*
X92369331Y-45120184D01*
X92358867Y-45116717D01*
X92347770Y-45109872D01*
X92338446Y-45107844D01*
X92310192Y-45086693D01*
X92274035Y-45050536D01*
X90474039Y-43250538D01*
X90474038Y-43250537D01*
X90449745Y-43234305D01*
X90395793Y-43198256D01*
X90326547Y-43151987D01*
X90240878Y-43116502D01*
X90235519Y-43114282D01*
X90235515Y-43114280D01*
X90162666Y-43084105D01*
X90162658Y-43084103D01*
X89988696Y-43049500D01*
X89988692Y-43049500D01*
X89988691Y-43049500D01*
X89063691Y-43049500D01*
X88886309Y-43049500D01*
X88886306Y-43049500D01*
X88712341Y-43084103D01*
X88712332Y-43084106D01*
X88577245Y-43140061D01*
X88569068Y-43141687D01*
X88564728Y-43144477D01*
X88529793Y-43149500D01*
X88462000Y-43149500D01*
X88394961Y-43129815D01*
X88349206Y-43077011D01*
X88338000Y-43025500D01*
X88338000Y-42784313D01*
X88337999Y-42784298D01*
X88335098Y-42747432D01*
X88335097Y-42747426D01*
X88310887Y-42664095D01*
X88311086Y-42594226D01*
X88349028Y-42535556D01*
X88412666Y-42506712D01*
X88429963Y-42505500D01*
X89593693Y-42505500D01*
X89593694Y-42505499D01*
X89671956Y-42489932D01*
X89767658Y-42470896D01*
X89767661Y-42470894D01*
X89767666Y-42470894D01*
X89902755Y-42414939D01*
X89950207Y-42405500D01*
X89965686Y-42405500D01*
X89965694Y-42405500D01*
X90002569Y-42402598D01*
X90002571Y-42402597D01*
X90002573Y-42402597D01*
X90044191Y-42390505D01*
X90160398Y-42356744D01*
X90301865Y-42273081D01*
X90418081Y-42156865D01*
X90501744Y-42015398D01*
X90535505Y-41899191D01*
X90547597Y-41857573D01*
X90547598Y-41857567D01*
X90550499Y-41820701D01*
X90550500Y-41820694D01*
X90550500Y-41389306D01*
X90547598Y-41352431D01*
X90541093Y-41330042D01*
X90506456Y-41210821D01*
X90501744Y-41194602D01*
X90418081Y-41053135D01*
X90418079Y-41053133D01*
X90418076Y-41053129D01*
X90301870Y-40936923D01*
X90301862Y-40936917D01*
X90207512Y-40881119D01*
X90160398Y-40853256D01*
X90160397Y-40853255D01*
X90160396Y-40853255D01*
X90160393Y-40853254D01*
X90002573Y-40807402D01*
X90002567Y-40807401D01*
X89965701Y-40804500D01*
X89965694Y-40804500D01*
X89950207Y-40804500D01*
X89902755Y-40795061D01*
X89767667Y-40739106D01*
X89767658Y-40739103D01*
X89593694Y-40704500D01*
X89593691Y-40704500D01*
X89163691Y-40704500D01*
X88728129Y-40704500D01*
X88661090Y-40684815D01*
X88640448Y-40668181D01*
X88049448Y-40077181D01*
X88015963Y-40015858D01*
X88020947Y-39946166D01*
X88062819Y-39890233D01*
X88128283Y-39865816D01*
X88137129Y-39865500D01*
X89965686Y-39865500D01*
X89965694Y-39865500D01*
X90002569Y-39862598D01*
X90002571Y-39862597D01*
X90002573Y-39862597D01*
X90098466Y-39834737D01*
X90160398Y-39816744D01*
X90301865Y-39733081D01*
X90418081Y-39616865D01*
X90501744Y-39475398D01*
X90547598Y-39317569D01*
X90550500Y-39280694D01*
X90550500Y-38849306D01*
X90547598Y-38812431D01*
X90501744Y-38654602D01*
X90418081Y-38513135D01*
X90418079Y-38513133D01*
X90418076Y-38513129D01*
X90301870Y-38396923D01*
X90301862Y-38396917D01*
X90160396Y-38313255D01*
X90160393Y-38313254D01*
X90002573Y-38267402D01*
X90002567Y-38267401D01*
X89965701Y-38264500D01*
X89965694Y-38264500D01*
X89153842Y-38264500D01*
X88523500Y-38264500D01*
X88456461Y-38244815D01*
X88410706Y-38192011D01*
X88399500Y-38140500D01*
X88399500Y-37283940D01*
X88408144Y-37254499D01*
X88414668Y-37224513D01*
X88418422Y-37219497D01*
X88419185Y-37216901D01*
X88435819Y-37196259D01*
X88445260Y-37186818D01*
X88506583Y-37153333D01*
X88532941Y-37150499D01*
X88950002Y-37150499D01*
X88950008Y-37150499D01*
X89052797Y-37139999D01*
X89219334Y-37084814D01*
X89368656Y-36992712D01*
X89492712Y-36868656D01*
X89584814Y-36719334D01*
X89639999Y-36552797D01*
X89650500Y-36450009D01*
X89650499Y-35449992D01*
X89648150Y-35427000D01*
X89639999Y-35347203D01*
X89639998Y-35347200D01*
X89618627Y-35282706D01*
X89584814Y-35180666D01*
X89584813Y-35180664D01*
X89582542Y-35173811D01*
X89584084Y-35173299D01*
X89574898Y-35112833D01*
X89603415Y-35049048D01*
X89661890Y-35010805D01*
X89697773Y-35005500D01*
X90686174Y-35005500D01*
X90688464Y-35006007D01*
G37*
%TD.AperFunction*%
%TA.AperFunction,Conductor*%
G36*
X96000690Y-40803968D02*
G01*
X96042063Y-40860271D01*
X96049500Y-40902570D01*
X96049500Y-41376638D01*
X96029815Y-41443677D01*
X95977011Y-41489432D01*
X95907853Y-41499376D01*
X95844297Y-41470351D01*
X95837819Y-41464319D01*
X95535262Y-41161762D01*
X95501777Y-41100439D01*
X95506761Y-41030747D01*
X95548633Y-40974814D01*
X95554041Y-40970986D01*
X95575289Y-40956789D01*
X95633641Y-40898435D01*
X95689499Y-40867935D01*
X95689125Y-40866702D01*
X95694947Y-40864935D01*
X95694958Y-40864933D01*
X95863389Y-40795167D01*
X95863393Y-40795163D01*
X95867043Y-40793214D01*
X95935446Y-40778970D01*
X96000690Y-40803968D01*
G37*
%TD.AperFunction*%
%TA.AperFunction,Conductor*%
G36*
X90468833Y-29057179D02*
G01*
X90524767Y-29099050D01*
X90549184Y-29164515D01*
X90549500Y-29173361D01*
X90549500Y-29908804D01*
X90531039Y-29973900D01*
X90465189Y-30080659D01*
X90465185Y-30080668D01*
X90452372Y-30119335D01*
X90410001Y-30247203D01*
X90410001Y-30247204D01*
X90410000Y-30247204D01*
X90399500Y-30349983D01*
X90399500Y-31350001D01*
X90399501Y-31350019D01*
X90410000Y-31452796D01*
X90410001Y-31452799D01*
X90465185Y-31619331D01*
X90465186Y-31619334D01*
X90533615Y-31730277D01*
X90552055Y-31797666D01*
X90531133Y-31864330D01*
X90515759Y-31883051D01*
X90492159Y-31906650D01*
X90401593Y-32053481D01*
X90401591Y-32053486D01*
X90381239Y-32114904D01*
X90347326Y-32217247D01*
X90347326Y-32217248D01*
X90347325Y-32217248D01*
X90337000Y-32318315D01*
X90337000Y-32891669D01*
X90337001Y-32891687D01*
X90347325Y-32992752D01*
X90353644Y-33011819D01*
X90358660Y-33026958D01*
X90363478Y-33041495D01*
X90365880Y-33111324D01*
X90330149Y-33171366D01*
X90267629Y-33202559D01*
X90245772Y-33204500D01*
X88473268Y-33204500D01*
X88295884Y-33204500D01*
X88254394Y-33212752D01*
X88163922Y-33230748D01*
X88094331Y-33224519D01*
X88039154Y-33181656D01*
X88015910Y-33115766D01*
X88031978Y-33047769D01*
X88052051Y-33021449D01*
X88299462Y-32774038D01*
X88299464Y-32774036D01*
X88336122Y-32719173D01*
X88356946Y-32688008D01*
X88398011Y-32626550D01*
X88398011Y-32626549D01*
X88398013Y-32626547D01*
X88446539Y-32509394D01*
X88465895Y-32462666D01*
X88500500Y-32288692D01*
X88500500Y-32111308D01*
X88500500Y-30974360D01*
X88520185Y-30907321D01*
X88536814Y-30886684D01*
X89913826Y-29509671D01*
X89913831Y-29509668D01*
X89924034Y-29499464D01*
X89924036Y-29499464D01*
X90337819Y-29085679D01*
X90399142Y-29052195D01*
X90468833Y-29057179D01*
G37*
%TD.AperFunction*%
%TA.AperFunction,Conductor*%
G36*
X83267859Y-30061940D02*
G01*
X83312385Y-30113325D01*
X83315184Y-30119330D01*
X83315186Y-30119334D01*
X83402128Y-30260289D01*
X83407289Y-30268657D01*
X83500951Y-30362319D01*
X83534436Y-30423642D01*
X83529452Y-30493334D01*
X83500951Y-30537681D01*
X83407289Y-30631342D01*
X83315183Y-30780670D01*
X83312383Y-30786677D01*
X83266212Y-30839117D01*
X83199019Y-30858271D01*
X83132138Y-30838057D01*
X83087617Y-30786677D01*
X83084816Y-30780670D01*
X83084812Y-30780663D01*
X82992712Y-30631344D01*
X82899049Y-30537681D01*
X82865564Y-30476358D01*
X82870548Y-30406666D01*
X82899049Y-30362319D01*
X82911388Y-30349980D01*
X82992712Y-30268656D01*
X83084814Y-30119334D01*
X83084817Y-30119322D01*
X83087615Y-30113325D01*
X83133785Y-30060884D01*
X83200977Y-30041728D01*
X83267859Y-30061940D01*
G37*
%TD.AperFunction*%
%TA.AperFunction,Conductor*%
G36*
X72183494Y-24120185D02*
G01*
X72229249Y-24172989D01*
X72239193Y-24242147D01*
X72210168Y-24305703D01*
X72178457Y-24331885D01*
X72156635Y-24344485D01*
X72156632Y-24344487D01*
X72049487Y-24451632D01*
X72049485Y-24451635D01*
X71973719Y-24582863D01*
X71934500Y-24729234D01*
X71934500Y-24880766D01*
X71945322Y-24921154D01*
X71973719Y-25027136D01*
X71986254Y-25048846D01*
X72049485Y-25158365D01*
X72049487Y-25158367D01*
X72162382Y-25271262D01*
X72160517Y-25273126D01*
X72194029Y-25319008D01*
X72200964Y-25370699D01*
X72199500Y-25389295D01*
X72199500Y-26375500D01*
X72179815Y-26442539D01*
X72127011Y-26488294D01*
X72075500Y-26499500D01*
X70682940Y-26499500D01*
X70653499Y-26490855D01*
X70623513Y-26484332D01*
X70618497Y-26480577D01*
X70615901Y-26479815D01*
X70595259Y-26463181D01*
X70436819Y-26304741D01*
X70403334Y-26243418D01*
X70400500Y-26217060D01*
X70400500Y-24782940D01*
X70420185Y-24715901D01*
X70436819Y-24695259D01*
X70995259Y-24136819D01*
X71056582Y-24103334D01*
X71082940Y-24100500D01*
X72116455Y-24100500D01*
X72183494Y-24120185D01*
G37*
%TD.AperFunction*%
%TA.AperFunction,Conductor*%
G36*
X80517539Y-24120185D02*
G01*
X80563294Y-24172989D01*
X80574500Y-24224500D01*
X80574500Y-24962515D01*
X80585000Y-25065295D01*
X80585001Y-25065296D01*
X80640185Y-25231832D01*
X80681846Y-25299375D01*
X80700286Y-25366768D01*
X80679363Y-25433431D01*
X80625721Y-25478201D01*
X80623760Y-25479033D01*
X80595824Y-25490604D01*
X80595814Y-25490609D01*
X80464711Y-25578210D01*
X80464707Y-25578213D01*
X80210711Y-25832211D01*
X79579741Y-26463181D01*
X79518418Y-26496666D01*
X79492060Y-26499500D01*
X78724500Y-26499500D01*
X78657461Y-26479815D01*
X78611706Y-26427011D01*
X78600500Y-26375500D01*
X78600500Y-25389313D01*
X78600498Y-25389285D01*
X78599858Y-25381155D01*
X78599036Y-25370704D01*
X78613397Y-25302327D01*
X78638802Y-25272446D01*
X78637618Y-25271262D01*
X78689344Y-25219536D01*
X78750515Y-25158365D01*
X78826281Y-25027135D01*
X78865500Y-24880766D01*
X78865500Y-24729234D01*
X78826281Y-24582865D01*
X78823097Y-24577351D01*
X78813101Y-24560037D01*
X78750515Y-24451635D01*
X78643365Y-24344485D01*
X78621543Y-24331886D01*
X78573329Y-24281319D01*
X78560107Y-24212712D01*
X78586075Y-24147848D01*
X78642989Y-24107320D01*
X78683545Y-24100500D01*
X80450500Y-24100500D01*
X80517539Y-24120185D01*
G37*
%TD.AperFunction*%
%TD*%
M02*
