M48
; DRILL file {KiCad 9.0.2} date 2025-12-27T16:29:37+0100
; FORMAT={-:-/ absolute / inch / decimal}
; #@! TF.CreationDate,2025-12-27T16:29:37+01:00
; #@! TF.GenerationSoftware,Kicad,Pcbnew,9.0.2
; #@! TF.FileFunction,Plated,1,2,PTH
FMAT,2
INCH
; #@! TA.AperFunction,Plated,PTH,ViaDrill
T1C0.0118
; #@! TA.AperFunction,Plated,PTH,ComponentDrill
T2C0.0118
; #@! TA.AperFunction,Plated,PTH,ViaDrill
T3C0.0157
; #@! TA.AperFunction,Plated,PTH,ComponentDrill
T4C0.0236
; #@! TA.AperFunction,Plated,PTH,ComponentDrill
T5C0.0295
; #@! TA.AperFunction,Plated,PTH,ComponentDrill
T6C0.0315
; #@! TA.AperFunction,Plated,PTH,ComponentDrill
T7C0.0374
%
G90
G05
T1
X2.2579Y-1.2224
X2.2677Y-0.815
X2.2835Y-1.4646
X2.2913Y-1.2362
X2.2933Y-1.8012
X2.315Y-1.1457
X2.3711Y-2.1929
X2.3819Y-1.8858
X2.3976Y-1.1457
X2.4016Y-1.9469
X2.4055Y-1.9941
X2.4055Y-2.0531
X2.4055Y-2.1122
X2.4055Y-2.3484
X2.4055Y-2.4075
X2.4094Y-2.2894
X2.4567Y-1.6496
X2.4606Y-1.9469
X2.4646Y-1.9941
X2.4646Y-2.0531
X2.4646Y-2.2894
X2.4646Y-2.3484
X2.4646Y-2.4075
X2.4685Y-2.2303
X2.5236Y-2.2303
X2.5236Y-2.2894
X2.5236Y-2.3484
X2.5236Y-2.4075
X2.5276Y-2.1713
X2.5315Y-1.7244
X2.5512Y-0.9469
X2.5827Y-2.2894
X2.5827Y-2.3484
X2.5827Y-2.4075
X2.5886Y-1.5157
X2.5945Y-1.9469
X2.5945Y-1.9941
X2.5945Y-2.0531
X2.5945Y-2.1122
X2.6417Y-2.2894
X2.6417Y-2.3484
X2.6417Y-2.4075
X2.6535Y-1.6024
X2.6535Y-1.7283
X2.6919Y-1.9793
X2.6929Y-1.8524
X2.6929Y-2.0571
X2.7008Y-2.2303
X2.7008Y-2.2894
X2.7008Y-2.3484
X2.7008Y-2.4075
X2.7205Y-1.6762
X2.7559Y-1.3484
X2.7571Y-1.1177
X2.7598Y-2.2894
X2.7598Y-2.3484
X2.7598Y-2.4075
X2.7687Y-2.1358
X2.7717Y-1.9252
X2.7717Y-2.0236
X2.7992Y-1.7461
X2.8268Y-1.437
X2.8642Y-2.2313
X2.874Y-1.5748
X2.8799Y-2.0335
X2.8819Y-1.9252
X2.9134Y-1.1811
X2.9252Y-2.1811
X2.9331Y-2.2913
X2.935Y-2.3642
X2.9606Y-1.2933
X3.0118Y-1.1811
X3.0354Y-1.6811
X3.0404Y-1.8022
X3.0453Y-2.3425
X3.0551Y-1.9921
X3.0787Y-1.3406
X3.0906Y-1.5748
X3.095Y-2.271
X3.1102Y-1.9291
X3.1614Y-1.2402
X3.1713Y-2.4754
X3.221Y-2.145
X3.2244Y-2.7047
X3.2559Y-1.4331
X3.2564Y-2.1922
X3.2598Y-1.8661
X3.2753Y-1.1973
X3.3346Y-2.0335
X3.374Y-1.2756
X3.378Y-1.0236
X3.3839Y-2.4744
X3.3898Y-1.3799
X3.3937Y-1.8602
X3.4449Y-2.2047
X3.4547Y-2.372
X3.4803Y-1.6752
X3.4882Y-1.9803
X3.5276Y-1.2795
X3.5512Y-1.811
X3.5551Y-1.1614
X3.5846Y-2.376
X3.5866Y-1.9134
X3.6024Y-1.7244
X3.6339Y-0.9075
X3.7047Y-1.689
X3.7126Y-1.372
X3.752Y-2.3858
X3.7559Y-2.6929
X3.7598Y-0.815
X3.7707Y-1.6181
T2
X2.5705Y-2.1772
X2.5705Y-2.2205
X2.5921Y-2.1555
X2.5921Y-2.1988
X2.5921Y-2.2421
X2.6138Y-2.1772
X2.6138Y-2.2205
X2.6354Y-2.1555
X2.6354Y-2.1988
X2.6354Y-2.2421
X2.6571Y-2.1772
X2.6571Y-2.2205
X3.5768Y-1.5157
X3.5768Y-1.563
X3.5768Y-1.6102
X3.6319Y-1.5157
X3.6319Y-1.563
X3.6319Y-1.6102
T3
X2.3268Y-1.437
X2.5752Y-0.9776
X2.815Y-1.9882
X2.876Y-1.9783
X2.9222Y-2.0423
X2.9272Y-2.4449
X3.1339Y-1.6181
X3.1934Y-2.1721
X3.2879Y-2.1693
X3.3012Y-1.4154
X3.3248Y-1.2896
X3.7146Y-1.4213
X3.7569Y-1.5738
T5
X3.6102Y-1.828
X3.689Y-1.828
T6
X3.4827Y-0.9636
X3.5827Y-0.9636
X3.6827Y-0.9636
T7
X3.3307Y-2.5258
X3.4291Y-2.5258
X3.5276Y-2.5258
X3.626Y-2.5258
T4
G00X2.7984Y-0.8474
M15
G01X2.7984Y-0.8159
M16
G05
G00X2.7984Y-1.0179
M15
G01X2.7984Y-0.9746
M16
G05
G00X3.1386Y-0.8474
M15
G01X3.1386Y-0.8159
M16
G05
G00X3.1386Y-1.0179
M15
G01X3.1386Y-0.9746
M16
G05
M30
