M48
; DRILL file {KiCad 9.0.2} date 2025-06-20T21:07:34+0200
; FORMAT={-:-/ absolute / metric / decimal}
; #@! TF.CreationDate,2025-06-20T21:07:34+02:00
; #@! TF.GenerationSoftware,Kicad,Pcbnew,9.0.2
; #@! TF.FileFunction,Plated,1,2,PTH
FMAT,2
METRIC
; #@! TA.AperFunction,Plated,PTH,ViaDrill
T1C0.300
; #@! TA.AperFunction,Plated,PTH,ComponentDrill
T2C0.300
; #@! TA.AperFunction,Plated,PTH,ViaDrill
T3C0.400
; #@! TA.AperFunction,Plated,PTH,ComponentDrill
T4C0.600
; #@! TA.AperFunction,Plated,PTH,ComponentDrill
T5C0.750
; #@! TA.AperFunction,Plated,PTH,ComponentDrill
T6C0.800
; #@! TA.AperFunction,Plated,PTH,ComponentDrill
T7C0.950
%
G90
G05
T1
X36.936Y-20.837
X37.55Y-45.2
X39.85Y-26.25
X39.9Y-37.6
X42.05Y-29.35
X42.15Y-33.5
X43.0Y-45.3
X43.95Y-41.35
X46.05Y-38.45
X46.85Y-29.35
X47.3Y-32.7
X51.1Y-28.25
X51.25Y-35.15
X51.3Y-38.55
X51.925Y-43.2
X53.811Y-20.862
X58.2Y-44.25
X58.51Y-24.45
X58.92Y-33.88
X61.0Y-47.9
X61.0Y-49.45
X61.1Y-50.65
X61.1Y-52.15
X61.1Y-53.65
X61.1Y-59.65
X61.1Y-61.15
X61.2Y-58.15
X62.5Y-49.45
X62.6Y-50.65
X62.6Y-52.15
X62.6Y-58.15
X62.6Y-59.65
X62.6Y-61.15
X62.65Y-41.6
X62.7Y-56.65
X63.1Y-38.575
X64.1Y-56.65
X64.1Y-58.15
X64.1Y-59.65
X64.1Y-61.15
X64.2Y-55.15
X64.25Y-30.0
X64.53Y-24.11
X64.55Y-43.5
X64.68Y-26.26
X65.52Y-38.58
X65.6Y-58.15
X65.6Y-59.65
X65.6Y-61.15
X65.9Y-49.45
X65.9Y-50.65
X65.9Y-52.15
X65.9Y-53.65
X67.1Y-58.15
X67.1Y-59.65
X67.1Y-61.15
X67.4Y-43.75
X67.53Y-40.82
X68.4Y-47.05
X68.4Y-52.25
X68.6Y-56.65
X68.6Y-58.15
X68.6Y-59.65
X68.6Y-61.15
X69.67Y-33.66
X70.03Y-28.39
X70.1Y-58.15
X70.1Y-59.65
X70.1Y-61.15
X70.425Y-49.35
X71.1Y-44.35
X71.6Y-59.65
X71.6Y-61.15
X71.9Y-51.05
X72.8Y-56.75
X73.1Y-30.9
X73.1Y-61.15
X73.11Y-36.63
X73.15Y-51.65
X75.2Y-32.85
X75.275Y-49.35
X77.225Y-45.775
X77.6Y-50.75
X77.65Y-54.73
X78.15Y-29.85
X80.325Y-51.425
X80.35Y-31.25
X81.9Y-48.95
X82.325Y-35.9
X82.475Y-56.425
X82.5Y-63.8
X85.6Y-52.65
X85.7Y-32.4
X85.95Y-62.55
X86.1Y-27.85
X86.2Y-47.25
X86.45Y-58.25
X88.0Y-54.85
X89.2Y-32.45
X91.0Y-42.65
X92.0Y-60.95
X93.15Y-31.4
X94.3Y-34.85
X95.5Y-47.3
X95.7Y-27.05
X95.75Y-41.16
T2
X65.29Y-55.3
X65.29Y-56.4
X65.84Y-54.75
X65.84Y-55.85
X65.84Y-56.95
X66.39Y-55.3
X66.39Y-56.4
X66.94Y-54.75
X66.94Y-55.85
X66.94Y-56.95
X67.49Y-55.3
X67.49Y-56.4
X90.85Y-38.5
X90.85Y-39.7
X90.85Y-40.9
X92.25Y-38.5
X92.25Y-39.7
X92.25Y-40.9
T3
X38.0Y-43.8
X53.4Y-24.65
X59.15Y-38.35
X63.64Y-27.25
X64.7Y-31.65
X65.41Y-24.83
X66.25Y-43.8
X68.6Y-34.13
X71.18Y-50.183
X73.05Y-50.25
X74.2Y-60.55
X74.375Y-52.025
X77.8Y-56.1
X83.85Y-35.95
X84.45Y-32.757
X87.15Y-27.15
X94.35Y-36.1
X94.65Y-27.8
X95.425Y-39.975
T5
X91.95Y-46.5
X93.95Y-46.5
T6
X88.46Y-24.475
X91.0Y-24.475
X93.54Y-24.475
T7
X41.8Y-25.35
X44.3Y-25.35
X46.8Y-25.35
X49.3Y-25.35
X84.6Y-64.155
X87.1Y-64.155
X89.6Y-64.155
X92.1Y-64.155
T4
G00X71.08Y-21.525
M15
G01X71.08Y-20.725
M16
G05
G00X71.08Y-25.855
M15
G01X71.08Y-24.755
M16
G05
G00X79.72Y-21.525
M15
G01X79.72Y-20.725
M16
G05
G00X79.72Y-25.855
M15
G01X79.72Y-24.755
M16
G05
M30
